<?xml version="1.0" encoding="utf-8"?>
<!-- Generator: Adobe Illustrator 25.0.1, SVG Export Plug-In . SVG Version: 6.00 Build 0)  -->
<svg version="1.1" id="Layer_1" xmlns="http://www.w3.org/2000/svg" xmlns:xlink="http://www.w3.org/1999/xlink" x="0px" y="0px"
	 viewBox="0 0 2000 2000" style="enable-background:new 0 0 2000 2000;" xml:space="preserve">
<style type="text/css">
	.st0{fill:url(#SVGID_1_);}
	.st1{fill:#FFFFFF;}
	.st2{fill:#97CBEE;}
	.st3{clip-path:url(#SVGID_3_);fill:url(#SVGID_4_);}
	.st4{clip-path:url(#SVGID_3_);fill:url(#SVGID_5_);}
	.st5{clip-path:url(#SVGID_3_);}
	.st6{fill:url(#SVGID_6_);}
	.st7{fill:#EB214D;}
	.st8{fill:#E5E5E5;}
	.st9{fill:url(#SVGID_7_);}
	.st10{fill:url(#SVGID_8_);}
	.st11{clip-path:url(#SVGID_3_);fill:url(#SVGID_9_);}
	.st12{fill:#E6E7E8;}
	.st13{fill:url(#SVGID_10_);}
	.st14{fill:url(#SVGID_11_);}
	.st15{fill:#D1D3D4;}
	.st16{fill:url(#SVGID_12_);}
	.st17{fill:url(#SVGID_13_);}
	.st18{fill:url(#SVGID_14_);}
	.st19{fill:url(#SVGID_15_);}
	.st20{fill:url(#SVGID_16_);}
	.st21{fill:url(#SVGID_17_);}
	.st22{fill:url(#SVGID_18_);}
	.st23{fill:url(#SVGID_19_);}
	.st24{fill:url(#SVGID_20_);}
	.st25{fill:url(#SVGID_21_);}
	.st26{fill:url(#SVGID_22_);}
	.st27{opacity:0.4;fill:#FFFFFF;}
	.st28{opacity:0.4;}
	.st29{fill:url(#SVGID_23_);}
	.st30{fill:url(#SVGID_24_);}
	.st31{fill:url(#SVGID_25_);}
	.st32{fill:url(#SVGID_26_);}
	.st33{fill:url(#SVGID_27_);}
	.st34{fill:url(#SVGID_28_);}
	.st35{fill:url(#SVGID_29_);}
	.st36{fill:url(#SVGID_30_);}
	.st37{fill:#F1605E;}
	.st38{fill:url(#SVGID_31_);}
	.st39{fill:url(#SVGID_32_);}
	.st40{fill:url(#SVGID_33_);}
	.st41{fill-rule:evenodd;clip-rule:evenodd;fill:url(#SVGID_34_);}
</style>
<linearGradient id="SVGID_1_" gradientUnits="userSpaceOnUse" x1="22.4695" y1="972.4663" x2="1808.3424" y2="972.4663" gradientTransform="matrix(0.9977 6.770000e-02 -6.770000e-02 0.9977 136.1744 -12.294)">
	<stop  offset="0" style="stop-color:#272660"/>
	<stop  offset="1" style="stop-color:#1B0F2D"/>
</linearGradient>
<path class="st0" d="M1044.4,650.7C929,635.8,833.7,555.5,757.8,478.4c-15.1-11.6-30.4-22.9-46.1-33.5c-15.8-10.6-32-20.4-48.9-29.2
	c-19.3-9.6-39-18-58.9-25.2c-139-50.3-287.9-38.5-411,93.5c-15.3,14.8-28.9,31-40.3,48.4c-17.1,26.1-29.2,55-35.1,86.1
	c-2.9,15.6-4.3,31.8-3.9,48.5c-2.8,148.4,125,244.4,149.4,380.3c21.3,82-43.9,151.5-55.4,233.8c-2.6,15.8-3.9,31.5-3.6,47.2
	c0.7,31.4,8,62.4,25.7,92.7c9.9,17.4,21.8,34.4,35.4,50.6c95.9,113.4,280.7,188.5,514.1,110.7c33.4-11.1,63.8-21.5,91.9-31.3
	c28-9.8,53.7-18.9,77.2-27.6c152.8-102.3,328-100,502.4-79.7c21.8,2.5,43.6,5.4,65.4,8.3c71,15.3,141.4-14.1,197-57.7
	c114.5-97.5,174.2-240.8,160.8-391.7c-18.6-190.7-142-388.6-341.4-415.9c-23-3-46.3-3.5-69.6-1.3c-23.3,2.3-46.5,7.3-69.4,15.2
	c-21.5,6.3-42.5,14.5-62.4,24.3c-21.3,7.9-42.8,15.9-64.6,22.8c-65.2,20.7-132.1,32.1-199,5.7
	C1053.1,651.8,1044.4,650.7,1044.4,650.7z"/>
<g>
	<path class="st1" d="M411.3,1302.8c0,6.9,4.8,11.7,11.7,11.7c-6.9,0-11.7,4.8-11.7,11.7c0-6.9-4.8-11.7-11.7-11.7
		C406.5,1314.5,411.3,1309.7,411.3,1302.8z"/>
	<path class="st1" d="M331.2,1219.5c0,6.9,4.8,11.7,11.7,11.7c-6.9,0-11.7,4.8-11.7,11.7c0-6.9-4.8-11.7-11.7-11.7
		C326.4,1231.2,331.2,1226.4,331.2,1219.5z"/>
	<path class="st1" d="M288.6,1428.9c0,6.9,4.8,11.7,11.7,11.7c-6.9,0-11.7,4.8-11.7,11.7c0-6.9-4.8-11.7-11.7-11.7
		C283.9,1440.5,288.6,1435.8,288.6,1428.9z"/>
	<path class="st1" d="M616.3,1351.8c0,6.9,4.8,11.7,11.7,11.7c-6.9,0-11.7,4.8-11.7,11.7c0-6.9-4.8-11.7-11.7-11.7
		C611.5,1363.5,616.3,1358.7,616.3,1351.8z"/>
	<path class="st1" d="M494.2,1482.3c0,6.9,4.8,11.7,11.7,11.7c-6.9,0-11.7,4.8-11.7,11.7c0-6.9-4.8-11.7-11.7-11.7
		C489.4,1493.9,494.2,1489.2,494.2,1482.3z"/>
	<path class="st1" d="M563.8,1407.7c0,12.3,8.5,20.9,20.9,20.9c-12.3,0-20.9,8.5-20.9,20.9c0-12.3-8.5-20.9-20.9-20.9
		C555.3,1428.5,563.8,1420,563.8,1407.7z"/>
	<path class="st1" d="M319.5,1335.8c0,9.5,6.6,16,16.1,16c-9.5,0-16.1,6.6-16.1,16.1c0-9.5-6.6-16.1-16.1-16.1
		C312.9,1351.8,319.5,1345.3,319.5,1335.8z"/>
	<path class="st1" d="M463,1398.1c0,8.2,5.7,13.9,13.9,13.9c-8.2,0-13.9,5.7-13.9,13.9c0-8.2-5.7-13.9-13.9-13.9
		C457.3,1412,463,1406.3,463,1398.1z"/>
</g>
<g>
	<path class="st1" d="M1815.2,820.2c0,7.4,5.1,12.5,12.5,12.5c-7.4,0-12.5,5.1-12.5,12.5c0-7.4-5.1-12.5-12.5-12.5
		C1810,832.7,1815.2,827.6,1815.2,820.2z"/>
	<path class="st1" d="M1729.1,730.7c0,7.4,5.1,12.5,12.5,12.5c-7.4,0-12.5,5.1-12.5,12.5c0-7.4-5.1-12.5-12.5-12.5
		C1723.9,743.2,1729.1,738.1,1729.1,730.7z"/>
	<path class="st1" d="M1683.4,955.6c0,7.4,5.1,12.5,12.5,12.5c-7.4,0-12.5,5.1-12.5,12.5c0-7.4-5.1-12.5-12.5-12.5
		C1678.3,968.2,1683.4,963,1683.4,955.6z"/>
	<path class="st1" d="M1904.2,1013c0,7.4,5.1,12.5,12.5,12.5c-7.4,0-12.5,5.1-12.5,12.5c0-7.4-5.1-12.5-12.5-12.5
		C1899.1,1025.5,1904.2,1020.4,1904.2,1013z"/>
	<path class="st1" d="M1716.5,855.6c0,10.2,7,17.2,17.2,17.2c-10.2,0-17.2,7-17.2,17.2c0-10.2-7-17.2-17.2-17.2
		C1709.5,872.9,1716.5,865.8,1716.5,855.6z"/>
	<path class="st1" d="M1870.7,922.5c0,8.8,6.1,14.9,14.9,14.9c-8.8,0-14.9,6.1-14.9,14.9c0-8.8-6.1-14.9-14.9-14.9
		C1864.6,937.4,1870.7,931.4,1870.7,922.5z"/>
</g>
<g>
	<path class="st1" d="M613.1,588c0,7.4,5.1,12.5,12.5,12.5c-7.4,0-12.5,5.1-12.5,12.5c0-7.4-5.1-12.5-12.5-12.5
		C608,600.5,613.1,595.4,613.1,588z"/>
	<path class="st1" d="M527,498.5c0,7.4,5.1,12.5,12.5,12.5c-7.4,0-12.5,5.1-12.5,12.5c0-7.4-5.1-12.5-12.5-12.5
		C521.9,511,527,505.9,527,498.5z"/>
	<path class="st1" d="M481.3,723.4c0,7.4,5.1,12.5,12.5,12.5c-7.4,0-12.5,5.1-12.5,12.5c0-7.4-5.1-12.5-12.5-12.5
		C476.2,735.9,481.3,730.8,481.3,723.4z"/>
	<path class="st1" d="M833.4,640.6c0,7.4,5.1,12.5,12.5,12.5c-7.4,0-12.5,5.1-12.5,12.5c0-7.4-5.1-12.5-12.5-12.5
		C828.3,653.2,833.4,648.1,833.4,640.6z"/>
	<path class="st1" d="M702.2,780.8c0,7.4,5.1,12.5,12.5,12.5c-7.4,0-12.5,5.1-12.5,12.5c0-7.4-5.1-12.5-12.5-12.5
		C697,793.3,702.2,788.2,702.2,780.8z"/>
	<path class="st1" d="M777,700.6c0,13.3,9.2,22.4,22.4,22.4c-13.3,0-22.4,9.2-22.4,22.4c0-13.3-9.2-22.4-22.4-22.4
		C767.9,723,777,713.9,777,700.6z"/>
	<path class="st1" d="M514.5,623.4c0,10.2,7,17.2,17.3,17.2c-10.2,0-17.3,7-17.3,17.2c0-10.2-7-17.2-17.2-17.2
		C507.4,640.6,514.5,633.6,514.5,623.4z"/>
	<path class="st1" d="M668.7,690.3c0,8.8,6.1,14.9,14.9,14.9c-8.8,0-14.9,6.1-14.9,14.9c0-8.8-6.1-14.9-14.9-14.9
		C662.6,705.2,668.7,699.1,668.7,690.3z"/>
</g>
<path class="st2" d="M373.3,736.4c0,9.4-7.6,17.1-17.1,17.1c-9.4,0-17.1-7.6-17.1-17.1c0-9.4,7.6-17.1,17.1-17.1
	C365.7,719.3,373.3,727,373.3,736.4z"/>
<g>
	<defs>
		<path id="SVGID_2_" d="M1039.1,651.4c-115.4-14.9-210.6-95.3-286.6-172.3c-15.1-11.6-30.4-22.9-46.1-33.5
			c-15.8-10.6-32-20.4-48.9-29.2c-19.3-9.6-39-18-58.9-25.2c-139-50.3-287.9-38.5-411,93.5c-15.3,14.8-28.9,31-40.3,48.4
			c-17.1,26.1-29.2,55-35.1,86.1c-2.9,15.6-4.3,31.8-3.9,48.5C105.6,816,233.4,912,257.7,1048c21.3,82-43.9,151.5-55.4,233.8
			c-2.6,15.8-3.9,31.5-3.6,47.2c0.7,31.4,8,62.4,25.7,92.7c9.9,17.4,21.8,34.4,35.4,50.6c95.9,113.4,280.7,188.5,514.1,110.7
			c33.4-11.1,63.8-21.5,91.9-31.3c28-9.8,53.7-18.9,77.2-27.6c152.8-102.3,328-100,502.4-79.7c21.8,2.5,43.6,5.4,65.4,8.3
			c71,15.3,141.4-14.1,197-57.7c114.5-97.5,174.2-240.8,160.8-391.7c-18.6-190.7-142-388.6-341.4-415.9c-23-3-46.3-3.5-69.6-1.3
			c-23.3,2.3-46.5,7.3-69.4,15.2c-21.5,6.3-42.5,14.5-62.4,24.3c-21.3,7.9-42.8,15.9-64.5,22.8c-65.2,20.7-132.1,32.1-199,5.7
			C1047.9,652.5,1039.1,651.4,1039.1,651.4z"/>
	</defs>
	<clipPath id="SVGID_3_">
		<use xlink:href="#SVGID_2_"  style="overflow:visible;"/>
	</clipPath>
	<linearGradient id="SVGID_4_" gradientUnits="userSpaceOnUse" x1="-39.356" y1="1353.3182" x2="1069.6304" y2="1353.3182">
		<stop  offset="1.075270e-02" style="stop-color:#7B2D8B"/>
		<stop  offset="0.9892" style="stop-color:#FFFFFF;stop-opacity:0"/>
	</linearGradient>
	<path class="st3" d="M-39.4,1534.1c0.5-10.6,19.3-193.2,185.1-192.8c165.8,0.4,166.6,60.4,228.8-67.3
		c62.2-127.7,122.7-184.6,246.4-166.9c123.7,17.7,232.2-0.5,310.9-65.7c78.7-65.1,144.2-99.6,137.3-48.6
		c-6.9,50.9-170.8,85.9-107.2,162.9c63.6,76.9-13,211.1-111.6,206.7c-98.6-4.4-282.5-72.7-228.3,56.8
		c54.2,129.4-154.4,296.5-275.4,319.3"/>
	<linearGradient id="SVGID_5_" gradientUnits="userSpaceOnUse" x1="-46.5596" y1="925.0305" x2="1328.2793" y2="925.0305">
		<stop  offset="1.075270e-02" style="stop-color:#7B2D8B"/>
		<stop  offset="0.9892" style="stop-color:#FFFFFF;stop-opacity:0"/>
	</linearGradient>
	<polyline class="st4" points="1191.8,786.5 78.7,373 -46.6,1477.1 1328.3,887.8 	"/>
	<g class="st5">
		
			<linearGradient id="SVGID_6_" gradientUnits="userSpaceOnUse" x1="-67.0064" y1="1994.6591" x2="630.3204" y2="1340.8074" gradientTransform="matrix(0.9986 -5.270000e-02 5.270000e-02 0.9986 -173.5101 -280.6692)">
			<stop  offset="0.3925" style="stop-color:#F9AD1C"/>
			<stop  offset="1" style="stop-color:#FFFFFF"/>
		</linearGradient>
		<path class="st6" d="M405.4,1352.4C120,1320.8-21.3,1154.7-44.3,1038.3C-60,958.4,50.9,880.1,50.9,880.1
			c192-88.5,185.2-83.5,185.2-83.5l73.7-39.1L299,736.8L60.9,803.1c-416.6,29.5-451.2,576.4-97.5,699.6
			c353.7,123.2-153.4,454.2-153.4,454.2l651.5-34.4C689.3,1815.3,690.8,1384,405.4,1352.4z"/>
		<g>
			<g>
				<path class="st7" d="M266.6,744.4l12.4,33.2c1.4-0.1,3.1-0.3,4.9-0.6c9.3-1.6,23.5-6.8,31.8-23.5c1.9-3.7,2.3-6.2,1.6-7.7
					c-0.4-1.6-2.2-3.3-6-5.2c-16.1-7.9-30.1-4.1-38.6,0.1C270.2,742,268.1,743.4,266.6,744.4z"/>
				<g>
					<path class="st7" d="M379.7,745.3l-78.4,29.2c0,0-10.2,3.8-7.1,12.1c3.1,8.3,12.4,33.1,12.4,33.1l22.7-8.1L379.7,745.3z"/>
					<g>
						<g>
							<path class="st1" d="M344,824.2c-4.7,1.8-9.9-0.6-11.7-5.3c-1.8-4.7,0.6-9.9,5.3-11.7c4.7-1.8,9.9,0.6,11.7,5.3
								C351.1,817.2,348.7,822.4,344,824.2z"/>
							<polygon class="st7" points="316,835.2 295,836.7 293.1,831.6 309.1,817.8 337.1,807.3 343.7,824.7 							"/>
						</g>
						<path class="st8" d="M343.4,824.3c0.2-0.1,0.3-0.1,0.5-0.2c4-1.5,6.3-5.6,5.8-9.7c-0.6,0.4-1.3,0.8-2,1.1
							c-0.2,0.1-0.3,0.1-0.5,0.2l0.2,0.4l-27.7,10.4l-20.9,1.5l-0.4-1.1l-5.3,4.6l1.9,5.1l20.9-1.5l27.7-10.4L343.4,824.3z"/>
					</g>
				</g>
				<g>
					<path class="st7" d="M363.4,701.3L285,730.6c0,0-10.2,3.8-13.3-4.5c-3.1-8.3-12.4-33.1-12.4-33.1l22.5-8.8L363.4,701.3z"/>
					<g>
						<g>
							<path class="st1" d="M284.7,665.1c-4.7,1.7-7.1,7-5.4,11.7c1.7,4.7,7,7.1,11.7,5.4c4.7-1.7,7.1-7,5.4-11.7
								C294.6,665.7,289.4,663.3,284.7,665.1z"/>
							<polygon class="st7" points="256.3,675.1 239.5,687.7 241.4,692.8 262.5,692.7 290.5,682.4 284.1,664.9 							"/>
						</g>
						<path class="st8" d="M284.1,665.3c0.2-0.1,0.3-0.2,0.5-0.2c4-1.5,8.5,0.1,10.7,3.5c-0.8,0.1-1.5,0.2-2.3,0.5
							c-0.2,0.1-0.3,0.1-0.5,0.2l-0.1-0.4l-27.8,10.3l-16.8,12.5l0.4,1.1l-7,0l-1.9-5.1l16.8-12.5l27.8-10.3L284.1,665.3z"/>
					</g>
				</g>
				
					<linearGradient id="SVGID_7_" gradientUnits="userSpaceOnUse" x1="458.5368" y1="1060.316" x2="637.5826" y2="1060.316" gradientTransform="matrix(0.9986 -5.290000e-02 5.290000e-02 0.9986 -229.2333 -299.1637)">
					<stop  offset="0.1047" style="stop-color:#FFFFFF"/>
					<stop  offset="0.9543" style="stop-color:#D1D2D3"/>
				</linearGradient>
				<path class="st9" d="M284.4,728.4l19.3,51.9c10.2-4.1,75.7-29.7,101.3-40.1l0.2,0.4l0.6-0.8c2-0.8,3.9-1.6,5.6-2.3l10.7-4
					l0.8-0.5c0,0,10.7-3.7,13.3-7.1c2.6-3.4,27.1-25.9,25.6-29.9c-0.1-0.2-0.2-0.5-0.3-0.7c0,0-0.9-2.4-2.3-6.1
					c-0.1-0.2-0.2-0.5-0.3-0.7c-1.5-4-34.8-4.9-39-5.8c-4.2-0.9-14.7,3.3-14.7,3.3l-0.9,0.1l-10.7,4c-1.8,0.6-3.7,1.3-5.8,2l-1-0.2
					l0.2,0.4C361,701.2,294.8,724.8,284.4,728.4z"/>
				<path class="st7" d="M459.1,702c0.9-1,1.8-1.9,2.6-3c3.4-4.1,4.4-6.7,3.7-8.1c-0.2-1-1.2-1.9-3.2-2.8c-1.2-0.5-2.7-1-4.7-1.5
					c-1.5-0.4-3-0.6-4.5-0.9L459.1,702z"/>
				<polygon class="st7" points="278.6,764.8 275,755.1 377.1,719.9 378.8,724.6 				"/>
			</g>
			
				<linearGradient id="SVGID_8_" gradientUnits="userSpaceOnUse" x1="583.5702" y1="1037.9636" x2="603.454" y2="1037.9636" gradientTransform="matrix(0.9986 -5.290000e-02 5.290000e-02 0.9986 -229.2333 -299.1637)">
				<stop  offset="0" style="stop-color:#272660"/>
				<stop  offset="1" style="stop-color:#9E2064"/>
			</linearGradient>
			<path class="st10" d="M428.3,705.4c0.3,5.5-3.9,10.2-9.4,10.5c-5.5,0.3-10.2-3.9-10.5-9.4c-0.3-5.5,3.9-10.2,9.4-10.5
				C423.3,695.7,428,699.9,428.3,705.4z"/>
		</g>
	</g>
	<linearGradient id="SVGID_9_" gradientUnits="userSpaceOnUse" x1="1145.0739" y1="801.8593" x2="2198.7009" y2="801.8593">
		<stop  offset="1.075270e-02" style="stop-color:#7B2D8B"/>
		<stop  offset="0.9892" style="stop-color:#FFFFFF;stop-opacity:0"/>
	</linearGradient>
	<path class="st11" d="M2198.7,553.3c0.5,10.6-1.3,194.1-166.4,209.1c-165.1,15-171.5-44.7-221.6,88.3
		c-50.1,133-105,195.1-229.8,189c-124.8-6.1-231.1,22-303.5,94.2c-72.4,72.1-134.4,112.5-132.2,61.1
		c2.1-51.4,162.1-101.4,91.6-172.1c-70.4-70.7-6.6-211.4,91.9-216.1c98.6-4.7,288,46.2,222.1-77.7
		c-65.9-123.9,126.3-309.5,244.6-343.4"/>
</g>
<g>
	<g>
		<path class="st1" d="M1393.6,705.8c40.4,0.5,65,24.1,80.6,55.5c15.6,31.5,22.2,70.8,26.3,102.8c0.6,3,1.1,5.9,1.7,8.8
			c7.8,32.1,20.2,61.9,37.1,88.6c1.7,2.7,3.4,5.5,5,8.2c1.7,2.8,3.4,5.5,5.1,8.3c25.8,35.5,44,81.5,24.5,124.6
			c-1,2.8-2.2,5.6-3.5,8.4c-11.8,24.6-36,43.1-78.7,48.2c-41.4,4.9-94.7,0.1-142.7-11.7c-24-5.9-46.8-13.6-66.4-22.7
			c-36.2-12.8-74.9-49.3-61.2-85.7c29.6-72.9,43.3-145.7,52.4-223.1c4.6-38.7,25-75.1,56.1-96.8
			C1350.7,705.9,1371.8,704.9,1393.6,705.8z"/>
		<path class="st12" d="M1265.8,1047.7c0,0,66-152,66-235.1c0,0,94.5,19.4,110.4,74c15.9,54.6,89.4,137.2,106.4,153.1"/>
		<linearGradient id="SVGID_10_" gradientUnits="userSpaceOnUse" x1="1383.8694" y1="1028.8738" x2="1369.2975" y2="913.964">
			<stop  offset="0.2957" style="stop-color:#FFDA8C"/>
			<stop  offset="0.4041" style="stop-color:#FDCC86"/>
			<stop  offset="0.6233" style="stop-color:#F8A878"/>
			<stop  offset="0.9309" style="stop-color:#F27063"/>
			<stop  offset="1" style="stop-color:#F1605E"/>
		</linearGradient>
		<path class="st13" d="M1440.2,986.1c-32.2-48.2-32.2-121.6-32.2-121.6l-72.6,80.7c0,0,13.9,73.3-11.1,101.7l97.6-53.9"/>
		<path class="st12" d="M1336.7,938.3l3,47c0,0,67.5-24.3,69.8-100.2C1411.8,809.2,1336.7,938.3,1336.7,938.3z"/>
		<linearGradient id="SVGID_11_" gradientUnits="userSpaceOnUse" x1="1244.2878" y1="1004.3038" x2="1423.3695" y2="758.4152">
			<stop  offset="0.2957" style="stop-color:#FFDA8C"/>
			<stop  offset="0.4041" style="stop-color:#FDCC86"/>
			<stop  offset="0.6233" style="stop-color:#F8A878"/>
			<stop  offset="0.9309" style="stop-color:#F27063"/>
			<stop  offset="1" style="stop-color:#F1605E"/>
		</linearGradient>
		<path class="st14" d="M1272.5,843.1c0,0,14.1,121.7,32.5,128.1c67.4,23.4,101.5-76.5,101.5-76.5s22.8,10.5,33.1-13
			c10.2-23.4-1.8-57.6-23.5-47.7l-32.5-34.5c0,0-88.6-8.6-91.6-7.4C1288.9,793.4,1272.5,843.1,1272.5,843.1z"/>
		<path class="st1" d="M1395.5,762c0,0-6.6,134.5,4.7,142.5l23.1,34.1c0,0,9.9-151,22.8-152.2"/>
		<path class="st15" d="M1276.6,872.4l4.4,26.9c0,0,69.2-3.4,81-3c17.8,0.6,48.9-9.7,60.9-18.2c12-8.5,25-23.3,25-23.3"/>
		<g>
			<linearGradient id="SVGID_12_" gradientUnits="userSpaceOnUse" x1="1374.5693" y1="836.1121" x2="1454.2529" y2="836.1121">
				<stop  offset="0" style="stop-color:#272660"/>
				<stop  offset="1" style="stop-color:#1B0F2D"/>
			</linearGradient>
			<polyline class="st16" points="1454.3,807.8 1374.6,787.3 1375,884.9 1453.5,862.8 			"/>
			<linearGradient id="SVGID_13_" gradientUnits="userSpaceOnUse" x1="1432.8154" y1="834.9937" x2="1471.5156" y2="834.9937">
				<stop  offset="0" style="stop-color:#A5769C"/>
				<stop  offset="1" style="stop-color:#7B2D8C"/>
			</linearGradient>
			<path class="st17" d="M1471.5,835c0,15.2-8.7,27.6-19.4,27.6c-10.7,0-19.3-12.4-19.3-27.6c0-15.2,8.7-27.6,19.3-27.6
				C1462.8,807.4,1471.5,819.7,1471.5,835z"/>
			<linearGradient id="SVGID_14_" gradientUnits="userSpaceOnUse" x1="1193.7715" y1="836.6077" x2="1410.8076" y2="836.6077">
				<stop  offset="0" style="stop-color:#A5769C"/>
				<stop  offset="1" style="stop-color:#7B2D8C"/>
			</linearGradient>
			<path class="st18" d="M1410.8,836.6c0,28.3-22.9,51.2-51.2,51.2H1245c-28.3,0-51.2-22.9-51.2-51.2l0,0
				c0-28.3,22.9-51.2,51.2-51.2h114.6C1387.9,785.4,1410.8,808.3,1410.8,836.6L1410.8,836.6z"/>
			<linearGradient id="SVGID_15_" gradientUnits="userSpaceOnUse" x1="1185.2334" y1="836.6077" x2="1356.7373" y2="836.6077">
				<stop  offset="0" style="stop-color:#A5769C"/>
				<stop  offset="1" style="stop-color:#262262"/>
			</linearGradient>
			<path class="st19" d="M1356.7,836.6c0,28.3-0.2,51.2-28.5,51.2h-114.6c-28.3,0-28.5-22.9-28.5-51.2l0,0
				c0-28.3,0.2-51.2,28.5-51.2h114.6C1356.6,785.4,1356.7,808.3,1356.7,836.6L1356.7,836.6z"/>
		</g>
	</g>
	<g>
		<linearGradient id="SVGID_16_" gradientUnits="userSpaceOnUse" x1="938.8254" y1="799.9259" x2="920.3337" y2="917.8242">
			<stop  offset="0.2957" style="stop-color:#FFDA8C"/>
			<stop  offset="0.4041" style="stop-color:#FDCC86"/>
			<stop  offset="0.6233" style="stop-color:#F8A878"/>
			<stop  offset="0.9309" style="stop-color:#F27063"/>
			<stop  offset="1" style="stop-color:#F1605E"/>
		</linearGradient>
		<path class="st20" d="M931,826.5c0,0,29,50.9,39.8,61.2l-63.2,12l-25.1-32.7"/>
		<linearGradient id="SVGID_17_" gradientUnits="userSpaceOnUse" x1="930.6473" y1="690.5341" x2="877.0792" y2="877.1588">
			<stop  offset="0.2957" style="stop-color:#FFDA8C"/>
			<stop  offset="0.4041" style="stop-color:#FDCC86"/>
			<stop  offset="0.6233" style="stop-color:#F8A878"/>
			<stop  offset="0.9309" style="stop-color:#F27063"/>
			<stop  offset="1" style="stop-color:#F1605E"/>
		</linearGradient>
		<path class="st21" d="M908.2,867.1c0,0,24.3-6.1,27.3-31.9c3-25.8,6.1-63.7,6.1-63.7s-8.3-70.6-17.4-72.1
			c-9.1-1.5-48.6,12.1-50.1,24.3c-0.8,6.2,0.4,32.3-2.5,57.3c-2.7,23.9-9.6,47-9.6,47S855.1,879.3,908.2,867.1z"/>
		<linearGradient id="SVGID_18_" gradientUnits="userSpaceOnUse" x1="918.4504" y1="784.5809" x2="905.8938" y2="864.6388">
			<stop  offset="0.2957" style="stop-color:#FFDA8C"/>
			<stop  offset="0.4041" style="stop-color:#FDCC86"/>
			<stop  offset="0.6233" style="stop-color:#F8A878"/>
			<stop  offset="0.9309" style="stop-color:#F27063"/>
			<stop  offset="1" style="stop-color:#F1605E"/>
		</linearGradient>
		<path class="st22" d="M931.7,756.3c0,0-22.2,5.7-23.3,27.9c-1.1,22.2,0,22.2,0,22.2s-19.5-2.2-21.1,24.5c-2.1,34.9,2,38,2,38
			s27.6,0.1,40.6-21c13.1-21.1,4-90.5,4-90.5"/>
	</g>
	<linearGradient id="SVGID_19_" gradientUnits="userSpaceOnUse" x1="900.5549" y1="1009.5197" x2="1387.2338" y2="1009.5197">
		<stop  offset="0" style="stop-color:#97CBEE"/>
		<stop  offset="1" style="stop-color:#1C75BC"/>
	</linearGradient>
	<path class="st23" d="M1324.1,1006.6l-225.4,43.3L965.8,850.8l-68.3,48.4c0,0,119.6,252.4,151.1,266.8c31.5,14.4,330.3-44,330.3-44
		S1409.3,1014.2,1324.1,1006.6z"/>
	<g>
		<linearGradient id="SVGID_20_" gradientUnits="userSpaceOnUse" x1="1125.1953" y1="1267.1753" x2="1324.1074" y2="1267.1753">
			<stop  offset="0" style="stop-color:#92278F"/>
			<stop  offset="1" style="stop-color:#1C75BC"/>
		</linearGradient>
		<path class="st24" d="M1324.1,1006.6c-8.3,0.3-42.8-0.9-55.7,12.1c-49.1,49.5-92.5,148.1-80.1,186.7
			c22.8,70.6-63.2,265.8-63.2,265.8s57.5,60.9,91.6,56.3c8.8-1.2,62.3-355,75.8-439.7C1294.8,1074.1,1321.6,1017,1324.1,1006.6z"/>
		<linearGradient id="SVGID_21_" gradientUnits="userSpaceOnUse" x1="1225.2656" y1="1228.7104" x2="1442.4414" y2="1228.7104">
			<stop  offset="0" style="stop-color:#272660"/>
			<stop  offset="1" style="stop-color:#1B0F2D"/>
		</linearGradient>
		<path class="st25" d="M1442.4,968.1c-5.7-4.5-18.5-8.2-18.5-8.2l-63.2,58.8c-4.7,0-17.3-19.3-22.8-25.6c0,0-13.1,9.7-15.6,10.8
			c-2.5,10.4-27.7,70.2-29.9,83.9c-13.5,84.7-52.8,305.3-67.3,386.6l179.7,23.1C1429,1109,1405,990.9,1442.4,968.1z"/>
		<linearGradient id="SVGID_22_" gradientUnits="userSpaceOnUse" x1="1303.3242" y1="1267.6285" x2="1582.3352" y2="1267.6285">
			<stop  offset="0" style="stop-color:#92278F"/>
			<stop  offset="1" style="stop-color:#1C75BC"/>
		</linearGradient>
		<path class="st26" d="M1442.4,968.1c-37.4,22.9-115.2,177.7-139.1,566.3c0,0,84.2,53.5,127.5,23.9c43.3-29.6,93.3-76.8,93.3-76.8
			s-51.9-293.2,26.6-356.5C1652.4,1043,1479.5,997.5,1442.4,968.1z"/>
		<path class="st27" d="M1440.3,969l26.9,124.8l-63.7,41c0,0,26.2,93.3,18.2,103.6c-8,10.2-96.8,145.7-94.5,149.1
			C1329.5,1390.9,1343.5,1054.4,1440.3,969z"/>
		<g class="st28">
			<path class="st1" d="M1239.9,1360.1c0.1-0.1,0.2-0.5,0.3-1.2C1239.9,1359.8,1239.8,1360.2,1239.9,1360.1z"/>
			<path class="st1" d="M1292.6,1087.8c1.9-12.2,21.6-59.8,28.1-77.4c-0.3-1,1.1-0.6,0.7-1.5c-4,3.5-8.4,7.6-13.3,12.1l-64,77.8
				l31.2,52.3c0,0-52.2,57.8-50.1,68c2,9.7,16,126.9,15,139.9c1.4-3.9,7.4-17.5,15.6-37.6C1271,1227.1,1286.3,1127.7,1292.6,1087.8z
				"/>
		</g>
	</g>
	<g>
		
			<linearGradient id="SVGID_23_" gradientUnits="userSpaceOnUse" x1="-402.4199" y1="1066.1321" x2="-418.3999" y2="1168.0165" gradientTransform="matrix(-0.9909 -0.1344 -0.1344 0.9909 1060.1844 71.5986)">
			<stop  offset="0.2957" style="stop-color:#FFDA8C"/>
			<stop  offset="0.4041" style="stop-color:#FDCC86"/>
			<stop  offset="0.6233" style="stop-color:#F8A878"/>
			<stop  offset="0.9309" style="stop-color:#F27063"/>
			<stop  offset="1" style="stop-color:#F1605E"/>
		</linearGradient>
		<path class="st29" d="M1245.3,1145.4c0,0,23.3,7.4,27.7,29.2c0.8,3.8,13.7,12.5,13.7,12.5s25.5,8.4,23.5,35
			c-0.2,2.7,79.7,46.7,79.4,48.9c-0.8,7-10.3,22.4-19.6,21.6c-26.1-2.1-70.6-39.6-70.6-39.6s-22.9-5.5-33-28.2
			c-10.1-22.6-23.5-78.8-23.5-78.8"/>
		<linearGradient id="SVGID_24_" gradientUnits="userSpaceOnUse" x1="1379.748" y1="1085.3533" x2="1320.5312" y2="1291.6577">
			<stop  offset="0.2957" style="stop-color:#FFDA8C"/>
			<stop  offset="0.4041" style="stop-color:#FDCC86"/>
			<stop  offset="0.6233" style="stop-color:#F8A878"/>
			<stop  offset="0.9309" style="stop-color:#F27063"/>
			<stop  offset="1" style="stop-color:#F1605E"/>
		</linearGradient>
		<path class="st30" d="M1420,1247.5c-8.9-8.5-55.7-27.3-71.6-33.6c2.8-25.2,5.3-57.1,5.3-57.1s-8.3-70.6-17.4-72.1
			c-9.1-1.5-48.6,12.1-50.1,24.3c-0.8,6.2,0.4,32.3-2.5,57.3c-2.8,23.9-9.6,47-9.6,47s-4.7,34.2,22.5,40.2l67.6,38.5L1420,1247.5z"
			/>
		<linearGradient id="SVGID_25_" gradientUnits="userSpaceOnUse" x1="1356.1949" y1="1150.7111" x2="1336.6647" y2="1275.2308">
			<stop  offset="0.2957" style="stop-color:#FFDA8C"/>
			<stop  offset="0.4041" style="stop-color:#FDCC86"/>
			<stop  offset="0.6233" style="stop-color:#F8A878"/>
			<stop  offset="0.9309" style="stop-color:#F27063"/>
			<stop  offset="1" style="stop-color:#F1605E"/>
		</linearGradient>
		<path class="st31" d="M1295.7,1242.2c0,0-7.2-58.8,12.1-69.1c19.3-10.2,27.7-19.7,27.7-19.7l-4.9-53.9c0,0,25.8,31.1,22.4,54.3
			c-3.4,23.1-1.5,64.9-1.5,64.9l38.7,20.5l-3.4,54.6"/>
	</g>
	<g>
		<linearGradient id="SVGID_26_" gradientUnits="userSpaceOnUse" x1="1534.2069" y1="1125.7389" x2="1455.2842" y2="1418.6624">
			<stop  offset="0" style="stop-color:#97CBEE"/>
			<stop  offset="1" style="stop-color:#1C75BC"/>
		</linearGradient>
		<path class="st32" d="M1590.3,1071.7c-2.2-18.2-23.2-28.9-29-40.1c-15.8,11.5-67.9,60.5-74.8,133.4
			c9.9,52.3,36.9,115.6,37.6,117.8c1.5,5.3-159.9-71.7-159.9-71.7s0,23.3-6.8,40.4c-6.8,17.1-21.1,39.3-21.1,39.3
			s232.8,114.6,273.2,101.3C1649.9,1378.8,1592.5,1089.9,1590.3,1071.7z"/>
	</g>
</g>
<linearGradient id="SVGID_27_" gradientUnits="userSpaceOnUse" x1="582.4629" y1="908.5205" x2="742.208" y2="908.5205">
	<stop  offset="0" style="stop-color:#272660"/>
	<stop  offset="1" style="stop-color:#1B0F2D"/>
</linearGradient>
<circle class="st33" cx="662.3" cy="908.5" r="79.9"/>
<linearGradient id="SVGID_28_" gradientUnits="userSpaceOnUse" x1="240.7437" y1="537.7717" x2="304.8716" y2="537.7717">
	<stop  offset="0" style="stop-color:#272660"/>
	<stop  offset="1" style="stop-color:#1B0F2D"/>
</linearGradient>
<path class="st34" d="M304.9,537.8c0,17.7-14.4,32.1-32.1,32.1c-17.7,0-32.1-14.4-32.1-32.1c0-17.7,14.4-32.1,32.1-32.1
	C290.5,505.7,304.9,520.1,304.9,537.8z"/>
<linearGradient id="SVGID_29_" gradientUnits="userSpaceOnUse" x1="1000.833" y1="657.4897" x2="1097.583" y2="657.4897">
	<stop  offset="0" style="stop-color:#F15B2A"/>
	<stop  offset="1" style="stop-color:#F8EB32"/>
</linearGradient>
<circle class="st35" cx="1049.2" cy="657.5" r="48.4"/>
<path class="st1" d="M1295.7,915.7l45.7-2.8c0,0-14.8,22.4-35.9,18"/>
<g>
	<g>
		<linearGradient id="SVGID_30_" gradientUnits="userSpaceOnUse" x1="642.2827" y1="1232.8691" x2="867.6553" y2="1232.8691">
			<stop  offset="0" style="stop-color:#28A8E0"/>
			<stop  offset="1" style="stop-color:#97CBEE"/>
		</linearGradient>
		<path class="st36" d="M867.7,1232.9c0,62.2-50.5,112.7-112.7,112.7c-62.2,0-112.7-50.5-112.7-112.7c0-62.2,50.5-112.7,112.7-112.7
			C817.2,1120.2,867.7,1170.6,867.7,1232.9z"/>
		<path class="st2" d="M804.4,1331.9c-2-1.9-4.5-3.6-7.5-5.2c-18.4-8.2-37.5-12-57.8-17.1c-5.1-1.3-11.4-6.4-8.9-14
			c5.1-10.2,17.8-8.9,28-12.7c-11.4-21.6-53.4-21.6-49.6-36.9c8.9-36.9,63.6,7.6,96.9,7.9c4,0.4,8.1,0.4,12.2,0.1
			c4.1-0.3,8.3-1.1,12.5-2.2c2.7-0.5,5.4-1.1,8-1.7c10.7-2.5,20.7-5.8,28.8-8.9c0.2-2.8,0.3-5.7,0.3-8.5c0-22.2-6.4-42.9-17.5-60.3
			c-10.5,0.2-21.5,1.6-31.6,5.1c-33,11.4-85.2,17.8-83.9-5.1c1.3-22.9-2.5-28-24.1-24.2c-9.4,1.7-18.2-0.3-25.2-3.7
			c-4.8,3.8-9.3,8-13.4,12.5c20.2,7.8,38.5,19.9,49.4,39.3c3.5,6,4.9,10.8,2.9,13.8c-1,1.5-2.8,2.5-5.7,2.8
			c-2.9,0.4-6.7,0.2-11.8-0.8c-13.1-0.5-24.6-9.4-37.3-6.8c-3.8,0,1.3,5.1,1.5,7.8c2,4.1,4.6,8.2,7.2,12
			c7.7,11.3,14.9,19.7,0.6,15.9c-7.8-2.1-21.8-5-36.1-7.3c0.1,6.9,0.7,13.6,2,20.2c23.4,5,50.5,16.1,58.9,22.7
			c14.6,11.4,1.9,11.4-7,13.3c-8.9,1.8-2.5,18.5,12.7,35c4.8,5.2,5.9,9.4,5.2,12.7c12.6,4.9,26.4,7.6,40.8,7.6
			c18.2,0,35.4-4.3,50.7-12C805.2,1332.7,804.8,1332.3,804.4,1331.9z M754.9,1212.2c0,0,86.3-32.2,92.7-6.8
			c6.4,25.4-29.1,26.6-46.3,27.3C784,1233.3,742.3,1229.2,754.9,1212.2z"/>
		<g>
			<path class="st1" d="M860.3,1194.9c0,0,0.5,0.2,1.4,0.7c0.9,0.4,2.3,1.1,4,2c3.5,1.8,8.6,4.5,14.9,8.4c3.1,1.9,6.5,4.2,10.1,6.8
				c3.6,2.6,7.4,5.6,11.1,9.2c3.7,3.6,7.4,7.7,10.2,12.8c1.4,2.6,2.4,5.4,2.9,8.5c0.2,1.5,0.2,3.1,0,4.7c-0.2,1.6-0.6,3.1-1.2,4.7
				c-1.2,3-3.4,5.7-5.8,7.9c-1.3,1.1-2.6,2.1-4,3.1c-1.4,0.9-2.9,1.8-4.4,2.5c-6.2,3.1-13,5.2-20.1,6.7c-14.2,3-29.6,4.1-45.4,3.9
				c-15.8-0.1-32.1-1.4-48.5-3.6c-16.4-2.2-33-5.3-49.4-9.2c-16.4-3.9-32.6-8.6-48.2-14.1c-15.6-5.5-30.7-11.8-44.8-19.1
				c-7-3.7-13.8-7.5-20.1-11.8c-6.3-4.3-12.2-8.9-17.4-14c-2.6-2.6-4.9-5.3-6.9-8.3c-2-2.9-3.7-6.1-4.6-9.5c-1-3.4-1.1-6.9-0.2-10.2
				c0.1-0.4,0.2-0.8,0.3-1.2l0.5-1.2c0.1-0.4,0.4-0.8,0.5-1.1c0.2-0.4,0.4-0.8,0.6-1.1c0.5-0.7,0.9-1.4,1.4-2c0.3-0.3,0.5-0.7,0.8-1
				l0.8-0.9c2.2-2.3,4.8-4.2,7.4-5.7c2.6-1.5,5.4-2.8,8.1-3.8c5.4-2.1,10.7-3.4,15.8-4.4c10.1-1.9,19-2.7,26.4-3
				c7.4-0.4,13.1-0.3,17.1-0.3c2,0,3.5,0.1,4.5,0.1c1,0,1.5,0,1.5,0s-0.5,0-1.5,0c-1,0-2.5,0-4.5,0c-3.9,0-9.7,0.1-17.1,0.5
				c-7.3,0.5-16.2,1.3-26.2,3.4c-5,1.1-10.3,2.5-15.6,4.6c-2.6,1.1-5.3,2.3-7.9,3.8c-2.6,1.5-5,3.3-7.1,5.6l-0.8,0.9
				c-0.3,0.3-0.5,0.6-0.7,0.9c-0.5,0.6-0.9,1.3-1.3,1.9c-0.2,0.3-0.4,0.7-0.5,1c-0.2,0.3-0.4,0.7-0.5,1.1l-0.4,1.1
				c-0.1,0.4-0.2,0.8-0.3,1.2c-0.8,3-0.7,6.4,0.3,9.5c0.9,3.2,2.5,6.2,4.5,9c2,2.8,4.3,5.5,6.8,8c5.1,5,11,9.5,17.3,13.7
				c6.3,4.2,13,8,20,11.6c14,7.2,29,13.5,44.6,18.9c15.6,5.5,31.7,10.1,48.1,14c16.3,3.9,32.8,7,49.2,9.3
				c16.4,2.2,32.6,3.5,48.3,3.7c15.7,0.1,30.9-0.7,45-3.6c7-1.5,13.8-3.5,19.8-6.4c1.5-0.7,2.9-1.6,4.3-2.4c1.4-0.9,2.7-1.9,3.9-2.9
				c2.4-2.1,4.4-4.6,5.6-7.4c0.6-1.4,1-2.9,1.2-4.4c0.2-1.5,0.2-3,0-4.4c-0.4-2.9-1.4-5.7-2.7-8.2c-2.6-5-6.2-9.2-9.8-12.8
				c-3.6-3.6-7.3-6.6-10.9-9.3c-3.5-2.7-6.9-4.9-10-6.9c-6.2-4-11.3-6.7-14.7-8.6c-1.7-0.9-3.1-1.6-4-2.1
				C860.8,1195.2,860.3,1194.9,860.3,1194.9z"/>
		</g>
		<g>
			<path class="st1" d="M846.5,1167c0,0,3.5,1.2,10.1,3.5c6.6,2.3,16.2,5.8,28.2,10.8c12,5,26.5,11.4,42.4,20
				c8,4.3,16.3,9.2,24.8,14.9c2.1,1.4,4.2,2.9,6.3,4.4c2.1,1.6,4.2,3.1,6.3,4.8c4.2,3.3,8.3,6.9,12.3,10.8c4,3.9,7.8,8.3,11.1,13.1
				c0.8,1.2,1.6,2.5,2.3,3.7c0.7,1.3,1.4,2.6,2.1,4c1.2,2.7,2.3,5.6,2.8,8.6c0.4,1.5,0.5,3,0.6,4.6c0.1,0.8,0,1.6,0,2.3
				c0,0.8,0,1.6-0.2,2.3l-0.4,2.3c-0.2,0.8-0.4,1.5-0.6,2.3c-0.5,1.5-1.1,3-1.8,4.4c-2.9,5.7-7.7,10.3-13,13.9
				c-5.4,3.6-11.3,6.4-17.5,8.7c-6.2,2.3-12.6,4.1-19.2,5.6c-13.2,2.9-26.8,4.5-40.8,5.4c-27.9,1.7-56.8,0.4-85.9-2.7
				c-29.1-3.2-58.5-8.3-87.5-15c-29-6.8-57.6-15.1-85.1-25.2c-13.8-5-27.2-10.5-40.3-16.5c-13.1-6-25.7-12.5-37.7-19.6
				c-6-3.6-11.8-7.3-17.4-11.3c-5.6-4-11-8.2-16-12.6c-5-4.5-9.7-9.3-13.7-14.5c-4-5.2-7.4-11-9.2-17.3c-0.9-3.1-1.4-6.4-1.2-9.6
				c0-1.6,0.3-3.2,0.6-4.8c0.2-0.9,0.4-1.5,0.7-2.3l0.3-1.1c0.1-0.4,0.3-0.7,0.5-1.1l1-2.2l1.2-2l0.6-1l0.7-0.9l1.4-1.9
				c0.5-0.6,1.1-1.1,1.6-1.7c0.5-0.5,1-1.1,1.6-1.6c1.2-1,2.3-2.1,3.5-2.9c4.9-3.7,10.2-6.4,15.6-8.7c5.4-2.3,10.9-3.9,16.3-5.4
				c10.8-2.8,21.4-4.5,31.5-5.6c10.1-1.1,19.8-1.6,28.8-1.8c18.1-0.4,33.9,0.3,46.9,1.2c13,0.9,23.1,2,30.1,2.8
				c6.9,0.9,10.6,1.3,10.6,1.3s-3.7-0.4-10.6-1.2c-6.9-0.7-17.1-1.8-30.1-2.6c-13-0.8-28.8-1.4-46.8-0.8c-9,0.3-18.7,0.9-28.7,2.1
				c-5,0.6-10.2,1.3-15.4,2.2c-5.2,1-10.6,2-15.9,3.5c-5.4,1.5-10.8,3.1-16.1,5.4c-5.3,2.3-10.5,5-15.3,8.6
				c-1.2,0.8-2.3,1.9-3.4,2.9c-0.6,0.5-1.1,1-1.6,1.6c-0.5,0.5-1,1.1-1.5,1.6l-1.4,1.8l-0.7,0.9l-0.6,1l-1.2,1.9l-0.9,2
				c-2.5,5.6-2.5,12.1-0.7,18.1c1.8,6,5.1,11.6,9.1,16.7c4,5.1,8.6,9.8,13.6,14.3c10,8.8,21.3,16.6,33.3,23.7
				c11.9,7.1,24.6,13.5,37.6,19.5c13,5.9,26.5,11.4,40.2,16.4c27.4,10,56,18.3,84.9,25c28.9,6.7,58.2,11.9,87.2,15.1
				c29,3.2,57.8,4.5,85.6,2.9c13.9-0.9,27.5-2.5,40.5-5.3c6.5-1.4,12.9-3.2,19-5.4c6.1-2.2,12-5,17.2-8.5c5.2-3.5,9.8-7.9,12.6-13.3
				c0.7-1.3,1.3-2.7,1.7-4.1c0.2-0.7,0.4-1.5,0.6-2.2l0.4-2.2c0.2-0.7,0.1-1.5,0.2-2.2c0-0.7,0.1-1.5,0-2.2c-0.1-1.5-0.2-3-0.6-4.4
				c-0.5-2.9-1.6-5.7-2.7-8.3c-0.7-1.3-1.3-2.6-2-3.9c-0.8-1.2-1.5-2.5-2.3-3.7c-3.2-4.8-6.9-9.1-10.9-13
				c-7.9-7.8-16.4-14.3-24.7-20.1c-8.4-5.7-16.6-10.7-24.6-15c-15.9-8.7-30.3-15.2-42.2-20.3c-12-5-21.5-8.6-28.1-11
				C850,1168.2,846.5,1167,846.5,1167z"/>
		</g>
	</g>
	<path class="st37" d="M611.3,1177.7c0,9.4-7.6,17.1-17.1,17.1c-9.4,0-17.1-7.6-17.1-17.1s7.6-17.1,17.1-17.1
		C603.7,1160.6,611.3,1168.2,611.3,1177.7z"/>
	<linearGradient id="SVGID_31_" gradientUnits="userSpaceOnUse" x1="951.2095" y1="1301.7529" x2="990.6699" y2="1301.7529">
		<stop  offset="0" style="stop-color:#F15B2A"/>
		<stop  offset="1" style="stop-color:#F8EB32"/>
	</linearGradient>
	<path class="st38" d="M990.7,1301.8c0,10.9-8.8,19.7-19.7,19.7c-10.9,0-19.7-8.8-19.7-19.7c0-10.9,8.8-19.7,19.7-19.7
		C981.8,1282,990.7,1290.9,990.7,1301.8z"/>
</g>
<g>
	
		<linearGradient id="SVGID_32_" gradientUnits="userSpaceOnUse" x1="1486.0594" y1="1850.3247" x2="1692.3193" y2="1850.3247" gradientTransform="matrix(1 0 0 1 101.626 -934.6348)">
		<stop  offset="0" style="stop-color:#FAAD1A"/>
		<stop  offset="1" style="stop-color:#FFDA8C"/>
	</linearGradient>
	<path class="st39" d="M1793.9,1011c0,5.8-4.7,10.5-10.5,10.5c-5.8,0-195.8-211.5-195.8-211.5S1793.9,1005.2,1793.9,1011z"/>
	
		<linearGradient id="SVGID_33_" gradientUnits="userSpaceOnUse" x1="-4812.9731" y1="-764.4401" x2="-4696.4722" y2="-764.4401" gradientTransform="matrix(1 0 0 1 6575.5601 1916.2771)">
		<stop  offset="0" style="stop-color:#FAAD1A"/>
		<stop  offset="1" style="stop-color:#FFDA8C"/>
	</linearGradient>
	<path class="st40" d="M1879.1,1205.7c0,3.3-2.6,5.9-5.9,5.9c-3.3,0-110.6-119.5-110.6-119.5S1879.1,1202.4,1879.1,1205.7z"/>
</g>
<path class="st2" d="M1333.7,816.8c0,4.2-3.4,7.6-7.6,7.6h-126c-4.2,0-7.6-3.4-7.6-7.6l0,0c0-4.2,3.4-7.6,7.6-7.6h126
	C1330.3,809.2,1333.7,812.6,1333.7,816.8L1333.7,816.8z"/>
<linearGradient id="SVGID_34_" gradientUnits="userSpaceOnUse" x1="55.9808" y1="1127.854" x2="221.5934" y2="1127.854" gradientTransform="matrix(-0.7011 0.7131 0.7131 0.7011 -318.3804 99.303)">
	<stop  offset="0" style="stop-color:#272660"/>
	<stop  offset="1" style="stop-color:#1B0F2D"/>
</linearGradient>
<path class="st41" d="M400.7,905.5c-8.8,6.3-8.6-0.7-12.3,4c0.7,1.5,1.5,3.7,2.7,5.6c3.5,5.6,7.7,10.8,10.8,16.6
	c4.4,8.1,2.5,12.5-5,17.6c-5.1,3.5-8.9,8.6-13.7,12.6c-8.7,7.1-17.7,13.7-26.5,20.6c-2.3,1.8-4.8,3.6-6.2,6c-3.5,5.7-8.5,8.1-15,8.7
	c-8.5,0.8-16.9,1.7-25.3,2.9c-2.6,0.4-5.1,2-7.7,2.5c-2.6,0.5-5.4,0.4-8.1,0.5c0.8-2.1,1.7-4.3,2.8-7.1c-2.6-3.4-5.7-1.6-8.3,0.8
	c-3.1,2.8-2.7,8.4,0.9,11.1c4.4,3.2,9.2,3.7,14.7,2.4c9.7-2.2,19.5-3.7,29.4-4.7c6-0.7,9.9,2.5,12.5,8.3c1.4,3,4.6,5.9,7.7,7.4
	c12.5,6,20.8,15,23,29c0.3,1.9,2,4.3,3.7,5.1c6.5,3.2,13.1,6.2,19.9,8.7c4,1.5,8.9-2.2,10.8-7.2c0.9-2.2,2.3-4.3,3.1-6.5
	c0.5-1.3,0.4-2.9,0.5-4.3c-1.5-0.1-3.8-0.8-4.5-0.1c-4.4,4.5-9.1,1.8-13.2,0.4c-2.1-0.7-4.3-3.9-4.8-6.3c-1.4-7.7-1.8-15.7-3.1-23.5
	c-0.9-5.4,0.2-8.8,5.6-10.8c11.8-4.3,20.4-12.7,28.1-22.2c4.9-6.1,6.6-6.2,12.4-0.7c6.7,6.2,13.1,12.8,20.2,18.6
	c7.1,5.8,9.6,4.9,14.8-4.5c-12.1,1.6-15.7-7.4-19.8-16.1c3.6,1.7,7.1,3.6,10.8,5.1c4,1.6,8.2,4.2,12.1,3.9c2.7-0.2,5.2-4.3,7.8-6.7
	c-1.5-0.8-3.5-2.7-4.3-2.2c-5.3,3-9,0.5-13-2.7c-8.1-6.4-17.8-11.2-21.8-21.6c-0.9-2.3-1.4-4.8-2.5-7c-2.3-4.5-4.6-9.1-7.5-13.3
	c-2.9-4.3-6.7-8-9.4-12.3c-1.2-1.8-1.6-5-0.8-7c1.9-4.7,3-10-1.4-12.4c-3.5-2-8.8-0.8-13.4-0.7C405.5,904.2,403.6,904.9,400.7,905.5
	z"/>
</svg>
