<?xml version="1.0" encoding="utf-8"?>
<!-- Generator: Adobe Illustrator 25.0.1, SVG Export Plug-In . SVG Version: 6.00 Build 0)  -->
<svg version="1.1" id="Capa_1" xmlns="http://www.w3.org/2000/svg" xmlns:xlink="http://www.w3.org/1999/xlink" x="0px" y="0px"
	 viewBox="0 0 413.9 413.9" style="enable-background:new 0 0 413.9 413.9;" xml:space="preserve">
<style type="text/css">
	.st0{fill:#FFFFFF;}
</style>
<g>
	<g>
		<path class="st0" d="M244.9,161.9c6.7,0,12,5.4,12,12s-5.4,12-12,12s-12-5.4-12-12C232.8,167.3,238.2,161.9,244.9,161.9z"/>
		<path class="st0" d="M371,339.6c-8.4-15.8-17.9-33.6-17.9-61.7c0-46.9,26-63.4,27.1-64.1c3.9-2.3,5.1-7.2,2.8-11.1
			c-2.3-3.9-7.3-5.1-11.1-2.8c-1.4,0.9-35,21.4-35,78c0,32.1,11,52.7,19.8,69.3c6.3,11.9,11.3,21.2,11.3,32c0,7.7-1.7,13.2-4.8,16.1
			c-3.2,2.9-7.4,2.5-7.5,2.5c-0.4-0.1-0.8-0.1-1.2-0.1h-29.8c3.5-5.4,5.5-11.9,5.5-18.8V13.7c0-3.6-2.4-6.8-5.9-7.8
			s-7.2,0.5-9.1,3.6L275.6,75c-12.1-0.2-47.8-0.5-154.6-0.5c-22.7,0-33.9,0-39.6,0.1L45,4.4c-1.7-3.3-5.5-5-9.1-4.1
			s-6.2,4.1-6.2,7.9V379c0,19.3,15.7,35,35,35h123.8h106.8h58.8c0.5,0,1.3,0.1,2.2,0.1c4,0,11.1-0.9,17.4-6.3
			c7-6.1,10.6-15.6,10.6-28.4C384.2,364.5,377.8,352.4,371,339.6z M115,202.2c-15.6,0-28.2-12.7-28.2-28.2
			c0-15.6,12.7-28.2,28.2-28.2c15.6,0,28.2,12.7,28.2,28.2C143.3,189.6,130.6,202.2,115,202.2z M194.1,234.8h-6l-0.7,11.3
			c-0.2,4.3-3.8,7.6-8.1,7.6c-0.2,0-0.3,0-0.5,0c-4.5-0.3-7.9-4.1-7.6-8.6l0.6-10.3h-6.1c-4.5,0-8.1-3.6-8.1-8.1s3.6-8.1,8.1-8.1
			h28.4c4.5,0,8.1,3.6,8.1,8.1C202.2,231.1,198.6,234.8,194.1,234.8z M244.9,202.2c-15.6,0-28.2-12.7-28.2-28.2
			c0-15.6,12.7-28.2,28.2-28.2c15.6,0,28.3,12.7,28.3,28.2C273.1,189.6,260.5,202.2,244.9,202.2z"/>
		<circle class="st0" cx="115" cy="174" r="12"/>
	</g>
</g>
</svg>
