<?xml version="1.0" encoding="utf-8"?>
<!-- Generator: Adobe Illustrator 25.0.1, SVG Export Plug-In . SVG Version: 6.00 Build 0)  -->
<svg version="1.1" id="Layer_1" xmlns="http://www.w3.org/2000/svg" xmlns:xlink="http://www.w3.org/1999/xlink" x="0px" y="0px"
	 viewBox="0 0 1000 1000" style="enable-background:new 0 0 1000 1000;" xml:space="preserve">
<style type="text/css">
	.st0{fill-rule:evenodd;clip-rule:evenodd;fill:#191717;}
	.st1{fill:#191717;}
</style>
<g>
	<path class="st0" d="M497.4,12.7C222.7,12.7-0.1,235.4-0.1,510.3c0,219.8,142.6,406.4,340.3,472.1c24.9,4.6,34-10.8,34-23.9
		c0-11.9-0.5-51.1-0.7-92.6c-138.4,30.1-167.6-58.7-167.6-58.7c-22.6-57.5-55.2-72.8-55.2-72.8c-45.1-30.9,3.4-30.2,3.4-30.2
		c50,3.5,76.3,51.3,76.3,51.3c44.4,76.1,116.4,54.1,144.8,41.4c4.5-32.2,17.4-54.1,31.6-66.5c-110.5-12.6-226.7-55.2-226.7-245.9
		c0-54.3,19.4-98.7,51.3-133.6C226,338.2,209,287.6,236,219c0,0,41.8-13.4,136.9,51c39.7-11,82.3-16.6,124.5-16.7
		c42.3,0.2,84.9,5.7,124.6,16.7c95-64.4,136.7-51,136.7-51c27.1,68.5,10,119.1,4.9,131.7c31.9,34.8,51.2,79.2,51.2,133.6
		c0,191.1-116.4,233.2-227.2,245.5c17.8,15.4,33.7,45.7,33.7,92.1c0,66.6-0.6,120.2-0.6,136.5c0,13.2,9,28.8,34.2,23.9
		C852.6,916.5,995,730,995,510.3C995,235.4,772.2,12.7,497.4,12.7z"/>
	<path class="st1" d="M188.3,727.1c-1.1,2.5-5,3.2-8.5,1.5c-3.6-1.6-5.6-5-4.5-7.5c1.1-2.5,5-3.3,8.6-1.6
		C187.5,721.2,189.6,724.6,188.3,727.1L188.3,727.1z M182.2,722.5"/>
	<path class="st1" d="M208.5,749.6c-2.4,2.2-7,1.2-10.2-2.3c-3.3-3.5-3.9-8.1-1.5-10.3c2.4-2.2,6.9-1.2,10.2,2.3
		C210.3,742.7,210.9,747.3,208.5,749.6L208.5,749.6z M203.7,744.5"/>
	<path class="st1" d="M228.1,778.2c-3.1,2.1-8,0.1-11.1-4.3c-3.1-4.4-3.1-9.7,0.1-11.9c3.1-2.1,8-0.2,11.1,4.2
		C231.2,770.7,231.2,776.1,228.1,778.2L228.1,778.2z M228.1,778.2"/>
	<path class="st1" d="M255,805.9c-2.7,3-8.5,2.2-12.8-1.9c-4.4-4-5.6-9.7-2.8-12.7c2.8-3,8.6-2.2,12.9,1.9
		C256.6,797.2,257.9,802.9,255,805.9L255,805.9z M255,805.9"/>
	<path class="st1" d="M292,822c-1.2,3.9-6.8,5.7-12.4,4c-5.6-1.7-9.3-6.3-8.2-10.2c1.2-3.9,6.8-5.8,12.5-4
		C289.5,813.5,293.2,818,292,822L292,822z M292,822"/>
	<path class="st1" d="M332.8,825c0.1,4.1-4.6,7.5-10.6,7.6c-5.9,0.1-10.8-3.2-10.8-7.2c0-4.1,4.7-7.5,10.6-7.6
		C327.9,817.6,332.8,820.9,332.8,825L332.8,825z M332.8,825"/>
	<path class="st1" d="M370.7,818.5c0.7,4-3.4,8.1-9.3,9.2c-5.8,1.1-11.1-1.4-11.9-5.4c-0.7-4.1,3.5-8.2,9.2-9.3
		C364.6,812,369.9,814.4,370.7,818.5L370.7,818.5z M370.7,818.5"/>
</g>
</svg>
