<?xml version="1.0" encoding="iso-8859-1"?>
<!-- Generator: Adobe Illustrator 18.0.0, SVG Export Plug-In . SVG Version: 6.00 Build 0)  -->
<!DOCTYPE svg PUBLIC "-//W3C//DTD SVG 1.1//EN" "http://www.w3.org/Graphics/SVG/1.1/DTD/svg11.dtd">
<svg version="1.1" id="Capa_1" xmlns="http://www.w3.org/2000/svg" xmlns:xlink="http://www.w3.org/1999/xlink" x="0px" y="0px"
	 viewBox="0 0 474.628 474.628" style="enable-background:new 0 0 474.628 474.628;" xml:space="preserve">
<g>
	<path d="M237.314,0c-73.045,0-132.473,59.427-132.473,132.487c0,19.922,16.154,36.078,36.078,36.078
		c19.92,0,36.076-16.156,36.076-36.078c0-33.264,27.055-60.333,60.318-60.333s60.318,27.069,60.318,60.333
		c0,33.265-27.055,60.318-60.318,60.318c-19.922,0-36.078,16.155-36.078,36.076v81.44c0,19.921,16.156,36.075,36.078,36.075
		s36.076-16.154,36.076-36.075v-50.358c55.568-15.74,96.397-66.928,96.397-127.477C369.787,59.427,310.359,0,237.314,0z"/>
	<path d="M237.314,373.698c-27.869,0-50.467,22.597-50.467,50.481c0,27.853,22.598,50.448,50.467,50.448
		c27.869,0,50.465-22.596,50.465-50.448C287.779,396.295,265.183,373.698,237.314,373.698z"/>
</g>
<g>
</g>
<g>
</g>
<g>
</g>
<g>
</g>
<g>
</g>
<g>
</g>
<g>
</g>
<g>
</g>
<g>
</g>
<g>
</g>
<g>
</g>
<g>
</g>
<g>
</g>
<g>
</g>
<g>
</g>
</svg>
