<svg width="25" height="24" viewBox="0 0 25 24" fill="none"
  xmlns="http://www.w3.org/2000/svg">
  <path d="M24.4499 11.11L2.44988 0.110006C2.27745 0.0237731 2.08377 -0.0107787 1.89216 0.0105114C1.70055 0.0318016 1.51918 0.108026 1.36988 0.230006C1.22731 0.349499 1.12089 0.506393 1.06259 0.68305C1.0043 0.859707 0.996432 1.04912 1.03988 1.23001L3.68988 11H14.9999V13H3.68988L0.999884 22.74C0.959111 22.8911 0.954351 23.0496 0.985989 23.2028C1.01763 23.356 1.08478 23.4997 1.18204 23.6223C1.27931 23.7448 1.40398 23.8428 1.54602 23.9084C1.68806 23.9741 1.84352 24.0054 1.99988 24C2.15643 23.9991 2.31056 23.9614 2.44988 23.89L24.4499 12.89C24.6137 12.8061 24.7512 12.6786 24.8471 12.5216C24.9431 12.3645 24.9939 12.1841 24.9939 12C24.9939 11.816 24.9431 11.6355 24.8471 11.4785C24.7512 11.3214 24.6137 11.1939 24.4499 11.11V11.11Z" fill="#141414"/>
</svg>
