<svg id="Layer_1" data-name="Layer 1" xmlns="http://www.w3.org/2000/svg" viewBox="0 0 594.223 688.309"><title>1</title><g id="Character_reading" data-name="Character/reading"><path id="Accent" d="M157,154.344c-.7,11.5-1.4,23.1-2.1,34.6,4.5-1.3,33.4-9.8,31.6-1.2-1.3,6.2-9.4,12.9-13.5,17.2-3.8,4-7.7,7.8-11.7,11.6,7.4-2.8,14.8-5.5,22.3-8,5.7-1.9,11.4-3.7,17.2-5.2,2.2-.5,8-2.7,10-1.2,5.4,3.9-23.7,32.3-27.7,36.3a173.735,173.735,0,0,1,17.3-7c4.2-1.5,17.3-7.1,21.1-2.3,4,5.1-5.9,17-8.7,20.7a170.2,170.2,0,0,1-12.7,15.4c18.7,16.8,40.6,31.7,63.9,41,17.1,6.8,33.9,8.5,52,4.8,18.6-3.8,36.3-11.2,53.3-19.6a308.2,308.2,0,0,0,29.1-16.3c-3.8-4.7-7.6-9.5-11.2-14.3-5.2-6.9-11.6-14.5-14.5-22.8-2.9-8.1,8-6.5,13.2-6.1a168.6,168.6,0,0,1,22.4,3.6c-5.2-3.6-10.4-7.4-15.4-11.3-6.6-5.1-15.3-10.8-19.6-18.1-3.8-6.4,4.5-4.8,8.3-4,9.1,2,18,5.4,26.7,8.8,6.4,2.4,12.7,5,19,7.7-3.9-3.4-7.7-6.9-11.3-10.6-4.9-4.9-11.4-11-13.6-17.8-4.4-13.9,25.4-3.4,30.5-1.3-.9-14.4-1.9-28.7-2.8-43.1q-59.25,15.75-118.6,31.6c-4.3,1.1-9.6,3.6-14.1,3.7-4,.1-8.9-1.7-12.8-2.4l-71.5-13.7c-18.8-3.6-37.5-7.1-56.1-10.7" fill="#34558b" fill-rule="evenodd"/><g id="Ink"><path id="ink-2" data-name="ink" d="M581.7,648.067a65,65,0,0,1-14,5.6c-2.8.7-7.4,3-9.8.9-1.2-1-1.4-3.3-2.1-4.6a46.726,46.726,0,0,0-4.1-5.8c-3.5-4.5-7.2-8.9-11.1-13.1-1.8-2-5.2-6.7-8.4-6.4-4,.4-3.9,5.9-2.9,8.8,3.2,9,12.9,16.9,19.2,23.7-1.6,2.5-10.4,2.2-12.9,1.6-3.7-.9-4.1-3.6-5.8-6.6-4-7.1-12.1-11.1-18.8-15.3-2.4-1.5-7.6-5.8-10.8-4.7-3,1-2.9,4.8-1.9,7.3,1.4,3.8,5.6,6.4,8.6,8.8a74.363,74.363,0,0,1,11.1,10.6c-4.9.4-9.7,1.1-14.6,1.5-5.9.5-10.8-2.7-16.2-4.6-5-1.7-10-3.1-15-5.1-5.5-2.2-11.4-3-16.9-4.9-21.9-7.6-43.5-17.1-64.6-26.7-10.1-4.6-19.9-9.1-30.5-12.7-7.7-2.6-19.7-7.8-21.5-16.9-1-4.8,2.6-10,3.1-14.8a43.843,43.843,0,0,0-1.6-17.3c-1.5-4.8-4-9.2-6-13.8-2.3-5.4-.2-5.3,4.3-5.9,5.4-.7,11.7-3.8,16.7-5.7a107.936,107.936,0,0,0,16.9-8.7,67.168,67.168,0,0,0,12.9-10.9c3.9-4.2,6.4-9.2,10.2-13.5,13.9,17.1,27.2,34.5,42,50.9a130.327,130.327,0,0,0,23.2,20c3.6,2.5,7.2,5.3,11.1,7.2,4.9,2.4,10.4,3.9,15.4,6.2a474.688,474.688,0,0,1,55.8,28.8c8.7,5.3,16,11.4,23.7,18.1,2.4,2.1,22,14.2,15.3,18m-226.5-140.4c-3.1,1.4-6.1,3.3-9.4,4.2.9-5.7,6.3-14.4,13.2-13.5,2.6.4,4.6,2.4,3.5,5.2-1.2,2.5-5.1,3.1-7.3,4.1m-217.3-155.8c-3.5,2-6.8,3.1-8.9-1.1,1.5-.3,8.5-1.3,8.9,1.1m-5.9-11.9c-2.7-.8-.5-1.7.4-2.7a37.752,37.752,0,0,1,4-4c3.8-2,6.6,5.4,8.4,7.8-4.2-.3-8.6.2-12.8-1.1m29.3,25.6c-5.2.9-4.6-5.6-4.5-8.9,1.1,1.4,8.5,8.2,4.5,8.9m17.1-11.2c-6.3,1.1-10.5-9.9-9.4-14.6,1-4.2,5.9-6.6,9.8-7.2,3.8-.6,9,.2,10.2,4.6,1,3.8-6.3,16.5-10.6,17.2M328,519.167c-4.5,1.4-9,1.6-13.6,2.9-5.2,1.6-10,1.4-15.2,2.5-2.1.4-7.8,3.5-9.9,2.8-2-.7-5-7-6.2-8.7,9.2-3.8,17-8.7,23.1-16.8,4.8-6.4,10-16,6.9-24.2-3.4-9.3-15.2-11.3-23-7.4a45.377,45.377,0,0,0-10.5,6.9c-3.5,3.2-4.9,6.7-7.1,10.6-2.3,4-3.9,1.8-6.2-1.6-2-2.9-1.7-5.8-4.1-8.7-1.2-1.5-3.2-2.9-3.8-4.8-.4-1.2.5-3.3-.3-4.3-1.1-1.3-2.4.2-3.4-.9-.7-.9-.5-2.8-1.1-3.9a15.583,15.583,0,0,0-2-1.6c-.9-.4-1.1-1-.5-1.7-.7-1.3,0-1.8-1.6-3.4a41.675,41.675,0,0,1-6.2-7.8c-.8-1.4-.7-3.4-1.7-4.5-1.3-1.6-3.5-1.4-4.7-3.4-1-1.8-.3-4.9-2-6.5-.9-.3-1.8-.5-2.6-.7a3.963,3.963,0,0,1-1.2-2.3c-.9-1.4-1.1-3.1-2.3-4.6-2.2-2.9-5.2-5.5-7.2-8.6-2.1-3.2-1-3.7,2.6-4.9a43.191,43.191,0,0,0,9.2-3.7c13.9-8.1,27.2-29.6,5-36.2-8.2-2.4-15-9-24.1-6.4a26.068,26.068,0,0,0-10.6,6.3c-2,2-3.9,7.2-6.4,8.2-4.5,1.8-2.6-2.7-3.9-4.8-.6-1-3.1-2.1-4-3a16.437,16.437,0,0,1-2.8-3.7,21.575,21.575,0,0,0-4.2-5.7c-.7-.7-4.5-4.6-1.1-4.1-1.4-4.1.6-4.8,3.4-7.8,3.2-3.6,6.6-8.5,6.6-13.5,0-9.6-11.3-13.9-18.4-8.2-1.4,1.2-10,12.3-8.3,5.2.9-3.8,9.7-13.9,13.8-11.3-4.6-6.6-15,9.5-17.4,12.8-2.1-3.8-2.2-6.8-5.7-9.8-2.8,4.5-1.3-.4-1.9-1.4-1.3-2.2-.6.3-1.3-.5-.9-1-2.3-1.7-3.3-3-1.6,2.2-1-.2-1.5-1-1.2-1.9-.7-3.1-2.7-4.8-1.5-1.2-4.4-3.1-6.3-3.3-2.3-.2-2.9.7-5.2,0-2.9-.8-6.7-2.1-5.2,2.9,1,3.6,5.3,5.6,6.2,9.3s-2.7,7.4-4.5,10.4c-2.3,3.9-4.1,3.6-8.2,4.4-2.6.6-6.1,1.8-3.9,4.9,1.6,2.3,5.4,1.8,7.5,3.1,3,1.9,2.9,6.6,6.7,7.4,4.2.9,6.6-3.8,10.1-4.9,2.5-.8,10.3-.7,12.3,1.2,2.7,2.6.4,7.5,1,10.7,1,4.7,4.2,5,8.3,5.2,5,.2,6.7,5,9.4,8.8,6.3,8.9,11.7,18.4,18.2,27.2,2.8,3.9,7,7.3,9.3,11.6,2.9,5.2-1.1,8.2-4.6,12-4.5,4.9-7.9,10.4-11.8,15.8-3.5,4.7-7.8,3.6-13.3,3.6,1.2-2.6,2.7-4.1,5.8-3.8-3.2-3.9-5.7.6-7.8,3-3,3.6-6.9,4.4-10.7,6.8-1.4.8-8.8,6.2-6.5,8,.3.2,12.5-7.8,13.9-8.6,0,3-.7,6.1-.2,9,.3,2.2,1.8,4.4,1.5,6.7-.6,4.3-6.1,7.6-8.5,10.9-1.8,2.5-1.3,4.5-2.3,7.1-.8,2.4-.4,1.7-2.4,2.5-4.2,1.5-11.2.7-15-1.5-2.4-1.4-4.2-3.5-6.1-5.4-1.4-1.4-5.1-3.9-5.5-5.9-.7-3.4,6.1-9.8,7.5-13.3,3.8-10-2.7-17.8-12.9-18.3,3.1-2.4,7-.6,10.3.3-5.6-7.8-15.3-1.4-20.1,3.9-3.3-8.3-4.8-17-6.8-25.6-1.4-5.9-6.5-16.3-4.2-22.4,1.1-2.9,4.3-4.6,6.5-6.6a40.289,40.289,0,0,0,6.4-7.9c4.3-6.7,6.7-15.2.9-21.8l5.4-.9c-2.9-2.7-7.5-1.4-11.3-2.2-2.4-.5-9.3-.2-10.9-1.5-1.9-1.6-.7-9.1-.6-11.3.2-5.2.6-10.2,1.2-15.3.5-4.9.4-10.1,1.4-14.9.8-3.9,3.4-5.1,6.4-7.3,7.2-5.5,13.1-12.1,10.6-21.5.9-.1,1.7-.3,2.6-.4-2.8-2-6.5-1.3-9.6-2.4,2.9-8.1,9.2-22.3,19.6-23.1.4,3.6.1,7.9,2.6,10.9,2.8,3.4,7.7,3.8,11.4,1.9a18.746,18.746,0,0,0,8.2-8.5c1.1-2.3.9-6.2,2.7-8.1,2.5-2.5,19.8-1,19.3,3.2-.3,2.4-4.9,6.6-6.2,8.7a38.173,38.173,0,0,0-5.1,12.8c-1.3,6.9-.6,16.1,6.5,19.7,8,4.1,17.7-1.1,24.3-5.7a117.061,117.061,0,0,0,10.4-8.2,47.045,47.045,0,0,0,5.1-4.9c1.1-1.3,2.1-3.4,3.5-4.3,3.3-2.3,6.6,1.6,9.4,3.6a157.489,157.489,0,0,0,14,8.9c10,5.4,19.1,12.5,27.9,19.6,8.9,7.1,18,14.5,25.2,23.4-4.3,2.7-3.6,3.4-5.5,8.1-1.4,3.4-3.3,6.3-3.5,10a12.9,12.9,0,0,0,10.1,13.5,15.71,15.71,0,0,0,10.2-1.3c2.5-1.1,5.1-3.9,7.7-4.6,4.9-1.3,8.9,8.1,11.7,11.4,12.3,14.6,25.3,28.6,36.9,43.9,1.3,1.7,5.1,5,5.4,7.2.4,3.2-4.6,6.3-6.7,8.1-1.1,1-12.7,11.9-8.8,13.6,1.1.5,4.4-6.2,5.2-6.8,3.1-2.2.7,2.1.6,4.2-.5,5.3,3.2,8.2,8.3,7.5,5.5-.7,10.3-5,13.7-9.1,4.2,4.9,10.8,12.3,12.1,18.9.8,4.2-2.8,14.4,3.9,15.3,1,.1,4.8-2.6,5.5-1.1.6,1.3-3.5,3.6-4,4a38.43,38.43,0,0,0-6,6.1c-2.4,2.6-5.6,4.9-8.2,7.4-2.8,2.7-8.3,9.9-12,6.4-1.9-1.8-1.4-4.1-4.3-5.1-2.7-.9-6.1.3-8.6,1.3-2.8,1.2-12.1,5.4-13.2,9-1.4,4.9,6.3-1,7.6-1.8-1.6,4-2.4,9.7-6.4,12-3.7,2.1-8.5,3.2-12.1,4.3m-52.8-29.9c2.6-8.5,18.2-23.6,28.1-18.9-11.5,2.4-20.6,10.2-28.1,18.9m5.9,24.3c-3.8-2.1-3.6-8.4-5-12-.8-2.1-2.3-3.6-1.9-5.9.5-2.7,4-5.7,5.8-7.7,5.8-6.2,16-14.6,25.3-13.2,11.9,1.8,3.8,17.8-.2,23.2-3.3,4.7-16.6,19.7-24,15.6m-27.8-10.4c-12.9-.9-25.7-2-38.3-4.4-4.5-.8-8.3-.7-5.7-5.9.8-1.7,6-12.4,7.1-12.1.7.2.5,7.5.7,8.4.9,3.8,3.5,7.3,7.8,7.1,7-.4,11.6-9.5,15.3-14.4,3,4,5.1,8.4,8.1,12.3,1.4,1.9,6.4,6.3,5,9m-75.3-50.4c-2.2,4.9-6.5,9.7-9.5,14.1-1.7-3.6-2.9-11.9,1.1-14.6,1.6-1,9.8-2.7,8.4.5m44.6,14.7c.6-1.9,1.3-3.8,2-5.6,1.2,3.9,1.9,4-2,5.6m11,4c1.6,2.6,4.2,5.2,3.8,8.6-.3,2.5-2.6,5.1-4.2,6.8-2.7,2.9-8.6,8.5-12.5,4.6-3.3-3.2-2.1-12.1-.6-15.7,2-5.1,9.8-10.6,13.5-4.3m-7.7-5.4c.9-.4-1-6.1.8-6.7,1.5,3.5,3,4.4-.8,6.7m-24.5-77.6c-.6-2.1-1.9-2-1.4-4.7.3-1.7,1.7-3.6,2.7-4.9a26.455,26.455,0,0,1,7.8-6.7c6.2-3.6,14.8-5.1,20.4.5-5.2.8-21.2,6-21.3,13.1,5.8-1.1,10.4-6.9,16.2-8.8a23.813,23.813,0,0,1,14.7.2c13,4.4,7.6,15.6.3,22.9a45.023,45.023,0,0,1-15.3,9.8,10.978,10.978,0,0,1-6.9.6c-.5-.1-1.1-1-1.6-1.2-1.5-.5-1,1.1-2.2.4-1-.6-3.3-4.8-4-5.9-1.1-1.9-1.7-3.7-3-5.4-1.4-1.7-2.1-4-3.3-5.6-.6-.7-2.3-.7-2.8-1.4-.9-1,0-1.8-.3-2.9m-20,83.8c3-5.1,8-9.5,11.9-14,.3,7.4-5,12.5-11.9,14m4,2.4c6.1-2.1,9.5-7.3,10.1-13.5.8-7.9,5.7-12,8.7-19.1,1.1-2.7,2.5-11.7,6.9-9.1,1.5.9,2.4,4.2,3.2,5.7,1.9,3.6,4.1,7.1,6.1,10.7,1.7,2.9,4.1,5.8,3.4,9.3-.6,3-2.7,6.3-3.9,9.1-2.8,6.7-6.6,13-9.7,19.6-1.3,2.7-2.7,9-6.6,8.9-3,0-2.7-3.3-4.7-4.5-2.5-1.4-5.4,1.3-7.5,2.4a11.047,11.047,0,0,1,11.2-5.6c-5.6-5.6-9.4,2-14.2,3.6-4.6,1.6-12.7-5.9-16.5-8,1.5-2.5,2.8-5.5,5.3-7.2,2.6-1.6,5.6-1.4,8.2-2.3m-49.7,51.1c.7-3.2,2.6-5.1,3.8-8,1.4,3.5-1.9,5.6-3.8,8m97.1,19.8c-.3,10.8-1.2,21.7-1.5,32.5-.1,5-1,9.8-1.6,14.7-.5,4.2-.2,8.3-2.9,11.9-4.2,5.6-12.2,7.3-18.5,9.3-4.6,1.5-9.3,2.9-13.8,4.6-4.1,1.5-7.4,3.9-11.3,5.7-3.5,1.6-7.2,2.6-10.7,4.3-3.6,1.8-6.4,4-10.1,5.6-4.4,1.9-8,5.3-11.9,8-3.4,2.4-7.1,4.2-10.1,7.2-2.8,2.8-6.3,4-9.4,6.5a70.089,70.089,0,0,1-10.5,6.4c-7.5,4.2-17.7,11.5-26.8,7.4,2.6-3.3,7.9-6.5,8.3-11.1.5-5.9-4.7-3.8-7.6-1.9-4.5,2.9-7.1,6.3-10.5,10.2-4,4.5-9.1,1.5-14.1.2,3.4-3,6.7-6.1,10.1-9.2,2.8-2.6,7.2-5.4,8.9-8.9,1.2-2.5,1.2-6-1.8-7.4-3.3-1.5-7.1,1.6-9.6,3.5-6.6,4.9-10.9,11.2-15.2,18-2.3,3.6-3.4,3.4-7.6,2.6-4.5-.8-9-1.6-13.5-2.1,6-6.1,12.7-12.8,17.4-20,1.5-2.3,3.5-8.5-1.1-9-1.9-.2-5.8,3.7-7.2,4.8a64.678,64.678,0,0,0-17,17.2c-1.4,2.2-1.9,4.7-4.6,4.9-3.6.2-10.3-3.2-13.7-4.2,6.6-8.3,13.2-16.8,20.9-24.1,7.1-6.8,14.2-11.7,22.5-16.9a289.029,289.029,0,0,0,25.4-18.5c7.8-6.3,16-12.2,23.2-19.2a252.674,252.674,0,0,0,37.8-47.2,123.321,123.321,0,0,0,6.8-12.3c1.9-4,2.8-8.8,5.3-12.4.9-1.3,2.1-2.2,2.9-3.5.7-1.2.5-2.7,1.6-3.8,2.6-2.5,7.4-1,9.9.8,3.9,2.8,7.1,6.3,11.5,8.7a58.607,58.607,0,0,0,13.9,5.3c11.3,2.7,22.5,5,34,6.7-1.2,4.4,1.7,5.1,2.7,9,1.1,4.8-.4,10.8-.5,15.7m-108.7-73.2c-2.6-3.8-4.8-7.8-7.4-11.6-1.5-2.3-3.4-4.8-2.1-7.7,2.2-4.8,10-5.7,14.2-3.6,9.6,4.8.7,18.4-4.7,22.9m-25.4-87c-.9-7.4,2-12.7,8.7-16.6,4.8-2.8,8.7,1,8,6.1-1,7.7-9.2,16.3-15.5,20.3-.5-3.2-.8-6.5-1.2-9.8m-1-21.2c2-1.6,7.3.4,9.6.6-3.2,2.8-6.3,5.5-9.5,8.3-.2-2-2-7.5-.1-8.9m10.6-71.8c16-2.1-2.4,15.1-7.1,17.8.8-3.7,2.7-17.2,7.1-17.8m42.6-30.1c-2.1,8.8-18.8,18.4-19,4-.1-5.4,3-4.9,7.4-5.4,2.4-.3,12.8-3.6,11.6,1.4m-57.7,13.7c-1.9,4.9-3.4,10-5.2,14.9a15.719,15.719,0,0,1-3.3,5.4c-1.3,1.4-2.8,1.8-2.7,4.1a10.888,10.888,0,0,0,4.1-2.2c-.3,4.5-1.9,9.4-2.7,13.9a148.04,148.04,0,0,0-2,16.3c-.6,11.9-.6,23.8-.4,35.8.1,6.1.2,12.2.5,18.2.2,3,.3,6.1.7,9.1.2,1.2,1,3.8.5,4.9-2.1,4.5-11.6-7.8-15.7-6,.6-3.4-.8-2.7-3-4.3-1.1-.8-1.8-2.2-3-2.9a5.241,5.241,0,0,0-1.1-1c-.5-.6-1-.6-1.5.2-4.6-2.8-5.8-8.7-8.3-12.6-1.3-2-2.5-2.4-2.7-5.2-.2-2.5.2-5,.1-7.4a34.147,34.147,0,0,0-1.1-8.5c-.9-3.1-2.2-2.9-4.6-4.5a2.942,2.942,0,0,0,1.5-1.6c-.8.1-3.1,1.1-3.7.4-1.2-1.4,1.6-1.5,2.3-2.1-3-1.4-2.4-2.5-1.3-4.9.3-.7.6-1.8.9-2.3.6-1.3.9-.5,1.1-2.1.2-1.5-1.2-4.5-1.6-6.2a16.589,16.589,0,0,1-.4-8c.5-2.3,1.8-4.4,1.9-6.8,0-.7-1-.9-1-1.5,0-.9.9-1.4,1.1-2.2.6-2.2.3-4.6,1.3-6.7a39.142,39.142,0,0,1,4-6c.9-1.1,3.1-2.4,3.3-4,.2-1-1.4-.9-1.3-1.6.1-1,1-1.4,1.2-2.1.6-2.1.8-4.1,2.5-5.7,2.1-2,3-1.2,3.1-4.5,0-1.6-1.3-1.9-.6-3.7.4-1,1.5-1.6,2.2-2.3a27.9,27.9,0,0,0,5-6.7c1.3-2.3,3.5-3.7,4.8-5.7,1.8-2.6-.9-3.9,2.7-4.7-.5-1.6-1.1-2.9.3-4.3.8-.9,3-.3,3.8-1.3.9-1.2-.4-3.9.9-4.6,1.1-.6,2.6,1.3,4.3.3,1.3-.7,3.2-4.6,2.8-6,3.3,1.8,2.5.6,4-1.8.4-.5,1.4-.6,1.7-1.2.6-1.1.5-2.2,1.3-3,1.5-1.4,3.8-1.1,5.4-2.1,1.3-.9,1.2-1.8,2.3-2.6.9-.7,2.4-.8,3.3-1.5,1.7-1.4,1.7-2.9,3.9-4.1a44.588,44.588,0,0,0,7.1-4.5c1.5-1.2,2.9-3.4,4.7-4.2,2.4-1.1,4.3-1.2,6.7-2.8,1.7-1.2,3.3-3.1,5-4,1.3-.7,2.2-.6,3.8-1,2.9-.8,3.6-3.5,6-4.7,1.6-.8,4-.1,5.8-.5,5.5-1.2,11-3.9,16.5-5.4,6.8-1.8,13.6-3.4,20.4-5-6.3,8.5-14.3,16.2-22.4,22.9-2.7,2.2-17.2,12.3-9.4,16.6,3.2,1.7,10-3.9,12.6-5.2a150.03,150.03,0,0,1,15.8-7.2c8.7-3.6,20-10,29.7-9.5-5.9,7.2-13.2,13-19.9,19.4-6.2,5.9-15.5,11.3-12.6,20.9-8.7-2.2-16.5-4.8-25.5-4.2-4,.3-8.1-.2-12.1.3-4.4.6-8.5,2.1-12.7,3.4-3.3,1-7,1.1-10.1,2.8a36.373,36.373,0,0,0-4.6,3,17.194,17.194,0,0,0-3.6,4c-5,6.2-9.8,12.1-12.8,19.9m-27.1,120.2c-.3-1.1-.5-2.1-.8-3.4,2.7,1.7,2.7,1.7.8,3.4m-20.9-35a1.966,1.966,0,0,1-2.2.2c-.5-.5.8-2.5,1.1-2.9.5.4,1.8,1.8,1.1,2.7m-5.9-12.8c.4-1.3.7-2.7,1.1-4,.4,1.2,2.5,2.6,2.5,3.8.1.8-3.2.4-3.6.2m1.2,1.9c3.2,2.1,3.5,4.5,3.6,8.1-3.8-1.2-3.3-4.9-3.6-8.1m55.1-142.1c-.3.9-1.7,3.6-2.7,1.7-.3-.6,2-1.4,2.7-1.7m-.9-2.9c.8-.7,2.4.2,3.2-.4.6-.4.4-.8.7-1,.1,0,.9-1.8,1.2-2.1.6-.7,1.9-1.1,2.7-1.7,2.1-1.7,3.2-4,4.6-6.3,1.6-2.7,2.1-3.1,4.6-4.3a16.2,16.2,0,0,0,4.5-3.4c1.6-1.7,1.5-2.9,2.8-4.8.7-.9,1.6-1,2.4-1.8.9-.9,1.4-2.1,2.2-3,.4-.4,1.5-.4,1.8-.7.3-.4.5-2.1.8-2.4l1.5,2.1c2-3.5,3.5-6.4,6.8-8.8,3.5-2.5,6.6-6.1,10.2-8.3.8-.5,2.5-.7,3.1-1.4,1.1-1.2.1-2.3.9-3.4.9-1.2,2.6-.2,3.7-.7,1.4-.6,1.8-2.5,3.6-2.3-5.9,7-5.9,18-6.2,26.8-.1,3.8,2.2,5.7-1.3,8.5-3,2.4-7.2,1.7-10.8,3.2-4.4,2-9.2,3-13.7,4.7-4.7,1.8-8.5,4.8-13,6.9-4,1.8-6.7,4.4-10.3,6.6-1.4.8-3.5,2-5.1,1-1-.8-2.2-1.8-.9-3m67.2-59c.3-1,5.3-3.6,6.6-4.5,1.9-1.3,4.6-4.4,6.7-3.2.7-2.9,3.6-6.1,6.1-6.7a37.962,37.962,0,0,0,10.3-5.1c.8-.6,1.1-1.5,2-2.1,1.6-1,3.3-.5,4.8-1.8.2-.2,2.4-3.8,2.5-3.8l.3,1.2a14.657,14.657,0,0,0,4.2-2.8c.2-.3-1.3-1-.8-1.5.6-.6,1.9.1,2.5-.5-1.8,9.1-.5,20.9,8.8,25.5-11,1.2-21.8-2.1-32.9-.1a60.484,60.484,0,0,0-15.6,5c-3,1.5-6.8,6.9-9.7,4.3,1-1.6,2.8-2.6,4.2-3.9m53.4-26.3a15.507,15.507,0,0,1,16.6-5.2c7.4,2.1,4.3,7.3,3.1,13-2.1-3.1-6.7-6.2-10.6-6.3-5.6-.1-3.5,4.5-.1,6.2,3,1.5,8.2,1.9,10.4,4.7,2.1,2.7,1.3,7,1.6,10.2-1.6-.2-3.3-.5-4.9-.7,1.4-7.3-4.7-7.7-10.3-9.8-5.7-2.2-10.5-6.3-5.8-12.1m18.4-18.1v6.8l-6.9-3.9c2.3-.9,4.6-1.9,6.9-2.9m18.4,54.5c7.6,2.1,15.2,4.3,22.6,7.1,2.7,1,5.6,1.4,8.2,2.6,2.5,1.1,2.9,1,2,3.2-2.5,6.1-8.4,5.1-13.5,4.1-8.1-1.5-16-3.5-23.9-5.4-7.8-1.9-15.7-3.1-23.4-5.4a241.366,241.366,0,0,0-23.6-6.3c-2.4-.5-21-2.2-20.9-4.1,11.8-1.5,23.9,0,35.7.1,12.2.2,24.9.8,36.8,4.1m-10.4-23.7c.1-4.2.2-8.4.7-12.6,3.5,4.3,6.7,5.6,11.1,1.6,4.2-3.9,5.2-5.9,10.5-2.3,4.6,3.2,9,3,14,.2,3-1.7,7.8-8.6,11-7.2,1.5.7,2.6,3.4,4.1,4.4a21.606,21.606,0,0,0,7.1,2.6c5.3,1.2,8.4-2.2,11.7-5.8,4.8-5.2,4.6-2.2,9.1,1.4,4.9,4.1,9.1,2.1,13.6-1.4,2.7,8,3.7,16.7,4.5,25.1.3,2.8,1.2,6.8-1.3,8.8-1.8,1.4-5.6,1.5-7.7,2.2a78.34,78.34,0,0,0-21.6,11.8c-2.5,2-4.7,4.4-8.1,3.9-3.3-.4-6.4-3.2-9.1-5-2.9-2-5.7-4.2-9.1-5.3-2-.6-5.1-.4-6.8-1.6-3.2-2.2.6-7.9-.2-11.7-.6-2.9-2.3-9-6.3-7.3-6,2.5-2.5,12.5.8,15.6a136.32,136.32,0,0,1-20.7-5.2c-5.1-1.4-7.4-7-7.3-12.2m112.8,20.5c13.8-3.9,26.7-6.5,41.1-7.2,6.4-.3,12.5-.1,18.8-.1,3.6,0,6.4-2.9,3.5-6.2-4-4.6-16.2-2.9-21.6-3.1a108.315,108.315,0,0,0-41.5,5.9c1.5-2.7,4.9-3,7.3-4.4a15.49,15.49,0,0,0,6.2-7.6c3.3-8.1,0-15.7-3.4-23.1,6.7,1.8,13.6,5.7,20.4,6.7a14.272,14.272,0,0,1,3.6.6c.8.3,1,1.4,2,1.6.5.1,1.6-.9,2.1-.8,2.1.6.4.7,1.7,1.6,1,.7.9,1.5,2.8,1.2.8-.1,1.7-1.4,2.2-1.5.6,0,.4-.7,1.3-.5,1.6.4,1.4,2.4,1.9,3.4.6,1.1-.2,2.5,1.5,3,1.3.4,1.6-.9,2.7-.8a6.574,6.574,0,0,1,2.6,1.6,29.4,29.4,0,0,0,6.9,5.1c-.2-.2,1.2-.8.8-1a6.985,6.985,0,0,1,1.2.3c1.4.3,2.2,2.5,2.9,3.3a14.122,14.122,0,0,0,5.3,3.7c3.2,1.1,3.1-.2,4.3,3.6,2.3-3.6,3.2,2.4,6,3.1,1.5.3,1.3-.3,2.7.5.9.5,1.5,2.2,2.2,2.9.3-1.1.6-2.3.9-3.4,2.1,3.9,6.5,10.1,11.4,9,0,1.1-.4,2.3.4,3.2.6.6,1.5-.1,2,.3.4.3,1.3,1.6,1.6,1.8.6.4,1.7.7,2.2,1.1s.7,2.1,1.2,2.7c.9,1.2,2.6,1.4,3.4,2.8.2-1.4.4-2.8.5-4.2,1.5,1.2,1.7,2.1,2,3.8.5,2.5-.2,1.9,1.5,2.9s2.5.9,4.1,2.7c1.5,1.7,1.5,2.8,3.7,1,.4,1.3.5,3.1,1.6,4.1.8.8,4.2.8,4.5,2.6-6.3-5.3-2.2,2.8,0,0,.5,3,2.6,3.9,5.1,6,2.3,2,2.7,1.8,3.5,5.1a4.184,4.184,0,0,1,1.2.8c-2.2.3,1.2,2.8,1.8,3.3.4.3,1-.5,1.7.1a12.7,12.7,0,0,1,2.1,2.9,64.313,64.313,0,0,0,5,6.2c2,2,3,4.6,5,6.9,2.2,2.6,3.4,5.6,5.2,8.5,1.7,2.7,4,4.9,6,7.4,3.2,3.9,4.3,12.6,10.2,12.9-.3.4.1,3.1.2,3.5.3,2.4.1,4.8,1.5,7,.3-2.5,1.7-1.6,2.8-.2,1.9,2.2.2,1.7.3,3.9.1,2.7.4.6,1.5,3a23.51,23.51,0,0,1,1.7,5.1c-3.4.3-4.9-2.5-6.1-5.1-.5-1.1-.7-2.9-1.6-3.8-1-.9-2.3-1-3.3-2-1.9-2-2.8-5.1-5-7-2.6-2.2-3.1-3.2-5.3-5.8-2.3-2.9-5.6-4.9-8.1-7.7s-2.3-1.3-5.4-2.3c-3.3-1.1-8.6-11.4-12.8-7.5.2-2.6-3.7-5.1-5.7-6-.9-.4-1.8,0-2.7-.7s-1-1.9-1.9-2.7a7.18,7.18,0,0,1-1.7.2c-.6-.3-.6-1.4-1.1-1.7a44.78,44.78,0,0,0-4.7-2.8c-3.7-2-7-4.5-10.6-6.9-3.1-2.1-6.8-5.8-10.4-6.9-3.1-1-5.1-.5-7.6-2.4-1.4-1-1-1.4-3.2-2-2.1-.6-3.3-.3-4.4-2.6-2-3.9-.7-11.6-1.1-16.1a84.2,84.2,0,0,0-2.1-14.1c-1.4-5.4-3.4-8.2-9.2-6.9-11.5,2.5-22.8,4.9-34.3,7.1-23,4.4-45.5,11.6-68,18-1.7.5-11.3,2.7-9.3-2.3.9-2.3,6.9-3.1,9-3.8,10.8-3.6,22-7.6,33.3-10.8m-3.9-10c-1.7.6-3.4,1.3-5,1.9v-4.7c1.7.9,3.4,1.8,5,2.8m-6.9-24.7c1.5,1.2,4.4-1.7,5.7-2.3a14.9,14.9,0,0,1,7.2-1.6,7.81,7.81,0,0,1,6.8,9c-1.4,7.4-11.8,10.8-17.6,13.7-.2-2.6-1-5.7.8-8,1.6-2,4.7-1.8,6.1-3.9,3.7-5.2-6.3-5.7-8.5-1.5-.9-2.7-1.8-5.3-2.6-8,1.9-.3,1,1.7,2.1,2.6m10.3-14.4c-2.1,1.3-4.2,2.7-6.2,4-1.1-4.6,2.4-5.2,6.2-4m189.7,162.1c-2.7,1.3-3.4-1.8-5.4-1.9,2.3-1.4,2.3-1.4,5.4,1.9m11.1,67.9c.3,4.5.1,9,.7,13.4.5,3.4,1.8,6.5,2,10a28.731,28.731,0,0,1-7.3,20.6,46.792,46.792,0,0,1-18.3,11.9c-2.9,1-6,3.2-8.9,4-3.2.9-6.2-1-8.8,2.4-1.7-14.9-.5-30.6-.6-45.6-.1-15.1,0-30.1-2.5-45-2.3-13.3-6.7-28.2-15-39.1a66.992,66.992,0,0,0-11.8-11.4,55.92,55.92,0,0,0-7-5c-3.9-2.1-7.2-1.8-11.4-2.4-6-.9-11.6-1.6-17.7.1-5.6,1.6-11.8,3.4-16.9,6.1-5,2.7-10.9,3.9-16.1,6.3-3.5,1.7-10.9,7.2-14.8,6.2-3.8-1-9.4-7.4-11.9-10.3a143.21,143.21,0,0,1-8.4-12c-1-1.4-2.9-3.6-3.2-5.4-.4-3.1.8-2.1,3.8-1.7a111,111,0,0,1,22.2,4.7c3.7,1.2,10.8,6,14.4,3.1,5.6-4.4-2.9-12.1-6-14.6-5.3-4.4-11.4-7.6-17.1-11.5-6-4.1-13.9-8.5-17.7-14.9,11.2,3.3,22.5,7.1,33.4,11.4a127.788,127.788,0,0,1,14.6,6.6c2.6,1.5,8,5.4,11.1,3.5,6.9-4.1-8.9-16.1-11.2-18.5-3.6-3.8-7-7.6-10.9-11-2.6-2.3-6.8-4-8-7.4,4.4,1.6,7.9,4.7,12,6.8a20.651,20.651,0,0,0,6.5,2.1c2.5.4,2.8.8,4.8,1.8a31.888,31.888,0,0,0,4.9,2.4c1.2.4,3.4.4,4.5,1.1.6.8,1.1,1.6,1.7,2.3a15.872,15.872,0,0,1,2,.7c1,.9,1.5,2,2.5,2.9,6.8,6.4,15.9,11,23.5,16.4,7.2,5.1,14.8,9.7,21.7,15.2,7.9,6.4,16.2,13.2,23,20.9a128.471,128.471,0,0,1,10.2,14c2.3,3.5,5.7,6.3,7.7,9.9,4.4,7.8,8,16.2,12.7,23.9,4.6,7.8,10.8,15.6,11.6,25.1m-64.6,45.2c1.3-5.4,8.7-11.7,13.4-14.1-2.4,5.9-8.7,9.9-13.4,14.1m12.1,18.8c-4,8.4-21.7,9.3-19.3-3.1,1.2-6.1,6.2-9.8,10.5-13.7,2-1.8,6.8-8.4,9.9-7.3-.1,4.7-.4,9.4-.4,14.2,0,3.1.8,7-.7,9.9m-5.1-96.3c1.6,3.7,3.3,6.7.2,10-1.4,1.5-5.8,4.7-7.8,4-6.5-2.3,5.9-12.4,7.6-14m-39.1-32.7c1.6-.1,3.1.1,4.6.1,1.5-.1,1.7-.4,3.1-.2a4.233,4.233,0,0,1,.5.7c.2,1.5,1,1.6,2.3.5a15.063,15.063,0,0,1,4.9,1.7c-4.8,3.5-10.7,7.5-16.6,8.7-9.4,1.8-6.8-11,1.2-11.5m-143.3,78.2c-1,1.9-3.8-2.9-4.4-3.8,1.3,0,5.4,1.8,4.4,3.8m75.1-51.3a189.181,189.181,0,0,1,23.7-11.1c1.4,6.6-5.3,15.1-9.4,19.6-3.3,3.7-7.3,7.4-11.9,9.5-4.9,2.3-10.2,1.3-10-5.1a25.417,25.417,0,0,1,1.6-8.2c1.2-2.7,3.5-3.2,6-4.7m-98.1-120.1c1.1-.1,12.8-1.6,12.8-.1-.2,4.3-11.6.9-12.8.1m-83,84.7c6.2-7.6,16.2-15.9,16.4-26.6.2-15.7-17.2-7.9-26-7.2,4.6-4.6,28-23.7,14.2-30.5-4-2-9.6,0-13.6,1-7.1,1.8-13.6,5-20.6,7.1,5-5.3,13.5-11.3,13.2-19.3-.3-9.7-8.3-7.4-15.2-5.9-2.7.5-14.5,5.3-16.7,2.1-.8-1.2.5-2.7.8-3.7a16.045,16.045,0,0,0,.4-4.4c0-3.8,2.6-8.7.5-12.2a11.507,11.507,0,0,0-1.2,2.5c-.7-2.1-.2-4.2-.9-6.3,17.2,4.4,34.8,6.8,52.1,10.6,8.8,1.9,17,5.2,25.9,6.7,9,1.5,17.8,3.8,26.8,5.2,8.2,1.3,16.1,3.4,24.2,5.1,7.9,1.6,16-1.9,23.8-3.7,17.3-4,34.6-8.1,51.9-12,20-4.5,40.8-8.3,59.9-15.8.4,10,1.2,19.9,2.4,29.8-8.5-4-21-9.2-29.5-2.1a11.229,11.229,0,0,0-3.1,12c1.5,4.6,6,6.7,9,10.1-9.1-2.3-32.4-18.7-36.6-2.1-2.9,11.7,11.4,19.2,18.4,25.8-7-1.4-16.3-6.9-20.3,2-3.5,7.7.7,16.1,5.1,22.5,2.4,3.5,5,6.7,7.5,10,1.3,1.8,2.6,3.6,4,5.3s4,3.5,5,5.4c2,3.7-2,4-5.1,5.3-3.9,1.7-7.2,4.5-10.7,6.8-8.1,5.2-15.2,10-24.7,11.6-9.8,1.7-19.3,3.5-29,5.8-9.7,2.4-17.6,4.6-27.5,1.6-4.5-1.4-8.2-2.6-13-2.4-5,.3-8,0-12.1-3.1-18-13.3-37.3-24.3-55.7-37m-32.1-13.4c6.9-3.4,13.8-6.9,20.9-9.9,5.9-2.5,14.8-5.3,21.2-4.2-1.8,4.7-5.1,8.5-8.7,11.9-3.1,3-7.1,7.6-10.9,9.7-3.5,1.9-7.5-1.1-10.9-2.4-3.6-1.4-8.7-2.1-11.6-5.1m1.8,17.4c3.4-1.4,10.8,3.4,13.9,4.6,6.1,2.4,12.3,5,17.7,8.8-6.6,7.6-14.1,14.6-22.9,19.5-5.8,3.2-15.7,6.9-21.2,1.1-6.9-7.3,1.4-22.3,6.3-28.6.2,1.1.3,2.2.5,3.2,1.5-2.5,2.7-7.4,5.7-8.6m125.7,65.1c-4.3.9-5.7.1-8.5-3.2-1.9-2.2-3.8-4.5-5.9-6.5-2.2-2-7.6-6.9-.7-4.1,6.3,2.6,11.7,3.9,18.6,2.9,7.9-1.2,15.3-4.5,23.1-6.2-4.3,3.7-8.5,7.5-12.8,11.3-4.6,3.9-8,4.6-13.8,5.8m1,30.2c-9.4,7-28.2,6.3-21.9-9.2a27.341,27.341,0,0,1,3.9-6.6,8.81,8.81,0,0,1,2.2-2.5c2.1-1.3,1.5-1.4,3.5.7,1.7,1.8,15.1,16.5,12.3,17.6m-2.8-27c.9-.3,4.5-2.4,5.3-1.2.9,1.2-6.2,5.2-5.3,1.2m68.2,107.5c-2.1,5-19,12.3-15.8,2.2,1.4-4.5,2.7-7.9,7.9-8.2,3.1-.2,9.8,1.6,7.9,6m30.3-68.3c2.8-4,11.9-9.5,15.8-3.5,1.9,2.9-2.7,4.4-5.5,3.6-1.5-.4-2.7-1.3-4.3-1.4-2,.1-4.1,1.7-6,1.3m7.3,4c-1.9,1.9-13.3,11.5-15.1,10,3.7-5.3,8-11.2,15.1-10m-18.6,96.9c-4,.2-2-5.7-1.6-8.1,1,1.7,6,7.9,1.6,8.1m10.1-10.6c-1.3-2.3-4.7-5.7-3.9-8.6.6-2.2,6-5.2,8.2-4,3,1.7-1.4,12.9-4.3,12.6m93.7-23.9c-1.7,5.8-3.4,4.3-8.7,5.4s-9,5.6-13.7,8.1c1.6-3.4,2.6-7.6,5.4-10.4.6-.6,4.5-1.9,2.3-3.4-1.9-1.3-4.7,2.9-5.5,4.1-4.1,5.7-6.9,12.6-9.2,19.1a48.99,48.99,0,0,0-2.6,9.8c-.5,3,0,6.1-.5,9.1-.8,4.7-7.2,4.7-11,5.9a75.375,75.375,0,0,1-10.6,2.9c-3.1.5-6.4-.4-9.4.2-3.3.7-4.8,2.6-8.5,2.2-3-.4-5.9-1.8-9-1.9-2.9-.1-5.8.9-8.6.1-2.9-.8-2.8-1.1-2.1-4,.4.8.8,1.5,1.2,2.3,1.2-.9,2-3.7,2.7-5,1.1-2,2-2.7,1.6-5.2-.6-3.7-3.9-6.3-4.7-9.8-.8-3.7,1.9-6.7,3.5-9.7,2.2-4.2,2.2-7.3.3-11.6,1.4.4,2.8.7,4.2,1.1-1.9-4.1-8.3-2.5-11.6-1.2-1.6.6-4.2,3-5.9,3-2.4-.1-3.7-3.2-4.7-5-3-5-6.4-10-9.9-14.7-1-1.3-2.2-2.1-1.9-3.6.3-1.2,3.1-3,4-3.8,3.4-2.9,7.7-4.4,10.9-7.5,4.8-4.6,10.3-7.8,15.3-12.3,5.1-4.7,10.4-8.9,15.7-13.3,5.4-4.5,10.1-9.7,15.4-14.2,1.4,2.5,4.1,11.5,7.2,12.2,3.6.8,3.5-3.4,3.3-6-.3-3.6-2.3-7.2-2.5-10.7-.2-3.7,3.3-5.4,6-7.5,4.2-3.3,13.4-10.9,8.4-17.1-4.3-5.4-18.2,4.9-22,8-3.3,2.6-5.8,5-9.4,7.1-2.6,1.5-6.9,7.1-10,6.5-3.6-.6-5.1-4.6-9.5-4.5-4.3.1-8,3.3-10.7,6.4-6.1,7.1-8.2,16.6-13.7,24-2.7,3.7-6.3,6.7-9.3,10.1-3.3,3.8-4,8.2-7.2,11.9-9.2-12.3-19.2-23.9-28.9-35.7-4.8-5.9-9.6-11.9-14.3-17.9-1.8-2.2-3.8-4.4-5.4-6.7-2.2-3.2-1.8-5.8-2.7-9.4-.4-1.6-2.2-3.5-1.7-5,.7-2.1,5.2-3.7,6.9-4.5,6.8-3.4,12.9-7.7,19.2-11.9,11.7-7.8,23.5-15,35.9-21.7-.2,2.9-2.1,5.8-.8,8.7.6-1.6,1.5-9,3.7-9.3-.4.1-.1,9.4.3,10.8,1,4,4,6.7,8.2,6.7,8-.1,15.2-8.8,19.7-14.6,3-3.9,5.9-8.5,7-13.4,1-4.4-.1-7.5,4.5-9.7a146.17,146.17,0,0,1,28.9-10.8c-.5,4.3-1.7,9.7,2.2,12.8,4.3,3.4,10,.4,14.1-1.9s10.3-8.4,15.1-6.6c4.7,1.8,7.9,7.6,10.6,11.5,2.3,3.4,4.8,5.9,2.1,9.7-3,4.3-4.9,8.5-7.4,13.1-.9,1.8-1.8,3-1.2,4.8a26.9,26.9,0,0,0,3.3,4.7c4.2,3.2,9.8-2.9,12.8-5.3,1,10.1,1.3,20.1,1.7,30.3.3,7.4,3.2,14.7-2.9,20.1s-11.2,11-14.9,18.3c-2,3.9-3.8,7.9-5.9,11.8-1.4,2.6-4.4,6.3-2.6,9.3,1.9-1.8,2.5-4.7,4.2-6.7,1,4.3,2,9.1,6.5,11,5.3,2.1,10.5-1.5,15.2-3.6-1.8,11.6-5.1,22.8-8.4,34m-5.3,13.3c-3.6,7.7-6.9,17-13.6,22.7-1.5,1.2-7.7,6.1-10.1,5.3-2-.7-.9-4.8-.6-6.5,1.8-8.8,4.9-14.4,12-20,3-2.3,6.8-5.3,10.6-5.9,4.2-.6,3.1,1.4,1.7,4.4M590,635.167c-9.4-12.7-22.6-22.7-35.1-32.2-5.7-4.3-11.9-7.6-17.6-11.9a141.769,141.769,0,0,0-20.3-13.3c-13.8-7-28.8-11.9-41.7-20.2-6.3-4-13.3-7.9-19.2-12.5a93.3,93.3,0,0,1-7.3-6.8c-2.2-2.1-6.9-5.2-7.8-8.3,3.7-.6,5.7-4.1,9-4.5,1.1-.1,7.8,1.7,6.9-1.6a18.022,18.022,0,0,0,4.8-.6c.8-.2,1.9.1,2.7-.2,1.3-.5,2.2-1.8,3.5-2.3.9-.4,4.4,0,5-.4,1.4-1.2-.1-1.1-1-2.7,2.8-.1,4.7,1.3,7.6-.2a24.05,24.05,0,0,0,2.4-2.1c1.5-1,2,.5,3-1.5.9,2.8.9,2,3.2,1.2a22.944,22.944,0,0,1,6.5-1.6c6.2-.5,12.4.3,18.5-.2,2.2-.2,4.2-.7,6.4-.4,2,.3,1.4,1.6,3-.2.4-.4-.8-1.6-.3-2.2.3-.3,1.1-.1,1.4-.2,2.9-1.3,2.9.5,3.4,2.8a16.769,16.769,0,0,0,4.9-1.7c-.7-.7-2-1.4-1.3-2.6,2.4.9,4,.5,2.8,3.2,2.4.8,2.9-.2,5.1-.5,1.3-.1,3.1.7,4.2-.4,1.2-1.1-.7-2.4,1.5-3.3a2.41,2.41,0,0,1,1,1c1.2.4,1,.8-.6,1.4,4.3,2.2,3.3-.3,5.1-2.9.4-.6,2.3-2.5,3.1-1.6,1.3,1.4-1.3,1.8-.8,3.2,1,2.4,4.4-.7,5.4-1.9.8-.9,1.1-2.6,2-3.3,1.2-.9,2.9.5,4.4.3,6.7-1.2,13.1-10.3,8-16.3-1.4-1.6-2.5-1.3-4.1-2.3s-2.5-2.8-3.8-4.2a27.5,27.5,0,0,0-10.7-7.4,184.6,184.6,0,0,0-29.9-8.4c-4.6-.9-9.6-2.3-14.4-2.3-2.8,0-7,2.2-9.6,1.1-5.1-2,2.4-12.4,3.6-15.8a183.043,183.043,0,0,0,8.2-30.7c.4-2,.2-4.7.9-6.6.8-2.2,1-1.9,2.8-2.1,3.2-.3,6.8,1.4,10.2.8,3.7-.7,7.8-.3,11.6-1.5a8.276,8.276,0,0,0,4.5-2.6c.4-.5,0-.9.2-1.2a20.023,20.023,0,0,0,1.4-1.6,7.487,7.487,0,0,1,.2-2.1c1.3,1.1.7,3.4,2.9,3.4.4-2.4.4-2.9,2-4.3a9.016,9.016,0,0,0,1-.9,3.08,3.08,0,0,1,.5-1.2,4.751,4.751,0,0,1,2.4-.6c1.7-1.8,1-2.7,1-5.1,1.4.7,2.8,1.4,4.2,2.2.3-7.1,4.6-10.9,7.5-16.7,1.2-2.4,2.5-4.3,2.7-7.3.2-1.7-.3-3.2.4-4.8.6-1.5,2.1-2.2,2.7-3.8,1.2-3.1.3-7.1.4-10.3.1-4.5.5-8.9.7-13.4a147.074,147.074,0,0,0-1.9-26.5c-.6-4.2-1.7-8.2-2.5-12.3-.7-3.4-2.3-6.6-2.9-9.7-.2-1.3.1-2.5-.3-3.9-.5-1.9-1.4-3.8-2-5.6-1.5-4.4-3-8.7-4.7-13-3.3-8.3-7.1-16.4-10.8-24.5-3.5-7.8-6.4-15.9-11-23.3-4.5-7.2-9.3-14.3-14.3-21.2-5.1-7.2-11.7-13.4-16.7-20.6-9.4-13.6-22.5-24.9-36.1-34.1-28.2-19.1-58.7-38.2-92.6-44.8a89.8,89.8,0,0,0-15.5-1.8c-3.2-.1-8.6,1.5-11.6.4-3.4-1.2-3.1-5.1-4-8.1-1.1-3.9-3.6-6.4-6.4-9.2-3-2.9-5.7-6.3-9.4-8.2-3.8-2-8.2-2.7-12.3-3.3-3.7-.5-9.3,0-12.7-1.7-3.1-1.5-1.6-3,1.3-1.7a5.639,5.639,0,0,1,1.2-3.1c.4-.5,2.3-1.2,2.4-1.7s-1.6-2.1-1.8-2.8a7.8,7.8,0,0,1,.4-5c2.9,2.6,3.8,3.7,7,1.3a9.84,9.84,0,0,1,3.4-2c.4-.1,1.4.3,1.8.1,1.4-.9.1-.7.8-1.8-.2.3,1-2.7,1-2.1.1-1.6.6-1.1-.3-3-1.9-3.8-6.7-4-4.2-8.3,1-1.7,1.8-1.5,2.1-4,.1-1.3,0-2.9,0-4.2,0-2.8.5-4.7-2.1-6.1-2.5-1.4-4.8.1-5.8-3.2-1.1-3.5,0-8.1-3.8-10.5-2.8-1.8-6.8-.3-9.9-1.1-3.1-.9-6-4-9.1-1.6-2.2,1.7-3.4,6-7.6,3.7-1.9-1-2.9-4.5-4.1-6.5-1.9-3.1-3.4-4.2-6.4-1.2-1.8,1.9-5.6,6.4-5.9,9-.3,2.9,2.2,4.1-.9,5.7-3.1,1.7-4.9.4-7.4,3.9-2.5,3.4-.6,5.3-3.5,8.5-3.6,4.1-5.6,5.8-5.5,11.3,0,3.7-3.3,7-1.3,10.5,2.2,4,8.5,5.6,12.3,7.3-1.3,2.4-3,3.9-1.5,6.3,1.4,2.2,5.2,2.7,7.5,2.3,1.6-.3,1.7,0,2.9-1.1.8-.7-.3-1.6,1.4-2.1,1.8-.4,4.7,3.1,5.8,4-2.6,3.4-9.8,4-13.6,5.7-2.3,1-4.4,2.6-6.8,3.5-2.1.9-4.7.7-6.7,2-3.3,2.3-4.7,7.9-6.8,11.2-2.3,3.7-4.6,5.5-9,6.3-5.6,1-10,1.4-15.2,3.8-6.3,3-12.6,6.1-18.8,9.3a292.759,292.759,0,0,0-28.7,16.6c-9.7,6.5-19.2,13.3-28.6,20.1-9.3,6.7-17.1,15-25.2,23.1-6.5,6.6-12.3,13.7-18.8,20.2-7.7,7.8-13.3,17.5-20.4,25.8-3.9,4.5-7.6,8.9-10.1,14.2-2,4.3-5.4,8.5-7.7,13-2.9,5.8-5.7,11.4-9,17-1.4,2.3-3,4.3-4.4,6.4-1.8,2.8-1.7,5.5-2.2,8.7l-1.5-2.4c-.9,2-2.1,4-2.9,6.1-.5,1.3-.4,3.2-1,4.4-.6,1.5-1.4,1.3-2.2,2.5-.9,1.3-1.1,3-2.1,4.4-3.9,6-5.5,13.7-7.5,20.6-2.7,9.2-2.3,19.8-2.1,29.3a231.573,231.573,0,0,0,2.2,30,72.494,72.494,0,0,0,8.9,25.5c4,6.9,9.5,10.9,16.5,14.4,3.2,1.6,6.2,1.1,9.6,1.4,3.7.3,6.3,1.3,10.2.4,1.9-.4,2.8-1.8,4.3-2.3.9-.3,1.4.2,2.3.1,1.3-.2,3.9-.8,5.3-.6,4.3.5,3.6,7,4,10.3.7,5.1,1.1,10.3,2,15.4,1.8,10.7,5.8,20.7,8.2,31.2a116.131,116.131,0,0,0-30.6,7.5c-10.3,4.2-20.7,5.6-31.5,7.6-10.1,1.9-19.9,5.5-28,12.1-3.8,3.1-7.7,6.6-5,11.7,1.8,3.2,5,4,7.8,5.9.6-.7-1.1-2.2-1.4-2.6,2.3.5,2.3,1.6,4,2.5,1.5.8,2.7.8,4.3,1.4,4,1.4,5.9,5,9.9,6,1.2.3,2.9,1.1,4.1,1.3,1.5.3,2.7-.4,4.2-.1a11.065,11.065,0,0,0,2.7,1.2c.6-.3,1.3-.6,1.9-.9,2.2.2,3.6,1.6,5.4,2.8.1-1.4-.1-2.9,1.3-3.9.5,1.4-.3,2.3,1.1,3.3,1.8,1.2,4.3-.3,5.9-1.1.5,4.7,11.3,4.4,14.7,4.3,4.7-.1,9.5-2,14.2-.9,2.4.5,5,1.1,7.5,1.8,2.9.8,6.5,1.6,9.3,2.6,1.1.4,2.5,1.8,3.8,1.7,1-.1,1.2-1.5,2.4-1.5,1.3,0,1.7,1.5,2.8,1.9,1.7.6,3.2-.6,4.7,0,.6.2,1.3,1.2,2.1,1.5,1.1.5,3.3.5,4.5.7a40.168,40.168,0,0,0,4.8.2c1.2.1,1.2.9,1.7.9.7.1,1.8-2.2,2.7-2.5,1.3-.5,3.6.7,4.9.9a185.977,185.977,0,0,1-33.3,34.2c-13.4,10.7-27.1,21.5-41.4,30.9-13,8.6-25.6,15.9-35.7,28-8.5,10.2-22.1,21.1-20,35.8s18.1,20.7,30.9,23.6c16.1,3.5,32.7,2.1,48.9,4.1a103.033,103.033,0,0,0,21.5-.3c8.2-.9,15.2-6.2,22.3-10.1,12.7-7,23.5-16.3,36-23.5,15.6-9,31.1-18.5,48.3-24.5,8-2.8,16.2-6,22.6-11.8,1-.9,1.7-2.2,2.8-2.9,1.8-1.2,2.3,0,3.4-.3.8-.3,1.6-1.2,2.3-1.4,1.8-.7,2.6-.4,4.6-.4-1.7-1-3.3-3.6-1.5-5.7,3.1-3.6,3.6,2.1,4.8,3.5,1-1.3.6-2.4.4-3.8.8.5,1.7,1.1,2.5,1.6a10.394,10.394,0,0,1,1.4-7.7c1.4-2.2,1.7-1.9,2.1-5,4.2,3.8,5-5.5,5.4-8.9.4-3.3,0-5.6,2.2-8.5,2.3-3.1,5.9-5,8.8-7.4,4.7-3.8,9.8-8.6,16.2-4.9,5.1,2.9,7.8,9.9,12.6,13.5,2.9,2.2,5.9,2.4,7.8,5.8,1.5,2.7,2,6,3.4,8.9,3.4,6.8,8.3,14.7,13.9,19.9,5.2,4.9,11.9,4.9,18,7.9a156.978,156.978,0,0,0,18.7,8.4c7,2.4,14.5,3.4,21.3,6.3,3.5,1.5,6.6,3.7,10.1,5.1,3.8,1.5,7.8,2.6,11.7,4,15.3,5.5,30.2,12.3,46.2,15.4,7.1,1.4,13.7,5.1,20.9,5.8a61.85,61.85,0,0,1,8.6,1.5c4.7,1.2,3.7,1.8,5.5,5.8,2.9,6.5,9.8,2.6,15.2,2.8,8.6.3,17.1-1.1,25.7-1.2,15-.1,29.5-1.8,44.1-6.7,14.1-5.4,30.8-17.4,18.6-33.9" fill-rule="evenodd"/><path id="ink-3" data-name="ink" d="M416.2,129.267c.2.2.7.3,0,0" fill-rule="evenodd"/><path id="ink-4" data-name="ink" d="M151.2,405.067c3.3-3.3,17.2-2.6,18.2,3.3,1.2,6.6-11.2,16.6-15.8,19.4-5.8,3.6-13,4.3-12-4.8.9-6.8,5-13.2,9.6-17.9m11.5-6.8c.4,1.8-2.7,1.2-3.6.8-.4-.9,3.2-2.7,3.6-.8m-24,12.1c2.8.2,5.9-4.2,8-5.7.9,1.4-5.2,9.3-5.8,11.1-1.7,4.5-2.6,10.1-.3,14.6,6.7,13.1,23.8-5.6,28-12.1,3-4.6,5.1-10.2.8-14.7-1.5-1.6-4-2-5.4-3.5-1.8-2-.4-4.6-4.1-4.1-2.5.3-5.6,2.6-8.1,3.4a28.654,28.654,0,0,0-8.3,3.9c-.5.4-8.2,6.8-4.8,7.1" fill-rule="evenodd"/><path id="ink-5" data-name="ink" d="M334.7,414.767c-1.7,9-10.6,18.2-20,18.5-9.3.4-12.3-9.4-10.7-17.2,1.4-6.6,7.1-18.2,15.3-16.9,6.4,1,16.9,7.9,15.4,15.6m-6-15c-5.9-4.6-14.1-6.7-20.9-3.1-2.2,1.2-11.2,6.4-8.5,10,3.7-2.8,6.8-6.8,11.6-7.7-.8,3.7-5.4,7-7,10.6a29.17,29.17,0,0,0-2.6,13.7c.6,8.2,6.1,14.6,14.6,13.5,7.8-1,14.7-7,18.4-13.8,5-9,2.2-17.2-5.6-23.2" fill-rule="evenodd"/><path id="ink-6" data-name="ink" d="M273.9,435.167c-4.2,6.2-10.6,12.1-18,14-9.6,2.5-6.9-5.4-4-11.1,2.5-5,6.9-13.7,13.5-13.6a21.116,21.116,0,0,1,8.4,2.3c3.8,2.3,2.3,5.1.1,8.4m-9-13.7c1.5-1.7,8.2-8.9,9.1-3.3,1.9-2.2.4-4.1-2.1-4.3-3-.3-6.2,3-8.3,4.7a40.845,40.845,0,0,0-10.7,11.6c-3.2,5.2-11.4,17-4.2,22.2,7.8,5.6,19-4.7,23.9-10.1,3.1-3.4,7.2-8.4,6-13.4-1.4-6.2-8.6-6.9-13.7-7.4" fill-rule="evenodd"/><path id="ink-7" data-name="ink" d="M231.9,321.167c-4.3,5-13.2,12.2-20.4,11.3-6.6-.8-4-8.2-1.7-11.8,3.5-5.4,8.2-10.5,15.1-10.8,2.9-.1,6.8-.1,9,2.2,3.1,3,.3,6.5-2,9.1m-.5-13.8c-5.1-1.8-7.1-2.4-12,.4a32.653,32.653,0,0,0-10.2,9c-4.1,5.4-8.2,17.5,2.3,19,11.4,1.7,38.7-21.9,19.9-28.4" fill-rule="evenodd"/><path id="ink-8" data-name="ink" d="M247,338.267a24.133,24.133,0,0,1-12.1,7.1c2-4.4,6.4-14.1,11.7-15.5,2.4-.6,5.2.2,5,3-.1,2-3.3,4.1-4.6,5.4m4.3-11.7c-2.7-1.4-1.9-2.3-5.1-1.2a26.231,26.231,0,0,0-7.8,4c-1.1.9-4.7,4.2-4.2,5.9.8,3,3.4-1.6,4.1-2.5,1.2,1-4.9,9.7-5.3,11.1-1.4,5.3,2.8,5.9,7,4.2,5.6-2.5,22-16.1,11.3-21.5" fill-rule="evenodd"/><path id="ink-9" data-name="ink" d="M332.5,470.267c.4-3.5,1-7.3,4.2-9.3,2.9-1.8,6-1.5,6.4,2.1.4,3.4-2.9,9.5-5.6,11.3-3.7,2.7-4.5-.5-5-4.1m4.9,8.1c7.7-4.5,12.6-25.3-1.6-19.5-8.2,3.3-5.2,23.4,1.6,19.5" fill-rule="evenodd"/><path id="ink-10" data-name="ink" d="M271.3,392.267c1.2-2.5,2.6-3.3,5.1-4.4-1.6,1.5-3.3,3-5.1,4.4m1.8-6.2c-1.8,1.8-5.8,4.4-5.2,7.5.5,2.8,2.6,2.6,4.5,1.7,4-1.8,6.2-9.7,10.4-10.4-4.6-2.9-5.7-2.8-9.7,1.2" fill-rule="evenodd"/><path id="ink-11" data-name="ink" d="M273.7,229.667l.6,25.2c.1,2.9-.6,7.2.2,10,.4,1.2,3.9,6.6,5.2,7,4.4,1.2,2.8-9.8,2.9-12.5.1-9.1,0-18.3-.1-27.4,0-4.7,1.3-44.2-4.8-44-1.1,0-3.6,4.5-4,5.5-1.2,2.8-.8,7.1-.7,10.1,0,8.6.5,17.3.7,26.1" fill-rule="evenodd"/><path id="ink-12" data-name="ink" d="M310.7,254.067c.3,2.3.2,6.2,2.8,7.4,2.3,1,3.1-.2,4-2.1,2-4.5,1.2-11.3,1.2-15.9-.1-9.2-1.1-18.3-1.8-27.4-.3-4,.3-8-.2-12.2-.2-1.8-.4-9.2-3.8-8.9-3.1.3-2.8,8.1-3,10.1-1.4,16.5-1.7,32.4.8,49" fill-rule="evenodd"/><path id="ink-13" data-name="ink" d="M456.2,445.067c-1.3,6.7-22.6,29.9-28,16.9-3.2-7.7,3.7-16.1,9.1-20.6,3.3-2.8,7.5-5.5,12-4.6,3.9.7,7.8,4.1,6.9,8.3m-11-12c-1.5.4-14.1,9.2-14.2,9.1-1.1-1.1,6.8-12.9,7.7-14,6.7-8.5,11.2-2.1,15.4,4.6-.9-4-3.4-9.8-7.5-11.5-5.2-2.1-9.3,3.1-11.8,6.9-3.5,5.4-5.5,11.2-7.5,17.2a34.535,34.535,0,0,1-3.6,8.1c-1.6,2.6-4.3,5.4-3.9,8.6,2.2-1.2,3.4-3.7,4.8-5.7,1.6.6,1,5.6,1.3,6.9a7.764,7.764,0,0,0,6.4,6.2c6.3,1,13.1-4.8,17.3-8.7,4.4-4.2,9.2-9.9,9.2-16.3,0-6.5-6.6-13-13.6-11.4" fill-rule="evenodd"/><path id="ink-14" data-name="ink" d="M462.3,325.767c-3.6,5.5-9.8,12-16.5,13.3-4.9.9-8.1-2.7-6.1-7.5,1.7-4.1,7.3-6.7,11-8.5,2.9-1.5,16.5-4.9,11.6,2.7m-2.7-8.9c-7.3-.3-13.2,5-18.7,9.2,1.2-4.8,4-10.1,7.9-13.3,5.3-4.3,10.4-1.6,16,.5-1.4-4.4-7.6-5.9-11.6-5.3-5,.8-8.6,5.1-11.1,9.2-3,4.9-4.1,10.8-7.6,15.4-1.6,2.1-11.7,10-9.4,13.3,3.8-4,7.5-8,11.3-12,1,4.7,2.1,10.1,8.1,9.6,4.8-.4,10.3-4.5,13.8-7.6,4.7-4,13.6-18.6,1.3-19" fill-rule="evenodd"/><path id="ink-15" data-name="ink" d="M357.3,363.467c-3.1,1.4-9.9,3.4-11.6-.9-2.4-5.9,5.3-16.4,9-20.3,2.3-2.4,3.8-3.7,7-2.1,2.5,1.3,6.2,4.8,7.2,7.6,2,5.8-6.8,13.5-11.6,15.7m7.1-28.5c2.5.6,2.8,3.8-.3,2.5-2.4-.9-3-3.3.3-2.5m3.1,4.5c-.9-2.9,1-7.4-3.7-7.6-2.6-.1-7.4,2.6-9.7,3.6a16.125,16.125,0,0,0-7.8,7c-1.5,3-.4,3.8,1.9,1.3.3.2-5.3,14.6-5.4,16.1-.2,6.6,4.5,10.9,11,9.8,6-1.1,11.5-6,14.8-11a16.412,16.412,0,0,0,3.2-8.5c.2-4.7-2.9-6.6-4.3-10.7" fill-rule="evenodd"/><path id="ink-16" data-name="ink" d="M396.5,337.067c-2.5-4.9,3.4-13.1,8.6-10.7C416.1,331.267,399.8,343.467,396.5,337.067Zm9.8-6.4c-1.2,0-8.6,2.9-7.5,4.9C400.3,338.167,405.7,331.667,406.3,330.667Z" fill-rule="evenodd"/><path id="ink-17" data-name="ink" d="M45.8,321.567c-.3-2.1-5,.9-4.9,2.3.7-1.6,5.5,2.1,4.9-2.3" fill-rule="evenodd"/><path id="ink-18" data-name="ink" d="M301.6,163.867c6-.4-1.6-30.5-6-27.8-4.6,2.8.6,28.2,6,27.8" fill-rule="evenodd"/><path id="ink-19" data-name="ink" d="M312.8,149.867c5.6.8,4.7-12,1.7-14.3-5.6-4.3-8.5,13.3-1.7,14.3" fill-rule="evenodd"/></g></g></svg>