<svg id="Layer_1" data-name="Layer 1" xmlns="http://www.w3.org/2000/svg" viewBox="0 0 917.021 707.857"><title>1</title><g id="Illustrations_coffee" data-name="Illustrations/coffee"><path id="Accent" d="M231.229,424.936c4.7-3.2,14.2-14.6,19.2-17.2,11.1-5.9,60.7-17.4,62.3-18,2.5-1,18.4-4.7,27.7-6.9,21.8-5.4,100-40,120.6-48.9,2.6,6.9,24.3,37.5,20.6,40.6-12.3,10.2-34.3,23-48.5,30.4a249.813,249.813,0,0,1-35.9,15c-13.9,4.6-23.5,9.5-37.4,14.2-13.7,4.6,2.7,19,9.7,22,7.9,3.3,20.1,5,28.1,7.9-14.2,22-26.1,48.8-28.5,75.1-.6,6.3-5.4,12.2-13.3,10.3-4.1-1-41.5-6-47.7-7.4-40.8-9.3-114.1-58-95.2-108C217.329,436.036,227.229,427.636,231.229,424.936Z" fill="#34558b" fill-rule="evenodd"/><g id="Ink"><path id="ink-layer" d="M254.029,159.836c3-.3,10.9-6.3,6.8-9.4-4.2-3.2-7.2,7.2-6.8,9.4m-158.8,23.3c.8-.1.4-4.5-.8-5.1-4-1.8-4.3,4.8-4.4,6.6-.1,2.2-.4,8.5,4.4,6.8,2.8-.9,1.1-6.6.8-8.3m233.8,20.4c-.1,3.9,7.8,11.4,10.7,6.9,2.4-3.8-10.5-14.7-10.7-6.9m-278-87.8c2.3,5.8,13.5-2.1,14-6.4.8-8.7-14.1.6-14,6.4m94,25.1c5.2-.4,12.2-7.1,17.2-9.6,3.4-1.7,12.7-3.7,13.8-7.5.9-3.3-14.9,3.8-16.3,4.4-6.2,2.9-11.8,6.2-14.7,12.7m393.9-46a23.674,23.674,0,0,1,14.6-5.2c2.7.1,8.3,1.7,8.5-2.9.3-7.5-23.3,1.7-27,3.1,1.3,1.7,2.6,3.3,3.9,5m-260.9,293.4c-3.1-5.1-8.6-8-12.7-12.4,1.5,7.1-1.9,13.5-4.3,20,5.6-2.6,11.3-5.1,17-7.6m532.8,108.6c1.7-5.7,3.4-11.3,5.4-16.9,2.2-6.2,3.3-6.8-2-11.1l-13.2,24.9a41.434,41.434,0,0,0,9.8,3.1m-454.8-409.7c-5.8-6.6-33.1-7-29.7,7.5,1.2,5.1,7.9-.3,12.1-1.5,4.1-1.1,15.9-1.3,17.6-6m-1,92.9c-.7-1.7-2.1-7.7-4.2-8.2-2-.5-10.1,5.9-11.6,6.8-7.5,4.8-14.9,10-22.2,15.1,2.8,0,5.4-1,8.2-1,3.3,0,5.7,1.3,8.9.6,6.9-1.7,15-9.4,20.9-13.3m7.5-149.7c.7-3,34.7,6,38.8,7.7,2.2.9,13.7,6.9,11.3-2.1-1.4-5.1-14.7-9.1-19-10.5-10.8-3.6-22.3-6.1-33.8-5.5-2.2.1-19.2,1.1-12.1,7.9,2.4,2.3,11.2,1.6,14.8,2.5m7.5,412.2c6.4,3.1,12.8,5.5,19.5,8,2.9,1.1,7.5,3.9,10.8,3.2,2.7-.6,3.5-4.6,4.9-7.4a112.531,112.531,0,0,1,18.8-26.1c-3.5-2.6-21.4,8.8-25.8,10.4-4.4,1.7-8.6,3.4-12.9,5.4-4.1,1.8-12.2,3.5-15.3,6.5m112.4-84.7c9.3-4.2,18-11.6,25.6-18.3,8.7-7.6,16.5-15.6,22.9-25.5-3.8.2-12.3,12.5-12.4-.9,0-6.9,9.4-13.6,12.3-20-7.3-4.1-13.9,20.4-22.2,14.5-8-5.7,4.6-25.4,7.1-31.6-4.7-3.1-31.5,31.9-35.4,36.4-2.4,2.8-8.2,6.5-9.5,9.8-.8,1.9-.9,8.1-.5,9.9.8,3.7,5,8.2,6.8,11.7a53.891,53.891,0,0,1,5.3,14m382.7,126.3c-8-11.3.3-16.2,6.8-25.6a123.581,123.581,0,0,0,13.3-24.1c8.3-21,15.7-40.4,19.8-62.6-5.6,2.6-9.1,12.3-11.9,17.4-3.8,6.9-7.1,14.1-11.3,20.8-7.8,12.5-15.6,25.9-25.5,36.7-4.5,4.9-8.4,10.4-13.6,14.9-2.4,2-6.9,3.7-8.7,6.2-1.7,2.4.2,3.9-.4,6.8s-3.6,6-4.9,8.9c-1.7,3.7-3.2,7.4-5.1,11a25.3,25.3,0,0,0-3.1,9.9c-.6,4.2,1.2,4.7-2.4,8.5,6.7,2.9,13.4,5.9,20,8.8,2.3,1,4.5,2,6.8,3,.5-.9,1-1.8,1.4-2.7,1.8-1.8,3.5-6.2,4.6-8.5,4.3-9.8,9.2-19.6,14.2-29.4m-644.8-47.4c-19,49.9,47.7,91.9,88.7,101.2,5.7,1.3,11.2,3,16.9,4.4,6.2,1.5,11.6,1.2,17.8,1.8,4.9.5,7.2,4.3,11.8,5.3,7.7,1.7,7.2-4.1,7.8-10.3,2.3-26.3,15.8-51.7,30-73.7-6.5-2.3-12.9-4.9-19.3-7.4-5.5-2.2-13.9-8.3-19.8-8.6-4.4-.2-11,3.5-15.2,5.1a199.306,199.306,0,0,1-21.5,6.9c-12.9,3.2-27.2,7.7-40.5,8-3.8.1-14.4,1.9-17.1-.5-5.3-4.5,2-8.3,6.4-9.9,26.3-9.6,54.2-13.7,80.5-23.6,13.6-5.1,27-10.7,40.6-15.7,11.8-4.3,24.1-8.1,35.4-13.4,15-7,30.1-15.7,43.1-26,2.6-2.1,8-5.1,9.8-8.1,1.6-2.6,1.4,0,1-3.2-.2-2.3-3-5.4-4.2-7.5a205.751,205.751,0,0,1-11.4-24.8c-20.7,8.9-40.4,21-60.9,30.5-20.6,9.6-43.7,16.3-65.7,21.7-9.4,2.3-20.1,3-28.7,7.5-3.6,1.9-7.3,4.1-11.2,5.3-1.2,2.2-2.3,2.6-3.4,1.3a3,3,0,0,0-2.7-1,37.118,37.118,0,0,0-7.1,2.4c-11.3,4.4-22.1,9.9-32.9,15.5-5.1,2.7-10.3,5.3-15.2,8.3a37.514,37.514,0,0,0-7.1,5.5c-2.4,2.7-1.8,4.9-5.9,3m426.7-296.4c4.8.1,9.2-2.5,14.2-2.4,7.9.2,14.1,6.3,18.6,12.2,9,11.6,6.7,25.6,2.2,38.7a72.816,72.816,0,0,1-8.9,17.6c-3.3,4.8-9.2,9.4-11.5,14.7-3.8,8.8,3.9,5.1,8.5,3.2a64.887,64.887,0,0,0,16.4-9.3c22.3-17.7,39.2-42.4,44.9-70.7,2.8-13.8,2.6-30-7.1-41.3-8.8-10.3-24-13.7-37-11.8-14,2.1-26.8,8-38.2,15.7-3.3,2.2-6.4,4.7-9.5,7.1-4.1,3.3-6.5,3.3-5.5,8.5.8,3.8,2.8,7.7,4.2,11.4,2.6,6.9,1.7,8.6,8.7,6.4m15.2,117.8-1,1.7c6.7.3,12.9-5.6,18.6-8.5,7.4-3.7,14-8.8,20.4-14,11.4-9.1,23-19.3,31.5-31.3,19.1-26.7,36.4-60.7,31.2-94.6-5.6-36.5-37.6-50.6-71.6-45.8-15.4,2.2-29.1,9-42.8,16-6.9,3.5-12.8,8.1-19.1,12.5-3.3,2.3-6.3,2.6-6.5,6.6-.2,3,5,9.8,6.5,12.6,17.2-17.6,35.8-32.2,61.9-33.1,31-1.1,49.3,28.3,49.2,56.5-.1,27.6-12,54.1-31,74-8.6,9-16.8,16.2-27.4,22.8-5.3,3.3-9.2,6.2-15.1,8.4-4.2,1.5-3.7.7-4.8,4.6-.9,3.2,0,8.2,0,11.6m-168.4,374.9a102.554,102.554,0,0,1-2.5,14.7c-.4,1.7-2.7,7.2-2.3,9.2.7,3.2-.2,1.2,2.6,2.8,3,1.8,6.4,1.7,9.6,2.2,2,.3,9.3,3.8,10.6,3.2,2.2-1,2.1-4.3,4.4-5.6,3.2-1.8,8-.3,11,1.2,8.1,3.8,13.7,11.6,21.6,15.9,14,7.6,30.5,11.8,46.1,13.6,8.4.9,17.1,2.6,25.4.6,6.6-1.6,15.1-1.4,18.7-8.5-31.7-8.7-80.1-19.4-92.6-55.8-6.8,6.2-18.2,2.9-26.4,2-9.1-.9-17.2-.7-25.4-4.8a36.587,36.587,0,0,0-.8,9.3m-280.6-225.3c14.9.9,29.1-6.2,38.3-18.1,2.3-2.9,4.6-5.9,5.9-9.4.3-.9.6-1.8.9-2.6,1.4-2.4.8-3.6-1.9-3.4-1.5-2.1-5.3-2.8-4.2-6.5.8-2.8,3.8-2.9,6.5-3.8a21.906,21.906,0,0,0-4-5.2c-4.9,4.4-13.7,12.9-17.1,2.9-1.6-4.8,1.2-9.4.5-14.1-.3-1.9-2.7-6.8-4.1-8-7.5-6.1-18.4-3.6-26.3,0-5.5,2.5-6.7,3.7-7.6,9.3-.9,5.8-1.8,11.6-2.8,17.4,3.3-1.7,3.9-5.4,6.1-8.1.8,1.5,1.6,2.9,2.4,4.4a2.867,2.867,0,0,1,3.2.1c1.6,2.4.6,6.1.1,8.6,5.3-.5,7.6,5.4,2.2,7.8-5.5,2.5-8-4.3-8.2-8.7-2.1,2.5-4.2,1.1-5.6,2.4s-2,3.9-2.5,6.8c-.8,4.8-3,11.6-1,16.4,2.8,7.2,12.2,10.9,19.2,11.8m432.4-228c-4.9,6.9-13.4,15.9-15.1,24.2,5.4-3.2,16.9-18.5,19.9-6.3,1.7,7-7,15.4-9.2,22.2,8.6-2.8,14.7-11.7,20-18.5,6.8-8.7,13.8-20.2,15.5-31.2a15.724,15.724,0,0,0-14-18.2,45.448,45.448,0,0,0-14.2,1.4c-2.1.5-5.2,1.1-7,2.2-2.3,1.4-2.6,4.7-4.8,1.9l-8.7,16.5c2.9-1.1,8.8-5.5,12-5.1,4.6.7,5.5,7.5,5.6,10.9m-462.3-134.3a137.871,137.871,0,0,0-38.7,7.2c-3,1-15.9,4.6-13.2,9.9,1.8,3.5,11.4-1.4,14.3-2.3,12.5-3.5,25.3-5.8,38.1-7.9,3.1-.5,13.6-.5,14.1-4.5.7-4.9-11-2.4-14.6-2.4m352.3,564.8a85.176,85.176,0,0,1-20.8-.3c-5.9-.7-11.9-3.1-17.8-3.1,0,6.3-.4,6.3,6.2,7.7,4.6.9,9.3,1.5,14,2.1,8.2,1.2,17.4,4.4,25.8,2.7-.2-1.1-.8-8.5-1.7-9.2-.5-.4-5,.1-5.7.1m-113.4-465.8c2,1.2,6.5,6.2,8.8,6.3-.8-5.8-7.3-15.8-14.7-12.3-1.8.9-5.6,5.2-3.9,7.1.9,1.2,7.4-1.1,9.8-1.1m-68.4,51.4c.1-1,.1-2,.2-3-2.7,1.6-6.1,2.4-8,4.9,2.3,1,4.6,2.1,6.9,3.1.3-1.7.6-3.4.9-5m213.6,153.2c12.8,4.5,24.6,10.5,34,20.7,8.2,8.8,12,24.3,14,35.8,4.9,28.5-4.6,55-10.8,82.3-3.2,13.9-7.9,27.2-12.4,40.7-3.9,11.8-7.2,24.1-12.6,35.3-4.5,9.5-10.3,18.9-14.3,28.7-2.2,5.3-5.6,23.5-13.8,17.8-2.2,5.8-2.8,5.3-.4,9.4,1.7,2.9,7.6,7,10.3,9.4,7.4,6.4,16.7,11.6,25.3,16,15.8,8.2,32.7,14.2,49,21.7,7.2,3.3,15,7.2,13.4,16.6a23.191,23.191,0,0,1-13,17.4c-6.7,3.3-16.2,5.8-23.6,6.9-4.4.6-5.4-1.2-8.9-1.8-4-.7-8.6.7-12.7.6-18.3-.2-34.4-4.8-49.2-15.4-5.3-3.8-13.1-14.1-20-14.1-3.5,0-2.8,2.2-5.9,3.4-3.8,1.6-10.5-1.4-14.2-2.1-8-1.5-16.2-3-21.6-9.9-5.8-7.5-3.7-16.8-1.2-25.1,2.8-9.4,7.5-18.9,9.5-28.4a27.148,27.148,0,0,0,.4-9c-.8-3.7-4.5-5.8-4.6-9.8,0-1.2,1.7-2.8,2-4,.7-2.7.6-5.6.8-8.3.5-5,1.6-9.7,2.4-14.6,1.8-11.1,5.3-21.1,8.7-31.8,3.3-10.4,6.4-18.2,12.8-27.2,3.3-4.7,14.3-21.3,8.9-26.1-7.3,14.4-15.9,25.7-27.2,37.2-8.6,8.8-17,20.6-27.8,26.9-11.8,6.9-26.3,10.9-39.4,14.6-6.2,1.7-11.4,5.6-18.1,6.3a64.272,64.272,0,0,1-21.8-1.8c-2-.5-7.8-3.5-9.6-3.3-2.7.3-6.5,5-9.4,5.9-7.1,2.1-12-1.9-17.4-5.7-5.9-4.1-7.6-5.1-14.4-5.6-8.3-.6-16.4-3.5-24.5-5.3-14.3-3.1-26.5-9.5-39.6-16.2-14.9-7.6-27.7-18.2-39-30.7-16.6-18.3-39.6-69.1-12.6-86.9-15.9-2.2-30.5-9.1-32.4-27.1-1-9.4.9-19.9,3.3-29,1.1-4.2,2.4-8.3,3.6-12.4a9.3,9.3,0,0,0,1.5-4.6c.6-2.1-.3-3.2-2.5-3.2-4.2-4.9-7.3-9.2-8.2-16.2-.3-2.2-.5-5.6,1.1-7.5a4.61,4.61,0,0,1,2.6-1.5q3.75.15,2.1-3.6c1.2-3.6-.6-6.5,3.9-8,1.4.3,2.9.6,4.3,1q2.7,1.2,3.6-1.8c4.2-1.7,2.3-4.1,8-2a24.539,24.539,0,0,1,9.3,6.2c3.2-2-4.1-14.7-4.3-18.7-.6-9.5,3.4-17.3,8.5-25.1,9.9-15.2,23.8-28.2,37.4-39.9,26.2-22.5,53.7-43.8,83.2-61.7-12.2-8.5-26.4-10.8-40.9-6.8-13.4,3.6-24.2,10.2-36.5,16-11.4,5.3-23.5,7.5-27.1-7-4.1-16.3,8.9-22.4,20.6-29.7-2.9-2.2-12.5-.6-16.1-.4-8.1.6-15.8,2.4-23.6,4-3.8.8-7.2.6-10.9,1.4-5.5,1.1-11.3,2.4-16.9,4a134.145,134.145,0,0,0-38.1,17.4c-10,6.7-16.9,16.3-24.9,25-9.2,10-17.9,19.8-31.5,23.5-6.4,1.7-13.8,3.3-18.3-2.4-4.2-5.3-4.4-11.6-4.3-18.1.3-14.3,7.2-29.7,15.2-41.3,8.7-12.6,20.3-19.9,31.3-30.1-15.9,1.1-31.3,9.5-45.9,15.3-3.1,1.2-6.2,2.6-9.3,3.7-3.3,1.2-5.5.5-8.6,1-7.2,1.3-13.4,4.3-20.4-.5-13.3-9.2,0-27.8,9.2-33.6a252.052,252.052,0,0,1,39.7-20.4c-7.6-8.2-1.1-20,5.9-25.8,8.9-7.4,20.1-11.6,30.8-15.6,8.4-3.1,16.7-6.1,25.5-8,9.2-2,20-5,29.3-4.7,8.8.3,16.5-1.3,25.4-1.5,7.4-.2,14.8,0,22.2-.2,19.9-.5,39.8.8,59.3,2.3-15.4-45,86-31.1,107.7-25.2,19.7,5.3,42.2,11.5,58.7,24.2a222.624,222.624,0,0,1,19.9,17.7c9.2,9.2,14.2,21.4,19.1,33.3,12.3-6,24-12.6,37.5-15.6,12.8-2.8,25.9-6.7,38.8-8.8,9.8-1.6,24-2.7,32.2,4.2,8.9,7.5,13.6,19.2,18.9,29.2,25.6-24.3,54.2-42.1,90.8-40.9,35.8,1.2,59.3,32,63.6,65.5,4.8,36.9-11.7,75.4-33.9,104-10,12.8-20.3,25.2-33.8,34.7-6.7,4.7-13.7,9.9-21,13.6a107.144,107.144,0,0,1-11.5,4.9,46.57,46.57,0,0,1-5.3,1.7c-5.1,1.2-4.1-.4-6,4.1-1.5,3.6-1.4,9.9-2,13.9-.8,4.6-1.2,9.2-2.3,13.7-1.9,7.8-3.9,15.4-6.3,23.1a224.543,224.543,0,0,1-18.1,42.2c6.3,2.8,15.2,3,22,3.9a157.034,157.034,0,0,1,22.3,4.9c15.3,4.3,28.9,7.9,43.5,14.3,15.1,6.6,28.5,16.6,43.1,24.5,13.4,7.3,26.9,16.4,39.3,25.1a36.856,36.856,0,0,1,7.1,6.5,39.181,39.181,0,0,0,6,5.5c1.3,1,5.1,6.3,6.5,6.5,2.6.4,2.2-1.6,4.3-4.4,4.3-5.8,10.4-10.2,14.7-16.1a179.668,179.668,0,0,1,11.2-14.2,169.962,169.962,0,0,0,23.6-33.9c3.4-6.4,7.1-12.5,10.8-18.5s10.3-13.9,17.7-13.6c-.6-3.1-2.5-3.6.8-5.4,2.1-1.2,6.2.7,7.8,2,4.3,3.2,4.5,9.5,4.2,14.3a148.3,148.3,0,0,1-6.8,35.7c-4.3,13.8-9.6,26.1-15.5,39.3-4.7,10.5-10.4,24.4-22,29.3,7.8,11.1,4,20.1-1.2,31.9-3.8,8.6-8.8,17.5-16.4,23.2-8.6,6.4-17.9,1-26.9-3.3-5.4-2.6-22.1-8.6-18.7-16.5-4.2-.6-6.8-3.6-10.5-4.5-4-1-3.3.6-7.6,1.3-3.2.5-8.1-2.4-11.2-3.5-5.1-1.7-10.2-3.5-15.3-5.3-14.4-4.9-28.5-9.8-43-13.8-27-7.4-54.3-11.6-81.2-18.1-5.4-1.3-10.7-2.6-16.4-3.6-1.2-.2-7.2-.6-7.9-1.8-1.3-2.2,2.7-14.3,3-16.8a159.538,159.538,0,0,0-1.6-50.2c-1.3-6.7-7.1-15.3-7-21.9,0-4.4,3.9-9.2,6.2-13.1,5.6-9.8,11.5-20.4,15.7-30.6,6.4-15.6,10.3-33.2,13.1-49.9,1.5-8.7,3.2-18.2,3.6-27,.3-6.7-.2-13.8.7-20.7-3.7.4-9,2.3-12.3.2-4.2-2.6-5.4-10-4.8-14.5-14.5,2.5-14-11.2-13.1-22-26.2,0,7.3-38.9,11.5-47.3,1.9-3.8,1.9.5,1-5.5-.4-2.6-2.2-5.5-3.2-7.9-2.2-5.2-4.6-10.4-7.1-15.5a292.758,292.758,0,0,0-18.1-31.1,101.847,101.847,0,0,0-16.3,14.4c3.2-8.4,13-18.7,8.8-28.2-3.9-8.8-16.8-8.2-24.5-6.6-20.8,4.4-40.7,10.8-60.5,18.1,6.1,3.5,15.5.8,21.6-1.9,7.5-3.3,15.7-6.8,23.8-8.6,7.1-1.5,16.4-1,14.4,8.5-1.7,7.7-9.2,15.2-14.2,21-11,12.7-24.8,22.6-38.4,32.5-14.6,10.6-28.6,22.1-43.4,32.4-26.7,18.6-55.3,34.8-82.9,52.1-14.3,9-30.5,16.3-46.1,23-17.1,7.4-33.5,15.2-51.2,21-9.8,3.2-19.6,5.9-29.3,9.6-6.1,2.3-16.6,6.9-20.6.1-8.1-13.9,21.3-32.1,29.4-40.6,5.6,5.4-21.9,25.5-19.7,33.4,1.7,6.2,8.2-1.8,11.4-3.5,5.1-2.7,11.1-4.1,16.2-7.2,10.5-6.4,22.9-13.7,25.3-26.9-1.7-1.8-1.6-3.4.1-4.9a9.233,9.233,0,0,0,1.8-3,52.7,52.7,0,0,0,1.4-6.9c1.2-6.5-1.8-12.6,1-18.9-16.2,12.3-31.7,26.1-47.1,39.4-13.8,11.9-28.2,27.5-33.2,45.3-.6,2.3-1.7,4.9-1.6,7.3.2,4.7.7,3.7,4.5,5.2s9.3,1.4,13.4,1.5c2.3.1,12.7-2.4,10.7,2.7-1.2,2.9-8.4,2.8-11,3.1-6.5.7-10,0-6.9,7,1.4,3.1,4.2,5.3,6.4,7.7,6.1,6.8,9.4,17.2,14.2,25.1,5.5,9.1,11.5,17.7,17.8,26.2,2.6,3.5,6.1,10,9.8,12.5,3.4,2.3-.6,2.1,5.1,1.2,2.5-.4,4.7-2,7.1-2.6,14.1-3.4,28.6-7.3,43.2-11.5,18.6-5.4,38.2-10,56-17.8,15.9-7,31.7-15.3,47.8-22.4,4.7-2.1,9.4-3.4,13.1-7.2,4.4-4.6,8.1-10.6,12.1-15.5,6.9-8.4,13.3-16.9,20.7-24.9,5.5-5.9,15.4-16.9,23.2-19.3,14.9-4.5,6.9,18.1,5,23.9,3.5.8,5.3-3.7,9.4-2.4,4.9,1.5,5.4,8.1,6,12.2.2,1.1-1.3,3.1-.9,4.1.2.3,3.4,2.2,4,3.1,2.2,3.2,1.8,7.1,1,10.5-4.4,17.8-20,30.8-31.5,44,5.1-1,9-3.9,13.8-5.4,4.6-1.4,9.1-1.3,13.7-1.7,4.8-.4,9.4-2.2,14.3-2.3,5.3-.3,10.2,1.2,15.3,1.8" fill-rule="evenodd"/><path id="ink-layer-2" data-name="ink-layer" d="M23.729,188.836c-2.8,1.9-3.6,3.7-3.7,7.9,0,1.8.1,8.3,2.5,8,2.3-.2,1.2-13.7,1.2-15.9m-14.6,10.6c1.3-13.7,6.3-27.6,18.1-36.2,2.9-2.1,6.2-2,9.4-3.4,1.9-.8,5-4.5,7.1-4.1,8,1.6-1.2,12.3-2.6,15.1-4.2,8.7-3.9,16.3-3.8,25.7.1,7.1,1.6,19.1-2,25.6-3.8,6.9-12.1,2.4-16.8-1.7-5.8-5-10.2-13.2-9.4-21" fill-rule="evenodd"/><path id="ink-layer-3" data-name="ink-layer" d="M150.029,239.936c0,7.6,6.2,2.5,6-3-.3-8-6.3-3-6,3m33-42.3c-6.8,6.1-12,9.5-13.3,18.9-1,7.1,0,14.2,0,21.3.1,12-9.6,24.6-20.1,10.9-7.6-10-4.9-25.8,1.3-35.9a42.766,42.766,0,0,1,13.3-13.8c4.1-2.5,15.4-7.4,18.8-1.4" fill-rule="evenodd"/><path id="ink-layer-4" data-name="ink-layer" d="M88.129,382.836c-.8,1.9-2.6,9.5,1.1,7.7,3.4-1.5,1.2-6.5-1.1-7.7m-19.9-23.5c-.6-2.9-.3-20.8,4.6-19.4,3.9,1.1,4.5,10.2,6.1,13.4,5.9,11.9,19.4,19.3,24,31.6,5.2,13.7-10.5,14.1-18.9,8.6-9.8-6.6-15.5-22.7-15.8-34.2" fill-rule="evenodd"/><path id="ink-layer-5" data-name="ink-layer" d="M56.129,285.836c2.1-2.9,2.4-4.4,1.1-7-1.5,1.7-1.2,4.1-1.1,7m1.5,12.9c-11.2,1.3-11.7-19.3-9.8-26.4a52.1,52.1,0,0,1,8.2-16.3c.7-.9,7.1-9.2,8.4-9.3,4.9-.1,3.5,5.4,3,7.5a56.406,56.406,0,0,0-1.9,19c.5,7.6,4.1,25.8-7.9,25.5" fill-rule="evenodd"/><path id="ink-layer-6" data-name="ink-layer" d="M565.029,120.436c-16,13.4-31.1,27.9-48.5,39.6-8.5,5.7-17.4,10.8-25.9,16.6a86.12,86.12,0,0,1-13.5,7.8c-4.2,1.9-7,2.2-3.5-2.4,2.3-3.1,7.6-5.2,10.8-7.4,4.9-3.3,9.6-7.1,14.7-10,9.1-5.2,18.2-9.5,26.6-15.9,7.5-5.7,15.2-11.3,22.3-17.3,3.1-2.5,13.2-14.5,17-11" fill-rule="evenodd"/><path id="ink-layer-7" data-name="ink-layer" d="M565.329,168.836c7.2,6.1-10.8,23-14.9,26.8-4.3,4-9.1,7.6-13.8,11.2-1.7,1.3-10.7,9.7-13,9-4.5-1.3,1.4-6.8,3-8.2,5-4.6,10.1-9.1,15-13.8,4.4-4.3,9.2-8.2,13.4-12.6,3.5-3.7,6.4-9.7,10.3-12.4" fill-rule="evenodd"/><path id="ink-layer-8" data-name="ink-layer" d="M33.029,416.536c-1.9-4.3-5.2.5-3.5,2.6,1.6,2.1,3.2-1.7,3.5-2.6m-11-8.6c1-6.4,3.3-9.9,9.3-4.5,4.1,3.7,12.4,14.4,11.6,20.2-1,7.6-9.4,5.5-13.8,1.5s-6.4-11.5-7.1-17.2" fill-rule="evenodd"/><path id="ink-layer-9" data-name="ink-layer" d="M35.129,533.736c-7.3-.6-13.6-6.2-16.7-12.8-2.6-5.6-5.1-14.5,4.1-11.6,6,1.9,29.2,25.3,12.6,24.4" fill-rule="evenodd"/><path id="ink-layer-10" data-name="ink-layer" d="M124.129,497.536c-5.7,1.3-11.3-2.4-14.8-6.7-2.2-2.6-7.2-11.8-4.7-15.6,3.6-5.3,8.9,5.3,10.8,7.4,2.9,3.4,12.4,9.7,8.7,14.9" fill-rule="evenodd"/><path id="ink-layer-11" data-name="ink-layer" d="M129.329,353.836c-4.4-2.1-8.6-4.6-10.4-9.5-1.1-3.1-2.1-12.6,3-12.5,5.8,0,19.2,21,7.4,22" fill-rule="evenodd"/><path id="ink-layer-12" data-name="ink-layer" d="M98.129,255.836c6-.1,7.4,3.2,8.2,7.9.6,3.2,3.3,14.1.5,16.3-4,3.2-10.5-4.1-11.8-7-2.8-5.9.9-11.7,3.1-17.2" fill-rule="evenodd"/><path id="ink-layer-13" data-name="ink-layer" d="M200.429,581.936c2.9,1.3,9.5,4.2,7,8.8-2.6,4.8-10.2.1-13-1.9-1.2-.9-8.7-6.6-8.4-8.5.7-4.1,11,1.2,14.4,1.6" fill-rule="evenodd"/><path id="ink-layer-14" data-name="ink-layer" d="M9.329,285.336c2,5,4.2,22-6.2,12.8-3.2-2.8-3.7-6.3-2.6-10.2,1.6-5.6,3.9-4.5,8.8-2.6" fill-rule="evenodd"/><path id="ink-layer-15" data-name="ink-layer" d="M562.529,221.836c-2.3-4.7,3.4-7.8,6.4-10.8,2-2,10.4-12.8,13.1-12.2,5.7,1.2-16.7,20.9-19.5,23" fill-rule="evenodd"/><path id="ink-layer-16" data-name="ink-layer" d="M98.029,563.836c5.4-.9,6.7,5.2,10.2,7.8,1.5,1.1,6.7,2.1,5.6,4.5-2.7,6.4-16.1-8-15.8-12.3" fill-rule="evenodd"/><path id="ink-layer-17" data-name="ink-layer" d="M144.029,421.036c3.7-1.6,14.6,6.9,11.4,10.5-4.6,5.4-11.2-7.6-11.4-10.5" fill-rule="evenodd"/><path id="ink-layer-18" data-name="ink-layer" d="M222.929,542.736c-2.7.3-14.2-3.3-10-8.2,3-3.4,11,5.2,10,8.2" fill-rule="evenodd"/><path id="ink-layer-19" data-name="ink-layer" d="M85.029,519.536c-2.7,1.1-12.5-1.1-9.4-5.4,2.9-4,9.4,2,9.4,5.4" fill-rule="evenodd"/><path id="ink-layer-20" data-name="ink-layer" d="M165.029,537.836a5.281,5.281,0,0,1,6,4.8c-4,.6-5.2-.4-6-4.8" fill-rule="evenodd"/><path id="ink-layer-21" data-name="ink-layer" d="M283.129,20.836l-.3,6,.3-6" fill-rule="evenodd"/><path id="ink-layer-22" data-name="ink-layer" d="M902.829,360.836c.6,2.2-.3,2.6-2.8,1.1.9-.4,1.9-.8,2.8-1.1" fill-rule="evenodd"/><path id="ink-layer-23" data-name="ink-layer" d="M656.029,374.336c-1.7,1.3-3.3,1.5-5-.1,1.6,0,3.3.1,5,.1" fill-rule="evenodd"/><path id="ink-layer-24" data-name="ink-layer" d="M618.529,203.836c0,1.7-.1,3.3-.1,5,.1-1.7.1-3.4.1-5" fill-rule="evenodd"/><path id="ink-layer-25" data-name="ink-layer" d="M705.029,49.536h-5a7.168,7.168,0,0,1,5,0" fill-rule="evenodd"/><path id="ink-layer-26" data-name="ink-layer" d="M216.029,29.136c-1.7.1-3.3.2-5,.3,1.6-.1,3.3-.2,5-.3" fill-rule="evenodd"/><path id="ink-layer-27" data-name="ink-layer" d="M257.029,29.436c-1.3-.1-2.7-.2-4-.3,1.3.1,2.6.2,4,.3" fill-rule="evenodd"/><path id="ink-layer-28" data-name="ink-layer" d="M279.029,31.036a4.346,4.346,0,0,1-4,0h4" fill-rule="evenodd"/><path id="ink-layer-29" data-name="ink-layer" d="M160.029,33.836c-1.7.3-3.3.7-5,1,1.6-.4,3.3-.7,5-1" fill-rule="evenodd"/><path id="ink-layer-30" data-name="ink-layer" d="M619.529,440.836c0,1-.1,2-.1,3,.1-1,.1-2,.1-3" fill-rule="evenodd"/><path id="ink-layer-31" data-name="ink-layer" d="M68.529,359.836a13.4,13.4,0,0,0,.1,2,14.084,14.084,0,0,1-.1-2" fill-rule="evenodd"/><path id="ink-layer-32" data-name="ink-layer" d="M909.029,356.236h-5a4.054,4.054,0,0,1,5,0" fill-rule="evenodd"/><path id="ink-layer-33" data-name="ink-layer" d="M567.029,349.136c-1.3-.2-2.7-.4-4-.7,1.3.3,2.6.5,4,.7" fill-rule="evenodd"/><path id="ink-layer-34" data-name="ink-layer" d="M201.029,581.836c-1.7-.3-3.3-.7-5-1Z" fill-rule="evenodd"/><path id="ink-layer-35" data-name="ink-layer" d="M537.529,294.836c0-1-.1-2-.1-3,.1,1,.1,2,.1,3" fill-rule="evenodd"/><path id="ink-layer-36" data-name="ink-layer" d="M221.029,29.436c-1-.1-2-.2-3-.4,1,.2,2,.3,3,.4" fill-rule="evenodd"/><path id="ink-layer-37" data-name="ink-layer" d="M385.029,4.736l-3-.9,3,.9" fill-rule="evenodd"/><path id="ink-layer-38" data-name="ink-layer" d="M504.029,679.236c.7,0,1.3.1,2,.1-.7,0-1.4-.1-2-.1" fill-rule="evenodd"/><path id="ink-layer-39" data-name="ink-layer" d="M45.029,142.236c1,0,2,.1,3,.1-1,0-2-.1-3-.1" fill-rule="evenodd"/><path id="ink-layer-40" data-name="ink-layer" d="M716.029,50.436c-1.7-.1-3.3-.2-5-.4,1.6.2,3.3.3,5,.4" fill-rule="evenodd"/><path id="ink-layer-41" data-name="ink-layer" d="M661.429,251.836c0,1.7.1,3.3.1,5,0-1.7,0-3.4-.1-5" fill-rule="evenodd"/><path id="ink-layer-42" data-name="ink-layer" d="M539.029,609.836c-1.3,0-2.7,0-4-.1,1.3,0,2.7.1,4,.1" fill-rule="evenodd"/><path id="ink-layer-43" data-name="ink-layer" d="M681.029,80.036c2-.2,4-.4,6-.7-1.9,1.7-4,.6-6,.7" fill-rule="evenodd"/><path id="ink-layer-44" data-name="ink-layer" d="M528.029,610.336c-1,0-2-.1-3-.1,1,0,2,.1,3,.1" fill-rule="evenodd"/><path id="ink-layer-45" data-name="ink-layer" d="M493.429,627.836c0,1.7.1,3.3.2,5-.1-1.7-.1-3.4-.2-5" fill-rule="evenodd"/><path id="ink-layer-46" data-name="ink-layer" d="M646.029,141.436c1.3-.1,2.7-.2,4-.4-1.2.9-2.7.4-4,.4" fill-rule="evenodd"/><path id="ink-layer-47" data-name="ink-layer" d="M209.029,407.436c1.3.2,2.7.5,4,.7-1.4-.2-2.7-.5-4-.7" fill-rule="evenodd"/><path id="ink-layer-48" data-name="ink-layer" d="M417.029,144.336c1.7-1.4,3.3-1.3,5,0h-5" fill-rule="evenodd"/><path id="ink-layer-49" data-name="ink-layer" d="M354.429,194.836c0-.7.1-1.3.1-2a14.084,14.084,0,0,1-.1,2" fill-rule="evenodd"/><path id="ink-layer-50" data-name="ink-layer" d="M204.329,384.836c2.2.7,6.6,3,9.2,2.7,2-.2,3.7-2.7,5.7-2.7,5.3,0,4.3,6.2,1.8,9.4-7,8.9-22.6-.7-16.7-9.4" fill-rule="evenodd"/><path id="ink-layer-51" data-name="ink-layer" d="M226.029,352.836c7.2,1.9,3.6,17.8-2.5,18.9-7.2,1.3-8.4-11.7-7-16.4,3.7,2.2,1.4,10,6.1,7.9,2.9-1.4,2.5-7.8,3.4-10.4" fill-rule="evenodd"/></g></g></svg>