<svg id="Layer_1" data-name="Layer 1" xmlns="http://www.w3.org/2000/svg" viewBox="0 0 836.75 677.062"><title>1</title><g id="Character_jumping" data-name="Character/jumping"><path id="Accent" d="M110.936,232.082c1.8-2.7,1.8-2.1,4.9-1.6,13,2.3,26,4.6,39,7q66,11.7,132,23.5c15.5,2.8,31,5.5,46.5,8.3,2.3.4,6.7.3,8.7,1.6,1,.6,1.8,2.5,2.5,3.6,2.9,4.5,5.7,8.9,8.6,13.4,16.1,25,32.7,49.7,49.2,74.5q27.45,41.25,54.9,82.6h0l-77-1c4.8,3.1,9.5,6.2,14.3,9.3q50.4,32.85,100.7,65.7h0l-48,32h0l17,18-15.9,9c-9.7,5.5-19.4,11.1-29.2,16.6-3.4,2-6.9,3.9-10.3,5.9-.8.5-2,1.4-2.8,1.3-1.3-.1-3.6-2.3-4.6-3-3.3-2.1-6.6-4.3-9.8-6.4-10.1-6.6-20.1-13.3-30.1-20-24.5-16.5-49-33.2-72.5-51.2-10.8-8.3-20.9-16.9-29.4-27.7a230.658,230.658,0,0,1-23.8-38.5,337.7,337.7,0,0,1-15.2-34.9c-1.5-4.1-5.3-10.6-5.3-15.1,0-2.4,2.1-5.9,2.9-8.1,1.9-5.3,3.8-10.6,5.8-15.9,1-2.7,2.9-6.1,3.3-9,.4-3.5-1.3-8.3-1.8-11.7-.3-1.7-.2-6.4-1.5-7.4-.8-.6-4-.3-5.1-.4-8.3-.6-16.5-1.3-24.8-1.9-22.1-1.7-44.3-3.4-66.4-5.1-6.1-.5-12.9-.1-18.9-1.5-4.5-1-7.3-4.6-8.7-8.9a326.485,326.485,0,0,1-10.4-38.8c-2.4-12.7-.1-22.6,5.1-34.3A220.315,220.315,0,0,1,110.936,232.082Zm587.4,121.8c-4.4,16.7-10.5,37.5-23.4,49.6-4.9,4.6-11.5,7.6-17.4,10.5-8.8,4.3-17.8,8.1-26.9,11.8-16,6.4-32.8,13.6-49.9,16.7-4.7.9-7.1,0-11.1-2.8-6.6-4.8-12.6-10.5-18.5-16.1-9.5-9-18.7-18.2-27.8-27.7,34.2-.1,69.5-1.6,103-9A188.977,188.977,0,0,0,698.336,353.882Z" fill="#34558b" fill-rule="evenodd"/><path id="Ink" d="M348.936,1.982c8.2,3.7,12.6,13.8,16.9,21.2,5.2,8.8,9.9,18.1,12.6,28a87.23,87.23,0,0,1,1.9,31.8,74.479,74.479,0,0,1-3.1,13.2c-1.4,4.7.8,7.4,4.1,10.7,6.9,6.9,15.6,12.2,20.8,20.6,4.4,7.2,9.4,8.5,17.6,8.8,20.4.8,40.4.1,60.6,4q7.65,1.5,15.3,3.6a48.358,48.358,0,0,0,5.1,1.4c2.5.2,2.9-.8,4.7-1.7,8.1-4.2,18.4-.2,26.5,2.1a266.373,266.373,0,0,1,58.2,24c20,11.2,41.3,20,61.1,31.5,19.1,11.2,36.3,25.2,54.2,38.3,18.1,13.3,35.3,27.6,52.1,42.6,16.2,14.5,33,28.6,47.5,44.8a163.33,163.33,0,0,1,30.7,50.9c2.3,6.2.9,10.1-6.4,8.1-.6,6.3-5.3,8.9-11.3,7.6,1.8,5.3,6,12.4,3.6,18.1-3.2,7.5-12.2,2.1-16.7-.9.5,6.1,3.1,15.9-1.9,20.8-7.8,7.6-20.8-2.1-26.3-7.7-14-14.4-22.9-32.3-35.4-47.8-15.4-19.3-32.8-37.5-50.2-54.9-1.4-1.4-16.9-18-19.1-15.7,6.8,11.2,12.2,23.5,21.6,32.8,4.5-6.3,7.7-3.2,8.6,3.1,1,7.6,2.1,15.6.7,23.2-2.8,15-12.2,29.3-22.2,40.5-10.4,11.8-23.3,20.7-37.2,27.9-7.9,4.1-15.7,7.9-24.2,10.6a116.446,116.446,0,0,1-11.5,3.4c-3.7.8-7.8.7-11.2,2.6,31,14.8,65.2,21,96.3,35.4,7.5,3.5,22.5,12.5,14.9,22.7-5.9,7.9-19.2,8.1-28,9.7,6.5,6.1,5.5,11.8-3,15.1a32.118,32.118,0,0,1-10.6,2c-2.5.1-6.7-.8-8.7,1.1,7.7,3.5,18.2,3.3,24.5,9.5,6.5,6.3-1.3,11.4-7,13.8-7.6,3.2-18,6.6-25.7,2.7-6.1-3.1-11.7-2.4-18.5-3.2a118.551,118.551,0,0,1-20.5-4.3c-25.5-7.6-49-21.7-71.6-35.6a410.077,410.077,0,0,1-63-47.6c-4.8-4.4-8.8-9.7-13.7-14-5.2-4.5-10.6-4.9-17.2-4.8-15,.2-30-2.5-44.9-.7,21.5,16.2,44.3,30.5,67,45.1,8.6,5.5,17.7,12.9,27.8,15.4,4.4,1.1,14,1.8,15.5,7.2,1.1,4-2.3,4.7-4.4,6.8-3,3.1,1.2,4.2,4.3,5.5a22,22,0,0,0,11.6,1.7c6.4-.7,11.5-.4,17.5,2.3,9.4,4.3,19.5,6.7,29,10.9,3.9,1.8,4.9,7,6.8,10.5,3,5.6,6.4,10.9,9.8,16.2,6.3,10.1,11.8,20.4,20.8,28.5,7.9,7,16.7,13.3,25.3,19.5,13.4,9.7,30.4,21.6,26.1,40.6-4.3,18.8-23.7,16.7-38.5,13.4-6.2-1.4-14.8-5.4-21-3.5a26.594,26.594,0,0,1-14.8.6c-6.5-1.5-13.1-2.4-19.7-3.5a233.235,233.235,0,0,1-41.1-10.3,46.688,46.688,0,0,1-16.7-9.7c-1.5-1.3-2.6-3.3-4.5-3.2-1.7,0-4.3,3-5.6,4-4.1,3.3-8.6,6-13.3,2.1-3-2.5-5.7-7.9-1.3-10.4,3.3-2,9.4.3,11.7-3.4,2.5-3.9-3.1-9.5-4.8-12.7-5.3,3.6-13,10.8-19.1,4.8-4.9-4.8.6-7.7,5.1-9.2,5.6-1.9,12-1.7,9.2-9.1-1.6-4.2-4.2-8-4.6-12.6-.3-3.5.7-6.9.7-10.4,0-6.2-6.6-11.6-12.5-13.1-3.6-.9-4.6,2.1-6.8,4.5a44.112,44.112,0,0,1-11.4,8.2,204.654,204.654,0,0,1-20.8,9.5c-4.7,2-12.9,4.5-9.6,10.5,4.9,8.7-6.5,4.5-10.7,2.6-9.6-4.6-19.2-9-28.7-13.8-19.4-9.9-37.2-22.2-54.4-35.6a606.881,606.881,0,0,1-48.5-42.1,216.938,216.938,0,0,1-20.8-23.1c-6.8-8.8-12.5-18.4-19.4-27.2-7.2-9.1-14.2-17.9-18.8-28.6-4.3-9.9-9.1-21-9.2-31.9-.1-12,0-22.9,3.9-34.4a59.786,59.786,0,0,1,6.6-14c.8-1.2,5.2-5.4,4.3-7,.1.1-9.9,1.6-11,1.7-6.6.6-13.3-.5-19.9-1.1-19.5-1.8-39.2-1.1-58.6-3.8-7.3-1-15.3.1-22.4-1.8-3.4-.9-4.2-2.8-6.7-4.4-1.1-.7-2.3-.5-3.4-1.5-1.2-1.2-1.5-2.9-2-4.4-2.9-8.2-7.8-15.5-10.7-23.7-3.2-9.2-3.1-18.8-2.9-28.4-4.8.4-9.9.4-14.4-1.5-3.7,11.5-19.4,11.3-29,10.4-12.1-1.1-26.2-2.2-32.4-14.3-7.2-14.2-6.7-31.5-7.6-47.1a531.3,531.3,0,0,1-.4-55c.8-15.5,4.3-31.7,14.3-44,8.9-10.9,24.2-17.2,36.3-7.1,9.1,7.6,13,21.4,13.6,32.8.3,5.8,0,11.1,7.2,9.4,2.8-.6,5.3-1.6,7.3,1.2a6.062,6.062,0,0,1-1.3,8c-2.1,1.7-6.1,1.4-7.5,3.9s.8,6.5,3.5,7c3,.6,5.3-3.3,8.4-1.5,2.8,1.6,1.3,4.7-.5,6.5-2.2,2.1-4.3,2.6-2.8,6,1.2,2.6,3.6,4.3,4.7,7.1,2.7,6.8,3.6,16.5.6,23.3,5.2.6,17.7,6.7,21.7,1.7,1.5-1.8,1.7-4.4,3.2-6.3a10.676,10.676,0,0,1,7.3-3.4c5.9-.7,12,1.1,17.8,2.2,9.6,1.9,19.2,3.6,28.8,5.3,19.3,3.4,38.8,5.8,58.1,9.5,19.2,3.7,38.2,8.3,57.2,13,10,2.4,19.9,5.2,29.9,7.3,9.4,2,19.2,3.4,27.9,7.6-1.7-10.7-6.5-20.5-9.6-30.8a71.555,71.555,0,0,1-2.2-32.2c1.6-10,4-19.8,9.1-28.6a45.049,45.049,0,0,1,7.3-10c2.1-2.1,5.1-3.8,6.8-6.2s1.3-3-1.7-4.1a23.843,23.843,0,0,1-4.7-1.7c-1.4-.8-2.7-2.2-4.4-2.5-3.9-.6-9.6,3.2-13.2,4.5a65.688,65.688,0,0,1-15.2,4.1c-17.1,1.8-37.4-8.1-49.2-20.1-3.9-4-12.9-13.2-9.3-19.4,1.9-3.2,5.4-2.5,8.3-3.9,4.5-2.3,1.7-6.1-.5-9.1-5.9-8.2-9.9-17.7-14.1-26.9-4.3-9.3-10.2-17.7-15.1-26.7-3.5-6.5-7.5-13.7-9.1-21-2-8.8,4-10.1,11.3-11.3,23.1-4,45.8-9.4,68.6-14.4,9.1-2,18.3-4,27.4-5.7C334.036-.018,342.036-1.118,348.936,1.982Zm202.5,549.9c-11.9.6-23.9,3.3-24.2,17.1,1.4,26.3,18.6,46,36.7,63.5,4.6,4.4,9,9.1,14,13.1,2.9,2.3,6.1,3.4,9.3,5.3.8.5,2.1,2,2.8,2.2,1.7.6,1.9-.1,3.5-.2,3.6-.4,4.3,2.1,7.1,4.2,5.2,3.9,14.6,3.3,20.8,4.6,5.7,1.1,28.3,9.3,27.2-2.5-1-11.5-13.3-17.1-21.9-22.3-12.1-7.2-24.5-14.9-34.7-24.7-9.7-9.3-16-22-22.4-33.6-4-7.2-5.2-13.3-6.3-21.4-.5-3.4-.5-4.5-3.9-5.1A43.023,43.023,0,0,0,551.436,551.882Zm-41.4-1.9c-6.9,2.2-12.1,7.7-15.5,14a27.436,27.436,0,0,0-3.3,10c-.7,4.5-2.4,9.4-1.2,14,2.3,8.3,8.3,17.3,13.1,24.4,5.3,8,12.3,17,20.7,21.9,8.1,4.7,17.9,6,25.4,11.8-.7-3.2-3.7-5.6-6-7.6a82.466,82.466,0,0,1-9.4-9.3,85.672,85.672,0,0,1-15.3-25.4,78.911,78.911,0,0,1-4.8-29.2,36.4,36.4,0,0,1,3-13.8c1.3-2.8,3.7-5.2,4.7-8.2C523.836,545.582,513.436,548.882,510.036,549.982Zm-150.7-226.5c-9.6,1.1-19.1,2.9-28.8,3.8-19.5,1.8-39.8,2.9-57.5,12.2-25.8,13.6-55.4,43.7-46.5,75.5,10.6,37.5,33.1,71.4,61.4,98,18,16.9,37.8,32.2,57.6,47,19.2,14.3,41.3,23.7,61.1,37.1,1.3-19.7,13.7-37.8,28.4-50.3a197.668,197.668,0,0,1,25-18.6c4.3-2.7,8.8-4.9,13.4-7.2,3.5-1.7,7.3-4.2,11.3-4.4-.1-2.9-7.4-4-9.4-4.7-6.9-2.4-13.6-6-20-9.5-14-7.6-26.9-16.9-39.9-26.2-6.3-4.5-12.8-8.9-19-13.5-5.6-4.2-10.6-9.6-16.7-13.1-6.2-3.6-13.6-4.4-20.6-5.7-8.4-1.6-16.6-3.5-25-4.9-14-2.4-27.2-10.6-40.2-16.2-4.3-1.9-11-3.5-14.3-7.1a6.76,6.76,0,0,1,1.6-10.5c6.6-3.8,17.7,1.2,23.9,3.6,11.6,4.6,23.1,8.7,35.4,11,16.8,3.2,32.9,9.2,49.7,12.3,18.2,3.4,36.4,7.1,54.9,8.3-4.5-9-12-16.4-17.9-24.6-6.7-9.3-13.4-18.6-20.1-28-11.7-16.5-24.8-33.1-33.7-51.3C370.436,330.282,367.436,322.582,359.336,323.482Zm87.1,240.4c-2.7.4-4.7,3.1-6.5,4.9-5.6,5.5-11.1,10.9-15.7,17.3,7.1-3,12.9-8.2,19.7-11.6,2.5-1.2,11.1-4,9.4-7.4C452.336,565.082,448.336,563.582,446.436,563.882Zm32.5-22c-6.9,4.7-14.1,9-21.5,13.1a49.719,49.719,0,0,1,14.5,8.2c1.9,1.6,5.9,6.3,8.7,5.2,2.6-1.1,4-7.5,5.2-9.8a70.163,70.163,0,0,1,12.5-16.2C491.036,537.482,486.236,536.882,478.936,541.882Zm-58.5-257.4c-5.5,1.5-11.1,3.2-16.6,4.8-11.1,3.1-22.4,5.7-33.9,5.7-1.6,2.9,2.9,7.6,4.3,9.8,3.6,5.8,6.7,12,10,18,7,12.7,14.6,24.9,22.8,36.9,8.3,12.1,15.8,24.7,24.3,36.6,8.2,11.5,17.3,22.8,26.2,33.8,34.7,43,83.2,72.6,130.7,99.2,13.3,7.5,27.2,14,42,18.1,6.1,1.7,12.3,3.1,18.5,4.4,4.2.8,11.1,2.7,14.9,0-12.1-4.8-27.8-6.6-37.6-15.9-6-5.7.6-10,6.7-11.1,11.9-2.1,24.2,3.1,35.9-.2-3.1-5.7-12.1-5.5-17.5-6.9-6.9-1.9-7.2-5.3-.6-7.7,8.1-2.9,17.4-1.3,25.8-1.9,4.1-.3,21.3-.9,16.1-8.8-4.1-6.2-14.1-8-20.6-10.2-9.2-3.2-18.1-8.2-27.4-10.7-9.1-2.4-18.4-3.9-27.5-6.5a209.178,209.178,0,0,1-27.9-9.7,214.807,214.807,0,0,1-48.3-30.4c-15.2-12.5-28.5-26.8-40.7-42.1-6.4-8.1-12.6-16.4-18.8-24.6-6.1-7.9-12.9-15.5-17.7-24.2-5.4-9.7-12.3-18.5-17.8-28.1-3-5.2-6.2-10.3-9-15.7-2-3.8-3.3-9.4-6-12.6C428.036,281.182,423.637,283.482,420.436,284.482Zm-256.3,122.5c1.9,1.7,1.6,2.4,1.2,4.6-.7,4.4-1.5,8.8-1.9,13.2-1.2,15.3,1,31.3,3.4,46.4a97.475,97.475,0,0,0,17,41.6c8.6,12.1,18.9,21.8,32.5,27.7,2.3,1,11.6,4.8,11,8.2-.4,2.6-5.3,1.1-7,.8-24.5-5.2-45.2-27.4-57.6-48-5.1-8.5-8.4-17.2-11.2-26.6-.4-1.4-6.3-20.9-4.3-21.1-1.7-13.5-2.2-29.9,4.1-42.5C153.736,406.582,159.336,402.482,164.137,406.982Zm-42.7,2.9c-2.2,10.2-1.5,20.6-1,30.9.1,1.9,1.2,7.7-1.9,7.6-2.2-.1-3.9-5.7-4.5-7.1a53.757,53.757,0,0,1-2.8-27.8c.5-2.9,1.3-6.4,4.5-7.5C118.536,405.082,121.736,406.682,121.436,409.882Zm572.3-47.1a4.776,4.776,0,0,0-2.4,3.3,195.913,195.913,0,0,1-36,24.6c-11.3,5.8-24.3,8.2-36.6,10.8-28.1,6-56.1,8.4-84.1.7,11.4,10.6,21.8,24.6,36.3,31.3,7.2,3.3,15.1,1.3,22.3-.8,8.9-2.6,17.8-5.3,26.4-8.7,16.2-6.5,33.6-13.7,47.2-24.9a79.87,79.87,0,0,0,15.3-17.5c2.5-3.7,4.6-7.7,7.1-11.3C690.736,368.182,693.936,365.582,693.736,362.782Zm-119.7-187.8c-.4,5.2-3.5,9.6-6.2,13.9-1.8,2.9-5.4,6.4-3.7,9.7,2,3.9,8.5,6.4,11.8,9.1,5,4,9.6,8.3,14.1,12.7,8.2,7.9,16.6,15.6,24.7,23.7,7.6,7.7,15,15.5,24.6,20.8,21.1,11.5,39.6,27.6,58,42.9,18.8,15.6,37.3,32,53.6,50.2a164.036,164.036,0,0,1,22.2,31.9c3.2,5.9,6.6,11.7,9.8,17.6,1.4,2.6,3,5.1,4.3,7.8,1,2,1.6,5.2,3.3,6.7,3.5-7.8-2-18-5.1-25-2.2-4.8-4.3-9.6-6.4-14.4-1.5-3.4-4.6-7.4-4.8-11.2-.4-9.1,11.3-2.6,14.6.4,8,7.2,12.6,18.1,18.2,27.1,1.3-7.2-12.9-18.2-7-24.4,4.7-4.9,13.3,6.6,15.9,9.8,1.8-8.8-2.8-17.5-7.6-24.6a215.412,215.412,0,0,0-17.9-22.5c-14.8-16.6-31.8-31.4-48.5-46-16.7-14.5-33.8-28.5-50.9-42.5-16.6-13.6-33.5-27.2-52-38.1-10.4-6.1-21.3-11.2-31.9-16.9C595.836,187.682,585.336,180.682,574.036,174.982Zm-145-20.2a27.007,27.007,0,0,0-3.5.7c-.9,1.1.3,4.6,1.4,5.2-3.7,2.8-7.9,5.3-12.6,5.7,3,2.9,8.6,8,7.8,12.7-1.2,6.5-9,1.9-12.2,0-5.1-3.1-10.2-6.5-13.9-11.2-2.4-3-3.2-6.2-4.9-9.5-1-1.8-.4-2.1-2.5-2.2-2.4-.1-6.6,2.2-8.8,3.1a78.3,78.3,0,0,0-10.1,4.9,83.029,83.029,0,0,0-16.6,12.3c-10.2,10-17.1,23.2-18,37.6,7.2-.9,14.3-4,20.4-7.9,4.3-2.8,8.8-6,9.5,1.8.3,3-.6,10.1-2.4,12.5-1.7,2.2-2.4.4-4.2,1.7-2.1,1.5-1,3.7-1,5.9-1-.8-2-1.7-3-2.5-1.8,2.3.2,1.1.9,2.5.4.8-2.3,3.2-2.8,3.6-1.1.9-1.7.1-3,1.4-.8.8-1.7,2.6-2.6,3.6-4.6,5.2,1.5,13.3,3.9,18.8,1.8,4.1,3.7,8.1,5.6,12.1,1.4,3,2.1,6.5,3.9,9.2,3.6,5.4,11.7,2.5,17.1,1.8,7.2-.9,14.3-1.8,21.6-2.5,4.2-.4,9-2.9,3.6-6.1s-24.1-3.8-24.2-11.9c-.1-8.7,11.9-10.1,18-9.4,8.8,1.1,14.6,3.3,20.6,10-1.4-12.7-10.4-23.3-12.4-36-.5-3.5-2.2-24.9,6.1-15.6,4.5,4.9,8,12.4,11.3,18.2,5,8.7,9.3,17.7,13.9,26.5,4.4,8.5,10.8,16.6,13.9,25.6,1.7,5.1,4.1,15.7,9.6,18.3,3.5,1.7,9.4-.5,13-1,2.2-.3,4.4-.6,6.3-1.9,1-.7,2-2.4,3.2-2.6,3.6-.6,4.5,5,4.3,7.5-.4,3.9-2.2,4.9-5.8,5.4,6.2,3-3.3,12.5-5,16.2-.1-.2-1.2-2.8-2-2.8-1.6,0,4.9,12.8,5.4,13.7,3.4,6.2,7.7,11.7,11.8,17.4,2.4,3.3,5.8,11,10.6,10.3,2.7-.4,8.2-5.9,10.3-2.1,1.9,3.4-4,7.1-4.8,9.8-1.5,4.5,4.1,9.3,7.4,11.7,8.7,6.3,20,7.8,30.3,9.7-2-2.7-6.3-4.1-6.3-7.9-.1-2.6,1.8-4,.5-6.8-1-2.3-3.6-3.7-4.3-6.1-.8-2.7.5-5.8,2-8.1,6.4-9.6,20.6-5.6,29-1.2a4.428,4.428,0,0,0-1.5,1.2l-.1.1h0c1.1-.7,5.7,1.4,6.3,1.8a30.807,30.807,0,0,1,5.6,6.3c4.1,6.1,4.6,13.6,2.5,20.5,25.5,0,49.4-6.8,72.2-17.6,5.2-2.5,10.3-4.1,15.2-7.2,5.1-3.2,9.9-6.7,14.8-10.1,4.7-3.1,4.2-5,1.1-9.4-3.8-5.4-7.2-11.2-11.4-16.2-.6,1.4-.9,4.2-2.3,5.1-1.5,1-2.9-.9-4-.2.1-.1-3.2,5-3.7,3.7,1.4,3.3-4.1,1.2-5.1.6.2,3.1-2.3,5.7-3.8,1.6-3.9,3.6-13.1.3-8.1-5.2,2.5-2.7,5.1-4.1,6.7-7.7a36.8,36.8,0,0,0,2.5-12.7c.5-10.1-4.9-14.8-11.8-21.3-3.8-3.7-7.8-7.1-11.7-10.6-3.5-3.1-6.4-6.9-10.1-9.8-2.6-2.1-4.7-2.7-7.2-.9-1,.7-1.4,1.7-2.7,2.4a19.061,19.061,0,0,1-6.2,1.7c-9.6,1.2-20.7-2.1-29.5-5.6-2.4-1-3.6-2.6-5.7-3.8-1.3-.8-2.4-.3-3.8-1.2-3.7-2.4-3.5-6.2-.8-9.2,6.2-7,15.2-.7,21.6-6.3,7.9-7-5.3-16.7-10.6-21-4.3-3.4-8-4.2-13.2-5.1-1.1-.2-8.4-2.3-5.8.7-5.6-.1-8.4-.1-13,3.4-1.2.9-2.8,1.8-3.1,3.4-.2.8,1.5,1,1.5,1-.2.6-2,1.6-2.2,1.8,2.9.3,2.2,6.1,1.4,6.1h0l.1.1c1.3,1.2-1.6,3.1-2.6,3.4-2.8.9-5.4-1-7.2-3-4.1-4.3-7.1-11.6-6.9-17.5.4-8.3,5.9-13.2,10.4-19.4,3.4-4.7-1.6-7.2-5.1-10.1-4.3-3.6-10.1-8-11.5-13.7-1.3-5.2,2.3-7,6.8-5.4,6.2,2.1,11.1,7.6,16.6,11,4.8,3,11,9.2,16.9,9.6-1.1-3.9-6.5-3.5-8.5-6.3-2.7-3.8,1.5-5.5,4.8-5,2.5.3,9.7,5.6,9.5-.5-.1-3.3-5.6-4.4-8-5.3a185.88,185.88,0,0,0-37.3-10.3c-4.2-.7-5.2-.2-7.2,3.5-.7,1.3-3.1,7.1-4.5,3.3-1.8,3.2-2.3,6.6-6.1,7.9-4.9,1.6-11.1-.8-15.6-2.7a23.429,23.429,0,0,1-10-7.3,19.333,19.333,0,0,1-2.7-5.6c-.5-1.7-.3-4.5-1.1-6.1-1.5-2.6-5-2-7.8-2.3-6.1-.6-12.1-1.1-18.3-1.2C438.836,153.882,434.036,153.582,429.036,154.782Zm132.8,228.9c-2,.7,1.5,3,2.7,2.8C564.036,385.682,563.336,383.182,561.836,383.682Zm1.8-25.5h0c-.1.1-.2.2-.2.3.1-.1.1-.2.2-.3Zm39.1-61.5c1.8,1.5,1.1,4.9,2.3,7,3.2,5.7,9.1,11.2,14.6,14.7,5.9,3.7,8.7,8.5,10.2,15.1.3,1.4,1.2,3.3.8,4.7-.4,1.3-1.9,1.8-2.4,3-.2.5.7,4.7.6,4.8-.5.1-2-2.1-2-2-.6,1.5-.4,3.1-2,3.9l-.2.1h0c.4.3,2.2,1.8,1.8,2.1-.6.5-2.1.1-2.8.4-1.2.4-2,1.5-3.2,2-3.1,1.3-6.6.9-9.8.4-6.8-1-14.5-3.4-19.4-8.5-6-6.1-4.5-12.4-5.1-19.3-.6-7.7,4.9-19.3,9.4-25.3C596.936,297.782,600.036,294.382,602.736,296.682Zm-489.9-59.8c-.4.9,0,2.3-.2,3.3a16.833,16.833,0,0,1-2.8,5.5c-2.1,3.2-4.2,6.1-5.7,9.7-3.5,8.8-6.8,18.3-8.5,27.6-3.6,20,8.5,36.6,9.2,56.1,5.6-5.9,14.1-6.2,21.6-6.2,10.1,0,20,.4,30.1,1.3,19.2,1.7,38.8,2.4,57,9.4a28.14,28.14,0,0,0,5.5,1.5c2.2.5,1-.6,2.7.7.4.4.6,1.6,1.1,2.1,2.3,2.3,3.8.7,5.7-1.7,5.5-6.8,10.9-12.9,18-18.2,15-11.2,31.8-16.4,50.3-18.1a302.474,302.474,0,0,1,31.6-1.4c10.2.1,20.9.3,30.5,3.9-2.4-6.9-6.5-13-9.8-19.4a84,84,0,0,0-5.1-9.3c-1.8-2.5-4.5-4.6-5.7-7.5a8.651,8.651,0,0,1-.7,1.7c-19.5-5.6-39.7-8.6-59.7-11.8-20.1-3.2-40-7.7-60.1-11.1-10.1-1.7-20.2-2.8-30.4-3.9-9.8-1.1-19.2-3.3-28.8-5.1-9.8-1.9-19.3-4.1-28.9-6.7-4-1.1-7.8-2.6-11.8-3.9C114.736,234.382,114.036,234.182,112.836,236.882Zm432.3,35.5c.6,2.4-1.3,5.5-1.9,7.8-.7,2.6-2.1,3.6-2.9,6-.7,2,.5,12.8-4.7,9.6.2.8,1,1.8,1.1,2.5.1.9-.7,2.2-.5,2.9s2.5,2.6,3.1,3.7a64.276,64.276,0,0,1,4.8,14.2c1.1,5,2.5,11.9-1.6,15.3-1,.8-1.9,1-2.9,2a3.212,3.212,0,0,1-1.3,2.3.76.76,0,0,1-.9-.3c-1.3.7-.8-2.2-2.3.6-.4.7.3,3,0,2.7-.6-.4-2.3-2.3-2.9-2.3-1.3,1.7-1.2,0-2.6.2a1.216,1.216,0,0,1-1.2,1.2c-.6-.1-1.1-.3-1.7-.4-3.4,0-8.5-1.4-11.7-2.3a15.98,15.98,0,0,1-12.1-12.6c-2.8-13.6,8.6-30.6,16.8-40.4C522.536,281.882,542.137,259.982,545.137,272.382Zm54.5,43.8c-.1,1.1.3,2.8-1,3C598.736,317.882,598.137,316.182,599.637,316.182Zm-89-1.9c.6,3.3.7,1.4-.6,3.7A4.027,4.027,0,0,1,510.637,314.282Zm94.8-4.3c.5.6,2.5,2.3.8,2.8C604.736,313.182,605.336,310.782,605.436,309.982Zm-70.5-22.8c-.7,3.5,1.3,2.7,4.1,2C537.637,288.582,536.336,287.882,534.936,287.182Zm-511.8-142.7c-13.2,11.3-13.6,31.2-13.2,47.2.6,21.7,1.9,43.5,4,65.1.9,9.8,3.7,14.7,13.4,18,10.4,3.5,21.7,2.9,32.5,2.2-2.1-16.1-6.1-37.3,10-48a8.762,8.762,0,0,1,4.6-1.8c1.2-.1,2.9,1,4,.5,2.3-1.1,1-4.3.2-6.1-2.3-5.4-6.6-9.8-10.1-14.4-4.4-5.8-8.2-5.6-14.8-4.9-2.6.3-13,1.5-10.9-4.1,1.5-4.1,9.6-3.1,12.9-4,2.5-.7,3-1,2.9-3.6-.2-4-2.5-5.1-6-5-4.6.1-12.5,2.6-16.3-1-5.4-5.1,2.6-8.7,6.7-9.4,4.3-.7,10-.1,11-5.3.9-5-1.7-11.1-3.8-15.6-2-4.3-4.8-9.8-9-12.3C35.436,138.182,28.137,140.182,23.137,144.482Zm51.4,94.8c-5.4,1.2-8.5,8.2-9.1,13.1-.6,4.7-.2,11.5,3.3,15.1,4.6,4.8,12.5,4.5,17.4,8.9a110.1,110.1,0,0,1,11.5-30.8c-4.2-1.1-8.2-2.6-12.3-4C82.236,240.682,77.736,238.482,74.536,239.282Zm344.8,23.2c1.2,1,1.6,1.3,1.9,3C418.336,265.582,419.236,264.682,419.336,262.482Zm28.4-76.7c4.5.1,6.6,1.6,10.1,3.7,2.6,1.5,5.7-.1,5.7,3.8,7.3-5.7,20.9,9.1,26,13,5.4,4.1,10.7,8.9,11.3,16.2.2,2.2-.3,4.4.1,6.5.2,1.6,1.3,3.2,1.1,4.9-.2,1.9-1.9,3.1-2.2,4.9-.2.7.4,2.2,0,2.8-3.3,6-7.5,10.9-14.6,11.5a23.362,23.362,0,0,1-17.7-6.1c-4-3.9-6.5-9.7-7.5-15.1-.2-.9.2-3.1-.1-3.9-.4-1.2-1.1-1.2-1.7-2.1-1.5-2.5-3.6-7.2-1.7-9.9-4.7,1.1-8.3-9.1-10.1-12-1.3-2.2-4.5-3.9-5.4-6.1-1.2-2.9,3.1-4.2,1.6-6.3-.8-1.1-5.2-.4-4.7-3.1C438.236,186.082,446.036,185.782,447.736,185.782Zm91.5,51.3a.1.1,0,0,0,.1.1h0Zm-12.5-22.1c.4-.4,2.6-2.6,2.9-.9C529.836,215.482,527.436,214.982,526.736,214.982Zm-204.9-173.2c-4.8.3-9,5.4-12.6,8.1a66.867,66.867,0,0,1-17.8,9.2q-10.95,3.9-22.2,6.9c-7.6,2-15.5,2.4-23,4.5,3.7,6.8,7.5,13.7,11.2,20.5,1.6-2.3,1.1-4.8,3.8-6.4,1.9-1.1,4.6-1.3,6.7-1.7,5.9-1.2,12.3-2.2,18.3-1,3.9.8,8.1,3.7,4.5,7.9-2.3,2.6-7.3,1.9-7.7,6.1-.4,4,3.7,7.4,2.7,11.6-1.3,5.9-7.2,4.1-9.8.3-2.3-3.4-1.4-9.4-5-11.9-2.1-1.5-7.9-2-10.2-.7,4.2,7.8,12.5,17.5,7.7,26.9-1.5,2.9-4.7,4-2.6,6.8,2.5,3.3,9.8,6,13.6,5,3.6-.9,7.8-5,11.8-3,3.8,1.9,1.1,5.1,1.5,8.1,1,9,19.5,3.9,24.5,2.7s10.3-4.1,15.5-4.2c4.9-.1,9.4,2.2,13.3,5,2.9,2.1,7.7,8.1,11.4,8.3s8.9-5.3,12.2-6.9c5.9-3,12.3-3.8,18.5-5.8,1-.3,5.3-1.2,5.4-2.6s-5-4.4-5.9-5.1c-7.9-6-13.7-14.3-21.9-20a37.646,37.646,0,0,0-11.9-5.4c-2.4-.6-8.8-1.5-9-4.9,11.4-1.9,11.7-16.1,6.9-24.2-3.1-5.1-7.8-7.6-13.8-6.5-8.7,1.6-10.3,7.9-12.2,15.5-7.1-3.9-14.8-13.3-15.2-21.6C309.936,54.082,319.936,50.182,321.836,41.782Zm211.6,62.2a251.346,251.346,0,0,1,35.1,9.1c7.1,2.4,17.4,4.5,23.5,9,1.8,1.3,4,4.2,2.4,6.6-1.4,2-4.9,1.5-6.9,1.2-9.3-1.4-18.3-5.3-27.5-7.4-24.3-5.5-49.3-8.2-74.1-9.9-6.9-.5-13.7-.9-20.6-1.4-5.7-.4-12-.2-17.6-1.5-4.4-1-5.5-4.3-2.2-7.9,3.2-3.6,8.6-3,12.9-3.6C483.736,96.482,508.836,99.382,533.436,103.982Zm-41.6-29c8.1,2.8-1.4,4.1-4.9,3.8-1.2-.1-17.1-1.7-17.1-1.2-3.2,0-11.6,2.4-13.9-.8-2.4-3.4,8-4.7,10.2-4.8C474.236,71.482,484.036,72.282,491.836,74.982Z" fill-rule="evenodd"/></g></svg>