<svg id="Layer_1" data-name="Layer 1" xmlns="http://www.w3.org/2000/svg" viewBox="0 0 862.866 662.924"><title>1</title><g id="Character_meditating" data-name="Character/meditating"><path id="Accent" d="M269,301.442c3.1,31.7,6.3,63.4,9.4,95.1,17.1-9.8,34.2-19.5,51.3-29.3v91.2c0,1.7-1,7.4,0,8.9.8,1.2,7.1,1.3,8.6,1.5q14.55,2.1,29.1,3.6c25.6,2.8,52.9,6.9,78.6,3.6,22.3-2.8,43.9-10.8,64.3-20,7.2-3.2,14.2-6.7,21.1-10.4,1.5-.8,6.8-2.6,7.6-4.2.7-1.3-.9-5.9-1.1-7.3-.9-5.8-1.7-11.6-2.6-17.4l-12-80.9,22.7,22.7c1.8,1.8,5.2,6.8,7.6,7.6,1.8.6,6.3-1.2,8.1-1.6,12.9-2.5,25.7-5,38.6-7.4,3-.6,9.8-.6,12.3-2.4,1.4-1,1.4-3,1.9-4.8,3.1-12.3,6.3-24.6,9.4-36.9.6-2.2,3.7-9.2,2.9-11.4-.3-.8-1.7-1.3-2.5-1.9-19.4-11.9-38.8-23.7-58.3-35.6-10.6-6.5-21.3-13-31.9-19.5-4.5-2.7-9.9-7.6-15-9.2-3.1-.9-7.7-.2-10.9-.3l-19.8-.6c-1,0-4.6-.8-5.5-.2-.7.5-.4,1.2-.7,2.4a90.44,90.44,0,0,0-.9,9.1c-.2,2.4.2,6.8-.9,9-.7,1.4.2.8-.7,1.5-1.1.8-4.7.5-6,.7-6.5.8-12.9,1.5-19.4,2.3-7.7.9-15.4,2.6-23.2,1.8-11.7-1.2-24.3-1.1-35.8-3.6-3-.6-4.1-2.3-6.4-4.6-4.5-4.5-8.9-9-13.5-13.5-2.2-2.2-1.3-1.8-3.6-1-2.9,1-5.8,3.5-8.4,5.1-10,6.1-20,12.2-29.9,18.2l-60.9,37.1a23.587,23.587,0,0,1-3.6,2.6" fill="#34558b" fill-rule="evenodd"/><g id="Ink"><path id="ink-shape" d="M851.6,305.315c-12.6,47.7-37.8,99.7-88.7,114.8-12.4,3.7-24.4,6.5-37.3,5.1a19.329,19.329,0,0,0-3.4.1c-2.1,0-.3.8-2.6.1-1.8-.6-3.5-2-5.4-2.6-5-1.7-10.4-2-15.6-3.3a385.136,385.136,0,0,1-37.8-11.9c-5.8-2.1-11-5.1-16.4-7.9-5.5-2.9-11.3-4.7-16.9-7.4-4.4-2.1-11.9-4.8-15-8.8-3.3-4.2,1.3-13.2,2.6-17.6,4.4-15.2,9.7-30.2,13-45.7,11.5,13.3,27.5,21.6,44,26.9a163.415,163.415,0,0,0,27.5,6.3c8.5,1.2,17.6,2.6,26.1.9,6.4-1.3,14.4-4.2,19-9.1,1.6-1.7,3.6-4.9,2.7-7.5-1.2-3.2-4.5-1.7-6.4-4.1-1.6-2.1-1.3-7-1.9-9.5a98.933,98.933,0,0,0-3.6-13.2c-2.9-8.4-6.6-16.9-7.4-25.8a35.838,35.838,0,0,1,4.9-21.9c1.8-3.2,6.4-11.9,10.9-11.5,4.9.4-1.7,21.2-1.9,25.4-.9,16.8,1.4,34.8,10,49.5,3.3,5.6,8.1,12.2,15.1,12.9,7.5.7,13.5-5.1,17.1-11.1,8.7-14.5,4.3-34.4-.1-49.7-5.4-18.7-19.5-31.5-28.4-48.3,13.3,1.3,20.4,9.8,27.2,20.5a121.839,121.839,0,0,1,16.2,39.7c1.5,6.9.5,13.9.5,20.9,0,2.3,0,10.9,3.8,10.6,4.1-.4,5.4-10,6-13,1.4-6.8,2.8-13.5,4-20.4,2.1-12,3-24.4,5.5-36.3.4-2,1.3-7.6,4.3-6.1,2.3,1.2,2,9.8,2,11.9.2,5,.5,9.9.5,14.9.1,7.4-1.4,15-.7,22.3.5,4.8,3,10.1,6.2,3.6,3.2-6.4,3.8-14.4,5.6-21.3,1.9-7.2,3.8-14.6,7.7-21,1.1-1.8,2.3-4.6,4.7-3.8,1.8.6,3.1,4.8,3.6,6.2,2.5,6.6,2,14,1.9,21a96.675,96.675,0,0,1-3.1,25.2Zm-244.8,12.4a30.064,30.064,0,0,0-4.2-.5c-.8-.1.1-1.6-1.9-1.2a3.073,3.073,0,0,0,2.1,1.9c-3,1-5.2-1.5-7.3-1.8-2-.3-2.1,0-4,2.1-2.1-2.6-1.7-1-3.4-1-.6,0-.7,1-1.7.8-.9-.1-1-1.5-1.5-1.6-2.9-.9-5.8,3.5-9.1-.3-.8,4-9.9-1-13.3-.3-3.7.7-2.1,2-5-.2-2.8-2.1-2-.7-5.3,1,.1,0-1.8,1.3-1.7,1.3-2.3-.3-2.1-2.6-5-2.5-3,.1-4.3,2.5-7.1-.4-.6,2.2-.7,1.2-2.2,1.8a2.084,2.084,0,0,1-2.1-.6,1.5,1.5,0,0,1-1.2,1.1c-1.6.1-4.5.4-5.9-.4-2.1-1.1-.4-1.6-1.9-2.8-.7,3.5-2.1,2.7-5.1,3.1-2.3.2-2.8-.5-5-.8s-5,.5-7.1.9c-.9.1-2.1.8-2.9.5-.8-.2-1.2-.8-1.6-1-.6-.2-.5-.7-1.5-1-.7-.2-1.9.5-2.6.6-5,.8-9.7.8-14.4-1.1,2.3,4.1-5.4,1.9-6.8.2-1.7,2.7-3.8.8-7.3,1-3.4.2-8.4,1.2-9.8-3a11.93,11.93,0,0,1-2.9,3.7c-2.2,1.1-2.5-.5-4.5-1.2-2.8-.9-2.2.8-3.9,1.2-2.9.6-4.5-1.5-7.1-2.6-.1,1.7-.2,2.7-1.6,3.8-1.3-4.7-5.9.4-5.1-5.9-1.8,1.1-4.3,2-4.8,4.4,3-.8.3,1.1.2,1.2-.4.2-1.7-1.6-2-1.9a22.527,22.527,0,0,0-.2,2.6,29.54,29.54,0,0,1-3.2-2.2c-.9-.5.4-1.5-1.1-1.5-.8,0-1.6,1.6-2.4,1.8-1.2.2-.6-1.5-1.2-1.5-.8.1-2.1,1.2-2.7,1.2-1.9-.1-.6-1-2.1-1.4-2.7-.7-2.5,1-4.4,1.6-4.4,1.4-3.9-5.2-8.4-.8-1.1,1.1-1.7,2.7-3.2,2.6-3-.2-2-3.8-1.3-5.5.6.3-11,6.3-10.9,6.1.1-1.4,1.9-2.5.3-3.8-1.3,2.9-2.7,2.9-5.8,3.5-1.5.3-1.8.6-3.4,0-1-.4-1.7-2-2.7-2.1a22.8,22.8,0,0,1-2,1.6c-1.7.8-2.7-.1-4.4.2-1.4.3-1.9,1.5-3.3,1.1-1.9-.4-.8-2.6-3.3-2-.9.2-1.4,1.9-2.8,2.2-2.1.5-4.8-.5-7,.1a28.171,28.171,0,0,1-4.7.7c-1.3.1-.7-.9-3.1.2l-1-2.5c-1.2,1.1-2.3,2.1-3.5,3.2a13.524,13.524,0,0,1-.4-2.9c-1.7,1.7-3.9,2-6.3,2.2a55.372,55.372,0,0,0-6.9,1.2c-.8.1-2.8.4-3.4.1.1,0-1.2-.5-.8-.4-.2-.3-.3-.7-.5-1-.2-1-.9-1-2.1-.1-.6-.1-1.8-.9-2.4-.7-1.6.5-1.4,1.8-3,1.6-1-.1-1.6-1.6-2.6-1.7-1.6-.2-3.1,1.7-4.5,2.1,4.5-1.2-5.8-.3-2.6-.2-2.1-.1-4.3-.2-6.2.8-1.1-.7.2-2.2-.9-2.8-1-.6-1.1.9-1.2.9.6-.2.3,1.1-.3,1.3-1.9.7-3.5-1.1-3.6-2.8-1.6,2.5-2.1,1.5-4.5,1.6-2.4.2-4.4,1.4-6.8,1.4-4.7,0-7.9-1.7-9.5-5.9,5,.6,10.1-2.6,15-1.9,1.6.3,2.6,1.5,4,1.2,1.7-.3,3-2.2,5.2-2.4,4.9-.5,9.8,0,14.8-.8a84.275,84.275,0,0,1,18.1-1c4.6.3,8.4-1.4,13.1-1.8,6.1-.4,12.2-.5,18.3-.8,6.2-.3,13-1.3,19.2-1a50.554,50.554,0,0,0,5.5.2c.8,0,1.6-.6,2.4-.5,1.1.1,1.6,1.2,2.8,1.2,2-.1,4.1-1.7,6.4-1.7,3.8-.1,7.7-.1,11.5-.3,3.4-.2,7-1,10.4-.9,2.4,0,3,2.1,4.4,2.3,2.5.4,15.1-6.8,16.2-.4,6.6-4.5,15.4-.7,22.7-1.5,9.4-1.1,19-.1,28.4-.5a217.686,217.686,0,0,1,29.1.9,77.676,77.676,0,0,0,11.8.5c1.8-.1,3.8-.6,5.6-.1.4.1,3.7,2.4,3.3,2.5,1.8-1.6.6-1.9,3.7-1.9,2.4-.1,4.7.5,7.2.6,4.4.3,8.7-.3,13.1-.2,3.6.1,7.2.6,10.8.7,3.9,0,8.6.1,11.4,3.3l-.9-3c4.4.3,8.7,1.9,13.2,1.2-1.1,1.1-2.3,2-2.7,3.5,2.4-.3,4-2,6.5-2,2.1,0,2.6,1,4.8-.3.3,1.7.5,3.4.8,5,3.1-.7,1.1-3,1.3-5.1,2.5.8,4.6-.1,3.7,3.5-1.2,2.4-4.7,3.7-7.3,2.9Zm-4.4,31.1c-1.1,3-10.4,1.3-12.6,1-2.9-.4-6.1-1.1-8.7-1.4a5.731,5.731,0,0,0-1.1-1.1,2.211,2.211,0,0,1-1.3,1c-1.2.3-1.2,1.5-2.8,1.2-.1,1.8,1.2.8,2.2,1.5-2.5,1.7-1.3-.3-2.7-.2a1.279,1.279,0,0,0-1.4-.6,6.24,6.24,0,0,0-2.2,1c-.6.7-1.1.7-1.6.1a2.744,2.744,0,0,0-1.5-.8c-2.4.4-3.1,1.5-5.9,1.3-3.9-.3-8.1.8-12,.2-2.4-.3-6.4-4.1-7.5-.4-1.7-2.7-4.3-4.6-5.9-7.3,7.4-.4,14.7-.9,22.1-1.2,6.5-.2,13.5.5,19.5.2,5.6-.3,11.6-.9,17.4-1.4,6.2-.6,8.2.7,6,6.9Zm-192,.4c2.7.7,5.2-.9,7.8-.4.9.2,2.6,1.7,3,1.8.7.1,2.8-1.5,3.7-1.7a53.589,53.589,0,0,1,18.3-.4c3,.4,3.5-1,6.1-1.6,2.7-.7,6.6-.2,9.5-.4,6.8-.5,13.6-.1,20.3-.6,6.9-.5,13.8-.8,20.7-1.1,4.7-.2,16-2.9,19.9.6,3.2,2.9-.9,7.9-4.1,9-2.4.9-3.6-.9-5.3-.8-2,.2-1.3,2.6-3.1.4-1.1,2.2-8.2,1.3-10.2,1.4-4.4.3-8.2,1.2-11.2-2.9q.3,1.8.6,3.6c-4-2.1-8.3-1.4-11.7-.7-1.7.4-7,2.9-8.8,1.8-1.3-.8,1-2-1.2-2.7-1.1-.3-3.1,1.5-4.5,1.4-3.8-.3-2.7-2.8-6.5.4a5.232,5.232,0,0,1-1.5-4.6c-2.7,2.3-2.5,6.2-7.4,5.5-1.8-.3-2.2-2.1-3.1-2.5-2-.7-2.2.6-4,1.6a7.554,7.554,0,0,1-2.2,1.1c-1.6.2-1.8-.6-2.1-.5-1.1.1-2.4.7-3.7.3-1.1-.3-1.5-2.3-3.5-1.9-1.9.4-1.9,1.7-1.6,3.7-1.9-.2-3-1.2-4.4-2.4-1.4,3.3-4.4.6-6.1,3.4-2.2-2.6-3.5-1.9-6.2-4.4.1,1,.3,2.1.4,3.1-2.1-.4-3-1.9-4.8.1-1.7-3.2-7,1.4-9.7-1.7-1.2,3.9-9.1,3-12.5,3.1-3,.1-5.2-.2-8.1.5a31.787,31.787,0,0,1-8.5,1,22.277,22.277,0,0,0-5.3-.3c-2.8.3-5.3,1.8-8.2,1.1-4.4-1-7.1-6.8-2.2-9.4,3.4-1.7,9.4-1.1,13.1-1.4,6.1-.5,13-1.7,19.2-1.1,4.8.4,9.2-.7,14-1.2,3.7-.4,9.7-1,12.1,2.6,1.1-1.1,1-3.3,3-2.8Zm-67.2,49.9c-.7-3.3,27.4-5.1,30.2-5.3,5.8-.5,11.7-.8,17.6-.9,4.8-.1,9.3.8,14.1.1,4.5-.7,9.9-2.1,13.8,1.1.6-4.4,17.5-2.2,20.7-2.2,14,.1,27.4.1,40.9-.8,7.7-.5,15.9-1.2,23.7-.8,3.5.2,6.3,1.1,9.8.3,2.3-.5,4.7-1.6,6.9-.1,2.5,1.8,3.6,8,1.9,10.5-1.3,1.9-2.4,1.7-4.4,1.3-3.1-.5-5.4-1.2-8.6.1a9.24,9.24,0,0,0-1.9.4c-3.6.3-8.5,2.8-11.6-.1,1.2.2,3.1-2,1.5-2.2-1.2-.1-1.9,1.1-2.8,1.5-3.1,1.4-4.8,1-6.6-2-3.8,3.3-4.2,2.4-5.9-1.7-1.3,1-1.6,3.3-2.6,4.1-.1.1.5,1.5-.3,1.5-.7-.1-.9-1.2-1.4-1.2-.3-.1-.5-1-.8-1.1s-.7.6-1.1.5c-1,0-4,2.2-2.9-.9-1.6,2-2.3.7-2.8-1.1-1.8,1.4-3.6,2.8-5.5,4.1-.8-2.4-2.3-1.7-4.1-.9.6-1.6.2-3.2-1.2-2-.8.7-1.3,2.7-2.2,3.6-3.3-3.4-4.5-2.4-9.1-2-1.8.2-3.9.5-5.5-.6-1.4-.9-2.2-4.3-4.5-1.6.5-.6-.3,4.1-.4,4.8a10.7,10.7,0,0,1-2.6-2.6c-1.4,2.7-4.9.3-7.8.8-4.6.9-9.3,2.3-13.4-1.1-.3,1.1-3.6,2.5-3.6,2.5.2-2,1.4-1.3-1.1-1.6-.5-.1-1,.8-1.4.9a25.656,25.656,0,0,1-4.8,0c-6.3-.2-12,1.2-18.2,1.7-2.1.2-4.6.5-6.5-.3-2-.8-2-1.7-4-1.2.6-.2-1.3,1.9-1.2,1.8-.3.2-1.4-.8-1.8-.7a6.468,6.468,0,0,1-.4,1.3c-.5-.1-1-.1-1.5-.2-1.3.2-2.6-1.2-3.8-1.2.2,0-3.4,1.4-3.3,1.5-2.6-1.3-1.8-.9-5.1-.1-3.1.7-6.1.6-9.2,1-9.5,1.3-4.1-3.3-5.2-8.9Zm-8,45.7c-1.7-2.4,2.9-3.3,4.3-3.5,2.4-.4,5.6.3,7.2,0,2.4-.6,4.8-2,7.5-2.3,3.5-.5,6.9-.5,10.4-.8a24.565,24.565,0,0,1,3.7-.4c1.7.1,2.4,1,3.7,1,2.3,0,5.2-1.4,7.5-1.7,3-.3,6.1-.5,9.1-.7,6.4-.3,12.7-.2,19.2-.2,2.9,0,10.7-3,12.2.4,2-2.6,7.2-2.2,10.1-2.3,5.1-.1,10.1-.6,15.2-.9,4.4-.2,9.2.7,13.5.1,2.4-.4,3.1-1.1,5.8-.8,2,.3,5-.8,6.7-.3-.1,0,2.1,1.4,1.4,1.4.8,0,.7.5,1.6.2,1.1-.3.6-1.7,2.9-2.2,3.6-.8,8.3.1,12-.1q5.4-.3,10.8-.3c1.7,0,3.7-.4,5.3-.1.8.2,2.5,1.2,3.1,1.1,1.9-.3,2.9-1.6,5.4-1.5a58.911,58.911,0,0,0,8.4-.2c2.8-.2,3.2-.6,4.6,1.7s1.8,5.3-.8,6.9c1.6-.1,3.7,2.1,1.7,3.3-1.2.8-3.6-.9-5-.8-1.8.2-3.2,1.1-5.1,1.1-2,.1-4.1.6-6.1.6-2.1,0-3.6-.9-5.6-.5-1.7.3-1.9,1.8-4,.5-1-.6-1.2-2.9-2.6-2.9-1.9,0-1.1,2.4-2.2,3.6-.3-3.5-3,2.3-4.1-2-1,1.4-4.7,3.4-6.4,2.3-1.6-1-1.1-3.4-1.8-5.1-1.1,3-4.1,6.2-3.9.7-1.5,1.8-5.4,1.5-4.4,4.7-1.2,0-1.5-1.7-2.5-1.9-.9-.1-1.6.6-1.7.5.5,0-1.4.7-1.4.7,1.3-.3-3.7-.7-2.9-.7-1.2,0-2.6.9-3.9.9-1.2,0-2.5-.5-3.7-.6-3.2-.4-2.5.3-4.5,1.3-.7.4-.9,1-2,.9-.8-.1-1.1-1.1-1.1-1.1-1.1-.1-.3-.5-2-.3-.2.3-.4.7-.6,1a1.852,1.852,0,0,1-2.4.6c-2.5.5-10.7,2.8-9.9-1.4-1.3.6-2.5,1.2-3.8,1.8-.5-3.4-7.4,1.1-8.9,1.4-2,.3-2.1-.5-4-.9-.3-.1-1,1-1.8.9-2-.4-2.4-.6-2.7-2.8-1.5,2.7-2.7,1.5-5.3,1.9-.6.1-1,1.2-1.8,1-.6-.1-.6-1.2-1-1.4-.4-.1-.3-1-.9-1.1s-2.8,1.6-3.4,1.9c-1.4.6-3.7,1.6-5,1.3-1.7-.4-.9-1.6-3.3-1.5-3.8.2-5.3,3.4-7.6-1.6-1.1,2-.9,2.6-2.6,3.2-1.2.5-4.4,0-6.1-.1-7-.3-13.9,2.1-20.9,1.5-3.1-.3-5.6-.9-8.7-.4-3.2.5-6.4,1.3-9.7,1.6-1.7.2-5.2.6-6-1.5-.4-1.7,2.3-3,.8-5.1Zm13.7,77.3c-9.1,6.1-16.7,14.4-25,21.5-8.4,7.1-15.1,14.9-22.6,22.8-7,7.2-13.4,14.1-21.8,19.6-5.3,3.5-10.1,7.7-15.6,11-4.1,2.4-10.3,5.7-8.3-1.8,2.1-7.7,5.8-15.4,9.1-22.6,4.7-10.2,9.4-20.3,14.5-30.2,1.9-3.7,3-7.5,6-10.5,3.3-3.3,5.6-7.5,9.2-10.6,15.1-13,37.9-3,54.5.8Zm28.6,4.4c-4.1,2.2-8.8,2.7-13.1,4.1-3.7,1.2-7.2,3.4-11.2,3.6,3.7-2.7,6.8-6.5,10.9-8.6,4.6-2.3,8.8-.6,13.4.9Zm181.6,18.1c-15.2-5.1-29.4-12.7-44.2-18.8-2.6-1.1-22.6-7.6-22.2-10.8,14-2.6,28.5-7,42.5-2.2,12.8,4.4,23.2,14.9,33.1,23.6,2.6,2.3,18.5,12.7,17.1,16-1,2.3-8.7,1.7-10.5,1.2-2.3-.6-3.7-2-5.5-3.6a32.745,32.745,0,0,0-10.3-5.4Zm-28.1-85.8c2.3-2.1,3.7-5.4,5.9-7.3,2.8-2.5,7.4-1.3,10.5,0,9.3,3.9,17.3,10.5,26.5,14.6,10.2,4.5,19.1,10.6,28.4,16.9,8.4,5.7,17.6,10.5,26.2,15.9,8.8,5.6,18.6,9.2,27.5,14.6,9.1,5.5,18.1,10.9,26.8,17,15.5,10.7,31.7,21.8,43.2,37a163.189,163.189,0,0,1,15.8,25.6c3.9,8,8.2,19.1,3.1,27.5-4.9,8-13.3,14.3-20.3,20.3-2.7,2.3-5.2,5-8.7,6-4.2,1.2-9.2.9-13.5,1.2-23.2,1.9-44.9.1-67.7-4-22.1-4-44.2-6.2-66.5-9-12.5-1.6-25.1-3.4-37.5-6-5.3-1.1-10.7-2.4-15.8-3.9-4.5-1.3-8.3-4.3-13-5.4-19.7-4.9-42.3-6.8-61.8-15.1,17.3-7.2,35.6-11.5,53.4-17.5,18.6-6.3,36.8-11.6,56.5-13.3,10.1-.9,19.2-3.5,28.9-6.2,9.3-2.6,18.9-3.4,28.5-4.5,4.2-.5,16.3.3,17.7-5.3,2.1-8.2-9.8-9.2-14.8-8.5-7.2,1-13.1,2.8-18.6-3.1-5.6-6-11.1-12.2-16.8-18.1-10.6-11-21.5-23.7-36.5-28.7-18.3-6-39.4-.3-57.7,3.1-19.2,3.6-38.5,7.1-57.4,12.3-7.8,2.2-17.9,7-26,6.2-8-.8-17.1-2.1-24.8-4.4-3.5-1-6.4-3-9.5-4.8-4.1-2.3-8.5-3.8-12.8-5.7-8.7-3.7-17.2-7.1-26.7-8.5-7.9-1.2-16.4-1.9-24.1.8-7.5,2.7-14.2,8.3-19.5,14.2-5.7,6.4-10.4,13.7-15.1,20.9-2.2,3.5-5,6.5-7.3,9.9-2,2.8-3.1,6-5.2,8.8-4.6,6.2-7.8,14.1-10.6,21.3-3.1,8-6.6,17.5-5.8,26.1.3,3.3.6,7.6,1.8,10.7,1.6,3.9,3.9,3.8,7.2,5.2,5.7,2.5,7.3,9.4,14.7,8.1,6.9-1.3,12.9-7,17.9-11.5,6.6-5.9,12.9-12.1,19.1-18.4a148.54,148.54,0,0,0,17.9-20.9c2-3,3.6-6.3,6-9,3-3.4,6.5-3.8,10.6-5.2,36.1-11.9,72.4-23.4,109.6-31.3,8.9-1.9,17.9-4.3,26.7-6.8,9.3-2.7,14.1.2,21.8,5.2,16,10.6,35,18.1,52.8,25,5.6,2.2,14.6,2.3,19,6.6-26,4-50.8,11.6-75.9,19.2-12.4,3.7-24.9,7-37.3,10.6s-24.4,8.2-36.6,12.3c-12.2,4-25.1,5.7-37.4,9.4a331.564,331.564,0,0,1-38,8.7c-13,2.3-26,5-39.1,7.1-6,1-12,1.9-17.9,3.3-5.8,1.3-11.4,4.4-17.2,5.1-26,3.2-51.5,10.3-77.4,14.3-19.3,3-53,7.2-65.5-12.2-12.6-19.5,2.9-42.3,16.7-56.2a184.237,184.237,0,0,1,28.3-23.1c10.8-7.3,21.2-15.1,32.1-22.4,24.5-16.4,51.1-29.8,77.4-43,12.6-6.3,24.8-13.1,37.1-20.1,6.1-3.4,9.5,2.1,14.3,5.9,3.8,3,10.8,10.3,16.1,6.9.2,1.2.4,2.4.6,3.7,1.6-.7,3.1-1.4,4.7-2.1,1,2.7.9,4.4,3.8,5.9,1.8.9,5.6,1.9,7.3.4.3,1.1.7,2.2,1,3.2,1.5-.1,1.8-4.4,2.1-5.4,2.6,3.7,6.1,6.9,10.6,7.9,0-.2-.7-3.3-.7-3.3,1.4-.9,3.2,2.9,4,3.7,2.5,2.6,4,2.2,6.8.1.2.2,1.1,2.7,1.3,2.6.6-.2,1.7-2.4,1.9-2.5-.2,2.8,5.3,3.4,7.3,2.8-.4-.8-.9-1.7-1.3-2.5,6.8-.9,9.4,6.3,15.9,5.9,4.8-.3.9-1.3,3.7-3.4,2.4-1.8,2.8,2.1,3,2a5.715,5.715,0,0,0,1.1-1.6c.9,3.4,7.9,6.4,7.1.8,2.7,1.1,4.7,2.9,7.7,3.3,3.7.5,7.6-.3,11.3-.6,7.9-.7,15.4-2.3,22.6-5.9,4.2-2.2,8.8-4.1,12.8-6.7,3.3-2.2,9.7-8.8,14.1-5.9-1.1-3.4,4.2-.2,4.4-4.6.9.6,1.7,1.3,2.6,1.9.5-1.1.4-2.9,1.1-3.9.9-1.4,1.4-.6,2.2-1.3.9-.9,1.7-3.1,2.8-3.8s2.4.1,3.6-.5c1.8-.9,9.7-9.6,8.4-2.1,3.4-1.2.8-2.2,1.2-4.5.9-4.5,2.9-1.3,5-.9,3.4.6,3.3-2.1,5.2-4.2,1.7-1.9,5-2.7,3.8-5.9.9.4,1.1,1.7,1.3,3Zm-203.6-96.7c-2.7,3-4.7,1.7-7.6,1.3-.3-1.1-.9-1.2-1.6-.4a9.37,9.37,0,0,1-2.8,1c-2.4.6-4.9.3-7.3,1.2.1-.8.9-2.2.4-3-2.5,1.7-4,2.8-7.1,2.9-2.5,0-6.8-1.9-8.9.4-.1-.9-.1-1.8-.2-2.6a8.6,8.6,0,0,0-2.6,2,5.327,5.327,0,0,0-1.1-3.4c-1.6,3.4-3.4,3.5-6.6,2.2.4.2-3.2-2-3.1-1.4-1.1-4.8,17-4.4,18.9-4.6,4.8-.5,9.5-.8,14.3-1.2,4.5-.4,7.9-1.1,11,2.7-1.5-5.6,11.7-5.3,4.3,2.9Zm-208.1-84.5c.5,8.2,2.3,17-.9,24.9-2.6,6.4-7.7,13.6-13.2,17.7-11.3,8.5-20.9-1.9-22.5-13.4-1.6-11.9,1.6-26.5,11.9-33.9,6.1-4.4,12.1-4.1,19.2-2.6,1.7.3,4.4.2,5.3,1.9.1.4-.1,5.4.2,5.4Zm150.4,109.7c-2,1-4,1.6-5.7,2.9-.6.5-.8,1.5-1.4,1.9-1.2.7-2.8.2-4,.8-2,1-3.4,2.4-5.8,3.3a91.033,91.033,0,0,0-9.9,4.9,178.485,178.485,0,0,1-17.3,7.7c-2.9,1.2-11,3.5-10.7,7.8-.7.2-1.3-1.3-2.7-1.1-1.9.2-4.4,2.3-6.3,2.9-3.6,1-6.5,1.1-6.5,5.7-1.2-.8-1.5-2.7-3-3-1.7-.3-2.5,1.6-3.9,2.2-1.6.7-3.7,0-5.3.8a15.912,15.912,0,0,1-2.4,2,7.485,7.485,0,0,1-2.6-.1c-3.4.7-6.6,2-10.1,2.7-3.4.7-5.7.9-4.3,4.9-3.6.7-4.5-3.1-8.5-1.7a124.2,124.2,0,0,1-14.8,4c-2.6.5-5.4,1.7-8.1,2-1.9.2-3.7-.5-5.6-.3-2.3.3-4.1,1.3-6.4,1.3a50.752,50.752,0,0,1-6.7-.7,11.507,11.507,0,0,0,1.2,2.5c-1.5-.3-2.2-2.1-3.5-2.4s-2.5,1.1-3.7.8c-.5-.1-.2-1.6-1-1.9s-1.1,0-1.9-.1c-.3,0-3.5-.2-4,.1-.9.5,0,1.4-.2,1.5-3,2.2-3.1,1-4.4-1.3-2-3.4-4.4-1.3-8-1.9-4-.7-7.2,1.1-11.1.8-4.3-.3-9.2-3.5-13-5.3-8.1-4-16-7.8-22.8-13.9-13.3-11.9-24.2-26.5-30.6-43.2-6.9-18-8.2-36.7-7.6-55.8a244.222,244.222,0,0,1,3.1-34.2c1.2-7.8,1.5-21.6,10.3-25.2,1.5,18.2-3.3,36.8-.2,55,.9,5.5,3.1,12.7,7.3,16.8,6.2,6,7.6-2.7,8.2-7.4,1-8.9,3-17.7,4.3-26.5,1.4-8.8,2.3-17.8,4.2-26.5.7-3.2,6.3-26.5,10.4-25.4-.8,17-3,33.7-3.1,50.7,0,6.8-.6,14,.3,20.8.5,3.5,3.7,13.7,9.2,12.9,5.1-.8-.5-8-1-10.8-1.3-7.4.3-16.5,1.5-23.9,2.2-13.8,7.1-28,15.2-39.6,7.2-10.4,18.3-20.2,31.7-18.4,5.7.8,10.2,2.2,13.1,7.4,2.3,4.1,11.1,8.8,6,13.9-4.7,4.7-12.3.9-17.5-.2a23.867,23.867,0,0,0-18.5,4c-9.1,6.4-14.4,17.9-16.1,28.6-2.3,14.5,3.8,52.4,26.4,43.9,15-5.6,26.3-26,25-41.5-.5-6.2-2.9-18,5.7-19.7,11-2.2,12.6,10,11.5,17.9-1.6,11.5-7.7,22.2-14.7,31.3-6.1,7.9-13.1,12.9-20.4,19.4-2.2,1.9-7.7,6.3-6.7,9.9,1,3.9,9.7,5.1,13.1,5.7,17.1,3.2,36.5.3,53.6-2,35.2-4.6,69.9-16,98.7-36.8,1.2,12.9,2.6,25.8,3.2,38.7.3,6.3.3,12.7,1,18.9.6,4,2.2,9.3-2.2,11.5Zm-97.5,45c-1.4.7.1-3.6-.3-2.2,2.1.7,2.2,1.5.3,2.2Zm145.9-156.2c2.2-2.4,8.2-8.2,10.1-2.7.7-2.3.8-5.8,3.5-2.6,1.1-3.9,13.1-3.5,16-3.7,9.5-.5,19.1-.8,28.5-1.8,19.5-1.9,39.3-.9,58.8-1a89.851,89.851,0,0,1,12.7.4c4.1.6,8.3,2.3,12.4,1.6,3.7-.5,6.1-1.6,9.9-1.1a120.779,120.779,0,0,0,13.5.9c20.2-.1,40.4.7,60.6.8,3.9,0,8.7-.8,12.3.9,1.4.6,2.9,2.7,3.9,2.9,1.2.3.5-1.6,2.1-.8,2.1,1.1.5,4.6-.9,5.2.8-.3-1.5-.7-1.3-.7-1.1.1-2.1.9-3.3.9-1.8-.1-3.4-1.2-4.9-2.2,0,.4.8,3.1-.1,3.2-.8.1-1.6-2.5-1.6-3.2-4.5,4-9.3,1.8-14.9,2.3-4,.4-12.3,3-15-1.1a3.84,3.84,0,0,1-1.1,2.3q-1.2,1.8-2.1-.3c-.2,0-2.1.4-2.2.4-1.4-.1-3.1-.6-4.5-.7-2.1-.2-1.7,1.4-3.5,1.4-.9,0-3.3-1.3-4.9-1.4-2.8-.1-5.7,1-8.5.7-1.9-.2-3.6-1.8-5.5-1.9-2.3-.1-3.1,1.7-4.9-.8-.4-.1-.6,1.4-.8,1.4,0,0-1.8.3-2,.3a19.452,19.452,0,0,1-2.2.8c-.9,0-1.5-.7-2.5-.7-1.7,0-6.9,1.4-6.8-1.6-5.9,2.2-11,1.3-17,1.9a24.782,24.782,0,0,1-7.2-.6c-3.3-.6-5.5.2-8.8.3-3.2.2-4.2-1.2-6.9-2.4-1.1-.5-1.8-1.1-3.1-.8-.7.2-.2,1.4-.4,1.5-1.1.4-1.9,0-3.5.1-2.9.2-4,2.6-7,.3,1-.1,2-.2,3-.4-2.8-1.2-6.6-1.8-5.9,2.6-2.4-.3-.3-2-1.5-2.6s-2.5.4-4,.9c-4,1.3-7.3.6-11.4.4-4.7-.3-15.7,3.6-19-1.4-.1,1-1.2,4-2.7,3.8-.5,0,.9-3.1,1-3.5-.8,1.6-4.3,2-6,2.8.2-.9.4-1.8.6-2.6-1.6,1.7-2.4.7-4.3,1.2-.8.3-2,2-2.7,2.1a3.152,3.152,0,0,0-3.1-1.2,7.017,7.017,0,0,0-2.5-.1c-3.3.2-6.3,2.1-9.6.8-2.9-1.1-4-3.9-5.7.6-.4-.8-.9-1.6-1.3-2.4-.6.9-1.1,1.7-1.7,2.6-2.2-1.4-2.3-2.2-4.8-1.7a2.263,2.263,0,0,1-1.8-.1c-.1.4-.3.9-.4,1.3-.1,1.1-.4,1.5-1,1.1a5.638,5.638,0,0,1-1.3-.8c-1.6.1-3.7.6-5.5.3-.7-.2-5-2.4-5.3-2.1Zm50.4-29.5.6.9c-2.7,1.4-3.3.6-3.6-2.2,1.3,0,1.5,2.3,3,1.3Zm1.6-1.6c1.3.6,2.8,1.7,4,.2.8,2.3-5.3,5.6-4-.2Zm8.3,1c2.7,1.8-3.8.4-3.8.4a2.917,2.917,0,0,1,3.8-.4Zm23.3-10.2c.9,4.7,3.5,4.5,7.6,2.4,6-3.2,7-8.4,7.5-14.6.4-5.9,1.1-8.2,7.3-7,4.3.9,7.9.1,12.2,0,4.6-.1,6.2.6,6.6,5.3s1.2,8.3,4.7,12,8.2,5.9,12.7,7.9c2.3,1.1,4.5,2.2,7.1,2.4,1,.1,6.2-.6,6.3,1.1.1,1.2-7.1,4.7-7.9,5.2a56.748,56.748,0,0,1-10.4,4.6c-8.4,2.5-17.3,2.7-26.1,2.5-14.1-.2-33.5-6.2-41.9-18.7,4.7-1,9.5-2,14.3-3.1Zm-1.3-40.4c-2.2-1.9-3.7-4.7-5.5-6.9a7.325,7.325,0,0,0-2.5-2c-.9-.6-1.5.2-2.2-1.1-2-3.6,4.2-8.6-2.4-10-2.2-.5-7.6,1.3-8.2-1.9-.9-4.5,7.7-4.8,9.7-7.1,4-4.6,1.3-12.3,3.8-17.5,2.3-5,8.3-5.9,13.1-7.4,6.6-2.1,13.3-3.3,20-5,4.7-1.2,12.5-5.9,16.8-1.7-6.7,1.5-2.8,3.8,1.7,5.1a75.58,75.58,0,0,0,15.7,2.5,58.578,58.578,0,0,0,16.2-.6c4.9-1,10.4-5.3,15.6-4.2-2.9,5-11.4,7.7-16.6,9-2.6.7-4.3.5-4,3.8.3,3.2,3.1,6.4,3.8,9.7a22.644,22.644,0,0,1-1.5,12.6c-1.5,4.1-1.9,4.6-.6,8.5,2.1,6.1-2.4,12.8-6.6,17.2-17,17.9-49.3,11.2-66.3-3Zm43-106.6Zm5.2,45c-.7.5-4.7,1.6-4.6,0,.3-2.1,3.9-1.3,4.6,0Zm9.2-42.7c-.9-.7-3.6-.4-1.7-3.1.7,1.2,1.2,2.1,1.7,3.1Zm-63.6-16.9a51.754,51.754,0,0,0,3.1-9.4c.3-2.1-.3-4.4,2.5-4.7-3.7-1.6-3.7-7.9-3.9-11.2-.3-4.5-1.7-10.5.3-14.7,2-4.3,4.8-4.2,5.6.9.3,2-.9,2.7-1.1,4.1-.5,2.8.5,2.2,2.2.1.7,2.1,1,5.4,4,5.2-.2-.6-1.3-1.9-1-2.6.6-1.1,3.5.6,3.8.8,2.6,1.8,3.2,3.5,1.3,5.8,2.6.3.4,2.6,2.1,3.1,2.6.9.8-3.4.6-4.1a6.423,6.423,0,0,1,3.1,2.5,22.606,22.606,0,0,1,1.6,2.6c.5,1.7,1.6,2.1,3.3,1.3,3.3,1,7.9.9,10.9,2.7,1.4.8,1.8,2.6,3,3.3,1.3.8,3,.4,4.4.9-.5,1.1-.1,1.8,1.2,1.8a10.88,10.88,0,0,1,3,.7,10.46,10.46,0,0,1,2.3-1.3,1.633,1.633,0,0,0,2.4.7,11.79,11.79,0,0,1,6.5,3.5c1.7,1.6.3,1.7,2.2,1.5.8-.1,2.1-1.4,3.9-1.1a13.969,13.969,0,0,1,2.9.9,2.449,2.449,0,0,0,3.2.3c1.8.9,2,2.5,4.3,2.7,2.5.2,1.7-2.9,3.4,1.5,2.3-4.6,3.2,2.8,5.5,3.4,2.5.6,2.7-1.4,4.8.8.6.7.6,1.7,1.3,2.4,1.2,1.1,2.7.9,3.8,2.5-.6-.9.1,3.1.1,2.9.2,1.7-1.4,3.7,1.8,3.5,0,.2-1.6,2.4-1.8,2.1-.1-.3-.1-.5-.2-.8-.3.1-.5,2.3-.4,2.6q.45,0,.3-.6c-.5,1.6.3,2.7-.7,4.2-.6,1-2.4,1.7-3.3,2.3-2.2,1.5-4.4,2.9-6.6,4.5-5.1,3.6-10.8,8-17.2,8.8,3.2-3.2,21.8-15.1,12.5-18.6a37.982,37.982,0,0,0-6.7-1.4c-2.2-.2-4.6,1.1-7,.3-3-1-1.9-3.8-3.7-4.8-3.9-2.1-3,2.9-4.2,4.2-1.3-1.3-1-2-3-2.1-2.1-.1-2.5,1.8-4.9.6-3.3-1.6-1.6-4.9-6.2-4.9.1-.7.8-2.7-.1-3.3-1.2,1.6-.3,3.3-1.4,4.8a5.033,5.033,0,0,1-2.7,1.6c-2.1.6-2.4,1.7-2-1.5-1.5,2.8-6.3,1.6-9.1,1.4a65.014,65.014,0,0,1-13.8-2.8c-4-1.4-6.2-3.7-9.5-5.8-1.3-.8-1.9-.5-3.7-1-2.1,0-3.9-1-3-3.1Zm9.6-49.1c.7-.4,1.2,5.8.3,6.9-1.5-2.4-4.2-5.9-.3-6.9Zm2.2-2.5c2.2-2,.7,3.2.3,4-.8-.5-1.6-1.1-2.5-1.6,1-.5,1.3-1.6,2.2-2.4Zm83.5-8.3c20.5,4.3,40.7,12.3,57.1,25.5,14.9,12,25.5,29.1,31.4,47.2,6.1,18.8,4.1,39.7-10.5,54.2-7.7,7.6-17.8,12.2-27.5,16.6-4.6,2.1-9.4,3.9-14.1,6-3.3,1.5-7.4,3.9-11.2,3.5,1.9-2,4.8-2.1,7.1-3.3,2.8-1.5,5.2-4.4,7.6-6.5s7.8-8.6,11.6-7c-.5-3.5,3.4-5.1,5.2-7.3,1.9-2.4,2-5.2,5.5-6-3.7-2.9-2.6-8.4-1.8-12.3a123.844,123.844,0,0,0,1.9-14.9c.7-9.3,1.3-21.1-3.8-29.3-1.7-2.7-3.8-5.1-5.3-7.8-1.8-3.3-1.4-6.2-1.4-9.9-3.3,2.2-4-2.3-5.3-4.5-1-1.6-2.4-2.6-2.7-4.6-.2-1.5,1.4-1.8.5-3.3-1.1.8-1.5,2.1-2.1,3.3-1-.4.2-1.8-.4-2.3,0,0-2-.9-1.9-.7-1.3-1.6-1.7-4.2-2.3-6.1-2.3,1.2-1.9,1-4.4-.9a13.736,13.736,0,0,1-2.9-2.4c-1-2.4.7-1,.3-2.5-1.4-4.3-9.2-3.5-9.9-9.9-3.8,2.4-5.3-1-7.5-3.5-2.3-2.5-6.2-3.5-6-7.4l-3.6,1.2c.6-3.7-4.8-3.4-6.8-5.3a17.84,17.84,0,0,1,3.2.2Zm3.1,227.1c1.9-1.7,1.3.6,2.5.3,1-.2,1.2-1,2.2-1.3,4.1-1,10.3.3,14.6,0,5-.2,13.6.8,16,6.7,1.4,3.5-.8,2.3-3.2,2.1a48.737,48.737,0,0,0-5.4.2,12.188,12.188,0,0,1-2.7,0,1.991,1.991,0,0,1-.8-1.2c-2.6-.4-5.3,1.1-8.2,1.2-3.8.1-7.2-.6-10.1-3.2-1.2,1.7-1.9,2.6-4,2.8-.1,0-2.1-.8-2.4-.9-.4-.1-1.5.8-2.3.5,1.5-2.4,1.7-5.3,3.8-7.2Zm261.1,20.4c.7-2.3,1.2-4.7,1.9-7.1,9.4,10.7,17.7,25.1,21.4,38.9,2.4,9,6.2,25.2-5.3,29.8-9.4,3.8-14.6-9.7-17-16.4-5.3-14.6-5.3-30.3-1-45.2ZM331.5,93.515c.1,0-6.1,3.6-4.1.7.8-1.2,4-2,5.3-2Zm-5.9,1.6c-.7.6-1.4,1.2-2.2,1.8l-2.1-3.3c1.3-.7,7.2-1.1,4.3,1.5Zm-4.4,112.6c-1.3-.9-2.3-.4-2.7,1.1,0-1.5.8-4.9,1.9-5.3.8-.3-2.5-4.2-1.6-5.2,2.4,1.3.9,2.6,1.6,4.4.3.8,1.2,1.5,1.5,2.1.3,1,1.7,4.6-.7,2.9Zm-6.4-8.8c-1.3.3,1,2.5,1,3.5,0,.7-.9,1.3-1.3,2.3-.8,2.2.6,3.7-1.7,5.3,0-4.8-3.2-17.5,3-19.8-3-2.4-.5-5.1,1.8-2.3s.9,10.1-2.8,11Zm-3.2-18.9c-1.2-4.3-4.9-5.8-9-5.5.2-2.2,1.8-5.4,3-1.4.5-1.2.8-2.7,2-3.5,1.9,6,11.4,9.3,5.5,15.7-.6-1.7-1-3.5-1.5-5.3Zm-11.1-5.2c-22,1.6-52.8,6.2-70.4-10.7-11.5-11-10.8-28.1-1.6-40.3,5.3-7,12.5-11.9,19.7-16.5a34.54,34.54,0,0,1,8.2-4,2.232,2.232,0,0,1,1.4.3,2.333,2.333,0,0,1,1.3-1.6c1.2-.6,2.9-.9,3.6-2.2a48.453,48.453,0,0,0-1.4,7.6l-1.8-2.1c-.5,4.7-5.4,1.8-8.3,2.4,1.9,2.6,3.3,3.6,3.4,7.1-1.4-2.6-4.4-4.4-7.2-5.2,1.5,4.4,2.6,7.1,1.1,12-1.8-1-1.9-3.5-4.2-4.1-.6,2.9-.7,6.1-1.4,8.9-5.7-2.6-5.1,4.4-2.8,7.8,1.2,1.8,1.8,4,2.9,5.7,2.7,4.3.6-2.1,3.6-1.8-.7,4.6-.9,5,2.4,8.3s4.9,7.8,8.4,10.8c1-1.3-.6-2.6-.7-3.9,3.2.5,4.8,3.8,7.9.9,1.4,2.6,2.8,5.6,6.1,6.1-2.1-4.1,4.1-1.3,5.7-.7,1.2.4,3.4.8,3.9,1,2.7,1,.8-.8,2.4,2.4,2.4-.7,3.3-2.7,6.1-1,2.3,1.3,2.3,3.7,2.8,6,.5-1.5,1.1-3.1,1.7-4.6.6.3,3.2,3.1,2.9,3.1,6.3-.3,6.1,3.5,4.3,8.3Zm-30.8-77.1c1.2-.9,2.7.3,4.1,0,1.9-.4,3-2,5.1-2.2-.6,1.9-1.7,1.7-2.6,3.2-.3.5-.2,1.7-.4,2-2.4,2.4-3.2.4-5.6-1.4.2,2.2.6,2.9-1.4,3.5-1.9.5-5-1.4-6-3,.7-1.6,5.3-1.1,6.8-2.1Zm15.1-3.5c2.1.2-.4,6.2-3.4.4a18.61,18.61,0,0,1,3.4-.4Zm10.5-1.1c3.2-.7,14-3.7,15.2,1.3.2-.1,1-3,1.4-2.6,1.5,1.4,1.7,3.2,1.5,5.2-1.8-3.8-1.2-.5-2.4-.7-.3-.1-.8.5-1.6.3-1.1-.3-1.8-2.6-2.5-3.3-1.1,1.6-2.5,3.6-4.7,3.5-1.6-.1-4.1-4.2-2.1.3-1.2-.4-2.6-1.3-3.9-1.1-1.5.2-2.3,1.7-3.7,1.9-3.1.5-3.6-2.5-5.6-4.1,2.8-.3,5.7-.2,8.4-.7Zm19.6-.1c.2-1,3.1-1.4,3.8-1.1,1.8.8,1.1,1.9.8,3.6-1.3-.6-2.6-1.2-3.9-1.9,1.9,3.2-1.6,3.6-.7-.6Zm547.9,183.8c-.2-7.5-.4-15.2-2.4-22.5-1.3-5.1-4.6-14.3-10.8-15.2-9.3-1.3-14.5,17.1-17.1,23.5-.5-7.5-.1-15.4-2.9-22.5-2.3-5.7-8-11.1-12.9-4.7-4.4,5.7-5.2,14.1-6.4,20.9-1.5,8.8-2.4,17.8-3.5,26.7-4.3-8.3-5-17.7-8.4-26.3-3.2-8.1-8.2-15.8-13-23-3.9-5.9-8.7-11.4-14.9-15-5.4-3.1-14.8-6.5-19.9-1.3-4.3,4.3-3.6,10.1-3.4,15.6.1,2.4.5,4.1-1.7,5.3-1.1.6-2.7.3-3.9.6a13.655,13.655,0,0,0-4.9,2.6c-11.1,8.2-16.2,23-17.7,36.2-2,16.7,4.5,31.1,10.1,46.4.9,2.4,3.7,7.6,3.3,10.3-.4,3-4.2,3.1-6.7,3.1a200.189,200.189,0,0,1-23.2-1.1c-18.1-1.7-36.1-10.4-52.3-18.2-3-1.4-7.1-2.2-9.5-4.5-2.3-2.1-2.9-5.5-4.8-7.9-4.8-5.9-7.9-10.9-14.9-14.5-7.2-3.6-14.5-7-21.6-11-8.7-4.9-16.7-11.2-25-16.7-15.5-10.2-30.8-21.5-47.2-30.2-7.6-4-16.1-4.7-24.1-8-7.7-3.2-17.2-3.2-25.2-1.2-3.9,1-6.6,3.3-10.2,4.9-4.2,1.8-7.7-.2-11.4-2.3-5.7-3.3-11.3-8.6-3.2-12.2,2.7-1.2,6.2-1.7,8.6-3.5,2.6-2,4.6-5.7,6.7-8.3,4.6-5.6,7.4-12.1,14.1-15.6,7.5-3.9,16.3-4.9,24.3-7.4,8.6-2.7,17.1-6,25.5-9.2,15.3-5.7,31.1-11.9,42.1-24.6,9.5-10.9,13.6-25,13.2-39.3-.8-29.2-16.4-58.9-38.9-77.2-27.6-22.4-62.6-29.9-97.4-29.5-16.3.2-35.8,2.3-49.5,12.2-11.8,8.6-13.7,23.6-12,37.1.7,5.5,3.1,12.7-.7,17.6-2.2,2.7-6.1,3.4-9,5.1-3.7,2.1-6.9,4.2-11.1,5.3-17.7,4.8-36.2,3.1-54.3,2.8-30.1-.4-60.9,7.7-83.3,28.9-18.1,17.1-23.5,49.4-1.5,66,17.8,13.5,45.8,12,66.9,9.6,6.5-.7,11-1.8,11,6.2,0,8.7-1.4,17.8.8,26.4,3.5,13.5,16.5,13.8,27.9,10.9a122.54,122.54,0,0,0,17.6-6.2c8.4-3.5,16.1-8.7,24.5-12.3,5.6-2.4,9.9,5.3,14.9,0,.9-1,1.1-2.5,2.5-3,2.2-.8,5.8,2,7.8,2.9,2.9,1.3,5.8,2.3,6.9,5.5,1.1,3,.6,7.7-.4,10.6-2.2,6.4-8.2,5.1-13.7,4.7-9.6-.7-19.1-2.3-28.6-3-8.6-.6-16.6,2-24,6.2-15.5,8.9-28.3,23-41.7,34.6-6.9,6-13.6,12.4-21.2,17.7-3.3,2.3-6.8,4.3-9.7,7.2-2.8,2.8-3.1,5.3-4.1,9-1.7,6.6-10.3,9.9-15.6,13.3a113.087,113.087,0,0,1-24.1,11.4,336.888,336.888,0,0,1-54.8,14.2c-9.2,1.6-18.3,2.7-27.6,3.6-8,.8-16.5,3.2-24.5,1.2,2.3-3.7,6.4-6,9.6-8.9a68.617,68.617,0,0,0,10.7-12.7c6-8.9,10.3-18.4,11.2-29.2.9-9.7-.1-21.3-6-29.5-2-2.8-6-3.6-7.8-6.2-1.8-2.5-1.1-6.9-2.1-9.9-2.5-7.5-10-16.8-16.5-21.2-7.1-4.7-17.5-6.5-25.7-4-15.2,4.6-24.6,20.8-31.5,34-3.8-8,2.6-19.9-4.9-26.4-6.3-5.5-11.2,5.2-13.3,9.8-9.8,21.5-12.1,44.3-16.2,67.3-1.7-1.7-.8-5.9-.7-7.9.3-3.7.3-7.3.3-11,0-9.3,1.8-18.7,1-28-.5-5.4-2.2-16.7-10-15-6.6,1.5-10.8,10.9-12.9,16.6-3,8.2-3.7,16.4-3.5,25.1.2,9.6-1.6,19.1-2.1,28.7-.9,18.6,0,37.1,5.3,55.1a118.2,118.2,0,0,0,103.9,83.1c9.2.6,18-.5,27.1-1.4,9-.9,18-1.4,26.9-2.5,19.9-2.4,39.3-8.7,57.4-17.2,9.5-4.5,18.5-9.9,27.8-14.7,3.8-1.9,6.3-4.3,9.5-7,3.2-2.6,4.1-2.8,7.7-2.8-1.1-2.8,2-3.7,3.4-5.5a22.752,22.752,0,0,0-.2,2.6c1.1-2.3,2-2.3,2.9.1.9-2.6,1.6-5.3,2.6-7.8,4.1,2.1,3.8,7.1,9.3,3.4,4.5-3,8.7-6.5,13.4-9.4,10.6-6.7,19.7-15.3,30.3-21.9,0,6.4.5,12.9-.4,19.3-.8,6.1-3.1,11.7-4.9,17.6-3.3,10.7-3.6,22.2-7.2,32.8-1.5,4.4-5.5,8.1-6.6,12.4-1.2,4.4,1.5,7.9-3,10.7-3.2,2-7.1,2.9-10.6,4.1-5.4,1.9-10.4,4.5-15.6,6.7-24.4,10.5-48.3,21.1-70.9,35.2-21.5,13.4-43.3,27.2-63,43-17.1,13.8-34.4,31.6-38.6,54-4,21.8,6.7,45.2,28.4,52.3,11.3,3.7,24,3.3,35.7,3.4,12.6.2,26-2.9,38.4-5.1,13.1-2.3,26-6,39.1-8,12.6-2,24.2-6.4,36.5-9.2,13.2-2.9,26.7-4.5,40-7.1,6-1.2,11.8-2.9,17.8-4,6.6-1.2,13.2-1.6,19.7-3.2,12.6-3.1,24.7-8,37.3-10.9,5.7-1.3,11.3-3,17-4.2,5.2-1.1,9.3-4.1,14.6-1.6,4.2,2,7.6,5.3,11.6,7.6,5.2,3,10.7,5.7,16.1,8.3,10.9,5.2,22.2,8.9,33.6,12.8,12,4.1,23.7,8.8,36.2,11.6,12.7,2.8,25.7,3.6,38.5,5.8a473.894,473.894,0,0,0,78.9,6.7c13.5.1,26.9-1.5,40.4-1.3,11.9.2,22.2,2.8,33.1-3.5,17.4-10.1,37.5-25.3,37.1-47.4-.4-20-12.4-39.1-23.7-54.9-13.7-19.2-33.2-32.7-52.3-45.9-20.4-14.1-43.2-23.8-64.7-36.1-10.9-6.3-21-13.1-32.9-17.5-5.7-2.1-11.2-4.6-16.8-6.9-4.5-1.8-11-2.9-14.9-5.9-2.4-1.9-2.6-4.8-3.3-7.7a143.97,143.97,0,0,0-5.8-18.3,192.835,192.835,0,0,1-8.7-36c-1.7-11.7-5.5-23.9-3.5-35.8,12.8,12.4,26,24.4,39.2,36.4,4.9,4.5,9.8,9.2,14.7,13.7,3.7,3.4,8.4,8.4,13.5,9.4,6.6,1.3,4.2-6,8.7-7.2,2.8-.7,11.1,6.4,13.3,7.8,13.9,8.8,29.3,14.4,44.6,20.4,16,6.3,32.5,11.9,49.8,13.5a129.983,129.983,0,0,0,47.6-4.8c30.6-8.7,53.2-29.2,69.7-55.8,18.9-30.1,32.6-65.6,31.5-101.8Z" fill-rule="evenodd"/><path id="ink-shape-2" data-name="ink-shape" d="M394.5,210.715l-.1.1c.1,0,.1,0,.1-.1" fill-rule="evenodd"/><path id="ink-shape-3" data-name="ink-shape" d="M396,211.115a12.759,12.759,0,0,0-.7-2.8c-1,1.6-1.9,2.3-.6,4a15.38,15.38,0,0,1,1.3-1.2" fill-rule="evenodd"/><path id="ink-shape-4" data-name="ink-shape" d="M466.7,441.015c1.1-1.2-.8-1.7-1.6-1.7.1,1.3-.6,4.4,1.2,5a3.258,3.258,0,0,1,.4-3.3" fill-rule="evenodd"/><path id="ink-shape-5" data-name="ink-shape" d="M436.7,188.315c-1.9,3.8,2.4,4.9,4.9,3.1,1.9-1.4,3-4.9,3.3-7.1,1-7.2-4.1-14.1-6.6-20.6-.7-1.7-1.5-7.4-3.6-7.5-2.4-.2-2.6,5.1-2.6,6.4a36.058,36.058,0,0,0,2.3,12.1c1.2,4.2,4.6,9.2,2.3,13.6" fill-rule="evenodd"/><path id="ink-shape-6" data-name="ink-shape" d="M446,173.215c7.5,6.7,13.5-4.4,13-11-.1-1.6-1.2-7.6-4.3-5.4-1.6,1.1-.2,4.7-1,6.2-3.6,7.6-7-4.2-9.5-5.1-2.9-1.1-3.2,2.7-3.2,4.8a13.894,13.894,0,0,0,5,10.5" fill-rule="evenodd"/><path id="ink-shape-7" data-name="ink-shape" d="M418.8,174.215c1.8-2.8,3.9-6.5,4.2-9.8.4-5.2-2.6-4.7-5.1-1.1-1.8,2.6-3.1,6.9-6.9,5.8-4.8-1.3-3.3-7.8-6-10.8-6.9,9,5.9,28.3,13.8,15.9" fill-rule="evenodd"/><path id="ink-shape-8" data-name="ink-shape" d="M428.9,202.015c2.8.6,10.1.4,7.6-3.9-3.2-5.4-13.8,2.6-7.6,3.9" fill-rule="evenodd"/><path id="ink-shape-9" data-name="ink-shape" d="M526.8,41.315c.5-1.5-.2-1.8-1.4-3-1.1,1,.3,2.2,1.4,3" fill-rule="evenodd"/><path id="ink-shape-10" data-name="ink-shape" d="M579,317.215c1.8.3,2.4-.7,1.8-2.9-3-.2-3.6.8-1.8,2.9" fill-rule="evenodd"/><path id="ink-shape-11" data-name="ink-shape" d="M478.3,81.815c2,.9,1.3,2.8,1.2,4.5,1-1.1,3.2-3.2,2.3-4.9-1.3-2.5-4.8-.2-3.5.4" fill-rule="evenodd"/><path id="ink-shape-12" data-name="ink-shape" d="M409,50.115l-.9-1.8c-1.3,1-3.2,3.7-1.2,5a22.031,22.031,0,0,0,2.1-3.2" fill-rule="evenodd"/><path id="ink-shape-13" data-name="ink-shape" d="M433.4,67.915c2.5,2,1.3-4.1,1.2-4.6-.3.7-2.5,3.6-1.2,4.6" fill-rule="evenodd"/><path id="ink-shape-14" data-name="ink-shape" d="M432,64.815l-.6-1.5c-1,.9-2.3,2.9-.6,4a11.507,11.507,0,0,0,1.2-2.5" fill-rule="evenodd"/><path id="ink-shape-15" data-name="ink-shape" d="M448.1,85.715l.6.6c.8-1.7-.1-2.9-1.7-3a4.42,4.42,0,0,0,1.1,2.4" fill-rule="evenodd"/><path id="ink-shape-16" data-name="ink-shape" d="M380.3,275.115a20.406,20.406,0,0,0,2.7-2.3c-3-1.8-1.2,2.1-4.8-.3-.7,1,.5,3.4,2.1,2.6" fill-rule="evenodd"/><path id="ink-shape-17" data-name="ink-shape" d="M505.1,440.315c1.1-1.7,1.3-1.7-.2-3-1.3,2.1-1.2,1.6.2,3" fill-rule="evenodd"/><path id="ink-shape-18" data-name="ink-shape" d="M269,164.315c.6.6,1.2,1.3,1.8,1.9.3-.8,1.9-3.2.8-4a17.086,17.086,0,0,1-2.6,2.1" fill-rule="evenodd"/><path id="ink-shape-19" data-name="ink-shape" d="M290.9,170.715c-1-.2-3.3-.9-3.9,0,1.4,1.2,4.7.1,3.9,0" fill-rule="evenodd"/></g></g></svg>