<svg id="Layer_1" data-name="Layer 1" xmlns="http://www.w3.org/2000/svg" viewBox="0 0 1024.95 729.23"><title>1</title><g id="Character_float" data-name="Character/float"><path id="Accent" d="M795.981,92.645c.4,3.1,4.2.7,4.6,2.4.2,1.1-3.8,3.7-4.6,4.4,2.8,1.7,6.3-2.2,8.4-3.8,1.1,1.2,1.4,1.8.5,3.1-1.7,2.4-1.7-.8-3.7.9.9,1.4,1.6.6,2.7.2-.5,2.8.6,1,1.4,2.8.7,1.4.6,2.5.8,4.1-1,2.3-2,4.5-3,6.8-1.2,2.7-.8,3.6-3.7,2.7.3-.6,2.5-3.3,2.3-4-.2-.8-3.2-1.8-3.9-2.5-1.4-1.1-1.4-2.1-2.2-3.4.3-1.1.1-1.7-.8-1.6l-1,2.7c.1,1.9,1.7,1.7,2.6,3.5,1.4,2.8.6,1.1-.5,3.3-1.2,2.2-1.3,4.9-3.2,6,1,.4,2,.9,3.1,1.3-2.4,2.6,2.6,1.3,3.4,1.1-.8,1.8-1.7,3.6-2.5,5.3-2.5-1.4-3.7-4.1-5.4-6.3l-3.8,7.1c1.3-.1,2.5-.2,3.8-.4-.2.3-1.8,2.6-1.7,3.1.6,2.1,4.9.9,4.4,3.6a39.757,39.757,0,0,1-4.6,4.6c1.9.9,2.8.5,2.1,2.8l-2.7-1.6a18.337,18.337,0,0,0-2.1,4.2,5.375,5.375,0,0,1-.5,2.8,12.387,12.387,0,0,1-1.8,2.2c-.5,1.4-.7,8.9-.1,10.2,1.4-1.8,4.6,1.4-.8,1.4-2.3,0-2.2-.5-3.1,1.6-.7,1.6-1.1,3,.9,3.2-1.5,2.9-1.2,5.2-1.3,8.4a40.572,40.572,0,0,1-1.4,7.6c.5-.7.9-1.4,1.4-2,1.3,2.7.3,5-.3,7.9-1.3-1.8-1.5,1.4-2.6,1.1-2.3-.7-.6-1.1-1.5-2.7-.8-1.3-.7-1.7-2.2-2.5-2-1.1-5.5-1.1-7.8-1.5a109.627,109.627,0,0,0-11.4-1c-14.4-.6-28.7-.8-43.1,0a296.715,296.715,0,0,0-39.8,5.1c-13.8,2.7-27.3,5.1-40.7,9.7-2.6.9-5.2,2.7-7.8,3.3-2.5.6-4.9.6-7.5,1.5-6.1,2.1-12.5,3.7-18.6,5.8-6.6,2.2-13.8,4-20.2,7-2.7,1.3-5.2,3.1-8,4.4-2.6,1.3-6.9,2.4-8.3,5.3a4.144,4.144,0,0,0-.1,3.1c.7,2.3,1.2,2.1,3,1.9,2.5-.2,5.8-2.2,8.2-2.9,6.7-2.1,13.4-3.8,20.2-5.5,12.2-3,24.4-8.4,36.4-10.5,7.1-1.2,13.9-4.6,21.1-5.9,1.6-.3,6.1-2.5,7.4-1.7a26.343,26.343,0,0,1,1.5,3.3,47.168,47.168,0,0,0,3.7,6.1c4.3,5.7,10,10.3,15.2,15.2,5.9,5.6,11,11.8,16.4,17.9.5-.5.9-1.1,1.4-1.6-.5,3.8,2.4,6.6,4.7,9.2a65.936,65.936,0,0,1,7.2,9.5,99.007,99.007,0,0,0,6.1,8c2,2.6,3.3,5.7,5.2,8.5,4.2,6.4,8.3,12.9,12.6,19.2a74.653,74.653,0,0,1,5.2,9.7c1.3,2.7,5,8.2,5,10.7-.3,1.3,2.5,8.9-.5,5.3-.5.7-.9,1.5-1.4,2.2.8-.3,1.6-.7,2.4-1-2.4,2.2,2.1,2.5,2.2,3.7l-1.2,1.2q-1.05,2.1-2.7.6c-1.2.1-1.5-.6-2.8-.2,1.3,2,3,.8,3.7,3.6.6,2.5-1.3,3-3.2,4.5l-.1.1v.1c-.4,1.3-1.6.7-3,.5-3.2-.7-6.8-1.9-9.9-2.9a207.372,207.372,0,0,0-20.6-5.3c-15.9-3.3-31.8-3.1-47.8-4.2.4-1.8.4-1.6-.1-2.7.6,1.4-3.2-.4-.3,2.7-7.5,1.2-15.5.3-23.1.7.4-.8,1.2-1.7.4-2.3-3.6,5.2-15.6,3-21.5,3.7-3.5.4-6.9,1.3-10.4,1.8l-1.5.2c-1.2.2-2.4.4-3.6.7-1.5.4-4.1,2.1-5.5,1.7,2.1-4.3-.3-.6-.7-.5a37.4,37.4,0,0,1-4.2.5c1.7-6.6,4.5-12.8,5.6-19.6.7-4.3,2.7-11.1-1.5-14.2-2.3-1.7-6.1-2-8.8-2.6-2.9-.6-8.1-.6-10.6-2.2-2-1.3-2.4-2.5-5-3.5-3-1.1-4.4-2.3-7.4-1.4,1.2-1.5,3-2.7.5-4.3-1-.6-2.9.2-3.3-1.2-1.8,1.3-1.4,2.3-1.9,4a4.2,4.2,0,0,0,.6,2.1c-1,.4-1.9.8-2.9,1.2.6-1.6-1.2-.7-1.5-1.5-.5-1.2-.2-3-.2-4.3-2,.6-4,1.4-4.9,3.4-2.4-1.4-1.5-1.5-.2-3.7-2-.5-2.4.6-2.8,2.2-1.1-.3-2.1-.7-3.2-1,2.4,0,3-1.9,3-3.9-.9.3-1.9.6-2.8.9l-.6,3c-1.5,1.2-5.3-1-6.5-1.7-4.3-2.2-5.9-2.9-5.3-8,.5-4.3,1.6-8.6,1.9-12.9.3-4.8-.3-9.9-.7-14.7-.8-9.2-2.1-18.3-2.6-27.6-.2-5-.5-10-.7-15-.2-4-1.5-8.4,3.4-8.7-.6-1.9,1.2-4.2,3.1-5.2.7-1.5,1.4-1.6,2.2-.4a2.142,2.142,0,0,0,1.9-.3c2.7-.6,6-4.5,8.5-5.9,2.4-1.4,7.7-3.4,9.4-5.7,1.7-2.2-.9-2-.3-4,.7-2.8,3.2,1.2,3.6,1.8.8-.8,4.1-2.4,4-3.7-.8-.1-1.6-.3-2.4-.4.9-.5,2.8-2,3.8-2.2,1.7-.3,1.1-.8,2.4,1.1.5-.7,1.6-3.2,2.4-3.7a23.254,23.254,0,0,1,2.8-.5c2.2-.8,2-2.5,3.7-3.4.8-.4,1.8.2,2.4-.1,1.1-.5,1.1-2.1,2-2.6.8-.5,3-.1,4-.4,1.7-.6,1.6-1.2,2.8-2.3,1.7-1.6,3.3-1.3,5.3-2.5s1.7-4,3.5-4.5c2.4-.7,3.1,1.6,4.4-.7.3-.5-1.1-1.3-.2-2.1,1-1,1.5.2,2,1l1.7-3.1c2.6,1.5,1.5-.4,3.6-1.4.9-.4,1.6.4,2.6-.1.7-.4.8-1.2,1.4-1.8,1-1,1.6-2.4,3.1-2.9-.6.2,4,0,3.6-.2-.4-.7-.9-1.3-1.3-2,2.4,0,4.5.2,6.8-.5a9.875,9.875,0,0,0,2.8-1.2c1.9-1.4,1.5-1.1,1.5-3.7a7.446,7.446,0,0,0,8.4-.8,37.9,37.9,0,0,1,3.7-3.1c.6-.3,1.3-.6,1.9-.9a1.5,1.5,0,0,1,2.4,0c1.2-.3,1.1-.5,2-1.1.3-.5.5-1,.8-1.5a23.254,23.254,0,0,0,2.8-.5c3.6-1,5.8-3.4,9.2-1.2.4-.9.9-1.8,1.3-2.6,1.4,2.2,2.4.1,4.3-.8.8-.4,1.8-.5,2.5-.8l1.2.3c.3-1.1.7-2.1,1-3.2.7.3,3.4,1.7,4.3,1.7,1.2-.1,2.6-2.1,3.7-2.5,1.7-.6,1.1.2,2.8.2,1.3,0,1.9.2,3.1-.9-3.8-1,1-1.5,2.6-1.8,2.5-.5,3.8,0,5.6-2h-1.8c1.8-1.6,1.2-1.1,3.1-.9.6,0,3.2,1.5,3.2-.4,2.4,1.4,2.5,1.4,5,.8,1.1-.3,2.1-1.2,3.3-1.2s2.1.5,3.1.4a30.358,30.358,0,0,0,3.6-1.2c1.2-.4,2-1.4,3.1-1.7,1.3-.4,2.9.1,4.2-.2,3.9-.9,6.3-3.2,10.5-2,.5-3.8,5.2-3,7.8-2.6,1.8.3,2.7,1,4.5.1,1.5-.7,2.4-1.8,4-2.4a31.286,31.286,0,0,1,4.4-1,7.15,7.15,0,0,1,2.5-.3,3.577,3.577,0,0,1,2.2,1.1l.1.1a15.912,15.912,0,0,1,1.9-1.6c1.5-1.2,2.2-.7,3.1-3.1l-3.2-.7c1.7-.1,2.9-.3,4.4.3,1,.4,2.7,2.8,3.8,2.8,1.9,0,2.5-2.6,2.3-4,1.6,3.6,2.9,4.2,6.4,2.4a7.459,7.459,0,0,0,1.2-.7,1.5,1.5,0,0,1,2.5,0l1.5.8c.6-1,1.2-2,1.8-2.9,1.2,1.7,2.4,1.8,4.5,1.4,1.4-.3,4.3-2.8,5.3-2.8.6,0,1.4,1.5,2.4,1.7a4.43,4.43,0,0,0,4.8-2.3c.3.7.6,1.3.9,2A9.756,9.756,0,0,0,795.981,92.645Zm-59.3,245.4Zm-2-3.5v3.1l1,.2,1,.2v-.2A3.381,3.381,0,0,0,734.681,334.545Zm-92-12.2c-.3,1-.6,2-1,3l3.3.3C644.181,324.545,643.381,323.445,642.681,322.345Zm-128.5-78.8c2.4.7,2.4.6,2.8,2.8,2.7,12.6-5.7,27,.5,39-18.1-.1-36.3.2-54.3,2.3,0-6.9.2-13.7-.3-20.5-.2-3.1-.6-6.2-.9-9.3-.4-3.9-.3-3.7,2.9-4.4,1.7-.4,2.3-1.4,3.9-2.1,1.2-.5,1.8.1,3,.3,2.1.3,2.2-.1,4.1-.5,4.2-.9,7.8-.6,11.1-3.7,1.7-.1,1.2,1.4,2.4,1.3.9-.1,1.4-1.7,2.3-2.1,2.8-1.2,7.4-.9,10.4-1.3,3.1-.4,5.8-1.8,8.8-2.2A7.168,7.168,0,0,1,514.181,243.545Zm35,36.3c-.6,2.2-3.2-.7-3.2,1.1v.2h0c.1-.3,2.7,3.1,2.6,3,1.4,1.1,2.2,1,3.8-.3C549.581,283.745,549.881,281.945,549.181,279.845Zm7.9,3.1c1,.6,1.3-.9,1.9-1.8C557.781,280.645,557.681,281.945,557.081,282.945Zm-3.2-9.5a13.279,13.279,0,0,1,.4,4c2.4-.3,3.1-.5,3.2-3.1l-1.3.8C555.481,273.845,555.381,273.745,553.881,273.445Zm-18.5,2.4c.5-.3,1.1-.7,1.6-1C536.181,273.645,534.781,275.045,535.381,275.845Zm6.1-21.1c.7-.4,1.4-.7,2.1-1.1C541.681,251.345,541.581,252.145,541.481,254.745Zm-2.5-18.1h-2.7C536.781,238.345,538.981,238.745,538.981,236.645Zm266.1-101.6c.6.4,1.2.7,1.9,1.1-1.6,1.5-3.6,3-2,4.7,1.2,1.4,7.1,2,8.8,2.5a20.017,20.017,0,0,1-2.7,3.1c-.7.4-1.3-1.1-2.6.4,2.2,1.1,1.6.3,1,2.7-.3,1.4-1.5,2.9-2.2,4.2-1.6,3.1-3.3,6.2-5.1,9.2-3.5,6.3-7.3,12.4-11.2,18.5-.7-3.4,1.2-7.2,2.2-10.5,1.2-4.1,2.5-8.3,3.7-12.4C799.381,150.445,801.481,142.545,805.081,135.045Zm-95,10.4c-1.8.5-2.9.7-4.8,1.2C707.981,147.445,707.981,147.445,710.081,145.445Zm78.3-15.4c-2.3,1.1-2.5,1.8-.7,3.1C787.881,132.145,788.081,131.445,788.381,130.045Zm-.3-25c-.3,1.3-2.2.1-2.6,1-1,2.2,2.1,1.9,3.2,1.8C788.481,106.945,788.281,106.045,788.081,105.045Zm12.8-1.7c-.6,2.9-.6,2.9,2.2,3.3C802.381,105.545,801.781,104.645,800.881,103.345Zm-50.7-2Z" fill="#34558b" fill-rule="evenodd"/><g id="Ink"><path id="Fill-1" d="M396.581,401.7c-.4,2.2-1.5,3.2-.4,5.2a5.6,5.6,0,0,0,5.5,2.4Zm-49.1-77.7-9,3.1a101.214,101.214,0,0,0,7.5,7.1Zm147.6,7.9c-4.3-2.2-9.1-2.4-13.7-2.7.7,3.8,1.4,7.7,2.1,11.5,3.9-2.9,7.8-5.9,11.6-8.8Zm-102.5,297.5c-.9-1.5-6.7-13.2-7.9-12.6-.6.3-.7,6.8-.8,7.7-.3,3.3-.7,6.6-1,9.9,3.5-1.2,7.2-2.2,9.7-5Zm-40.6-94.3c.9,2.6,1.8,5.2,2.6,7.7a19.845,19.845,0,0,0,1.4,4.1c1,1.4.2,2.2,1.5.7,1.4-1.6,1.8-6,2.4-8.1.9-3.1,1.8-6.1,2.7-9.2-4.2.1-6.8,3.6-10.6,4.8Zm-90-151.7c-5.3,3.6-10.6,7.2-15.2,11.6,4-.3,9.6,2.5,13.4,1.2,1.8.4,2.3-.3,1.7-2V383.4Zm78.1,25.4v21c4.9-4.2,10.1-8.1,14.8-12.5-4.9-2.8-9.9-5.6-14.8-8.5Zm175.7,54.5c-1.6,9.4-1.6,19-2.1,28.4-.1,1.7-.7,4.2.4,5.7s4.3,2.3,5.9,3.1c4.6,2.2,9.1,4.5,13.7,6.7-5.9-14.6-11.9-29.3-17.9-43.9Zm116.1-57.5c11.3-5.5,22.6-11.1,33.9-16.6-11.1-4.7-22.1-9.4-33.2-14.1-.2,10.2-.4,20.4-.7,30.7Zm-116.1,26.1c2.1.1,2.4-7.7,2.7-9.8.6-3.9,1.3-7.9,2-11.8,1.4-7.9,2.8-15.7,4.3-23.6,3-15.7,6.4-31.3,10.1-46.9a90.319,90.319,0,0,1-11.5-2.4c-3.1-.9-6.9-.4-9.7-2.4-.4,7.3,1.5,15,2.1,22.3a236.769,236.769,0,0,1,1.1,25.3c-.1,16.5-.7,32.9-1.1,49.3Zm-259.8,222.3c2-.5-.7-27.3-.8-31.2-.3-11.2-.4-22.4-.2-33.6a355.524,355.524,0,0,1-32.5,18.2c2.9,3.7,5.5,7.7,8.7,11.2,3.3,3.6,7,6.5,10,10.3,6.1,7.7,10.3,16.4,14.8,25.1Zm253.6-158.6c.5-8.1.9-16.1,1.8-24.2.3-3.4,3.7-21.6-1.6-21.2-3,.2-8.3,4.7-11.1,6.2-3.6,2-7.3,4.1-11,6.1-7.2,4-14.5,7.8-21.8,11.8q21.75,10.65,43.7,21.3Zm-31.5-167.7a176.182,176.182,0,0,1-17.8-2c-3.2-.6-6.4-.5-9.6-.9-2.3-.3-6.8-2.2-9-1.6-2.7.8-3.7,14.3-4.1,17.7-.6,5.5-1,12.1,1.4,17.3,4.7,9.9,17.4,2.2,23.6-2,5.3-3.6,11.3-7.2,16-11.5,4.3-3.9.5-12.1-.5-17Zm31.3,107.9c4.5-1.8,4.5-4.1,4.7-8.9.2-5.8.4-11.6.5-17.3.3-10.3.6-20.6.5-30.9-.1-10.1-.6-20.1-1.7-30.1-.4-3.5,0-9.6-1.9-12.6-1.7-2.8-7-2.8-9.9-2.6-3.2.2-5.9,3.3-8.3,5.2-2.7,2.2-8.1,5.2-8.5,8.4-.5,3.6,1.5,8.7,2.3,12.2,2.8,12.7,6.2,25.3,9.8,37.9,3.7,13,7.5,26.1,12.5,38.7Zm-115.4-30.5c.3-2.9,1.4-5.3-.1-8-1.2-2.3-3.3-4.7-4.8-6.9-4.3-6.4-9.2-12.4-13.9-18.5-4.3-5.6-8.7-11.1-13.3-16.5-2.5-3-5.1-5.9-7.7-8.9-1.9-2.2-3.7-5.2-6.4-6.3-2,12.4-3.6,24.8-4.9,37.3-.6,6-1.1,12.1-1.6,18.1-.1,1.7-1.5,7.5-.6,9.1.9,1.7,6.3,3.9,8,4.9,4.7,2.9,8.3,7.2,12.7,2.5,3.1-3.2,5.5-7.8,8.9-10.6,1.8-1.5,3.4-1.4,5.4-2.3,2.3-1,2.4-2,5.2-.6,4.8,2.3,7.6,5.8,13.1,6.7Zm-233.6,63.8c0,8.6-.6,15.6,5.2,22.6,5.1,6.1,10.4,7.5,17.5,9.9,4.2,1.4,4.5.1,7.9-2.3,3.2-2.3,6.8-4.1,10-6.4,6.9-5,13.8-10.2,20.5-15.5,2.3-1.8,1.9-1.2,1.6-3.3-.3-1.9-1.7-4.4-2.5-6.3-1.4-3.3-3-6.6-4.6-9.8-1.8-3.7-3.5-7.7-5.8-11.1-1-1.4-2.1-2.7-3.2-4-2.3-2.7-2.3-2.6-5.1-.4-5.9,4.7-11.4,9.8-18,13.5-7.8,4.3-15.6,8.7-23.5,13.1Zm178.1-66.5c.9-12.3,1.8-24.6,3.3-36.8.8-6.3,1.6-12.6,2.5-18.9.3-2.6,1.7-6.9.9-9.3-.7-2.4-4-4.8-5.8-6.5-.5-.5-2-2.5-2.6-2.6-.7-.1-3.2,1.8-4,2.2-2.6,1.5-5.2,3.1-7.7,4.7-4.8,3.1-9.4,6.4-13.9,9.8-9.5,7.2-18.5,15-27.8,22.4,8.5,7.4,18.9,13.2,28.4,19.3,5.6,3.6,11.3,7.1,17,10.5,3,1.7,6.3,4.3,9.7,5.2Zm-116.2,220.3c-6.9,4.5-13.4,9.3-21.2,12.2-7.7,2.9-15.4,4-23.3,5.7-4,.9-7.8,1.8-11.9,2.4-2.3.3-5.9.2-8,1.2-1.9-.4-2.5.2-2,1.9a9.151,9.151,0,0,0,.1,1.6c.5,7.2,5.2,15.9,9.2,21.8a68.808,68.808,0,0,0,8.4,9.5c3.4,3.3,5.3,5.6,10.1,4.2,8-2.3,15-6.9,23-9,6.4-1.6,11.7-5,17.9-6.8,7.7-2.2,15.3-4.6,23-6.4-3.5-6.7-6.6-13.7-11-19.8-4.5-6.2-9.6-12.2-14.3-18.5Zm42.1-225.5c14.3,2.9,29.9,5.5,42.7,12.9,5,2.9,11.4,7.4,12.8,13.3,1.8,7.1-5.1,11.6-10.9,13.8-6.9,2.7-14.4,3.7-21.8,4.5q-5.85.6-11.7.9c-3.2.2-8.5-.5-11.4.7-1.8-.4-2.4.4-1.9,2.2,0,.7-.1,1.3-.1,2l-.3,5.9c-.2,3.9-.4,7.8-.6,11.8-.4,8.5-.9,17.1-1.3,25.6,7.5-4.7,13.6-11.3,20.9-16.3,3.5-2.4,7-4.7,10.4-7.1,1.5-1,2.3-2.4,3.8-3.3a45.143,45.143,0,0,0,5.4-3.5c7.3-6.5,15.4-12.2,23.1-18.1,3.5-2.7,7.4-5.2,10.7-8.1,3.5-3.1,3-5.6,2.9-10-.1-4.7,1.6-10.4.8-14.9.7-1.5.2-2.5-1.5-2.8-1.1-.7-2.3-1.4-3.4-2.2-2.2-1.4-4.5-2.9-6.7-4.3-8.9-5.7-17.9-11.4-26.8-17.1-4.5-2.9-8.9-5.7-13.4-8.6-1.2-.8-5.3-4.4-6.7-4.3s-3.9,2.9-5,3.8a48.668,48.668,0,0,1-5,4,15.569,15.569,0,0,1-2.8,1.6c-1.5.1-2.1,1-1.6,2.5-1.1,4.4-.3,10.6-.6,15.1Zm198.9,203.8c-3.2-15.2-7.4-33.2-20.1-43.5-12.8-10.5-31.6-6.4-41.7,5.9-5,6.2-8.2,13.4-10.5,21-2.4,7.7-5.9,17.8-5.2,26,.3,3.6,3.4,7.5,5.1,10.6,1.8,3.2,3,7.9,7.3,6.8,6.6-1.7,13.4-5.7,19.6-8.6,6.3-2.9,12.9-5.3,19.4-8.1,4.3-1.9,8.8-3.3,13.1-5.1,4.1-1.8,9.5-2.2,13-5Zm192-90.4c9.1,3.2,13.8-1.9,20.1-7.8,6-5.5,12.6-10.9,18.1-16.9,5.7-6.2,10.3-13.5,14.7-20.7,4.5-7.2,10.5-15.1,13.2-23.1,1.4-4.1,2-8.6,2.9-12.9.2-1,1.6-4.8,1.2-5.7-.6-1.2-4.6-1.3-5.7-1.5a90.5,90.5,0,0,0-26.5-.2c-16.8,2.4-30.8,11.8-36.1,28.2-6.2,19.4-3.2,40.8-1.9,60.6Zm-58.8-167.3c-.1,3.3,7.9,4.3,9.9,5,4.8,1.8,9.6,3.7,14.2,5.8,9.6,4.4,19.8,7.2,29,12.5,19.8,11.4,41.3,19.5,61.3,30.4,3.1,1.7,9.2,5.8,12.8,5.5,1.9-.2.5,1.3,1.7-1.7a23.254,23.254,0,0,0,.8-3.6c.7-3.5,1.3-7,2.1-10.4,1.4-5.7,2.8-11,3.3-16.8.2-2.5.5-4.9.5-7.4s.6-8.8-.5-11c-.8-1.4-.9-1-2.8-1.4-1.1-.2-2.2-.7-3.3-1a31.439,31.439,0,0,0-7.5-1.7c-2.5-.2-4.2-1-6.5-1.4-2.5-.5-5.1.1-7.6-.6-2.7-.7-4.1-1.4-6.9-1.1s-3.6-.4-6.3-1.1c-2.3-.6-5-.2-7.3-.4-2.9-.2-5.7-.6-8.6-.8-12.9-1-26,.5-38.9.4-7-.1-13.9,1-20.9.7a126.934,126.934,0,0,0-18.5.1Zm33.6,68c-6.3,2.4-12.1,6.3-17.9,9.6a206.2,206.2,0,0,0-19.3,12.6c-10.4,7.8-22.6,17.1-25.4,30.7-2.8,13.9,9.3,25.3,20.6,31,12.9,6.5,28,9.9,42.1,12.3-1.5-32-1.2-64.1-.1-96.2ZM442.281,487c-3.8,1.1-7,3.3-10.6,5a78.267,78.267,0,0,0-9.2,4.5,142.663,142.663,0,0,1-15.4,8.2c-12.5,6-24.5,13.4-36.9,20.1-3.3,1.8-4.3,2.9-5.4,6.5-1.2,3.9-2.3,7.9-3.5,11.8-1.1,3.7-2.8,7.6-2.4,11.5.4,3.4,2.1,6.6,3.5,9.7,3.3,7.8,6.9,15.4,10.6,23,3.3,6.8,6.4,14,10.7,20.3,3.3-17.4,6.3-36.8,19.2-50.1,12.9-13.2,33.5-13.4,45.9.2,5.9,6.5,9.5,14.7,12.3,22.9a98.128,98.128,0,0,1,3.4,13.2c1,4.8.8,7.3,6,5.8,4.2-1.1,8.6-2.1,12.7-3.4,2.1-.7,4.2-1.4,4.3-3.1.1-2.1-2.7-6.4-3.6-8.4-4.3-10.3-8.7-20.5-13-30.8-4.7-11.2-9.4-22.3-14.2-33.5-2.4-5.6-4.7-11.1-7.1-16.7-1.9-5-3.7-12.6-7.3-16.7Zm188.1-86.8c.1-5.1.2-10.1.2-15.2,0-3,1.4-8.9-1.2-11-1.6-1.3-6.5-2.4-8.5-3.3-4.1-1.8-8.5-2.6-12.6-4.4-16-7-32.7-12.9-49.3-18.5-3.6-1.2-7.2-2.2-10.8-3.4-1.9-.6-9.1-4.5-10.9-3.5-1.6.9-2.8,11.3-3.3,13.4-1.2,5.1-2.3,10.2-3.4,15.4-4.2,19.9-7.8,40-11.1,60.1,8.8-3.3,17.2-9.1,25.5-13.6,8.6-4.6,17.2-9.3,25.9-13.8,2.5-1.3,11.1-7.2,13.1-4.9,3.2,3.7-4.5,8.1-6.5,9.6-7.8,6.1-16.1,11.5-24.5,16.9-8.7,5.6-17.7,10.5-26.4,15.9-3.1,2-8.2,4.4-9.4,7.7-1.6,4.3-.4,9.5,1,13.6,3.6,10,7.5,20,11.6,29.8,1.9,4.5,3.8,8.9,5.8,13.3,2.3,5.3,5.4,6.4,10.5,8.8,21.7,10.3,44.1,20.2,64.9,32.1-3.5,4-12-2.6-15.4-4.2-6.4-3.1-12.7-6.2-19.1-9.3-11.8-5.8-23.6-11.7-35.5-17.3a394.829,394.829,0,0,0,26.6,50.2c-2.5.9-1.9.9-3.5-.6-1.3-1.3-2.2-3.8-3.1-5.4-1.9-3.3-3.7-6.6-5.6-9.9-3.9-6.9-7.9-13.6-11.5-20.7-2.7-5.3-4.8-14.6-10.3-17.2l-20.7-9.9c0,26.4,1.9,52.2,4.7,78.4.1,1.3,1.4,5.2-1.1,4.8-1.2-.2-1.5-7.4-1.7-8.9-.9-6.9-1.7-13.9-2.4-20.8-1.3-13.9-2-27.8-2.1-41.8-1.6,13.6-3.3,27.1-4.9,40.7l-2.3,19.3c-.4,3.4-.8,6.8-1.2,10.1-.2,1.6-.1,3.6-.6,5.1-.9,2.3-.6,2.1-3.3,3.2,2.6-17.7,4.9-35.3,7-53.1,1-8.6,2-17.3,2.9-26,.2-2.3.5-4.7.7-7,.1-1.2,1.1-5,.6-6-.6-1-4.3-2-5.4-2.5-2.4-1.1-4.7-2.2-7.1-3.3-7.6-3.6-15.3-7.2-22.8-10.9-3.3-1.6-6.8-4.2-10.4-5-3.6-.9-6.2,1.6-9.2,3.2-2.4,1.2-8,2.9-9.6,5-1.5,1.9,3.1,9.7,4.3,12.6l10.2,24.3q10.35,24.6,20.7,49.3l5.1,12c1.1,2.6,2.9,9.9,5.5,10.2,1.2.1,3.1-1.1,4.2-1.5a41.663,41.663,0,0,1,4.9-.8c3.1-.5,6.3-2.1,9.3-3.2,7.8-2.9,15.8-4.7,23.7-7.4s15.6-5.7,23.4-8.4a201.422,201.422,0,0,0,21.1-8.4c7.2-3.4,14.6-6.3,21.7-10,12.8-6.8,25.5-13.1,36.8-21.4,2.7-2,5.5-3.9,8.1-6,2.3-1.8,6.7-4.1,8.3-6.5.6-.9,1.1-2.7.4-3.8-.8-1.2-4.1-1.1-5.6-1.3-4.9-.7-9.8-1.3-14.7-2,.4,3.2.8,6.4,1,9.7.2,2.3,1.5,8.3-.3,10.1-2.5-2.4-1.7-9.5-1.9-12.7-.1-1.7.3-5-.4-6.5-.8-1.6-3.1-1.6-5.2-2.1-8.8-1.9-17.6-3.5-26.1-6.5-14.4-5.1-31.7-13.7-34.9-30.4-3.4-17.3,11.4-32.4,23.8-42.1a202.878,202.878,0,0,1,23.5-15.5c3.8-2.2,7.7-4.4,11.5-6.5,1.4-.8,6-2.4,6.7-3.7.9-1.4.5-5.1.6-6.7Zm-308.6,266.4c-.7.3-1.4.7-2.1,1,7.8-22.2,15.5-44.3,22-66.9q4.65-16.35,9.6-32.7c1.4-4.7,4.8-11.2,3.9-16-1-5.3-3.5-10.9-5.4-15.9-12.3,7.7-24.9,15.1-37.4,22.5-11.2,6.6-22.6,12.5-33.9,19.1-5.8,3.4-11.8,5.6-17.8,8.4-4.9,2.2-3,9-2.9,13.6.2,16.1.2,32.2,1.2,48.2.4,5.8-.1,12.6,3.6,17.4,4.8,6.2,9.2,12.6,13.5,19.1,1.6,2.5,8.5,15.7,11,15.4,1.7-.2,3.2-5.6,4-6.8a42.649,42.649,0,0,1,6.8-7.3c10.3-9.6,21.7-16.3,33.6-23.3,12.1-7.1,24.4-13.7,36.7-20.4,2.8-1.5,5.8-2.6,8.5-4.2,1.1-.6,3.3-1.6,3.9-2.7,1-1.6.7-6.2.9-8.2.4-4,1.2-8.2,1.3-12.2,0-4-2.4-7.4-4.1-10.9-7.6-15.3-15.1-30.6-21.7-46.3-5.2,18.3-10.7,36.5-15.9,54.8-2.7,9.6-5.9,19-9.1,28.4l-4.8,14.4c-1.1,3.8-1.8,9.3-5.4,11.5Zm109.6-344.4a58.414,58.414,0,0,1-11.7-1.4c-1.5-.3-2.7-.4-4.2-.6-1.7-.1-3.2-1.1-4.6-1.2a11.79,11.79,0,0,0-4.1.7c-2.4.8-2.4.4-2.5,3.2-.2,4.4-.3,8.8-.5,13.2-.9,17.3-2.8,34.4-5.3,51.5-.5,3.5-1.9,8-1.2,11.4.7,3.1,3.4,6.4,5.1,9,3.6,5.3,12.2,8,18.2,9.5,6.3,1.6,12.9,2.2,19,3.6,1.7.4,3.6-.3,5.4.1a34.337,34.337,0,0,1,4.4,1.9c3.7,1.6,7.9,1.9,11.7,3.1,7.6,2.5,15.8,2.3,23.5,4.7,2,.6,3.6,2.1,5.5,2.6,1.7.5,3.5-.1,5.3.2,3.8.6,7.4,1.9,8.2,6,2.3-1.8,2.7-1.4,2.3-4.2a55.754,55.754,0,0,0-1.8-5.8c-1.4-4.5-2.9-9-4.3-13.5-2.8-8.9-5.6-17.8-8.2-26.8-2.3-8-4.4-16.1-6.3-24.2-.9-4.1-1.7-8.3-2.5-12.5-.2-1.2,0-3.1-1.2-3.9-1.1-.7-3.7,1.9-4.8,2.7-8.1,5.9-26.8,23.3-36.9,13-5.5-5.5-5.1-15.2-4.6-22.4a113.3,113.3,0,0,1,2-13c.2-1.1,1.5-4.5,1-5.3-.3-.9-5.8-1.4-6.9-1.6Zm285.5,96c2.2.2,4.3.5,6.5.7-.2-1.7,0-4.4-.7-6-.9-2.2-3.2-2.5-5.6-3.4-3.9-1.5-7.9-2.8-11.7-4.3-8.4-3.4-16.7-6.9-25.1-10.4-3.7-1.5-8-4-12-2.7-4.3,1.3-8.5,4-12.5,6-4.5,2.2-9.1,4.5-13.6,6.7-2.1,1.1-4.3,2.1-6.4,3.2-3.3,1.7-3.8,1.8-4.1,5.6-1.3,19.4-1.2,39.5-.7,58.9.3,9.9,0,19.9.7,29.7.1.8,0,5,.5,5.6.7.8,5.4,1.1,6.5,1.3,4.4.8,8.8,1.1,13.3,1.5-1-22.5-4.9-49.2,6.7-69.8s36.4-25.1,58.2-22.6Zm-202.1-221.6c1.3-3,3.5-5.5,5.5-8.1,1-1.4,2.8-3.1,3.5-4.7.9-2.3.9-1.8-.5-3.9-1.3-1.9-1.3-2.1-3.4-2.4-1.7-.3-3.6.2-5.4-.1s-6.7-1.8-5.6-4.7a20.894,20.894,0,0,0,3-1.5c.7-.8.9-2.4,1.3-3.4,1.1-3,1.5-5,.3-8.2-1.9-4.8-9.4-6.2-14.1-4.6a8.071,8.071,0,0,0-4.7,4.7c-.7,1.4-.8,3.3-1.7,4.5-1.3,1.8-1.4,1.6-4.1,1.3-3.4-.4-6.2-1.7-9.5-2.6-3.5-1-5.8,1-8.9,2.7-5.6,3-11,4-17.2,4.5-7,.5-13.4-1.2-20.3-1.6,1.8,8.2,6.4,14.9,10.1,22.4.6,1.3,1.7,2.7,1.7,4.2,0,1.4-2,3.4-1.8,4.6.5,2.5,6.1,4.5,8.2,5.3,6,2,12.7,5.9,19.3,4.4,3.6-.9,5.5-6.5,8.9-7,4.5-.6,1.1,5.3.3,7.3a47.458,47.458,0,0,0,20.8-2,52.076,52.076,0,0,0,8.5-4.3c3.5-2.4,4.3-3,5.8-6.8Zm-112.7,122.7c-11.5.2-23.1-1.5-34.6.1-2.7.4-5.3.9-7.9,1.5-1.9.4-7.9.8-9.1,2.2-1.1,1.3-1.2,7.2-1.4,8.8-.5,3.7-.4,5,2,7.8,7.7,9.4,15.8,18.5,23.4,28,7.3,9.1,13.3,19.3,20.8,28.3,4-11.5,4.2-25.3,5.3-37.4.6-6.4,1.1-12.9,1.6-19.3.3-6.2,1.9-14.2-.1-20Zm-148.6,121.3c1.3,0,3.4.4,4.7,0,1.8.6,2.4-.1,1.8-2,0-.7.1-1.3.1-2,.2-4.3.4-8.6.6-12.8.2-3.9.4-7.8.5-11.7.1-2.7,1.5-9.3.4-11.7-.7-1.6-2.4-1.3-4.5-1.5-2-.2-4-.4-6-.7-2.5-.4-5.3-1.3-7.8-.7-2.6.6-4.4,2.9-6.4,4.4-3.2,2.4-6.4,4.7-9.6,7l-17.4,12.9c-2.4,1.8-2.8,1.2-1.7,3.7.7,1.6,2.4,3.4,3.4,4.8,2,2.9,4,7.2,6.5,9.5,3.7,3.4,14,1.2,18.9,1.2,5.5,0,10.9.1,16.5-.4Zm14.5-.3c4.9-.5,9.8-.3,14.6-.9,5.3-.7,10.5-1.8,15.7-2.6s21.2-4,19.6-11.8c-1.7-8.3-13.9-13.2-20.6-16-10.5-4.3-21.5-6.7-32.6-9.1-1.4,7.4-1.2,15.4-1.4,22.9-.1,4.1-.3,8.2-.3,12.2,0,1-.3,3,.1,3.9.9,2.2,2,1.4,4.9,1.4Zm-16,3.6h-31.1c4.6,9.5,9,19.2,13.9,28.6,4.9,9.3,11.3,18.1,16.9,27,1.4-1.5,3.7-3.2,4.6-5.1,1.1-2,1-5,1.2-7.4.5-6.1.7-12.3.8-18.4.1-5.4.4-10.7.8-16,.1-1.2,1.4-7.3.6-8.3-.5-.9-6.4-.4-7.7-.4Zm128.1-187c5.2,0,10.5-.1,15.7,0,4.8.1,11-.7,15.3,1.7,8.9,5-8.9,17.8-12.5,21,5.8,2.1,14.9-2.1,20.6-4,7-2.4,14.2-4,21.4-5.8,1.8-.5,9.5-1.4,10.5-2.7,1-1.4-1.2-9.6-1.4-11.3-.2-1.6,0-4.2-.7-5.7.4-1.8-.2-2.5-1.9-1.9h-1.8c-4.4,0-8.8.2-13.1.4-15,.5-29.7,1.2-44.6,3.5-6.9,1.1-13.9,2.4-20.8,3.8-5.8,1.1-4.8,2.1.6,2.1,4.2-.2,8.4-.8,12.7-1.1Zm430.9-110.5c.9-1,1.8-2.1,2.7-3.1-2.2-.6-4.4-1.2-6.5-1.9-2.3-.7-3.6-.5-2.5-3.1,1.3-3.2,7.2-3.6,10-3.7,9.7-.4,20,2.7,29.2,5.4a38.377,38.377,0,0,1,11.9,6.1,37.515,37.515,0,0,1,5.1,3.8c1.5,1.5,2.1,3.4,3.6,4.9,2.4,2.5,5.5,3.7,6.7,7.2,1.4,4.1-.3,8.7-2.3,12.3-2.1,3.6-5.1,6.3-7.6,9.6-2,2.6-6.1,9.7.3,8.9,3.4-.4,7.8-6.2,10.2-8.5,3.5-3.3,6.9-6.7,10.7-9.8,3.3-2.7,7.1-5.5,11.5-6,4.6-.5,6.9,2.5,9.2,6.1,2.1,3.4,2.5,6.7,4,10.2.7,1.7,1.6,2.6,2.1,4.4.7,2.8.7,5.9,1.1,8.8.5,4.5,1,8.1.1,12.5-.8,4.1-1,8.5-1.7,12.7-.8,4.8-1.4,9.5-2.2,14.3-.7,4-3.1,9.8-.7,13.5,5.8,9,12.8-4.3,14.7-9.2,3.2-8.7,4.9-18.2,7.8-27.1a106.315,106.315,0,0,0,3.7-14.5c.7-4.1.4-9,2.6-12.7,1.7-2.8,4.8-5,8.2-4.1,4.2,1.1,5.9,7.2,7.1,10.9,3.3,9.8,2.1,18.7.7,28.7a128.115,128.115,0,0,1-2.3,13.8c-.7,3.1-3.7,9.3.7,11,6.3,2.4,12.9-15.6,14.7-19.7,4.7-10.6,6.5-21.2,8.4-32.6.4-2.6.8-5.3,1.4-7.9.6-2.2,2.3-4.5,2.5-6.8.2-2.2-1.3-3.8.2-6,1.3-1.8,3.6-1.9,5.6-2,4.9,0,9.5,2.1,14,3.6,4.2,1.4,10.4,4.6,15,3.6-14.2-14.5-28.4-28.8-45.4-40a229.1,229.1,0,0,0-24.3-14.5c-8.6-4.3-18.5-7.2-27.8-9.8-5-1.4-10-3-15-4.7-4.4-1.5-8.9-1.7-13.2-3.4-9.4-3.6-19.9-5-29.7-7.5-4.3-1.1-8.6-2.1-13-3.1-4.5-1.1-10.9-3-15.5-2.8-3.9.2-5.3,4.7-7.2,7.8a126.809,126.809,0,0,0-7.3,14.2c-4.4,10-9.1,20.3-12.3,30.7-1.7,5.7-3.5,11.4-5.2,17.2-1.5,5-5.2,12.1-4.2,17.2a303.9,303.9,0,0,0,20.2-34.9Zm-339.5,101.5c-3.9.2-7.7.4-11.6.5,3.9,12.7,3.3,26.2,3.3,39.3,18-2.1,36.2-2.5,54.3-2.3-3.3-6.4-2-14.8-1.1-21.6a68.509,68.509,0,0,0,.8-12c-.1-3.8,1-7-3-8.2-3.2-.9-5.2.6-8.3,1.3-3.7.9-7.6,1-11.4,1.4a194.513,194.513,0,0,1-23,1.6Zm-103.9,24.7c11.6-3.2,24-2,35.6-4.5-2.7-2.4-7.7-1-11.2-.8l-12,.6c-3.9.2-14.8-.1-16.2,4.9,1.3-.1,2.6-.2,3.8-.2Zm425.1-179.7c-15.2,1.3-31.1,1.1-46.2,3.8-17.3,3-35.3,4.9-52.1,10.3-16.4,5.3-33.2,8.9-49.4,15.1a382.55,382.55,0,0,0-45.8,20.4c-7.3,3.9-14.3,8.1-21.3,12.6-6.8,4.4-14.2,8-20.7,12.7a125.11,125.11,0,0,0-15.9,13c-5.4,5.4-10.7,11-16.2,16.5-4.5,4.5-1.7,15.6-1.4,21.6.4,8.4,1.1,16.6,2.1,24.9,1,7.9,2,16.4.7,24.3-.5,3.3-2.4,9.1-1.5,12.4.7,2.7,5.4,4.6,7.9,5.5,3,1.1,6,.6,9,2,3.4,1.5,6.2,3.4,9.8,4.2a65.471,65.471,0,0,0,14,1.8c4.2,0,8.4,1.4,12.6,2.2,6.8,1.4,13.5,1.8,13.1,10-.5,9.5-4.3,17.7-6.5,26.7,3,0,5.2.2,7.9-.9,3.2-1.3,6.7-1.6,10.1-2.1,7.5-1.2,14.9-1.6,22.5-2.3,13.9-1.4,28-1.2,41.9-1.1a155.93,155.93,0,0,1,21.6,1.7c7.1,1.1,14.5,1.8,21.4,4,5.8,1.8,11.8,3.1,17.8,4.7,2.7.7,5.9,1.3,8.4,2.1,3.7,1.2,5.6,3.7,9.9,3.6-1.2-7.8-4-15.1-5.7-22.9-1.8-8.1-5.3-15.3-9.2-23-1.7-3.4-3-7-4.7-10.5-1.9-3.8-4.5-7-6.7-10.6-4.6-7.3-9.5-14.4-14-21.8-3.9-6.4-8.4-12.6-12.7-18.8-4.7-6.8-11.3-12-16.7-18.3a82.821,82.821,0,0,0-7-7.5c-2.3-2.2-5.7-7.2-9.2-7.4-2.1-.1-5.6,1-7.6,1.6-3.6,1.2-7.5,1.9-11.2,2.9-4.1,1.1-8.1,2.6-12.3,3.6-1.6.4-3.6.2-5.2.7s-2.9,1.6-4.7,2.1c-8.8,2.5-17.6,5.3-26.4,7.6-9.1,2.3-18.4,4.3-27.3,7.7-1.7.6-3.6,2.1-4.9,1.1a4.5,4.5,0,0,1-1.3-4c.8-4,7.3-5.5,10.4-7.1a165.746,165.746,0,0,1,25.5-10.3c4.4-1.4,8.8-3,13.2-4.2,3.7-1,7.6-2.8,11.4-3.3,3.4-.5,5.8-1.8,9.2-3,5-1.7,10.1-3.2,15.1-4.7,8.6-2.5,17.7-3.6,26.6-5.3a311.243,311.243,0,0,1,62.5-5.7c10.5.1,21.5-.2,31.9,1.5,2.5.4,7.8.3,9.5,2.6.9,1.2.4,3,.7,4.3.4,2.2,1.6,3.2,2.6,5.2,2.2-10.9,4.8-21.5,7.6-32.2,2.6-9.7,5-19.6,8.4-29.1,3.7-10.1,8.1-20.8,13.6-30.1,1.1-1.9,3.9-4.9,4.2-7.1.2-2.2-2.8-3.9-5-4.1-4.5-.7-9.6.2-14.3.4Zm102.2,155.4c1.5-15.1,6.1-30.9,3.5-46-1.1-6.4-1.9-12.5-5.1-18.3-1.6-2.9-2.3-5.1-5.4-3.4s-6,6.1-8.6,8.6c-4.8,4.6-9.8,9.3-15.5,12.7-4.5,2.7-13.4,5.2-16.8-.6-3.2-5.5,1.1-13.3,4.2-17.8,3.5-5.2,10.2-10.1,6.5-16.5-1.6-2.8-3.9-3.5-6.4-5.3-2.1-1.6-3.9-3.6-6-5.2-6.1-4.7-12.9-6.6-20-9.3-3.3-1.2-3.7-2.4-5.6.4-2.1,3.1-3.2,7.3-4.7,10.7a155.765,155.765,0,0,1-10,19.5c-3.9,6.4-7.3,13-10.9,19.5-1.4,2.4-2.7,4.9-4.3,7.2a31.755,31.755,0,0,0-2.7,3.7c-1.1,2-.6,3.9-1.3,5.9-2.9,8.7-7-3.4-7.8-6.3-.9-3.2-3.1-5.7-4.5-8.8-1.2-2.5-2-6.2-4.8-7.3-2.3-1-5.3.4-7.7.5-4.4.2-8.7-.1-13.1.2-4.1.3-8.2.6-12.2.9-4.1.3-8.2-.4-12.2,0-7.2.8-14.6.6-21.9,1.7-8.5,1.3-16.9,2.6-25.4,3.6,2,3.7,6.1,5.4,9.3,8,2.9,2.4,5.2,5.1,8.1,7.4,3,2.3,4.7,5.7,7.2,8.5a85.68,85.68,0,0,1,6.7,8c10.1,14.6,20.6,28.7,29,44.5a181.292,181.292,0,0,1,11.2,25.1c3.1,9.2,4.6,19.1,6.5,28.6.9,4.7,1.4,8.8.4,13.5-.3,1.1-.5,2.3-.8,3.4-.9,1.4-.6,2.2,1,2.6.9,1.3,2.1,1.8,2.2,3.6a4.3,4.3,0,0,1-1.9,3.7c-2.3,1.5-2.3-.5-4.6-.1-.9.5-1.7.9-2.6,1.4-.5-.7-.9-1.4-1.4-2.1-1.5-1.4-2.7-1.3-4.6-1.6,1,11.4-.6,21.5-3.1,32.6-1.2,5.3-3.3,10.6-4.3,15.9-1.2,6,1.4,8.7,5.3,12.7a17.76,17.76,0,0,0-3.6,1.9c-1.3,1.2-1,1.4-1,3.3a75.037,75.037,0,0,1-1.2,10.5c-1,6.5-2,13.2-4.2,19.3-4,11.2-10.6,22.9-17.2,32.8-3.7,5.5-7.5,11.8-12.1,16.6-4.7,4.8-9.3,9.6-14,14.5-9.2,9.5-19.3,16-30.3,23.1a85.173,85.173,0,0,0-12.7,9.4c-3.8,3.6-8.9,6-13.5,8.6-2,1.2-3.5,2.8-5.7,3.8a31.284,31.284,0,0,0-5.2,2.3,86.512,86.512,0,0,1-13.7,7.5c-5.8,2.7-11.4,5.7-17.4,8-2.7,1-5.2,2.2-7.9,3.4-2.8,1.3-5.9,2.2-8.8,3.6a74.413,74.413,0,0,1-7.4,2.8c-2,.8-3.6,2.1-5.7,2.9-4.3,1.7-8.2,2.6-12.4,4.6-5.6,2.7-12.2,3.9-18,5.8-6.6,2.1-13.4,4.3-20.1,5.8a58.258,58.258,0,0,0-8.1,2.5c-1.8.6-3.9,1-5.9,1.6-5.5,1.7-11,3.3-16.6,4.7-10.8,2.8-21.9,6.1-32.4,9.9-5.5,2-11.1,4.4-16.4,6.9-6,2.9-12.4,4.5-18.4,7.3-11.6,5.5-23.1,11.1-34.6,16.8-6,3-11.9,6.1-17.8,9.4-2.1,1.2-4.5,1.7-6.6,2.8-2.8,1.5-5,3.8-7.9,5.3-10.9,5.8-22.1,11.3-32.1,18.7-5.2,3.9-10.9,7.8-15.4,12.5-1.5,1.6-4.1,4-4.4,6.2-.4,3.3,0,.3,1.1,2.3,1.6.2,2,.8,1.1,1.8a1.8,1.8,0,0,1-1.5.7c-2,.4-5.8-1.7-7.4-2.6-2.8-1.5-4.3-3.5-6.1-6.1-3.9-5.6-7.7-11.3-11.8-16.9-3.6-5-7.2-10.5-11.3-15.1-2.8-3.1-3-1.8-6.1,0-2.3,1.3-5,1.9-7.4,3.1-9.1,4.7-19.2,8.1-28.6,11.4-2.1.7-3.3,1.9-5.2,3-2.4,1.3-5.4,1.9-8,2.9-7,2.6-14.1,5.2-21.1,7.9-5.4,2.1-10.6,3.7-14.8,7.6-1.7,1.5-3.7,2.6-5.5,4.2-2,1.8-4.8,4.7-7.3,5.7l-1.6,1.2c-1.1-.7-2.1-1.5-3.2-2.2-1-.7-2.1-1.4-3.1-2.2-2.6-1.8-5.2-3.7-7.8-5.5-5.9-4.2-11.8-8.3-17.3-13-9.7-8.4-19.9-16.3-30.1-24.2-10.7-8.2-21.1-16.9-32.2-24.6-10-7-21-12.9-30.7-20.4-4.9-3.7-9.8-7.5-14.8-11.1a48.432,48.432,0,0,1-4.4-3c-.1-.5,1.3-1.8,1.7-2.3,1.9-2,3.9-3.8,5.8-5.9,8.7-9.6,20-9.2,32-9.7,5.4-.2,11.3,2.3,16.5,4,6.3,2.1,12.4,5.1,18.5,7.8,12.6,5.4,25.5,10.1,38.2,15.2,5,2,10,3,15,4.3,5.1,1.4,10.4.1,16,.2,2.9.1,5.6.2,8.4.1,1.7-.1,3.7-.4,5.4-.4,1.4,0,2.8.6,4,.4,5.5-.6,11.3-1.5,17-2.2,5.6-.7,11.5-1.1,17-2.2a78.338,78.338,0,0,0,8.3-2.3c2.3-.8,6.6-1.8,8.5-3.4,1.7-1.5,1-1.5,0-4-.4-1-.8-2.4-1.3-3.4-1.5-2.5-3-3.3-2.1-6.4,1.6-5.5,6.9-9.1,11.4-11.8,10.2-6.1,19.6-14,30.4-19.2,22.2-10.7,42.4-24.7,64.1-36.5,23.8-13,46.3-28.2,70.5-40.6,22.5-11.5,44.8-23.2,67.5-34.4,11.1-5.5,23.6-10.5,33.6-17.6-5.6-.7-11.1-1.6-16.7-2.1-2.6-.2-5.2,0-7.8-.4-2.9-.5-5.6-1.6-8.5-2.1-4.9-.8-9.4-2.5-14.3-3.2-5.3-.7-10.5-2.2-15.8-2.7-11.1-.9-21.2-5-31-10.2-2.4-1.3-4.4-.5-6.7-1.4-1.3-.5-2.6-2.4-4.1-3.4-3.9-2.8-7.3-6.2-11.1-9.3-7.9,17.7-23.4,29.7-38.1,41.6-7.5,6-15.6,11.1-23.2,17a153.082,153.082,0,0,1-17.4,12.3c-6,3.5-11.7,8.2-17.4,12.4-3.9,2.8-8.4,5-12.6,7.5-3.4,2-10,5-10.9,8.7-.8,3,.7,6.5-3.8,5.2-4.1-1.2-7-5.8-9.4-9-6.1-8.3-11.9-16.8-17.6-25.4-3.1,6-8.4,10.3-13.2,14.7-3,2.7-6.1,5.2-9.3,7.6-1.6,1.2-3.1,2.3-4.7,3.5a15.028,15.028,0,0,0-2.4,1.8c-.9,1.5-.4.8-.2,2.7.2,2.9,1.2,5.1-.4,7.9-1.5,2.6-4.9,3.7-7.2,5.4-5.5,4.2-11.4,8.7-17.5,11.9a31.833,31.833,0,0,0-4,2.3c-2.2,1.5-1.8,2.1-4,.6-3.4-2.3-6.4-6.1-9.5-8.8-6.5-5.8-13-11.4-19.6-17-12.6-10.6-25.6-20.7-38.1-31.6-11.9-10.3-24.6-19.1-36.8-28.9-3.4-2.7-6.7-5.4-10-8.2-2.9-2.4-7.7-5.1-9.9-8.2-3.2-4.5,9.2-10.7,13-11.6,6.4-1.6,14.8-.7,21.2.6,6.8,1.4,13.7,5.9,20,8.8,7.1,3.2,14.4,6,21.6,9,3.2,1.3,6.6,2.4,9.6,4.2,3.2,1.9,6,4.1,9.3,5.7a104.72,104.72,0,0,0,12,5,27.433,27.433,0,0,0,5.8,1.5c2.7.4,2.4-.9,4.7-1.6,1.9-.6,2.4,1,4.1,1.4a5.144,5.144,0,0,0,4.3-.9c3.2-2,6-4.7,9.2-6.7,2.9-1.9,6.2-3.7,8.9-5.8,1.2-1,2.1-2.3,3.3-3.2,1.9-1.6,2.7-.9,5-2,1.9-.9,3.5-2.5,5.3-3.6,1.1-.7,3.7-1.5,4.4-2.6,1.9-2.9-1.3-4.8-4.1-4-.4-2.5-2.6-8.3-1.7-10.6.8-2,3-1.7,4.9-2.7,6.9-4.1,12-11.5,18.5-16.3,6.1-4.5,11.5-9.9,17.5-14.5,5.2-3.9,10.8-7.8,15.5-12,5.6-5,12.7-8.9,18.7-13.4,6.2-4.6,12.1-9.8,18.2-14.5,5.9-4.5,11.8-9.2,17.9-13.5,5.5-3.9,11.2-7.4,16.6-11.3a49.521,49.521,0,0,1,9.5-5.4c3.3-1.4,6.3-3,9.5-4.5a76.266,76.266,0,0,1,22-5.9,203.038,203.038,0,0,1,23.4-1.8c4.2,0,8.2.8,12.4,1,3.8.2,7.9,1.2,11.7,1.1,1.7-.1,3.2-.8,4.9-.5,1.4.2,2.6,1,4.1,1.2,3.3.3,6.6,0,10,.4,7.7,1,15.4,2.4,23.1,3.2,8.2.8,16.3,1,24.5,2.4,8,1.4,16,2.8,23.9,4.4,16.9,3.4,33.9,6.6,50.5,11.6a111.027,111.027,0,0,1,11.5,3.9,51.492,51.492,0,0,0,5.4,2.3c2.7.8,3.2,1.1,4.6-1.1,2.4-3.9,3.7-9.1,5.5-13.3,1.7-4.2,3.8-8.4,4.8-12.8-2.9-.5-6.6.4-9.5.5-3.7.1-7.3,0-10.9,0-7.4,0-13.1-2.2-20.1-4.5-5.9-1.9-13.7-3-18.2-7.4-2.4-2.4-3.2-2.8-6.8-2.4s-7.2,1.2-10.9,1.3c-13.9.5-27.7,2.9-41.6,3.4-3.8.1-13.2,1.9-12.6-4.5.1-1.3,1.1-2.5,1.3-3.8a16.408,16.408,0,0,0-.4-4.4c-.5-3.4-1.1-6.8-1.7-10.1-12.7,4.1-25.5,7.4-38.5,10.6-5.4,1.3-14,4.4-19.5,2.7-5.4-1.6-2.3-9.2-.6-12.8-10.6,2.4-22,6.4-32.9,7.3-3.3.3-6.5,1-7.3-3-.6-3.2,1.7-7.1,2.9-9.9-8.3-.7-17-.7-15.4-11.4,1.4-9.8,9.6-11.8,18.2-13.5,10.7-2.2,21.6-2.9,32.4-4.7,9.4-1.6,19.6-3.3,29.2-2.5,5.1.4,10.2.5,15.2,1a40.971,40.971,0,0,1,7,1.2c2.1.6,5.1,2.5,7.3,2.5,3.3.1,7.3-4.4,10.8-5.4,4.4-1.3,9.1-1.5,13.7-1.8,5.1-.4,10.3-.5,15.4-1,1.2-.1,5.6.2,6.5-.5,1.3-1,.5-6.1.4-8.2-.1-2,.3-5.6-1.1-6.4-1.3-.7-5,.3-6.2.5a78.352,78.352,0,0,1-15.3.5c-2.4-.1-4.7.5-7,.2-2.5-.3-5.1-1.2-7.6-1.7-5.5-1-10.4-2.3-15.2-5.4-4.1-2.7-9-4.5-11.3-9.2-1.7-3.4-2.4-10.1,2.6-11.1a60.007,60.007,0,0,1-7.5-16,20.136,20.136,0,0,0-1-3.5c-1.7-3.2-.1-.4-2.6-1.6a17.289,17.289,0,0,1-6.1-4.4,20.976,20.976,0,0,1-4.7-12.2c-.5-6.1-1.5-13-.6-19.1,1.5-10.5,9.3-18.5,17.1-24.9,4.3-3.5,9.9-4.8,14.8-6.9,4.8-2,10.2-4.2,15.3-4.6,4.6-.4,9-1.9,13.6-2.5,6.3-.8,12.6-.5,18.9-.8,2.9-.1,5.8-.5,8.7-.8,1.6-.2,4.4,0,5.9-.6,2.5-1.1,1.1,1.2,2-2.1,1.7-6.2,3-12,5.6-18a68.654,68.654,0,0,1,9-15.8c3.5-4.5,8.1-7.8,12.3-11.6a84.2,84.2,0,0,1,10.1-7.7c2-1.3,4.3-2,6.2-3.2a35.712,35.712,0,0,1,7.4-3.4c5.9-1.9,11.8-3.9,18.1-3.8,6.8.1,13.6-1.5,20.1.5,12.2,3.7,18.2,17,18,29.1,4.2-1,7.8-3.1,12.3-3.2a55.729,55.729,0,0,1,12.9,1c7.8,1.5,15.8,5.8,20.4,12.4a23.4,23.4,0,0,1,2.4,21.6,38.371,38.371,0,0,1-5.6,9.3c-1.6,2.1-5.2,4.4-5.4,7.3a584.877,584.877,0,0,1,91.5-19.7c15.8-2.1,31.6-1.1,47.4-2.3,6.8-.5,14.1.2,21.1.2,2.9,0,5.2-.4,7.4-2.3s3.9-4.3,6.4-1.5c.6.7.8,2.4,1.6,3,1,.6,4.1.2,5.4.3a94.723,94.723,0,0,1,13,1.9c7.9,1.6,15.8,3.2,23.6,5.2,14.9,3.8,29.6,7.5,44.2,12,15,4.6,30.1,10.3,43.9,17.8a166.325,166.325,0,0,1,19.5,12.6,64.307,64.307,0,0,1,7.9,6.8c2.7,2.7,5.9,4.5,8.5,7.2,5.7,5.9,11.4,12.1,16.6,18.5,2.7,3.3,5.2,6.8,7.6,10.4,1.7,2.5,6.2,7,5.1,10.2a3.746,3.746,0,0,1-4.2,2.5c-.6-.1-1.1-.9-1.6-1-1.7-.2-.2-.8-2.1,0-3.9,1.6-5.2,4.8-10.2,4.1-8.5-1.2-16.5-5.2-24.2-8.7-2.2,8.4-2.5,17.1-4.4,25.7a109.008,109.008,0,0,1-8.8,23.9c-3.3,6.7-7.6,13.8-13.5,18.6-4.5,3.6-15.6,8.2-18.8.4-1.4-3.3.7-8.4,1.3-11.8.8-4.6,1.7-9.1,2.1-13.7.4-3.7.6-7.5.9-11.2.3-3.2,1.2-10.1-.6-13-1.1-1.7-1.2,0-1.8,1.7a65.973,65.973,0,0,0-2,6.3c-1.2,4.5-2.3,9.1-3.4,13.7-2,8.1-4.3,16.1-8.5,23.4-3.7,6.5-9,13.6-17,14.7a16.122,16.122,0,0,1-11.5-3.7c-2.6-2.8-1.6-7.5-1.6-11.3Z" fill-rule="evenodd"/><path id="Fill-3" d="M711.881,580.8c4.4-.9,8.1-4.4,11.7-7,4.6-3.4,8.9-7,13.4-10.6a200.325,200.325,0,0,0,23.2-21.9,130.483,130.483,0,0,0,29.9-56.5c2.5-10.4,5.5-22.7,4.1-33.5-.5-3.7-1.2-4.4-4.9-4.9-1.7-.2-5.9-.7-7.4,0-3.9,1.7-6,8.9-7.1,12.5-3.4,10.7-5.4,21.7-8.5,32.5-3,10.6-7.8,21.3-12.6,31.1-10.5,22-25.3,40.4-41.8,58.3m87.4-121.3c-2.6,29.9-10.9,58.4-29.6,82.5a191.273,191.273,0,0,1-30.5,30.5c-11.6,9.3-23.5,18.1-36.8,25.1-3.5,1.9-7,3.7-10.6,5.5-2,1-7,4.6-9.2,4-1.8-.5-2.3-1.9-2.6-3.7-.6-4.1,2-6.2,4.7-8.8,10.9-10.6,21.8-21.3,32-32.6a200.986,200.986,0,0,0,43.6-77.9c2.6-8.9,4.9-17.9,7.7-26.7,1.7-5.4,4.1-14.9,9.8-17.6,3-1.4,6.6,0,9.7-.9,3-.8,5-2.5,7.5.3,4.4,4.7,4.6,14.2,4.3,20.3" fill-rule="evenodd"/><path id="Fill-5" d="M3.681,632.1c-2.2.8-2.3,1.6-3.3-.7a8.637,8.637,0,0,1-.3-3.9c.3-2.9,1.8-5.5,3-8.1,11.7,9.7,23.9,18.4,36.4,26.9,13.4,9.1,26.2,19.3,38.9,29.4,11.4,9.1,22.9,17.8,34.1,27,5.4,4.4,11.6,7.8,16.8,12.4,4.2,3.7,11.1,5.3,14.6,9.7-5.6,3.4-13.2,6.1-19.4,3.2-6.9-3.2-12.2-7.4-18.3-11.8-3.2-2.2-6.4-4.3-9.6-6.4-2.8-1.9-4.8-4.7-7.7-6.5-6-3.8-12.2-7.9-17.8-12.2-5.8-4.4-12.3-7.9-17.9-12.6-5.8-4.8-12.3-8-18.3-12.4-12.7-9.4-23.9-19.9-31.2-34" fill-rule="evenodd"/><path id="Fill-8" d="M348.881,139.4c-.2.9-.3,1.7-.5,2.6.1,0,7.8-14.8,9-16.6,4.3-6.1,9.9-11.1,15.3-16.2,11.4-10.7,24.8-19.4,36-30.3,3.7-3.6,10.3-9,8.8-15.1-1.4-6-13.7-4.8-17.9-3.1-6.6,2.7-11.9,8.5-16.8,13.4-5.3,5.4-10.7,10.8-15.2,17-4.9,6.6-9.5,13.8-12.5,21.5-3.2,8.8-4.5,17.8-6.2,26.8m2.5,26.5c-5.2,1.6,1.3,2.7-.7,5.5-2.2,3-6-6.3-6.5-8.1-3.3-10.5-1.8-23.2,0-33.8.9-5.4,1.5-10.8,2.7-16.1,1.2-5.2,3.8-10.1,6.2-14.8a109.636,109.636,0,0,1,18.5-25.8c7.3-7.7,15.4-15.4,25-20.1,7.9-3.9,20.5-1.2,24.3,7.3,3.8,8.7-1.3,18.2-7.4,24.4a263.553,263.553,0,0,1-25.5,22.9c-4.6,3.6-8.4,7.8-12.9,11.5a63.258,63.258,0,0,0-12.3,13c-3.4,4.9-6.9,9.9-9.1,15.5-2.4,6.1-2.3,12.1-2.3,18.6" fill-rule="evenodd"/><path id="Fill-10" d="M143.581,542.5c-11.9-7.7-23.9-14.4-34.3-24.2-10.3-9.7-19.2-20.6-30.7-29-5.7-4.2-11.6-8.1-17.2-12.5-5.3-4.1-11.4-7.6-16.2-12.3-6.4-6.2-18.4-17.9-10.2-27.2,10.2,12.1,24.1,21.6,36.8,30.8,13.4,9.7,25.7,20.9,38.4,31.5,12.2,10.1,24.4,20.4,36.4,30.8,3.1,2.7,6.2,5.6,9.3,8.3.4.3,3.7,2.4,3.7,3,0,1.3-2.5,2.2-3.5,2.5-1.4.6-5.3,2-6.9,1.5-.9-.3-.9-1-1.5-1.4-.4-.7-.8-1.3-1.2-1.9a28.073,28.073,0,0,1-2.9.1" fill-rule="evenodd"/><path id="Fill-12" d="M846.381,408.5c-8.5-.2-21.5-.2-21,11.4.2,5.8,3.4,10,5.9,14.9a49.892,49.892,0,0,1,5.5,16.3c3.2,23.5-5.4,46.4-13.1,68.1,16.7-13.4,28.7-32.1,35-52.6a90.093,90.093,0,0,0,3.3-33.1c-.5-5.2-2.4-9.8-4.7-14.4-1.2-2.3-2.3-5-4.2-6.8-1.8-2-4.4-2.6-6.7-3.8m-29.7,124.1c-5.5-9,3.2-22.4,6-31.2,3.4-10.5,6.5-21.5,8-32.5,1.5-11.5-.4-20.5-5.8-30.6-4.8-9.1-7.6-21.2-2.3-30.8,2.1-3.9,5.3-4.3,9-5.9,4.6-1.9,5.9-5.1,11.5-4.6,10.1.9,14.7,10.5,18.5,18.6,8.7,19,6.4,43.5-1.1,62.6-4.3,11-9.2,22.4-16.5,31.7a94.616,94.616,0,0,1-12.1,12.4c-4.6,4.1-8.9,9.1-15.2,10.3" fill-rule="evenodd"/><path id="Fill-14" d="M241.081,202.9c-13.3,2.7-25.4,8.7-27.5,23.6-1.9,13.6,7.3,26.1,18.7,32.5,12.3,6.9,27.7,8,39.9.4,12.9-8,15.8-24.1,8-36.7-8.9-14.1-23.6-18.2-39.1-19.8m8.5-6.5c15.8,2.3,30.5,13.6,35.8,28.8,5.5,15.6.4,32.8-14.1,41.4-29.4,17.3-68.7-11.5-61.6-44.7,1.8-8.4,6.9-14.9,13.9-19.9,7.7-5.5,17-5.6,26-5.6" fill-rule="evenodd"/><path id="Fill-16" d="M812.281,37.6c-19.1-8.6-38.1-17.2-57.2-25.9-.8,8.6-1.6,17.3-2.3,25.9-.2,2.3-1.1,5.5-.7,7.8.4,2.5-.4,2.2,2.8,1.8,4.1-.4,8.2-1.5,12.3-2.2,7.3-1.3,15.1-1.7,22.2-3.6,3.6-1,7.1-1.1,10.8-1.7,4-.5,8-1.7,12.1-2.1m-64.5,16.7c0-9.7,1.1-19.3,2-29,.8-8.7,1.1-17,4-25.3,2.7,4.8,10,6.8,14.6,9.2,6.3,3.4,13,5.9,19.4,9.1,6.3,3.1,12.4,6.6,18.7,9.6,3.2,1.6,6.5,3,9.7,4.6,2,1,6.8,2.6,8,4.4,3.8,5.5-9.2,6-11.7,6.5-7.5,1.5-15.1,2.3-22.5,3.8-7,1.4-14,2.7-21,4-7,1.2-14.2,3.1-21.2,3.1" fill-rule="evenodd"/><path id="Fill-19" d="M159.781,295.4c7.5-.8,15-1.9,22.5-2.6,7.1-.7,13.4-1.5,19.9-4.7-8.9-2.7-17.7-5.2-26.7-7.6-4.4-1.2-8.9-2.5-13.3-3.6-3.4-.9-6.4-1.4-7.8-5.1-1.5-4.4,2.7-3.7,5.4-2.6,3.7,1.5,7.7,2.5,11.5,3.8,8.5,2.8,17.1,5.5,25.7,8,2.7.8,18.2,3.8,12.6,8.9-2.4,2.2-7.7,3.4-10.6,5-3.7,2-7.8,2.8-12,3.7-8.7,1.7-17.7,2.3-26.5,3.8-4.5.7-9,1.5-13.5,2.2-2.6.4-3.6.4-4.3-2.5-.5-2.1.2-4.3.6-6.3,1.2-5.2,2.6-10.5,3.9-15.7.5-2,1.4-10.7,3.2-11.7,4-2.2.9,9.9.6,11.4-1.1,5.6-2.5,11.1-3.1,16.8,4-.4,8-.7,11.9-1.2" fill-rule="evenodd"/><path id="Fill-21" d="M266.281,339.9c1.5,3.7-1,4.6-4,5.9-3.9,1.7-7.7,3.5-11.7,5-8.3,3.2-16.7,6.1-24.9,9.8-15.5,7-31.3,13.8-46.6,21.3-3.8,1.9-7.6,3.7-11.4,5.5-4,1.9-8.5,5-12.8,6.1-3.7.9-4.1-1.7-1.9-4.1,2.8-3.1,7.2-5.5,10.7-7.6,14.6-9,30.5-16.2,46.5-22.4,18.5-7.2,37-14.1,56.1-19.5" fill-rule="evenodd"/><path id="Fill-23" d="M306.781,127.7c-.5-11.4,1-22.8.1-34.1-15.6,13.8-7.9,35.2,1.1,50.2Zm6.8-.7a153.053,153.053,0,0,1-.1,16.6c-.6,5.8,2.2,8.8,5.7,13.1-3,3.1-9.9-4.1-11.8-6.2-3.9-4.3-6.9-10.1-9.5-15.3-5.5-11.1-9.4-22.9-4.9-35.1,1.6-4.5,3.7-10.6,8-13.3,4.8-2.9,8.4,1.2,10.4,5.4,4.8,10.3,1.1,23.9,2.2,34.8Z" fill-rule="evenodd"/><path id="Fill-25" d="M478.781,692.4c7.2.6,14.3,1.1,21.5,1.6-1.2-9.9-2.5-19.7-3.7-29.6-4.2,1-8.3,1.9-12.5,2.9-2,.5-5,.6-6.7,1.6a14.62,14.62,0,0,0-2,.5v3.8c0,3.8-.2,7.6-.3,11.4-.1,1.6-.6,3.9-.2,5.5-.7,1.6-.2,2.3,1.3,2,.8.1,1.7.2,2.6.3m-5,7.2c-5.6-2.8-4.1-11.4-4.1-16.8,0-3.5.3-6.9.3-10.4.1-2.4-.5-5.3.3-7.6,1.5-4.1,8.6-4,12.3-3.7a50.945,50.945,0,0,0,7.8-.1c1.4-.1,2.9.2,4.3-.2a28.408,28.408,0,0,0,2.9-2c4.9.2,5,12,5.3,15,.8,7.4,1.5,14.8,2.2,22.2.2,2,.9,4.2-1,5.3-1.7,1-6.1,0-8,0-7.4-.4-14.9-1.6-22.3-1.7" fill-rule="evenodd"/><path id="Fill-27" d="M825.681,260.2c3.3,2.9,1.7,6,.6,9.6-.6,2.2-4.2,9.4-3.2,11.5,1.1,2.4,6.4,3,8.7,3.7a81.864,81.864,0,0,1,11.6,4.5c1.7.8,7.6,2.7,8.7,4.2a2.431,2.431,0,0,1,.4,2.7c-.8,2-2.1.9-4.1.5-9.4-1.9-18.7-4.4-27.5-8.5-2.4,5.6-4.5,11.4-6.6,17.2-.6,1.7-1.2,5.6-3.5,5.8-2.8.3-2.8-3.4-2.6-5.4.3-2.9,1.8-6.1,2.7-8.9.8-2.3,3.4-7.1,3.1-9.5-.2-1.6-1.2-1.5-3-2.2-1.7-.6-3.4-1.2-5-1.8-2.7-1-5.4-2-8-3.1-1.4-.6-4.4-1.4-5.5-2.7-.6-.8-1.3-3.5-.5-4.3,1.8-1.8,13.6,3,16,3.7,1.6.4,3.2.8,4.8,1.3.6.2,1.3,1.1,1.9,1.1,2.7.1,2.9-2,3.8-4.2a110.907,110.907,0,0,1,7.2-15.2" fill-rule="evenodd"/><path id="Fill-29" d="M147.281,364c-1.5-3.6,13.9-7.9,16.8-9.1,7-2.9,14.5-4.7,21.7-6.9,7.1-2.2,14.2-4.6,21.2-7.1,2.2-.8,17.7-8.4,18.5-7.3,2.7,3.7-30,15.2-33.1,16.3-14.8,5.5-30.1,9.5-45.1,14.1" fill-rule="evenodd"/><path id="Fill-31" d="M809.681,85.9c-4,0-9.8,1.2-13.4-.4,4.5.1,9,.2,13.4.4" fill-rule="evenodd"/><path id="Fill-35" d="M249.581,196.4h-8.9c3-.7,5.9-1.1,8.9,0" fill-rule="evenodd"/><path id="Fill-37" d="M711.881,194.1h6.3c-2.2-.1-4.2-.1-6.3,0" fill-rule="evenodd"/><path id="Fill-41" d="M482.681,661c-2.2.2-4.4.3-6.7.5,2.2-.2,4.5-.4,6.7-.5" fill-rule="evenodd"/><path id="Fill-43" d="M495.181,234.3c-2.3.2-4.5.4-6.8.6,2.3-.3,4.6-.5,6.8-.6" fill-rule="evenodd"/><path id="Fill-47" d="M407.381,238.6c-2,.2-4,.4-6,.5,2-.1,4-.3,6-.5" fill-rule="evenodd"/><path id="Fill-49" d="M495.081,96.9h-6a7.378,7.378,0,0,1,6,0" fill-rule="evenodd"/><path id="Fill-51" d="M132.581,440.3c-1.7-.1-3,.7-3.9-.9,1.5-1.1,2.4.3,3.9.9" fill-rule="evenodd"/><path id="Fill-53" d="M438.981,307.7l-5.2-.6Z" fill-rule="evenodd"/><path id="Fill-55" d="M473.781,699.6c1.1,0,2.3.1,3.4.1-1.1-.1-2.2-.1-3.4-.1" fill-rule="evenodd"/><path id="Fill-57" d="M738.381,89.1c-1.8.2-3.6.3-5.3.5,1.8-.2,3.5-.3,5.3-.5" fill-rule="evenodd"/><path id="Fill-63" d="M473.681,235.7c-1.7.2-3.5.3-5.2.5,1.7-.2,3.4-.4,5.2-.5" fill-rule="evenodd"/><path id="Fill-65" d="M424.881,238.5c-1.7-.2-3.4-.4-5.2-.6,1.8.3,3.7-1,5.2.6" fill-rule="evenodd"/><path id="Fill-67" d="M580.581,307.5a15.417,15.417,0,0,1,3.7-.3c-.2.6-3.3.3-3.7.3" fill-rule="evenodd"/><path id="Fill-69" d="M471.581,442.3c1.2,0,2.3,0,3.4.1-1.1,0-2.3,0-3.4-.1" fill-rule="evenodd"/><path id="Fill-71" d="M367.381,305c-1.7.2-3.4.3-5.1.5,1.8-.2,3.5-.3,5.1-.5" fill-rule="evenodd"/><path id="Fill-73" d="M178.881,299.3c.9,0,1.8.1,2.7.1a24.369,24.369,0,0,0-2.7-.1" fill-rule="evenodd"/><path id="Fill-75" d="M427.081,306.3c-1.4,0-2.9-.1-4.3-.1,1.4,0,2.8.1,4.3.1" fill-rule="evenodd"/><path id="Fill-77" d="M159.781,295.4c-1.5.2-2.9.4-4.4.5,1.5-.2,2.9-.3,4.4-.5" fill-rule="evenodd"/><path id="Fill-79" d="M359.481,283c.9,0,1.8.1,2.7.1a24.369,24.369,0,0,1-2.7-.1" fill-rule="evenodd"/><path id="Fill-81" d="M428.081,434.3c.9-.1,1.8-.1,2.7-.2a24.519,24.519,0,0,0-2.7.2" fill-rule="evenodd"/><path id="Fill-83" d="M497.981,315.8c-1.5-.2-2.9-.4-4.4-.5,1.4.2,2.9.3,4.4.5" fill-rule="evenodd"/><path id="Fill-87" d="M65.381,424.1c-1.5-.2-3-.3-4.6-.5,1.6.2,3.1.4,4.6.5" fill-rule="evenodd"/><path id="Fill-89" d="M32.981,597.5c-1.5.2-3,.3-4.5.5,1.5-.1,3-.3,4.5-.5" fill-rule="evenodd"/><path id="Fill-91" d="M846.281,193.8c-.1,1.3-.2,2.6-.4,3.9.2-1.3.3-2.6.4-3.9" fill-rule="evenodd"/><path id="Fill-93" d="M184.781,626.3c-1.5.2-3,.3-4.5.5,1.5-.2,3-.4,4.5-.5" fill-rule="evenodd"/><path id="Fill-95" d="M170.081,627.8a3.618,3.618,0,0,1-4.6,0h4.6" fill-rule="evenodd"/><path id="Fill-99" d="M313.581,127c-.1-1.3-.3-2.6-.4-3.9.1,1.3.2,2.6.4,3.9" fill-rule="evenodd"/><path id="Fill-101" d="M474.381,97.9c-1.5.2-3,.4-4.4.5,1.5-.2,2.9-.4,4.4-.5" fill-rule="evenodd"/><path id="Fill-103" d="M479.681,97.2c-1.5.2-3,.3-4.5.5,1.4-.2,3-.4,4.5-.5" fill-rule="evenodd"/><path id="Fill-115" d="M380.081,256.9a38.267,38.267,0,0,1,14.7,0Z" fill-rule="evenodd"/><path id="Fill-117" d="M510.981,201.6c1-2.7,1.3-3.7,3.8-5.1-1,2.6-1.2,4-3.8,5.1" fill-rule="evenodd"/><path id="Fill-121" d="M630.781,465.8c.1,2.8.2,5.6.3,8.3-.1-2.7-.2-5.5-.3-8.3" fill-rule="evenodd"/><path id="Fill-123" d="M808.881,92.3c-2.2.1-4.4.1-6.7.2,2.3-.1,4.5-.2,6.7-.2" fill-rule="evenodd"/><path id="Fill-125" d="M512.881,515.2c.1,2.3.2,4.6.2,6.9,0-2.3-.1-4.6-.2-6.9" fill-rule="evenodd"/><path id="Fill-127" d="M240.681,441h6.7c-2.2.1-4.5.1-6.7,0" fill-rule="evenodd"/><path id="Fill-133" d="M426.981,248.6c-1.1,0-2.2-.1-3.3-.1,1.1,0,2.2.1,3.3.1" fill-rule="evenodd"/><path id="Fill-135" d="M267.981,440.3c1.8-.2,3.5-.3,5.3-.5-1.8.2-3.5.4-5.3.5" fill-rule="evenodd"/><path id="Fill-137" d="M229.781,441.1c1.7,0,3.4-.1,5.2-.1-1.8.1-3.5.1-5.2.1" fill-rule="evenodd"/><path id="Fill-139" d="M248.081,441.1c1.8-.2,3.6-.3,5.3-.5-1.7.2-3.5.3-5.3.5" fill-rule="evenodd"/><path id="Fill-143" d="M629.981,404.1c.1-1.3.3-2.6.4-3.9-.1,1.3-.2,2.6-.4,3.9" fill-rule="evenodd"/><path id="Fill-145" d="M364.281,272.3c1.1.1,2.2.2,3.4.3-1.2.1-2.5.1-3.7.2-.1-.3,0-.5.3-.5" fill-rule="evenodd"/><path id="Fill-147" d="M651.081,491.7c-.1-1.2-.1-2.4-.2-3.6,0,1.2.1,2.4.2,3.6" fill-rule="evenodd"/><path id="Fill-149" d="M384.281,267.7a24.369,24.369,0,0,0-2.7.1c.9,0,1.8-.1,2.7-.1" fill-rule="evenodd"/><path id="Fill-151" d="M712.381,417.7c1.5.2,3,.3,4.5.5-1.5-.2-3-.3-4.5-.5" fill-rule="evenodd"/><path id="Fill-155" d="M348.881,139.4c1,.5.5,2.8-.5,2.6a23.813,23.813,0,0,0,.5-2.6" fill-rule="evenodd"/><path id="Fill-157" d="M846.381,408.5a21.75,21.75,0,0,1-2.6-.1,22.6,22.6,0,0,0,2.6.1" fill-rule="evenodd"/><path id="Fill-159" d="M306.781,127.7l-.3-6,.3,6" fill-rule="evenodd"/><path id="Fill-161" d="M474.681,691.8c1.4.2,2.7.4,4.1.6-1.4-.2-2.8-.4-4.1-.6" fill-rule="evenodd"/><path id="Fill-163" d="M465.681,178.2c-4.8,1-9.8,1.5-14.5,3-1.2.4-5,2.6-6.4,2-2.1-.9-1.1-3.2-.2-4.4a13.455,13.455,0,0,1,10.7-5.1c3.9.1,9.3-.1,10.4,4.5" fill-rule="evenodd"/><path id="Fill-165" d="M452.281,187.1c5.3,3.7,9.4,5.5,9.8-2.8,5.7.8,3.2,10-1.2,10.7-4.7.7-7.9-4-8.6-7.9" fill-rule="evenodd"/></g></g></svg>