<svg id="Layer_1" data-name="Layer 1" xmlns="http://www.w3.org/2000/svg" viewBox="0 0 956.549 621.011"><title>1</title><g id="Character_sprinting" data-name="Character/sprinting"><path id="Accent" d="M294.4,239.512c5-19.5,9.8-39.5,17.2-58.3,4.7-11.7,9.6-23.4,14.6-35,.7-1.6,1-3.2,2.3-4,1.8-1.1,5.5-1.1,7.5-1.4a867.619,867.619,0,0,1,86.5-11.5,402.88,402.88,0,0,1,98.1,4c28,4.6,55.7,11,83.1,18.2,4,1.1,8.1,2.2,12.1,3.3,1.9.5,5,.8,6.6,1.9,3.5,2.3,4.7,11.9,6,15.9,1.8,5.4,2.8,12.9,6.1,17.5,5,6.9,12.7,12.8,18.9,18.6,21.7,20,45.6,38.2,73.7,48,43.4,15.3,89.2,24.8,134.2,34.3,1,.2,2.1.4,3.1.7-11.6,12.9-23.3,25.8-34.9,38.7-6.6,7.3-13.1,14.5-19.7,21.8-3.4,3.7-3,4.4-7.8,3.4-23.9-5.2-47.8-10.9-71.3-17.9-11.5-3.4-23.2-6.9-33.9-12.4-14.7-7.6-28.6-17-42.1-26.6q-18-12.9-35.4-26.9c-2.3-1.8-10.5-10.6-13.2-10-2.3.5-6.3,5.7-8,7.2-4.5,4-8.9,8-13.4,12-7.2,6.3-14.5,14.1-22.8,18.8-8.8,5-18.9,8.4-28.2,12.4-5.2,2.2-10.4,4.4-15.6,6.7-1.4.6-3.2,1.8-4.7,1.9-4.3.1-10.6-3.4-14.6-4.8-10.3-3.5-20.5-7.3-30.7-11.3-21.6-8.6-45.4-17.9-63.2-33.3a38.343,38.343,0,0,1-8.2-9.3c-.7-1.2-1.8-3-1.8-4.5-.1-2.3,1.2-2.8,3.2-4.3,10.1-7.6,21-14.2,31.8-20.8,2.5-1.6,5.1-3.1,7.6-4.7L312,237.912c-5.9.6-11.7,1.1-17.6,1.6" fill="#34558b" fill-rule="evenodd"/><path id="Ink" d="M481.3.612c13.3.6,26.8,1.2,40,3.1,13.1,1.9,25.3,6.6,37.2,12.4,21.3,10.4,43.2,23,56.9,43,6.4,9.3,11.7,19.1,20.5,26.5,2.1,1.7,4.3,3.8,7.1,4.3,2.2.4,4.1-.5,6.3-.6,4.1-.2,5.6,2,5.6,6,3.1-1.2,6.4-2.3,9.8-1.9,2.8.4,5,2.1,7.7,2.8,4.8,1.3,9.6-.6,14.2-2.1,11.6-3.6,24.4-6.3,36.7-5,8.1.8,17.8,4.3,13.6,14.7-3.5,8.6-16.4,13-24.6,15.1-7,1.8-16.3.2-15.7,9.8.4,6.7,1.4,13.9,8.5,16,3.9,1.2,17.7,3,9.7,9-6,4.5-8,12.3-12.6,18.2-5.8,7.5-13.6,13.6-22.8,16.3-10.2,3.1-21.1,2.5-31.6,3.7,7.4,10.2,18.1,17.3,27.9,25,10.2,8.2,20.1,17.1,32,23,10.6,5.2,22.1,8.9,33.1,13.3,11.5,4.7,23.1,9.3,35,12.9,24,7.3,49.2,12.4,73.9,16.9,12.2,2.2,24.1,1.9,36.4,2.1,12.6.2,25.2,2.4,37.6,4.7,6,1.1,12.1,1.8,18.1,2.9,2.9.5,14.3,1.7,14.7,5.9.7,6.9-6.8,10.7-12.2,12.6-2.3.8-6.1.7-8.1,1.8-2.2,1.2-1.3,3-1.6,5.4a10.641,10.641,0,0,1-5,7.8c-2.3,1.6-5.1,1.5-3.5,4.5.7,1.4,2.6,2.2,3.4,3.7a8.192,8.192,0,0,1,1.2,5.3,8.312,8.312,0,0,1-5.6,7c-4.9,1.9-10.6.5-15.6-.1-8.4-1-16.8-1.1-25.1-2.9-8.6-1.9-17-4.8-25.6-6.8-4.4-1-8.8-1.8-13.1-3.2-2.8-.9-6.9-3.2-9.9-2.5-2.8.7-5,4.1-6.8,6-2.5,2.7-5,5.5-7.5,8.2a63.511,63.511,0,0,1-5.3,5.1c-.6.5-4.3,2.8-4.4,3.4-.1,1.7,3.9,1.7,4.8,2.4,5.1,4-2.5,6.5-5.8,6.3-7.6-.5-15.2-1.4-22.7-2.5-17.9-2.6-35.7-5.5-52.7-11.5-16.9-5.9-33.4-12.2-49-21-15-8.5-29.5-18-43.7-27.8-6.9-4.7-13.8-9.7-19.6-15.7-5.7-5.9-10.3-12.7-15-19.4-11.3,10.9-22.1,22.3-34.2,32.3-11.5,9.5-25.4,14.6-38.8,20.7.4,2.8,13.5,4.5,15.9,5.2,10.9,3.3,21.4,8.7,32,12.8,17.7,7,34.4,16,40.3,35.3,5.8,19-.9,38.1-9.1,55.3a300.536,300.536,0,0,1-35,56.7c-5.9,7.5-12.3,14.4-18.7,21.4-5.5,6-10.3,13-7.9,21.5,4.4-1.4,5.3,2.1,2.4,5-2.6,2.6-7,3.1-10.5,3.5-10.5,1.3-21.3.8-31.7-.1-19.1-1.8-38.2-6.6-55.4-14.9-8.6-4.1-11.7,2.5-17.6,7.7-4.6,4-11,6.7-14.6,11.9-2.9,4.3-1,11.1,5,9.5,4.7-1.3,8.5-6.5,13.4-6.7,8.8-.4-7.8,12.2-10,13.8,4.2,3.8,9-1.4,13.3-2.3,4.1-.8,5.2,1.3,3,4.7-1.7,2.7-7,4.5-3.5,7.8,2.9,2.7,9.4,4.1,13,5.2a189.6,189.6,0,0,0,34.1,7.9c3.8.5,9.8.2,12.9,2.9,4,3.5,2.1,9.4,0,13.4-7.7,15.3-23.9,22.9-40.4,24-10.2.7-20.5,0-30.7.6-11.2.6-22.4,1.5-33.6,1.1-18-.6-29.5-13.6-38.5-28-5.7-9.1-11-18.5-15.9-28-1.9-3.7-6-7.6-6.7-11.8-.6-3.8,1.8-6.8,4.1-9.5,6.2-7,13.6-12.4,20.8-18.2,4.1-3.3,5.7-6.1,7.6-10.9,1.5-4.1,4.5-5.8,7.1-9,2.9-3.6,2-4.2-.3-7.1-2.4-3-1.4-7.5-.4-11,1.4-5,4.5-6,9-7.6,4.1-1.5,7.7-4,11.3-6.4,18.1-11.7,35.2-24.9,53.6-36.3,18.1-11.2,37-21.1,54.3-33.6-14-1.9-26.4-9.5-39.7-14-6.8-2.3-13.5-4.8-20.1-7.6-2.5-1.1-5.4-2.1-7.7-3.7s-4-3.8-6.3-5.3c-5.6-3.7-12.3-5.7-18.3-8.6a174.337,174.337,0,0,1-19-10.3,87.32,87.32,0,0,1-15.7-12.7c-3.7-3.8-7.4-8.9-12.7-10.6.6,7.4,9.7,13.5,14.7,17.9a216.33,216.33,0,0,0,25.6,19.2c-10.2,8.7-22.6,14.4-34.5,20.3-13.4,6.6-26.4,14-39.8,20.7-11.3,5.7-23.2,10.1-34.7,15.4a375.02,375.02,0,0,1-38.1,14.8,259.327,259.327,0,0,0-33.8,13.6,201.921,201.921,0,0,1-33.7,12.9c-12.9,3.9-25.2,7.5-37.6,12.8-11.2,4.8-22.4,7.8-34.3,10.4-3.9.9-8.9,2.4-11.7-1.4-2.1-2.9-2.4-7.3-3-10.7-2.3-12.9-2.5-26-4.5-39-7.8,2.4-15.2,5.2-23.4,5.6-5.2.2-8.3.8-9.6,6.4,3,.3,13.7.5,14,4.7.3,3.8-6.2,3.9-8.5,4-4.1.2-7.8-.5-10,3.5,3.2,1.2,10.4-1,11.8,3.4,1.8,5.6-6.5,5.6-9.5,6-5.2.8-4.7,4.9-4.3,9.3.5,5.8.8,11.6,1.6,17.4,1.7,12.3,4.5,24.5,5.9,36.8,1.2,10.7,1.8,21-5.8,29.5-3.1,3.4-7.3,7.4-12.2,7.8s-4.8-3-7.9-5.5c-1.9-1.5-4.3-1.9-6.5-2.7a43.23,43.23,0,0,1-7.7-4,44.593,44.593,0,0,1-11.5-10.6c-12.3-16.6-16.7-41.3-17.9-61.4-.8-12.8,0-25.6,1.2-38.3.6-6.9,1.3-13.7,2.1-20.5.3-2.1.7-4.2.8-6.4.1-1.2-.5-3.7.1-4.8-.8,1.5-2.2.4-3.6-.8-2.9-2.4-2-7.1-.5-10.2,4.6-9.6,18.5-10,27.6-10.7,24.3-2,47.4-8.5,70.7-15.5-3.3-4.9,1.9-8.2,5.9-9.9,6.2-2.6,12.6-4.9,18.8-7.4,14.1-5.6,27.9-10.9,42.6-14.5,13.4-3.2,26.3-8.6,39.5-12.6,13.6-4.1,27-8.8,40.4-13.5,26.5-9.4,53.1-19.1,78.8-30.5,6.5-2.9,12.7-6.2,19-9.6,5.1-2.7,11.1-4.7,15.4-8.6,4.1-3.7,6.6-9,11.1-12.4,4-3.1,9.6-3.1,12.9-6.9,4.5-5.1,9.9-7.4,16.1-10.4,2-1,15-5.9,14.7-8.6-9.3,0-18.8,2.8-28,4.1-9.7,1.4-19.4,2.9-29.2,3.6a259.843,259.843,0,0,1-47.5-.8c-2.4-.3-11.8-2.2-13.5.3-1.2,1.9,1.8,4.2,1.9,6.3,0,3-2.4,4.7-5.2,3.6-5.4-2.1-4.6-10.8-4.1-15.2,1-8.5,3.1-16.8,5-25.1a169.571,169.571,0,0,0-31.3,21c-7.4,6.2-14.2,14.6-22.9,19-8.4,4.2-13.4.6-13-8.7a39.624,39.624,0,0,1,2.5-12.3c.7-1.9,3.6-7.2,2.2-9.2-7.7,6.1-15.3,12.2-23.3,17.8-5.7,4-13.9,10.1-21.3,8.6-6.6-1.4-5.9-8.6-3.8-13.5,1.8-4.2,5-8,8.2-11.2,2.7-2.7,6.4-5,7.8-8.7a218.619,218.619,0,0,1-27.1,9.7c-6.6,2-11.1,10.2-18.8,9-7.6-1.2-4.6-10.6-1.5-14.7a37.438,37.438,0,0,1,7.9-7.5c2.8-2.1,7-3.9,8.4-7.3-8.9,1.7-17.9,4.6-27.1,4-5.4-.3-14.5-2.7-13.5-10,1.1-7.4,11-8,16.5-9.4,7.6-1.9,14.8-5.4,22.1-8.1,14.7-5.4,29.8-9.8,44.9-14.2l4.8-1.4c17-4.9,34.1-9.1,51.4-13.2,8.5-2,17-4.2,25.6-5.9,8.3-1.7,16.7-2.6,25-4.6-6.9-10.5,1.5-19.1,10.5-24.1-5.8-1.2-11.6-1.9-17.3-3.3-4.9-1.2-9.6-3.1-14.5-4.1-8.4-1.8-16.9-2.8-24.1-8-13.6-9.9-14.8-25.6-3.3-37.5,11.6-12,28.6-17.6,45-18.2a152.175,152.175,0,0,1,56.3,9.4c8.4,3.2,17.2,7.2,24.4,12.7,4.9,3.7,12.7,10.8,19.3,10.8-7.9-9.5-17.6-19.4-19-32.3-1.3-12.2,4.2-25.2,13.5-33.2C427.7-1.888,458.4-.488,481.3.612Zm-106.2,524.4c-4.9,7.6-11.6,13.7-17.9,20-2.2,2.2-6.6,4.9-6.8,8.3-.2,2.8,3.2,5.9,4.7,8,7.8,11.5,14.3,24.2,23.9,34.4,10.8,11.5,23.2,13.8,38.5,13.8,17,0,34.2,2.2,51.2,1.3,14.4-.8,28.6-7.2,35.7-20.2-4.7-2.4-11.3-1.3-16.3-1.2a115.859,115.859,0,0,1-20.4-1.2,86.942,86.942,0,0,1-18.1-5.1,54.126,54.126,0,0,1-8.7-4.3c-2-1.3-3.5-3.2-5.5-4.4-7.3-4.5-15.8,9.9-23.6,9.6-4.8-.2-3.1-4.9-1.1-7.5,3.6-4.8,9.9-7.7,14.6-11.2-4.4-4.1-9.4.2-13.6,2.3-5.3,2.7-10.7,5.9-16.6,6.9.4-7.6,10.7-11.6,16.4-14.7,2.5-1.4,5.7-2.6,6.3-5.7.5-2.3-.3-5.5-.6-7.8-.3-2.9-.5-3.8-3.6-4.7-3.8-1-7.5-.7-11.3-2C392,536.212,384,531.212,375.1,525.012Zm-335-119.4c-2.5.7-5.1,1.3-7.6,1.8-5.1,1.1-10.1,2.2-15.2,3.1-2.5.5-5.4.2-6.1,2.6-.4,1.2.6,3.5.8,4.8a55.433,55.433,0,0,1,.3,7.1c.3,21.7-4.3,43.2-2.3,64.9,1.7,18.3,5.6,41.5,19.1,55.1,5.8,5.9,12.9,12.3,20.3,16.3,5.7,3.2,13.7-4.8,14.9-10.2.8-3.9-.6-8.1-1.5-11.8-1.2-4.8-2.4-9.7-3.5-14.5-2.5-10.4-4.7-20.8-5.4-31.4a88.479,88.479,0,0,1,0-10.3c.1-1.9,1-6.4-.3-8.1-1.7-2.1-5.6-.7-7.9-.5a23.811,23.811,0,0,1-7.5-.6c-5.9-1.5-6.9-6.2-.5-8.4,4.5-1.5,12.7.7,16.5-2.2,4.4-3.4-4.5-3.9-6.6-4-2.8-.1-12,.6-11.6-4.6.3-3.9,8.3-4.1,11.1-4.3,6-.3,13.5,1.9,16.1-5.3,1-2.9-5.2-4.3-6.7-5.8-3.8-3.5-5-9.4-5.4-14.3-.3-4.8,4.4-21.4-2.8-21.8C45.9,402.912,42.3,405.012,40.1,405.612Zm353.1,95.8c-4.2,5-7.9,10.5-11.8,15.8,9.2,5.1,18.7,9.2,28.2,13.6,4.3,2,7.4,3.6,11.6.6,3-2.2,5.3-5.2,8.2-7.5,4.2-3.2,8.6-6.2,13-9.3-12.8-4.7-25.8-8.8-38.6-13.4C399.1,499.312,396.7,497.312,393.2,501.412Zm-105.2-16c2.7,2.8-2.5,10.5-3.6,13.1a212.517,212.517,0,0,0,25.2-3.7c2.8-.6,1.8,2.9.7,4-1.3,1.4-3.9,1.8-5.7,2.3a166.578,166.578,0,0,1-19.7,3.7c3,3.7,10.3,9.6,8,15.2-4.2-3.6-7.3-8.5-12-11.7-1.4,2-4.2,9.1-7.2,8.7-4.8-.7.1-9,1.1-11-3.3,0-15.5,2.9-17.2-1.1-1.7-4.1,10.1-4,12.2-4.9l-.4-.5-.4-.5c-1.6-2-3.2-3.9-3.4-6.6,3.6,1.3,6.1,7,10.1,7.1,3.8.1,5.5-5.6,6.9-8.3C283.3,489.512,285.9,483.412,288,485.412Zm411.3-53.9c8.2,6.9,2.6,20.8-3.6,27-6.9,7-22.4,13.4-31.1,6.3-4.8-3.9-3.1-9.9-1.9-15.1,1.3-5.8,2.1-10.6,6.9-14.6C677.1,429.112,691,424.512,699.3,431.512Zm-16.6,4c-8,1.7-16.1,9.7-18,17.9-2.5,10.8,8.7,11.6,16.1,9.9,9.3-2,19.1-8.8,19.6-19.5C700.8,434.712,688.9,434.212,682.7,435.512Zm-580.3-46.5c-11.9,4.4-23.2,10.5-35.7,13.2-3.8.8-5.4,1.7-6.3,5.2-1.3,5-2.6,10-1.6,15.2,2,10.8,17,9.5,25.4,9.1,4.3-.2,12.5.6,16.3-2.1,2.7-2,1.6-5.6,1.2-8.5C100,410.512,101.7,399.712,102.4,389.012Zm651.1-103c-4.4.8-12,4.4-5.7,8.9,4.2,3,10.5,3.4,15.4,4.1,9.7,1.4,20,2.7,28.3,8.1,15.5,10.1,13.6,29.1,9,44.7,3.3,2,13.2-10.9,15-13,7.5-8.5,15-17,22.6-25.4,3.2-3.6-23.3-16.1-25.7-17.2-12.6-5.9-24.4-9.8-38.5-10.9C767.2,284.912,760.2,284.712,753.5,286.012Zm-54.7-31.6c-1.2,3,.9,4.4,2.8,6.5,10.8,11.7,18.5,28.3,24.5,42.9a158.743,158.743,0,0,1,7,22.2c1.8,7.5,7.6,9.5,14.6,11.6,16,4.9,32.9,6.5,49,11.3,4.3,1.3,5.2-8.2,5.4-10.6.8-6.8.1-14-3.5-20-6.8-11.4-20.4-13.8-32.6-15.8-6.9-1.1-16.1-2.3-21.6-7-2.8-2.4-3.1-5.1-1-8.1,3.9-5.4,10.8-6.1,17-6.5,3-.2,21.6,1.7,22.2-.5-9.3-3-18.8-5-27.9-8.5-7.1-2.7-14.3-5.2-21.5-7.8l-7.2-2.5c-7.3-2.6-14-5.7-21-8.8C702.4,251.712,700,251.312,698.8,254.412Zm157.2,49.4c-2.3,3.1-4.6,5.7-6.4,9.2-2,4.1-5.4,6.7-8.2,10.2a299.309,299.309,0,0,1,42.7,10.6c7.2,2.4,14.7,3.6,22.1,5.4,6.2,1.5,12.8,3.7,19.3,2.4-7.3-10.1-26.8-7.3-32-19.5-3.5-8.3,5.1-14.9,12.1-16.4,12.3-2.5,25.4-2.7,37.8-3.6.1-4.8-45.1-7.2-49.6-7.6-7.9-.7-16.2-2.2-24.2-2.5C862.3,291.812,859.9,298.612,856,303.812Zm-172.7-34.9c-4.4,4.2-8.6,8.5-13,12.7-2.9,2.8-6.7,5.7-9,9-2.9,4.2,2.2,6.2,5.5,8.2,8.5,5,17.3,9.7,25.9,14.5,7.8,4.3,15.8,9.8,24.4,12.3,4.6,1.3,8.9,3.4,13.3,5.2-2.1-19.1-13.1-36.5-23.3-52.5-2.3-3.7-4.7-7.3-7.1-10.9-1.2-1.8-3.3-6.2-5.8-6.6C690.7,260.512,685.5,266.812,683.3,268.912Zm222.1,48.7c5.3,3,10.6,4.6,16.6,2.3,1.5-.6,2.9-1.2,4.4-1.9C922.4,312.512,910.6,315.912,905.4,317.612Zm-439.9-66.6c-9.4,4.2-19.5,8.5-27.7,14.9-3,2.4-9.8,7.3-8.2,11.8,1.4,3.9,8.8,7.1,12.4,8.3,18.7,6.2,39.9,1.7,57.1,13,4.7,3.1,6.2,7.1,9.6,11.1,3.1,3.7,7.1,3.2,11.3,1.7,5.5-2,10.6-5,16.1-7,2.8-1,7.6-1.7,7.9-5.5,1.4-18-2.5-41-18.3-52C508,235.012,483.4,243.012,465.5,251.012Zm-10.1,42c-.5,2.3,17.2,6.4,19.1,6.9,10.7,2.9,20.6,9.9,31.7,11.1,1.9-4.3-13.4-11.1-15.8-12C479.4,295.012,467,294.312,455.4,293.012Zm347-8c13.4,5.5,26.4,12.2,37.6,21.6,3.9,3.2,13.3-12.1,15.4-14.4C837.6,291.412,820,288.012,802.4,285.012Zm-250.3-107.6c-12.4,8.2-23.2,18.9-36.9,25.2,4.3.7,8.9-2.1,13-3.1a112.915,112.915,0,0,0,11.8-2.9c2.4-.8,12.2-6.1,14-2.5,2.9,5.6-17.4,9.5-20.2,10.4-9.7,3.2-19.4,6.6-29,10.1-9.3,3.4-18.6,7.1-28.3,9.5-9.8,2.5-20.1,3.1-29.5,7-8.3,3.4-15.5,9.1-23.5,13-8,4-17.2,6.5-24.1,12.4a98.182,98.182,0,0,0,26.2,19.9c1.6-12.3,15.9-19.2,25.8-24,21.4-10.3,53.6-25.8,75.5-8.4,16,12.7,18.1,36.9,18.1,55.8a90.945,90.945,0,0,0,12.3-5.6c2.8-1.4,2.8-5.4,3.2-8.1a79.619,79.619,0,0,1,3.1-12.8c3-9.3,6.8-18.3,10.3-27.3,5.8-14.6,12.9-29.1,16.5-44.5,2.3-10,5.1-27.3-7-32.3C572.9,165.112,560.6,171.812,552.1,177.412Zm-54.3-40.9c-2,1.4-1.3,5.4-1.1,7.5.5,7.4.2,14.9.4,22.3.3,9.1.4,25.7,9.7,30.8,6.4,3.5,14.3-1.7,19.5-5.3,8.6-6,16.6-13,25.3-18.8,10.4-6.9,30-16.6,40-3.5,5.4,7.1,4.6,17.6,3.3,25.8-1.8,10.9-5.9,21.1-10,31.3-8.5,20.9-17.3,42.2-22.1,64.4,10.8-6.4,19.1-15.6,28.5-23.7,7-6,17.3-12.9,18.9-22.7.4-2.2,2.5-3.8,4-5.3a23.388,23.388,0,0,0,4.5-6.3,65.159,65.159,0,0,0,5.5-17.2c2.3-12.4,1.2-24.8-.9-37.2-1-5.6.4-11.6-.9-17-.9-3.8-3.6-3.6-7.1-4.4-12.8-3.1-25.6-6.1-38.4-9.2-5.2-1.2-10.9-3.6-16.3-3.5-4.4.1-8.2,2.7-12,4.6-6.3,3.1-16.3,8.6-23.5,5.5-8.4-3.6,1.4-11.9-2.8-15.8-2.9-2.7-11.5-1.1-15.4-1.7C504.7,136.812,499.8,135.212,497.8,136.512ZM630,243.912c-6.1,1-9.6,3.6-13,8.8-3.4,5.3-3.8,7.9,1,12,5.3,4.5,10.8,8.9,16.3,12.9,7.1,5.1,14.9,8.9,21.9,14.2,3.1,2.3,17-15.6,19.4-18.1,3.3-3.4,6.7-6.8,10.3-9.9,1.3-1.1,5.4-3.8,5.4-5.7,0-4.9-10.9-9.3-14.4-10.6a72.131,72.131,0,0,0-24.4-4.4C645.3,243.012,637.4,242.712,630,243.912Zm27.3-21.5c-5.7,3-11.7,5.6-17.5,8.6-2,1.1-15,6.5-14.3,9.7,14.5-.9,29-3.4,43.5-.6,6.5,1.3,12.7,3.4,18.1,7.3,4.1,3,7.3,8.6,11.3,3.6-8.3-4.7-15.9-11-23.3-17.1-3.2-2.7-6.6-5.2-9.9-7.8C663.4,224.612,660.1,220.812,657.3,222.412Zm-343.8-70.9a122.922,122.922,0,0,0-13.4,2.9c-18.1,4.2-36.2,8-54.3,12.4-36,8.8-73,17.4-107.4,31.5,2.9,3.2,10.5.9,14.1.3,7-1.2,13.8-3.4,20.7-5,6.8-1.6,13.6-3.5,20.4-4.8,3.1-.6,8.7-1.4,8.8,3.3.2,6.7-12.8,11.7-17.6,14.1-5.1,2.6-10,5.5-14.9,8.5-3.8,2.4-10.9,5.6-12.2,10.4,12.4-5.3,24.9-10.5,37.3-16,4.7-2.1,9.4-4,13.8-6.5,3-1.7,6.8-4.6,10.3-4.9,4.7-.4,5.5,3.9,3.5,7.4-2.5,4.3-7.7,6.8-11.5,9.8-4.8,3.9-9.1,8.5-13.5,12.9-3.6,3.6-8.3,7.2-10.2,12.2,6.5,2.2,13.9-4.8,18.7-8.2,7.5-5.4,14.5-11.3,21.7-17.2,3.7-3,8-7.8,12.9-8.7,6.1-1.1,5.6,5.9,4.1,9.7-3.3,8.6-11.1,15.8-11.6,25.5-.3,6,4.7,3.7,8.1,1.3,5.7-4,9.5-10.2,14.7-14.8a157.245,157.245,0,0,1,42-27.3c2.8-1.2,3.7-5.4,4.6-8,1.2-3.8,2.7-7.5,4.2-11.2,3.3-8.1,6-17,10.6-24.5,1.3-2.1,4.6-4.2,1.9-5.5C317.9,150.612,315.1,151.312,313.5,151.512Zm131.2-13.7c-4.7.5-9.4.5-14,1-7.6.8-4.3,10.1-5.5,15.6-3.6,16.4-21,19.5-34.2,11.8-7.4-4.4-11.9-10.6-15.9-17.9-2.3-4.2-4-4.8-8.7-3.8-3.2.7-6.2.6-9.5.8-4.1.3-4.5,1.2-4.6,5.1-.1,3.5-.6,5.9-2.9,8.7-4.4,5.4-11.9,8.9-18.2,11.7-6.3,2.7-13.5,4.7-17,11.2a32.2,32.2,0,0,0-4.1,10.8c-.6,4,.8,6.5-1.5,10.2-4.9,7.7-7.1,16.1-9.6,24.9-.8,2.9-1.1,4,2,4.8,4.5,1.1,10.8-.6,15.4-.8,3.3-.1,5.2-5.9,6.2-8.2,2.1-4.5,4.6-8.8,7.1-13.2,5.8-9.7,11.9-19.4,19.4-27.9,5.7-6.4,14-14.4,21.3-5.4,7.1,8.8,12.2,19.1,20.7,26.8,7.5,6.7,15.2,6.9,23,.5,7.6-6.3,13.5-14.9,18.2-23.5,5.1-9.3,9-19.2,14-28.5,1.6-2.9,8.8-10.8,6.6-14.2C451.5,135.912,446.8,137.512,444.7,137.812Zm39-2.1c-4.1.2-8.2-.3-12.3-.3-7.4-.1-13.6.1-17.3,7.2-3.3,6.3-6.1,12.9-9.1,19.4-6.5,14-12.9,28.2-22.9,40.1-8.9,10.5-20.3,15.8-31.9,5.8-5.1-4.5-9-10.2-12.7-15.9-2.9-4.5-6.3-12.5-11.2-15.1-5.5-2.9-11.8,3.8-15.1,7.5-5.6,6.2-10.4,13.4-14.9,20.4-3.3,5.1-6.4,10.3-9.6,15.4-1.3,2.1-6.6,8.9-4.8,11.5s10.4.8,12.8.6c5.9-.6,11.9-.8,17.8-1.3,18.5-1.6,36.7-5.7,55.2-6.7,12.2-.7,24.2-3.1,36.2-5.2,11.7-2.1,23.4-3.5,35-6.3,6.8-1.6,13.6-3.2,20.4-4.9,2.3-.6,13.4-2.2,14.1-5.2-7.6-1.3-11.6-4.3-14.4-11.7-3.4-9.3-3.8-19.7-4.1-29.6-.1-3.8-.1-7.6-.1-11.4v-4.5c0-2.7,1.2-7.6-1.3-9.5C491.3,134.112,486.4,135.612,483.7,135.712Zm151.7,60.3a83.321,83.321,0,0,1-6.9,35.9c5.3.8,11.6-5.8,16-8,1.7-.9,13-5,9.2-8.1C646.7,210.012,642.1,202.012,635.4,196.012Zm151.5,10c1.5,3.1-.4,6.9-1.4,9.8,8.1,1.9,16.1,3.8,24.2,5.5,6.1,1.2,4,4.9-1.3,4.7-7.4-.4-14.3-3.5-21.6-3.9-7-.4-7.8,5.7-13.8,6.9.2-3.4,2.9-5.7,4.9-8.2-3.2-1.7-6.5-3.2-9.6-5-1.6-.9-6.1-4.9-4.4-7s6.3,1.9,7.9,2.7c2.3,1.2,6.9,4,9.6,3.2C785.1,213.612,784.3,208.312,786.9,206.012Zm-116.2-80.1c-3.3.2-6.8-.9-9.9.6-3.1,1.4-6.8,4.6-9.4,6.8-2.5,2.1-3.7,4.7-6.9,5.9-3.1,1.2-6.3,1.1-7.5,4.9,2.8.8,8.4-.3,10.6,1.8,3.2,3-2.4,6.3-4.7,7.3-3.3,1.4-6.1.9-9.5.7-1.5-.1-1.5-.6-2.7.2-4.5,2.7-1.4,12.4.1,15.9,7.1,17.3,31.6,11.5,45.7,9.7-4.5-4.5-11.8-9.5-12.2-16.6-.1-2.1.4-5.9,3.1-6.1,2.2-.1,4.8,3.1,6.1,4.4,4,3.8,9.2,10.2,15,10.7,7.7.7,13.7-11.8,16.9-17.3-3.9-.7-8.3-.7-10.6-4.6-2.7-4.6-2.8-11.6-2.7-16.8,0-4.4,1.4-9.2-4.4-9.4C682.3,123.812,676.2,125.512,670.7,125.912Zm-519.6,11.3c-1.1,2.5-6,3.4-8.2,4.1-8.2,2.5-16.2,5.7-24.1,8.8-16.1,6.3-32,13.2-46.7,22.5-2.7,1.7-1.4-1.6-.7-2.8,1.6-2.7,5-4.6,7.5-6.2,6.8-4.5,14-7.6,21.5-10.6,15-6,30.3-12.3,45.7-17.2C147.9,135.212,152.7,133.912,151.1,137.212Zm186.8,12.2c-3,.3-6.5-.4-9.4.6-3.7,1.3-3.1,3.8-4.2,7-1.9,5.4-3.9,10.7-5.9,16,7.3-.3,14.2-6.1,20.4-9.4,3.5-1.9,15.6-8.1,11.9-13.8C348.4,146.212,341.2,149.012,337.9,149.412Zm82.7-9.4c-4.5-.1-9.4,1.3-14,1.5-6.1.3-12.1,1.5-18.2,1.7-4,.2-7.9,1-11.9,1.5,3.9,9.1,11.7,17.1,21.3,20.5,7.6,2.6,18.3,3.1,23.5-4.2C424.3,156.912,429.2,140.212,420.6,140.012Zm234.1-37.8c-4.9,3.3-8.8,7.9-12.9,12.1-10.3,10.4-20.9,21.6-25.3,35.9-.6,2,4,3.7,5.3,3.8,2.6.2,3.2-1.2,4.2-3.4,2.6-5.5,3.6-11.7,7.7-16.4a144.643,144.643,0,0,1,16.9-16.3c4-3.4,13.6-8.1,14.8-13.6C666.6,97.612,657.7,100.312,654.7,102.212Zm-126.5,38c-2.8.8-3,3.4-3.6,6.1-2.5,11.1,23.2-1,26.8-2.8-1.2-3.6-12.9-2.9-15.7-3.1C533.6,140.412,530.3,139.612,528.2,140.212Zm152.3,5.8c-3.8.1-2.1-15.5,2.3-13.9C686.5,133.512,683,145.912,680.5,146.012Zm-537.1-17.9c-5.8,5-15,5.7-22.3,7.3-10.7,2.4-21.3,5.4-32,8.2-6.7,1.7-2.9-2.4.4-4,5.8-2.7,12.3-4.1,18.5-5.6,6.7-1.6,13.5-2.7,20.2-4.4C132.9,128.512,138.8,125.412,143.4,128.112Zm182-108.6a56.625,56.625,0,0,1,18.7,6.7c4.7,2.8,4.5,7.2-1.5,4.7-27.9-11.9-62.5-4.7-89.8,5.8-3,1.2-2.8-1.4-1.9-3.3,1.3-2.7,3.9-4.2,6.5-5.5,7.7-3.7,16.6-5.9,25-7.4C296.5,17.912,311.4,17.012,325.4,19.512Zm4.1-17c3.5,1,7.6,3.3,9.8,6.4,2.5,3.5.5,5.4-3,3.3-3.9-2.3-7.5-4.6-12-5.9-2.4-.6-2.3-2.1-.6-3.5C325.3,1.612,327.8,2.012,329.5,2.512Z" fill-rule="evenodd"/></g></svg>