<svg id="Layer_1" data-name="Layer 1" xmlns="http://www.w3.org/2000/svg" viewBox="0 0 763.637 704.803"><title>1</title><g id="Character_sitting" data-name="Character/sitting"><path id="Accent" d="M145.359,601.7q.15-60.9,2.3-121.9c1-30.1,2.3-60.2,4.8-90.2,1-11.9,2.2-23.8,4-35.6,1.1-7.3,2.2-15.3,5.3-22.1,1-2.2,2-3.7,4.1-4.8,7.9-4.2,18.8-4.8,27.6-5.7a347.346,347.346,0,0,1,43.3-1.6c-.8,15.5-1.7,31-2.5,46.5-.6,11.9-1.3,23.9-2,35.8-.4,7.5-1.4,15.3-1.2,22.8.1,6.1,7.4,12,11,16.8q6.75-20.7,13.5-41.4c2.4,6.2,4.9,12.3,7.7,18.2a79.969,79.969,0,0,0,6.1,11.6c2.2,3.3,2.9,3.8,6.7,3.2,4.6-.7,8.2-2.1,10.9,1.4,2.4,3.1,4.7,6.2,7.3,9.1,29.1,32,74,51.9,115.5,60.9,24.5,5.3,49.2,9.6,73.6,15,37.4,8.2,75.7,16.4,111.4,30.5a97.586,97.586,0,0,1,16.3,7.8c5.6,3.5,9.6,8.9,13.5,14.2,9.5,13,20.7,34.2,6,47.8-11.2,10.4-28.8,11.4-43.4,12.6-15.1,1.2-30.3,1.8-45.4,2.3-41.2,1.3-82.5,1.6-123.8,1.7-37.7,0-75.4-.2-113.1-.9-17.1-.3-33.6.1-50.1-4.3-33.9-9-67.6-18.3-101.4-27.6-2.6-.6-5.3-1.3-8-2.1" fill="#34558b" fill-rule="evenodd"/><g id="Ink"><path id="ink-2" data-name="ink" d="M489.459,246.7c-1.6,1.6,1,2.9,2.1,3.3-.1-1.6-.9-2.3-2.1-3.3Zm-216.8,309c-.6-1.4-1.5-2.6-3.2-1.9-2.8,1.1,2.8,1.9,3.2,1.9ZM511.759,324c1.1.1,5.8-.1,4.3-2.7-1.7-2.9-3.9,1.8-4.3,2.7Zm-83.4-25.9c2.4-2.1,4.6-5.3,4.7-8.6-2.3,1.5-3.6,6.2-4.7,8.6Zm58.6-42.1c2,.1.2-2.8.2-3.3,0-1.2,1.2-2.3,1-3.7,0-.1-2.1-4.7-2.6-4.9-1.5-.8-2.4.7-3.8,1.1-2,.7-3,.1-5.2.3-1.9.2-3.5,1.1-5.5,1.1-.5,0-1-1-1.5-1-.9.1-.9,1.2-1.5,1.2-2.1.2-2.2-.7-4.2-1.4-3.3-1.3-5.6,1.7-5.5,5.3.1,4.8,5.1,6.7,8.9,7.8,4.9,1.4,7.7,2.3,12.7,1.4,1.4-.3,2.9.2,4.1-.8,1.5-1.3.7-4.2,2.5-5.5a9.27,9.27,0,0,0,.4,2.4Zm-173.3,190.1c.4,3.1-.4,4.7,2.6,6.8,1.8,1.2,4,2,5.9,3.3,2.7,1.8,6.9,2.9,9.3,5,1.5,1.3,1.8,5,4,5.5,1.8.4,4-2.9,4.6-4.4.7-1.6.2-3,.5-4.6.2-1.1,1-1.3.9-2.6-.2-1.4-1.5-2.1-2-3.2-.5-1-.7-2.3-1.1-3.1-.9-1.8-3-5.6-4.9-6.8-1.6,4.1-2.8-.1-5-1.3h-2.4c-.4-.4-.9-.8-1.3-1.2a10.966,10.966,0,0,0-3.6.7,7.719,7.719,0,0,0-1.5-.2c-.7.2-1,.6-.8,1.1.3-.1-1.4.9-1.5,1-3.3,2.2-6.2,3.1-6.8,7.8,1-1.2,2.1-2.5,3.1-3.8Zm25.4-167.8c-3.5-9-2.4-17-2-26.4.1-2.2.6-7-1.8-8.4-2.9-1.8-5.3,2.3-6.8,4-2.6,2.9-6.2,5.6-7.5,9.5-1.2,3.4,0,7.5.9,10.8,1,3.6,2.2,8.4,5.4,10.4,3.5,2.2,8.3,1.9,11.8.1ZM461.659,470c-.5-6.9-10.1-4.5-14.4-2.4-3.2,1.6-5,4-7.1,6.9-2.3,3.3-3.1,4.2-2.9,8.1.2,3.6,0,7.1.9,10.7a6.471,6.471,0,0,0,1.7,3.4s2.1,2.1,1.5,1.7c2.7,1.5,6.6,1.8,9.8,2,4.5.3,5.6.4,7.4-3.9.3.7.7,1.5,1,2.2.1-.5,1.4-6.7,1.1-6.7-.5.1-1,1.6-1.3,1.9.2-2.9,2.2-5,3.2-7.6.9-2.3,1.3-5,2-7.4s1.4-5.6.8-8.1c-.9-3.1-1.2-2.2-3.7-.8Zm58-152.3c1.6,1.5.2,3.9.4,5.7,2.1-1.3,1.4-2,2.2-4.1.5-1.4,2.1-4,3.5-1.7.6.9-1.3,2.2,0,2.8.8.3,2.8-2.2,3.1-2.6a14.809,14.809,0,0,0,4.4-9.3,13.846,13.846,0,0,0-.3-4.2c-1.1-1.7-3.8-.7-3.6-3.8,1.1.6,2.2,1.1,3.3,1.7.3-3.5-3.4-5.5-5-8.3-1.8-3.1-3-5.4-5.9-8.1-1.3-1.3-3.5-3.8-5.3-4.4-1.4-.5-1.9.2-3.3.2-2.9,0-7.2-.7-2.9,2.4a11.256,11.256,0,0,0-2.7,1.3c-.5.5-.8,1.8-1.4,2.2-1.4.7-2.4-.7-4,.9s0,2.7-.3,3.4c-1.1,2.1-2.5,1-2.5,4.2.1,5.2,3.1,11.4,4.7,16.3,1,2.9,2,7.3,6,6.2-.2,1.4-.5,2.7.4,3.9.8-1,1.1-3.1,1.7-4.3.8-1.7,2.2-3.4,3.1-5-.1,2.6-.4,3.3-2.2,5.3,2.4.2,5.3,2,6.6-.7Zm-171.3,75.8c2.1-1.6-.7-3.4,3.6-2.5,1.1.2,0,1.5,1.6,1.5.6,0,2.1-1.5,2.6-1.9.4-.3,2.1-2.7,2.4-2.8-.5.3,2.1-.8,1.3-.1a10.721,10.721,0,0,0,3.4-5.8c1.7-6.1,1.5-13.4-2.1-18.7-1.5-2.2-2.7-4.9-4.9-6.4-3-2-8.1-3.2-11.4-4.5l1.1-2.7c-9.3,4.2-15.7,14-16.5,24-.3,3.6-1.3,8.2.9,11.3,2.3,3.3,8,6.8,11.2,3.1a4.265,4.265,0,0,0,3.1,5c.8.2,1.6-.4,2-.3.4.3,1.3.9,1.7.8Zm-85.5-208.4c-6.3-.7-5.3,10.6-4.1,14,.9,2.7,4.3,6.5,6.1,8.9a27.576,27.576,0,0,0,8,6.8,20.459,20.459,0,0,0,2.7,1.2,1.606,1.606,0,0,1,1.1-.5,3.588,3.588,0,0,0,1.7,1.5c2.3.7,6,.6,8.3.5,3.6-.2,7.9-2.3,11.5-3a11.582,11.582,0,0,0,4.1-1.3c.8-.4,2.2-3.9,2.4-.5.9-.6.6-1.5,1.3-1.9s2.7-.8,3.5-1.7a28.411,28.411,0,0,0,3.3-5.7c.5-1.1,1.5-3.9,1.4-5-.2-2.4-.9-1.8-3-2.8a18.134,18.134,0,0,0-3.5-1.6c-.2,0-.5.8-.8.7-.5-.1-.7-.7-1-.8-2.5-.8-5.4-3.2-8.5-3-1.3.1-2.6,2.1-3.3,2-1-.2-.5-2.3-1.3-3.1-1.9-2-8.1-1.7-10.5-2-6.3-1-12.8-1.8-19.4-2.7Zm219.2,171.8c.6-4.7,1.3-9.3-3.8-11.7-1.9-.9-3.5-.6-5.5-.8-2.6-.3-2.2-1.4-4.1,1.3-1.1-1.4-.4-1.8-2.1-2-.7-.1-3.8,2-4.6,2.3-3.4,1.4-7.7,1.3-10.2,4s-4.5,5.3-5.5,9c-.5,1.9-.9,3.8-1.5,5.6-.7,2-2.3,3.7-2.8,5.7-2.2,8,7.2,15.4,13.7,17.5a4.3,4.3,0,0,1,2.5.2,6.39,6.39,0,0,1,1.5,1.3c2.1.6,2.6.4,4.7-.5,3.5-1.6,7.5-2.1,10.2,1.6.8-4.3,3.8-1.7,5.2-4.5.8-1.5-.9-5.7.1-6.8,1.7-1.9,7,1.4,6.8-2.9-.1-1.6-1.8-2.1-2.5-3.3-1.1-2.2-.5-4.6,1.1-6.6.1.3.7,2.6,1.4,2,2-1.6-1.3-4-2-4.9-1.2-1.4-2.2-2.5-2-4.5.2-1.2,2.1-2.5,2-3.7-.1-.7-2.5,1.6-2.6,1.7Zm-91.5,50.6c.1,3.3-2,3.7-3.3,6-.4.6-.4,2.1-.9,3-1,1.7-1.7,1.8-2,3.4a10.627,10.627,0,0,1,.5,1.8c.1,2.3-1.5,4.2-1,6.7.6,3.6,3.3,7.6,5.3,10.6,4.3,6.7,10.4,12,18.7,12.5,5.6.3,18.6-1.9,19.8-7.7a18.028,18.028,0,0,1-.8-2.1,1.941,1.941,0,0,1,1.1-2.1,3.088,3.088,0,0,0,1.6-1.1,5.071,5.071,0,0,0-.9-1.6c.2-.8,1.5-.8,1.4-1.3a38.869,38.869,0,0,0-1.1-4.3c-.4-1.8-.6-3.6-.9-5.4-.3-1.5-1.2-2.2-1.4-3.6-.2-.9.8-1.8.7-2.8a7.492,7.492,0,0,1-1.5-2,3.5,3.5,0,0,1,.6-2.2c-.9-6.5-10.2-12-16.8-12.2-3.5-.1-9.6-.3-12.8,1.5-2.1,1.3-3.5,5.7-6.3,2.9ZM248.659,638c-4.6-2.1-8.8-4.3-13.8-5.3-3.6-.7-6.7-2.8-10.3-3.4-8-1.5-16.6-2.8-24.3-5.6-8.2-3-17.2-4.1-25.6-6.6a55.046,55.046,0,0,0-12.1-2.3c-4.2-.2-8.5-2.6-12.7-2.2-3.5.3-6,3-8.7,4.9a114.267,114.267,0,0,1-11.2,6.7c-4,2.2-8.5,3.3-12.5,5.4-3.3,1.8-6.6,3.5-10,5.1-18.1,8.6-35.7,16.6-52,28.5,5.3,1.6,11.3,0,16.5-.6,7.5-.8,14.9-1.4,22.3-2.8,4.3-.8,12.7-3.9,16.9-1.5,3.6,2.1,3.3,7.4,3.9,11,3.4-1.3,6.8-2.7,10.3-3.9,2.7-1,7.1-3.7,9.9-3.8,7.7-.3,6.9,10.6,6.1,15.5,4.5-1.5,8.8-2.6,13.1-4.5,3.5-1.5,7.4-1.9,10.8-3.7,8.4-4.5,17.8-7.3,26.9-10.5,10.2-3.6,20.4-7.3,30.5-11.1,4.2-1.6,8.3-3.7,12.5-5,4.4-1.3,9.1-2.3,13.5-4.3Zm100.6-412.3c-.6,6.1,0,12.2.2,18.3.2,7.1.2,14.2,1.2,21.3,1.7,12.8,4,25.6,8.6,37.7,4.2,11,11.2,18.8,23.1,21.2a27.9,27.9,0,0,0,27.9-10.1c7.1-8.9,9.2-20.1,13.4-30.3,2-5,3.5-10.1,5.2-15.2,1-3.1,6-11.9,4.6-15.1-1.4-3.1-9.7-4.1-12.5-5.9-4.5-2.7-8.8-8.2-12.2-12.2-2.3-2.7-3.7-4.7-5.3-.4-1.9,5.1-.5,11-2.3,16-1.7,4.9-5.5.1-5.9-3.1-.7-6.1.2-13,.4-19.1.5-11.4,1.3-24.6,11.6-31.7,9.8-6.7,20.3-8.7,25.8-20.3,2.2-4.6,4.7-9.5,3.4-14.6a157.608,157.608,0,0,0-6.2-17.9c-4.4-11-11.3-20.6-17.3-30.7-.8-1.4-1-3.1-2.8-3.5-2-.4-6.7,3-8.6,3.5-5.3,1.5-10-1.6-14.7,1.9-3.7,2.8-6.9,6.9-12,7.2-2.2.1-5.1-1.8-7-1.4-2.4.6-3.1,4.2-4,6.2-2.1,4.6-4.5,10.4-8,14.1-1.2,1.3-3.3,1.7-4.3,2.9-1.2,1.4-.5,4.2-2.2,4.4-1,.1-1.8-1.2-2.6-1.5a12.439,12.439,0,0,0-4.3-.6,17.75,17.75,0,0,0-8.1,2.1c-5.7,3.1-7.7,7.8-.9,10.6a28.677,28.677,0,0,0,8.6,2.2c3.2.3,6.5-.7,9.7-.3,6.2.8,8.1,5.9,9.7,11.2,2.2,7.3,4,14.7,6.4,21.9,2,5.9,5.7,11.9,6.7,18,.6,3.8-.2,3.5-2.7,5.8-1.9,1.8-3.1,4.1-5.2,5.9-5.6,4.8-10.7,3.5-17.4,1.5Zm374.9,353.9c-.2-1.3-27.7,1.2-30.8.9-5.3-.5-11,.9-16.6.7-4.9-.2-11.9-2.1-16,.3-1.5.9-1.5,1.9-3.9,1.5a14.165,14.165,0,0,1-6.1-3.4c-4.6-4-7.4-10.3-10.3-15.5-6-10.4-11.1-21.1-16.1-32-10.2-22.5-20.1-45.1-30.3-67.6-5.1-11.1-9.9-22.3-15.4-33.2-2.3-4.7-4.9-9.8-6.7-14.6-2-5.3-4.5-10.3-6.3-15.8-3.7-11.6-8.1-22.9-11-34.8-.7-3-1-6.2-1.9-9.1-.9-3.2-2.8-5.9-4-8.9-1.2-3.1-1.2-5.9-1.8-9.1s-2.1-6.3-3.1-9.3c-5.4,3.3-11.6,6.2-16.6,10.1-4.9,3.8-12.1,7-10,13.9,1.9,6.3,5.2,12.1,7.1,18.3,2.2,7,4.9,13.9,7.1,21,4.6,15.2,8.6,30.5,12.7,45.8,1.9,7.2,4.3,14.4,5.7,21.7.7,3.8.6,7.2,2,10.9,1.4,3.6,2.6,7.1,3.7,10.8,2,6.6,3.9,13.1,6,19.6,1.2,3.5,2.1,7.1,3,10.7.5,2.2,2.2,6.4,1.8,8.6-1.4,6.5-10-.1-12.1-2.8-4.8-6.2-8.2-13.7-11.8-20.6-14.4-27.7-21.4-57.5-28.8-87.7-1.9-7.9-3.8-15.8-6-23.6-2.3-8.2-3-16.8-5.7-25-2.8-8.4-5.6-16.6-7.7-25.3-.9-4-2-8-2.8-12.1-.4-2.2-.5-6.1-3.3-6.6,1.9,13.5,2.5,29.4,7.9,42.1,4.9,11.5,8.8,27.3,3.8,39.5-2.4,5.9-6.1,10.9-9,16.5-3.2,6.3-5.2,13.5-7.3,20.1-4.4,13.8-5.7,28.4-8.6,42.5a45.627,45.627,0,0,0-.2,19.8c.4,2.3-.3,4.2,1.6,5.7,2,1.5,6.6,1.8,9.1,2.7,7.5,2.6,13.9,4.6,21.8,5.4a99.118,99.118,0,0,1,21.6,4.7c12.8,4.4,26.1,7.7,38.7,12.1,6.9,2.4,13.5,6.7,20.2,9.8,6.9,3.2,14.2,5.3,20.7,9.3,7,4.3,13.9,9.3,20.5,14.2,6.1,4.5,9.1,10.1,11.6,17,4.9,13.3,17.1,30.5,5.8,43.9,4,1.7,8.5,2.4,12.3,4.3,1.3.6,1.7,1.3,3.2,1.6,2,.5,4.5.1,6.5.2,2.9.2,9,2.3,11.8,1.4,2.6-.8,2.7-4.6,4.6-6.5,2.8-2.8,5.5-1,8.9-1.3,5.1-.5,10.2-1.1,15.2-1.6,10.3-.9,20.5-1.1,30.8-1.1-5.4-6-25.1,4.9-25.6-5.9-.6-12.5,14.7-8.7,22.1-12.3-6.7.2-13.5.3-20.2.8-4.1.3-11.9,2.3-14.2-2.2-2.5-4.8,1.5-10.4,5.2-12.9,5.5-3,11.5-5.2,17.2-7.6Zm-561.1-166.3c-1.2,2.5.7,3.5,1.5,5.4,1.2,2.7,0,2.2-.2,4.8-.2,1.7.3,2.5.2,4.2,0,.7-1,1.6-1.1,2.4-.2,1.4.6,2.1.5,3.1,0,.5.6.6.5,1.3-.1.6-1.6,1.1-1.7,1.5-.5,2.3.9,1.2,1.1,2.3.4,1.8-.7,2.2-1.3,3.9-1,2.9,0,4.3.6,7.1.5,2.3-.3,2.3-.6,4.5-.2,1.3.2,1.5.2,2.8,0,4.3-1,8.8-1,13.4-.1,10.8-1,21.5-1.1,32.3-.1,10.6-.9,21.3-1.4,32.1-.2,5.2-.8,10.5-1,15.7-.3,6.1.3,12.1-.2,18.2-.5,5.5-.2,11-.4,16.5-.1,2.6-1.5,10.5.3,12.3,2.2,2.3,11.3-.1,14.2,0a118.077,118.077,0,0,1,16.7,2.5c12.8,2.7,25.6,6.1,38.4,8.5,10.7,2,20.7,7.1,30.6,11.5-.9-9.1-2.5-18-2.8-27.2-.3-8.3.5-16.5.3-24.7-.4-17.6-1.4-35-1-52.6a462.439,462.439,0,0,1,4.3-53.9c1.1-8.1,2-16.8,5-24.6,1.3-3.5,3.5-6.1,2.6-9.9-1-4.2-2.9-8.5-4.3-12.6-1,6.6-4.7,50.5-19.7,37.3-5.9-5.2-8.6-16.3-9.9-23.7-1.8-9.9-1.1-20.3-1.1-30.3.1-20.4,2.3-41.2,4.4-61.5.4-4.1,2.5-7.7-2.7-7.5-4.9.2-9.9,1.3-14.7,1.9-4.2.5-8.4-.7-12.4-.2-1.8.2-3.5,1.3-5.3,1.6-2.3.3-4.8-.2-7.1-.2-4,0-8.6,0-11.9,2.5a22.222,22.222,0,0,0-7.6,11c-1.2,4.1-.8,8.8-1.6,13-.6,3.5-.8,7.8-1.3,11.8-2.5-3.1-2.3,1.4-2.4,2.7,0,1.6-1.8,4.9-1.3,5.8.3.6,2.2.3,2.4.8.3,1-.8,1.4-.9,2.1-.1,2.9.1,5.9.1,8.8a15.583,15.583,0,0,1-2-1.6,25.824,25.824,0,0,0-.8,2.6c-.2.4-1.6.3-1.7,1-.1.9,1.9,2.7,2.3,3.7.7,1.8,1.1,1.1,0,3-1.4,2.2-3.6,2.4-3.2,5.6a17.044,17.044,0,0,0,1.9-1.9c.3,1.9-.5,3.6-.6,5.6-.1,1.3,1.5,6.3.3,7.1-.7.3-2-1.6-2.1-1.8Zm101.4-158.4c0-4.2-6.2-10.8-8.3-14.3a103.9,103.9,0,0,0-11.4-15.8c-4.3-5-9-9.8-13.2-14.9-1.7-2.1-3-4.6-4.8-6.7-2.2-2.6-2.7-1.8-5.4-1.7-2.1.1-3.5-.3-5.4.3-1,.3-1.7.8-2.8,1.1-.7.2-1.6-.5-2.5-.2-2.3.8-3.1,2.8-5.8,2.8-.3,0-1.4-.8-1.5-.7-.2.1-1,.7-1,.7-.2,0-.1,1.3-.6,1.6-.8.4-1.4-.9-2.2-.8-1.9.2-3.4,2.2-5.5,2.7-2.7.6-5.1-.3-7.7,1-2.1,1-3.1,3.3-4.9.9-1.6,3.3-4.5,2.3-7.4,3.7-4,2-8.4,3-12.7,4.4-8.8,3.1-17.8,6.2-26.4,9.9-17.9,7.6-35.2,16.1-52.7,24.3-17.1,8-32.9,18.6-48.3,29.3-7.5,5.2-15.1,10.8-20.9,17.9-1.8,2.2-4.8,5.6-3.6,8.6,1.3,3.2,6.6,5.2,9.7,5.9a104.548,104.548,0,0,0,12.4,1.4c4.4.3,9.1.4,13.4.4,8.5-.1,16.9-1,25.5-1.1,9.8-.2,19.3-2.3,29.1-2.4,10.7-.1,21.3-1.5,32-1.1,20.7.8,41.4,1.4,62.1,1.5,2.6,0,5.1-.3,7.6.2,2.1.4,3.5,1.1,5.7.9,2.1-.1,4-1,6.1-1.2,2.8-.1,5.6.3,8.3.3,9.3-.2,20.4-1,29.4,1.9,3.6,1.2,8.1,4.6,5.9,9s-7.7.8-11.1,2.8c-3.2,1.9-1.4,6.9-1.2,9.9a164.337,164.337,0,0,1,.3,17.2c-.3,12.7-1.1,25.3-1.3,38-.1,6.2,0,12.3.3,18.5.3,5.4.1,11.3,2,16.5,2.6-6.5,2.9-13.6,3.9-20.4,1.1-7.4,2.2-14.8,3.2-22.1.6-4.4,1.3-30.7,9.9-27.3,9.1,3.7,6,23.9,6.4,31.2a116.318,116.318,0,0,0,2.7,20.4c.7,3.1,2.7,16.4,6.7,17.2,2.9-13.9,6-27.7,8.2-41.8,1-6.2,1.8-12.4,2.2-18.7.2-3.3,0-11.1,4.7-11.5,13.8-1.1,4.6,57.2,14.9,64.5,3.8-7.6,5.3-15.5,6.4-24,.5-3.8,1.5-8.2.9-12-.8-5-1.6-8.1-.6-13.3.9-4.3,1.5-8.6,2.5-12.9.7-3,2.6-4.5,3.6-7.3,2.8-7.7,2.6-17.5,3.7-25.6,1.1-8.2,2.3-16.3.9-24.6-1.4-8.2-7.4-10.8-14.3-14.2s-13.5-7.2-21.1-8.7c-8.5-1.7-16.3-3.3-24.9-3.8-15.3-.8-30.3.1-45.6.9-17,.8-33.9-.2-50.9-.4-8.2-.1-16.6-.3-24.9-.1-4.1.1-8.1.8-12.3.7-3.5-.1-10.4,1-13.5-.9a4.032,4.032,0,0,1-.4-6.5c2-1.8,6-1.9,8.6-2.4,8.1-1.8,16.2-2.8,24.3-4.2a60.045,60.045,0,0,1,13.4-.9c4.6.2,9.2-1.1,13.9-1.3,9.8-.5,19.7-.9,29.5-1.1,19-.2,37.8-1.6,56.8-1.6Zm9.9,185.9c-1.5.6-1.1,7.9-1.3,9.4-.4,4.4-.9,8.7-1.3,13.1q-1.35,15.15-2.1,30.3c-.6,10.1-1.2,20.3-1.2,30.4,0,4.3.2,8.6.1,12.9-.1,3.2-1.5,9.3,1.3,11.5,1.8,1.5,5.5.8,7.6.7,4.3-.3,8.5-.6,12.8-.6,4.9,0,9.8.5,14.8.4,1.9,0,4-.4,5.9,0,1.4.3,2.8,1.4,4.1,1.5.9,0,2.2-.9,3.2-1.1a28.956,28.956,0,0,1,5.1,0c1.2,0,4-.5,5.1.1,1,.7.6,2.2,1.6,2.5.4.1,2.4-2.3,2.8-2.5,1.6-.7,3.9-.2,5.6-.1,4.8.1,9.7-.3,14.5-.2a126.254,126.254,0,0,1,13.8,1.1c3,.4,6.4-.5,9.6-.8,5.1-.4,10.2-.3,15.2-.2,2.6.1,5.1.1,7.7.2a9.637,9.637,0,0,1,2.4,0c2.3.7.9.7,2.5,1.8-2.2-1.4,4.9-2.3,5.3-2.3,3.2,0,6.1,1.5,8.8,1.2,2.9-.3,5.8-2.1,9-1.6,1.5.3,2.7,1.9,3.8,2.1,1.8.3,2.4-1,4-1.6,3.2-1.3,7-.2,10.4-.4,4.8-.3,9.3-.3,14.1-.4,8.7-.1,17.4-.3,26.2-.2,8,.1,14.5,3.3,22.5,3.1,4.2-.1,8.5-.5,12.6-.4,3.6.1,5.4,2.8,2.7,5.9-1.8,2.1-5.2,2.4-7.8,2.7-3.8.6-7.6,1.4-11.4,2.1-9.1,1.5-18.6,1.5-27.9,1.8-37.6,1.1-75.1,4.5-112.7,4.8-16.5.2-33.2,1.5-49.6.9-9.2-.4-18.2,1.6-27.4.2a113.058,113.058,0,0,0-11.7-1.2c-.5,0-3.5-.6-4.1-.4-1.7.8-.7.1-1.4,2-1.2,3.2-.7,8.3-.7,11.6,0,5.4.3,10.8.5,16.2.2,5.2.5,10.3.8,15.5.1,2.1-.7,10.2.9,11.8,1.3,1.2,7.2.6,8.9.3a9.753,9.753,0,0,1,4.2-.3,14.456,14.456,0,0,0,3.6,0,50.569,50.569,0,0,1,14,.2c3.5.6,7.1-1,8.4,2.6,2.2-2.7,2.2-1.2,4.6-.6,2.5.6,1.8-1.1,3.9-1.3,1.5-.2,2.9,1,4.5,1,2.7,0,5.1-.7,8-.3,12.7,1.6,25.7,3,38.5,3.1,5.3.1,10.6.1,15.9.3,2.7.1,5.3.4,7.9.7,2.5.3,4.5-.3,7.1-.4,5.8-.3,11.8.6,17.6.9,2.7.1,6.1-.3,8.7,0,2.6.4,2.8,2.3,4.9,3.5.3-6.4,13.8-2.3,17.3-2.3,1.4,0,3.1-.6,4.7-.5,2.7.2,5.5.2,8.3.3a77.974,77.974,0,0,0,12.8-.1c5.4-.7,11.4,0,16.9,0q9,0,18-.3c6.1-.2,12.1-.6,18.2-.8,5.3-.2,10.9.3,16.1-.1,1.3-.1,2.6-1.1,3.8-1.1,1.7-.1,3.5.6,5.5.5,6.1-.5,11.7-.6,17.9-.6a120.817,120.817,0,0,0,31.6-4.7c4.7-1.3,9.5-1.4,14.1-2.7,5.3-1.6,10.2-4.4,15.1-6.9,3.8-2,9.2-2.9,7.7-8-1.7-5.4-4.3-10.7-6.3-16-1.7-4.6-2.8-9.2-6.6-12.6-3.7-3.4-8.4-5.8-12.4-8.9-8.6-6.9-17.6-11.1-27.7-15.2-10.3-4.1-19.6-10.2-30.4-13-10-2.6-19.6-6-29.5-8.6-10.7-2.9-21.8-3.9-32.6-6.4-10.4-2.4-20.6-6-31.1-7.9-11.4-2-22.8-3-34.2-5.5-9.6-2.1-18.8-6.1-28.4-7.8a62.284,62.284,0,0,1-8.6-1.7c-2.6-.8-4.4-2.5-7-3.2a103.212,103.212,0,0,1-16.8-6.3c-2.4-1.1-3.7-2.4-5.7-3.7-2.5-1.6-5.6-2.1-8.3-3-5.3-1.7-10.6-3.3-15.3-6.3a155.45,155.45,0,0,1-14-10.1c-1.9-1.5-4-3-5.9-4.5-2.4-1.7-4.9-2.1-7.6-3.2-11.8-4.9-17-16.6-23.4-26.7-.9,8.4-8.8,12.2-13.6,4.4Zm167.6-143.3c.8-3.7,2-8.9-2.6-9.1a23.69,23.69,0,0,0-3.6.9c-1.6,1-2.1,4.3-2.7,6-.5,1.4-.9,3.3-2,4.4s-2.3,1.1-3.4,2.4c-3.3,3.9-5.7,10.6-7.6,15.3,2.7-.6.7,1.1,1.9,2.2,1.8,1.6,1.2,1.3,3.7,1.6,4.4.4,6.4-.7,9.8-3.5,2.9-2.3,3.9-3.8,5.5-7.2,2.3-5,1.1-8,1-13l3.6,3.3c-.4-1.5-.7-2.9-1.1-4.4ZM315.559,8c2.3-8,6.7-8.6,12.6-2.8.9-2.1,2-5.2,4.7-5.2,1.9,0,2.3,1.6,3.5,2.6a8.574,8.574,0,0,0,4.7,2c4.3.7,8.3.5,12.3,2.4,3.7,1.8,5.4,4.3,8.3,6.9,2.7,2.5,4.6.9,7.6,2.1,3.4,1.4,4.9,5.5,5.5,8.8.8,4,0,5.3,2.8,8.3a16.05,16.05,0,0,1,4.4,10.1,17.384,17.384,0,0,1-2.6,10.9c-2.3,3.4-4.8,2.5-1.7,6.5,1.5,2,1.7,6.4,3.6,7.7,3.2,2.3,7.4-1.4,10.2-2.3,3.9-1.3,3,.9,4.7,3.4,2.5,3.8,4-.1,7.4.6,1.3.3,1.6,1.6,2.1,1.8,1.6.6-.1.4,1.7-.3,1.2-.4.4-2.7,2.8-1.4,1.7.9.4,2.5,1.2,3.7,1.5,2.3,3.7,1,4.8,4a67.3,67.3,0,0,1,3.2,10.2c.7,4-1,7.4-.7,11.1.3,3.9,4.1,6.5,6.5,9.3,11.8,13.4,16.8,31.1,20.7,48.1,3.6,15.9-2.7,33.8-15.1,44.6-6.3,5.4-14.1,7.8-20.1,13.8-2.7,2.7-2.6,3.5.5,5.7,2.6,1.8,5,4.1,7.8,5.5a79.874,79.874,0,0,0,22,7.7c4,.8,8.2.5,12.2.3,4.2-.1,9,.4,13.1-.1,3.6-.5,6.5-3.4,10.3-3.1,1.5.1,2.4.7,3.9.6,2-.2,3.7-1.2,5.8-1.2,3.2.1,6.4.1,9.5.3,3.5.1,7.7-.8,11.2-.2,3.3.6,7.3,3.6,10.2,5.3a106.3,106.3,0,0,1,11.1,7.3c3,2.5,5.2,6.5,7.5,9.6,2.5,3.3,5.4,6.2,7.9,9.5,9.9,12.9,20.4,28.7,23.5,44.9a39,39,0,0,1,.2,12.3c-.5,3.7-4,5.1-4.1,9-.2,8,3.6,17.3,5.8,24.9a148.029,148.029,0,0,0,8.9,23.2c1.4,2.9,3.2,5.3,4.1,8.3,1.1,3.7,2.7,7.2,3.9,10.9,10.4,32.1,26.6,62,38.4,93.6,6.3,17,13,33.8,19.9,50.6,3.4,8.3,7.1,16.3,10.8,24.4.5,1.1.8,3.1,1.7,3.9,1.4,1.2.2.5,2.2.3,1.7-.2,3.5-1,5.3-1.3,4.2-.7,8.5-.8,12.8-1.2a94.118,94.118,0,0,1,14-.5c4.5.2,9-1.1,13.5-1.4,9.7-.6,19.2-.3,28.9-.1,7.5.1,17.2-.8,24.2,2.7s4.6,11.6-1.3,14.7c-7.1,3.7-15.5,4.2-22.5,8,5.3,1.6,11,1.2,16.4,2.5,3.5.8,8.9,1.4,11.5,4,2.5,2.5,2.3,6.7.6,9.6-2.1,3.6-6.1,4.2-9.7,5.5,1.6,2.2,4.2,2,5.6,4.8,1.9,3.8.7,7.8-1.7,11.1-5.2,7.1-15.4,7.7-23.4,8.7a128.447,128.447,0,0,1-24,.7c-4.5-.3-8.9-.5-13.4-1.2-5.1-.7-4.6,2.9-6.4,6.5s-4.3,5.1-8.2,4.9a115.6,115.6,0,0,1-13.2-1.2c-4-.7-7.5-2.8-11.4-3.6a38.867,38.867,0,0,1-9.6-3.7c-3.8-1.9-5.8-5.2-9.1-7.4-3.4-2.3-7,1.3-10.3,3.1-8.2,4.4-17.1,6.3-26,8.4-9.1,2.2-18,5-27.2,6.5-4.3.7-8.4.6-12.7,1.1-4.9.5-9.2,2.4-14.3,2.4-17.8,0-35.7,3.3-53.6,3.8-17.6.6-35.6-.9-53.2.3-9,.6-17.7-.6-26.7-.1a218.207,218.207,0,0,1-28-.7c-19.1-1.5-37.7-1.1-56.6-2a264.934,264.934,0,0,1-29.6-3c-9.5-1.5-20.3.2-27.1-8.1-.7,3.3-.9,6.6-3.3,9.2-2.5,2.7-6.5,3.8-9.9,5-8.5,3.1-17.2,6.1-25.8,9.1-8.2,2.8-16.4,5.9-24.6,8.5-8.6,2.7-16.9,6-25.4,9.2-7.7,2.9-15.7,5.2-23.1,8.7-3.1,1.4-6.3,1.6-9.2,2.9a84.285,84.285,0,0,1-10.8,4.4c-3.3,1-6.4,1.8-9.6,3.1s-7.7,3.6-11,1.9c-2.3-1.2-3.3-4.1-4-6.4-.9-3-.1-8.1-3.6-8s-8.4,3.5-11.8,4.6c-4.1,1.4-8.2,3.6-12.4,4.4s-7.5.5-9.7-3.4c-2.5-4.4-2.1-9-1.3-13.8-7.1,0-13.7.7-20.9.9a92.93,92.93,0,0,1-11.8-.1c-3.6-.4-8.9.7-12-.9-6.3-3.3-5.4-12.7-2.2-17.8,1.8-2.9,4.5-4.8,7.3-6.5a64.83,64.83,0,0,0,9.2-7.4c-2-1.4-4.6-.7-6.6-2.4a13.349,13.349,0,0,1-3.2-5.2c-1.3-3.4.4-11.2-2.6-13.1-1.6-1-4.4-.6-6.1-1.4a10.056,10.056,0,0,1-5.2-5.7c-2.4-5.6-.3-11.4,2-16.6-8.8-1.5-21.7-2.1-24.2-12.3a18.6,18.6,0,0,1,.2-10.2c1.6-4.7,5.5-5,9.7-6.4,17.7-5.8,34.3-15.3,53.4-16.7,10.2-.8,20.5-1.1,30.8-2.2s20.2-2.9,30.5-1.7c4.4.5,9.5.1,13.7.9,4.1.8,4.6,5.6,1.5,8.3-3,2.7-7.4,1-11,1.3-5.1.4-9.4,2.8-14.1,4.4a192.267,192.267,0,0,1-36.6,7.7c-6.5.7-12.7.8-19.1,2.6-5.8,1.6-11.6,3.4-17.4,4.9,6.4,1.7,18.7,1.5,20.8,9.3,1,3.7-.1,8.7-3.3,11-1.9,1.3-5.9.7-7.1,2.7,5,.6,10.7-3.2,13.5,2.3,3.1,6.3.1,11.3-4,15.9,3.6-.6,7.2.1,10.8-.4,2.8-.4,5.4-1.2,8-.3,1.3.4,1.1,1.6,2.8,1.6,1.2,0,3-1.3,4.1-1.8,4-1.9,8.1-3.5,12.2-5.1a105.544,105.544,0,0,1,14.8-4.7c6.9-1.7,13.9-6.1,20.6-8.5,2.9-1,6.5-2.1,8-5.1,1.5-3.1.3-7.6.3-10.8-.3-9.2-.1-18.3-.1-27.5,0-7.7.2-15.3.9-22.9.8-9.2.1-18.3.4-27.5.3-8.4-.4-16.9-.2-25.3.3-9.4.7-18.8.8-28.2.2-16.9.7-33.8,1.1-50.7a264.286,264.286,0,0,1,5.9-51.7,150.11,150.11,0,0,1,6.7-22.6c.9-2.3,1.9-2.4-.3-3.7-1.3-.8-2.9.1-4.2.3a40.813,40.813,0,0,1-7.8.4,330.5,330.5,0,0,0-47.7,1.2c-8.1.7-16.3,1.4-24.5,1.7s-16.3,1.6-24.5,1c-13.7-1-29.3.6-41-8.2-12.5-9.4-11.3-26-3.3-38.1,8.9-13.3,23.8-20.8,36.2-30.1,12.2-9.1,26.6-15.8,39.9-23.2,28.5-15.8,59.1-30.3,89.8-41.2,31.2-11.1,62.5-23.8,96.5-21.6,17.2,1.1,36.5,1.7,51.7,10.9,8.1,4.9,16,10,22.9,16.4,3.3,3,6.2,6.8,9.7,9.6,3.3,2.6,6.4.8,10.2-.1-2.6-8.5-5.3-17-7.9-25.5a16.531,16.531,0,0,1-13.4,2.9c-5.7-1.2-5.3-3.7-4.8-8.6.2-2.3.9-1.9-1.1-3.3-1.6-1.2-4.6-1.6-6.4-2.6-4.7-2.5-8.7-6.3-10.4-11.4s-.5-9.9.6-14.9c1.3-6.1-2-3.5-5.8-6.4-1.7-1.2-2.3-2.3-2-4.4.2-1.7,3.5-4.1,3.4-5.7-.2-2-1.3-1.8-2.9-3a10.317,10.317,0,0,1-3.7-5c-1.6-4.4,1.7-7.1,3.1-11.2a16.382,16.382,0,0,1,2.6-5.3c2.3-2.9,3.2-2.9,6.5-2.8,2.7,0,2.7-.2,4.8-2.7a34,34,0,0,0,2.3-3c1.2-1.8,1.5-1.5.2-2.9-3.9-4.3-5.6,2.4-9,2-4-.5-4.7-6.7-7.1-8.8-1.7-1.5-3.7-.9-5.6-1.9-2.3-1.2-2.8-3.5-4.3-5.5-2.4-3.1-6-3.7-7.6-7.7a21.027,21.027,0,0,1-1.2-7,44.237,44.237,0,0,0-2.2-9.4,10.145,10.145,0,0,1,.9-8.8c1.7-3.1,1.9-4.2,1.5-7.7-.3-2.7-.4-5.1,1-7.5a16.6,16.6,0,0,0,2.3-6.9c.4-2.6,1.3-4.5,3.8-5.5,1.7-.7,3.6.1,4.8-1.6s.9-4.3,2.1-6.2c1.7-3.6,4.7-4,8.1-4.7Z" fill-rule="evenodd"/><path id="ink-3" data-name="ink" d="M415.359,141.4c-1.2-2.8-5.1-15.5,1.4-15.5,5.1-.1,3.5,11,3.6,13.7.1,5.1,5.4,5.8,7.4,10.4,2.3,5.4.7,11.7-2.9,16.1-2.8,3.3-8,7.1-11.8,3.1-4.2-4.5-.2-7.1,2.8-9.9,4.3-4.1-3.9-5.3-6-8.6-3.8-5.7.2-8.7,5.5-9.3" fill-rule="evenodd"/><path id="ink-4" data-name="ink" d="M396.859,144.3c-.6,2.6-.4,8.6-3.2,10-4.8,2.4-5.9-9-5.8-11.5,0-2.7,1-9,4.9-8.2,4.3.9,1.8,9.1,4.1,9.7" fill-rule="evenodd"/><path id="ink-5" data-name="ink" d="M414.659,177.4c7,.2,6.6,8.6-.1,8.9-6.3.3-6.1-9.1.1-8.9" fill-rule="evenodd"/><path id="ink-6" data-name="ink" d="M429.659,302.6a13.09,13.09,0,0,1-4.5,7.2c.5-1.1,2.9-7.7,4.5-7.2" fill-rule="evenodd"/></g></g></svg>