<svg id="Layer_1" data-name="Layer 1" xmlns="http://www.w3.org/2000/svg" viewBox="0 0 619.867 719.62"><title>1</title><g id="Character_moshing" data-name="Character/moshing"><path id="Accent" d="M111.945,481.376c21.9-11.6,43.7-23.1,65.6-34.6,20.7,46.2,72.8,75.9,122.9,65,12.2-2.7,24.3-8.7,30.1-20.3,4.4-8.8,4.6-19,2.6-28.5-1.7-7.9-4.8-16.3-9.9-22.7-6.4-8-16.3-14.2-24.3-20.5-12.4-9.8-24.9-19.4-37.5-29-1.6-1.3-6.2-3.5-7.1-5.4-.8-1.6,0-5.5,0-7.3v-8.3c18.2,6.6,38.5,10.3,57.8,9.3,32.2-1.7,58.1-25,81-45.7,4.1-3.7,8.1-7.5,12.1-11.3.8-.7,2.7-3.5,3.7-3.7,1.4-.3,5.1,2,6.4,2.6,4.5,1.8,8.9,3.6,13.4,5.4,10.9,4.4,21.8,7.9,31.7,14.4,41.7,27.3,86.1,60.6,105,108.4,10.8,27.2,17.2,56.2,21.1,85.1.5,3.9,1.9,8.9,1.2,12.8-1.3,7.2-5.4,14.9-7.8,21.7-3.1,8.7-6.3,17.5-9.4,26.2-.3,1-.8,3.4-1.6,4-1.7,1.3-7.3.8-9.3,1.1-11.6,1.3-23.2,2.6-34.8,3.2-10.5.6-20.2-2.1-30.2-5.1-5.6-1.7-11.1-3.5-16.5-5.3-1.2-.4-7.3-1.6-8-2.8-.3-.5.7-3.1.9-3.7.9-3.8,1.7-7.6,2.5-11.5,5.6-27,9.7-55.4,7.4-83.1-2.5-28.8-18.5-51.6-38.6-71.3a240.3,240.3,0,0,0-23.6-20.3c-1.4-1.1-4.1-4-5.9-4.3-1.5-.3-2.6.9-4,1.9-4.2,2.8-8.5,5.5-12.7,8.3-1.1.7-5.6,2.7-6,4-.3,1.1,1.5,4.8,1.8,5.8,1.3,4.5,2.4,9,3.5,13.6,6.8,29.9,10,62.7,1.6,92.6-7.9,28.3-26.1,53.7-50.6,69.8-25.3,16.6-54.7,20.8-84.1,15-52.2-10.2-105.8-40.8-134.3-87a130.065,130.065,0,0,1-16.1-38.5" fill="#34558b" fill-rule="evenodd"/><g id="Ink"><path id="ink-shape" d="M581.845,545.176c-2,16.1-9.2,31.4-18.1,44.7-1.2-2.3.2-4.2-3-4.7-2.2-.3-5.1,1.2-7.2,1.6-8,1.4-16.4.3-24.3-.5,2.1-2.2,4.8-4.1,3.8-7.7-.8-2.8-4.2-3.8-5.5-6.4,1.8-.8,6.7,3.2,8.5,3.8-.9-2.2-3.8-6-3.1-8.4.5-1.7,2.7-1.4.8-3.6-.9.8-3.6,4.5-5.1,3.6,1.5-1.3.4-2,1-3.3a12.54,12.54,0,0,1,1.6-2.4c1.8-2.3,2.9-5.2.7-7.9-.8-.9-2-.7-2.7-1.7s-.5-2.1-.7-3.2c-.2-1.2-.1-2.6-.4-3.8-.7-2.5-1-2.5.2-5-1.2,1.1-2.5,2.1-3.7,3.2a34.993,34.993,0,0,0-2.3-7.8c-.4-.8-2.7-2.9-2.6-3.8-.3,2.5-2.3-.4-3.1-.6-2.5-.6-7,1.9-8.9,3.4-5.3,4.3-8.5,12.4-11.9,18.2-3.7,6.4-7.4,13.5-8.4,20.8-.2,1.8-.3,5.7-2.4,6.6-1.1.5-5.7-.8-6.9-1.5-2.8-1.6-1.8-4-.7-6.6a41.9,41.9,0,0,0,3.3-9.8c.8-4.3,1.3-8.7,2-13,1.4-9.1,2.8-18.2,3.5-27.4.2-2.9-.1-5.9,0-8.7.1-2.5,2-5.4,1-8.4-.4-1-1.1-1.3-1.1-2.1,0-.5,1.4,0,1.6-.7.4-1.4-1-2.8-1.3-4.1-.5-2-.1-3.9.2-5.9,1.2-8.2-1.1-16.9-3.3-24.8a245.916,245.916,0,0,0-8.9-24.9c-2.9-7.2-4.2-15.1-7.6-22.1-3-6.1-6.2-12.1-11.6-16-2.5-1.8-4.2-4.5-6.6-6.5a18.1,18.1,0,0,0-4.6-3.2c-1.6-.7-3.6-.3-5-1-2-1-4.3-3.4-6.5-4.3-1.9-.8-4.1-1.4-5.8-3.1-2.4-2.3-2.8-3.9-6.2-4.3-1.9-.3-3.9-.1-5.3-2.1-5.5-7.7,9.3-18.7,2.5-26.7-2.7,2.7-3.9,6.6-5.2,10.2a57.314,57.314,0,0,1-6.9,12.6c-4.8,7.2-11.9,14.4-13.9,23-3.3-4.7-5.2-7.4-10.2-2.8-.9-2.1.3-6.1-1.6-7.4-3.3-2.4-9.6,3.5-11.4,5.7-7.1,8.4-11,18.5-14.9,28.7-1.7,4.5-3.6,10.2-1.4,14.8,1.9,4.1,6.5,6.4,10.4,8.1,5.5,2.5,10.1,2.4,16,3,2.7.3,5.1,1.5,7.7.1,2.2-1.2,3.8-3.6,5.8-5.1.5,1.5,1.6,2.8,3.1,1.5,2.2,9.3,4.4,18.3,3.9,27.9a232.213,232.213,0,0,1-2.8,26.3c-1.6,9-3.5,18.1-7,26.5-3.5,8.3-8.8,15.7-13.7,23.2-1.5-3-3.3-1.5-5.4-.1-.9-1.8.2-3.2-.9-4.8a6.468,6.468,0,0,1-2-1.7,23.393,23.393,0,0,0-.9-3.8,6.208,6.208,0,0,0-3.6,3.5c-2.9-5-4.9-4.4-10.2-4.1-7.1.4-9.4,6.6-11.8,12.4-.6,1.4-1.6,3.1-1.7,4.7-.1,1.1.9,2.9.7,3.5-.3,1.1-1.3.2-1.6.8-1,2.1-1.3,5-1.8,7.3-1.5,6-1.9,15.8-7.9,19.3-5,2.9-12.1,3.6-17.7,4.6-8.8,1.7-18.1,2-27,2.1-8,0-17.5,1-25.1-2-1.1-.4-6.4-2.9-5.1-4.2.5-.5,3.4.4,4,.7-.4-.2-.7-2.7-.9-3.2-.7-2.1-1.3-2.1-2.8-3.7-3.2-3.5,1.1-1.9.8-4.4-.1-.5-3.4.8-3.3.7.1-.8.8-2.3.4-3.1.3.6-1.9-4.1-1.7-3-.5-2.1.9-4.1.6-6.1-.4-2.8-2.5-2.3-4.1-3.9-.6-.6-.8-1.7-1.3-2.4-.2-.3-1.1-.3-1.2-.5-.6-1-.6-1.2.1-3.4-1.2.5-4.4,2.7-5.6,1.5-1.5-1.4,1.6-3.1-.9-4.1-1-.4-1.6.7-2.5.7-.6,0-.7-1.5-1.5-1.1-1.4.7-1.7,3.7-2.3,5-3.4-8.7-14.5,5.6-16.5,9-1.9,3.1-2,9.3-6.7,8.8-2.4-.3-5.3-2.9-7.2-4.2-2.9-1.9-5.9-3.5-8.9-5.3a285.232,285.232,0,0,1-37.2-26.5c-4.3-3.7-10-8.2-10.6-13.9a38.909,38.909,0,0,0-1.1-6.7c-1.3-4.6-3-3.8-6.7-6.3,1.5-2.9,3.6-3.1,3.5-6.6a26.725,26.725,0,0,0-2.2-8.4c-1.2-3.4-1.8-7.2-5.5-8.2-3.9-1-4.5.9-7,3.6.3-1.5,1.4-5.2-.2-6.1-2.3-1.3-3.5,3.5-5.3,4.1-1.5-3.4-6.8-8.8-3.1-12.2,1.8-1.7,5.4-2.4,7.7-3.4,3.4-1.6,6.7-3.3,10-5.1,14.7-7.8,28.9-16.3,43.4-24.2,2.6,5.9,4.8,12,7.8,17.8,2.5,4.8,6.9,9.4,6.7,15-.2,5.9-2.9,11.7-3.5,17.7-.4,3.9.2,5.5,4.5,4.1.4,2.7,4.7,6.6,7,8,3.7,2.2,7.5-1.8,10.1-4.4,1.8,1.8,2.2,4.3,3.8,6.3.8-.8.6-3.2,1.1-3.5.5-.4,2.1.4,2.4.4.5,0,.1-1.5.5-1.5,1.3,3.2,4.4-2.2,7.3,0-.4-1.7.1-2.3,1.6-3.1.8,3.5,3.9,1.9,6.5,2.3,4.7.7,9.4,3.4,14.1,4.6a102.571,102.571,0,0,0,28.6,3.7c4-.1,5.6.5,8,3.6.9,1.2,1.3,2.7,2.9,3.2,2.3.8,2.4-.7,4.2-1.1,1.9-.4.9-.9,2.6,0,1.1.6,1.7,2.4,2.6,3.2,2.5,2.4,5.2,3.3,7.2,0a4.3,4.3,0,0,0,1.8,2.4c-.1-1.9-.4-5.7,2.7-4.8,2.3.7,1.2,4,4.5,3.4,1.9-.3,3.4-3,4.5-4.3,1.5-1.8,1.6.7,1.9-2.5.2-1.9-1-4.2-1.8-5.8,2.8.6,3.3,3.5,6,3.8,3.1.3,4.7-3.8,7.7-3-.3-.7-1.4-3-.9-3.7.8-1,1.8,1.4,3,1.2,1.3-.3,2.7-3.8,2.4-4.9-.5-2.3-3.3-1.8-4.3-3.6-.9-1.7-.1-4.8-.2-6.7-.1-2.5-.6-5.1-.2-7.6a14.07,14.07,0,0,1,3.6-6.8c1.3-1.4,4.8-3.4,1.7-5,5.4-2,2.2-7.6,2.7-12.3.3-2.9,1.4-5,.8-8.2-.8-3.7-2.8-7.2-4.8-10.4-2.1-3.2-4.2-6.1-7.2-8.3-.8-.6-1.7-1.1-2.5-1.7a1.773,1.773,0,0,0-2.2-.7c-1.4-1.1-1.7-1.9-2.7-3.5-2.6-3.9-7.2-5.8-11.1-8-3.7-2.2-6.9-5.2-10.8-7.1,0,0-4.1-1.8-3.7-1.3-1.4-1.9,0-4.2,0-6.2-.1-2.1-1.3-3-1.9-4.8-.7-2.1.6-4.8-.7-6.7-.5-.7-1.4-1-2-1.6-1-1.1-1.5-2.6-2.5-3.7-1.1,1.2-2.1,2.5-3.2,3.7-1.2-3-1.5-3.8-4-.9-3.9,4.4-6.1,2.5-9.3-1.6-1.1-1.3-2.3-1.6-3.1-2.6-1.3-1.6.1-4.3-1.7-5.7-1-.8-2.5,0-3.4-1.4-1.1-1.7.7-4.2-.3-6.1,14.9,4.7,30.2,8.5,45.9,7.3a137.046,137.046,0,0,0,45-11.1c24.4-10.8,48.2-28.6,57.8-54.3,2.4,2.8,1.9,8,4.6,10.6,3.9,3.8,3.6-3.8,3.6-6.3,3.2.8,7.7,2.2,7.9,6,.3,3.9-3.2,7.9-4.5,11.5a29.742,29.742,0,0,0-1.6,11.4,13.175,13.175,0,0,0,1.4,5.5c1.1,2,2.4,1.9,4,2.9-.3-.2,1.9,1.3,1.9,1.3,4.6,1.1,8.3,4.5,13.2,3.3,3.2-.8,6.2-3.1,7.4,1.5,2.2-1.5,2.5-2.6,2.4-4.8,0-.9-1.4-1.8,0-2.1.4-.1,2.1,1.9,2.8,2.1,1.8.5,2.5-.2,3.4-1.6.5-.8.5-6.1,1.1-6.2,1.3-.2,3.9,5.2,4.7,6.2,0-15.6,16.3,2.5,21.4,5.9,4.1,2.8,8.6,5.3,12.1,9,4.4,4.7,3.1,7.4.2,12.4-3.3,5.6-5.7,12.1-8.7,17.9-1.5,2.9-3.3,6.4-3.3,9.8,0,1.1.7,2.3.6,3.4-.1,1.6-.9,2.3-1.5,3.7a8.318,8.318,0,0,0,3.7,10.9c2.5,1.3,5.1,2.1,7.6,3.6,2.6,1.6,5.1,3.3,8.3,3.4,2,.1,3.1-.5,5.1.1,1.3.4,2.4,1.6,4,1.5,3.1-.3,5.3-3.7,8.5-4.4,2.3-.5,5.4-.2,6.9-2.5,1.8-2.8-1.7-5.7,1.1-8.3a12.948,12.948,0,0,1,1.5,4.7,30.472,30.472,0,0,1,2.4-5.9,9.627,9.627,0,0,0,2-6c0-4.6-2.3-9-3.4-13.4,3.9.2,7.2,7,8.9,9.8,3.2,5.2,6.4,10.4,9.6,15.7,3.9,6.6,9,13.8,11.5,21.1,2.3,6.6-3.3,10.8-6.3,16.1-3.6,6.3-4.7,12.4-6.7,19.1-1.6,5.4-1.8,11.4,2.7,15.5a23.617,23.617,0,0,0,6.9,3.9c2.9,1.2,3.7,3.4,6.9,4a41.458,41.458,0,0,0,7.9.7c4.4-.1,2.8-1.6,5.2-4.4-.8,2.6,1.8,5.1,2.5,7.5,1,3.3,1.2,7,1.6,10.5a121.223,121.223,0,0,1-1,22.4m-58.8,69.4c-4-.9-9.8-.4-13.4-2.3-2.5-1.4-1.3-2.7-.3-5.2,2.8-7,10.5-7.7,17.3-5.8-1.2,4.4-2.4,8.9-3.6,13.3m7.1,52.4c12.5,6.8,26.2,14.1,36.3,24.3,2.4,2.4,8.8,7.7,7.9,11.6-.9,4.1-8.9,3.3-11.9,3.2a98.326,98.326,0,0,1-40.8-10.5c-12.3-6.1-24.2-12.2-33.2-22.9-3.6-4.3-10.3-11-9.5-17.2.8-6.1,7-10.8,10.4-15.6,3.3-4.7,7.3-15,13.4-16.6,2.7-.7,5.3.8,7.8,1.6,2.4.7,6,.7,8,2.3,3.7,2.9,2.2,9.5-1.7,11.4-2.6,1.2-5.6,1.8-8.3,2.7-3,1-18.3,5.6-12.6,10.8,4,3.6,11-.8,15.3-1.8,2.2-.5,5.7-1.2,7,1.3,1.3,2.4-1,4.9-3,6.1-3,1.7-6.7,1.4-9.3,3.9-2.1,2-2.6,4.4.2,5.6,7.6,3.1,16-4.5,24-.2m-157.2-116.1c-.4-1.7.7-2.7,2.5-1.9a2.839,2.839,0,0,1-2.5,1.9m-124.2,37.1c-1.6-.2-1-2.3-.3-3.3q1.65,1.2.3,3.3m-112.2-70.6c-2-2.3,1-6.2,4.1-4.4-.9,1.6-3,2.7-4.1,4.4m-7.4-95.6c-3.3-5.9-3.5-18.7-12.2-19.5-3.2-.3-8.8,3.7-11.5,1.8-2.5-1.7-.3-10.3-3.9-10.1-5.1.2-2.5,10.1-4.7,12.5-1.3,1.4-4.3,2-6.1,1.7-2.8-.4-3-1.6-3.1-4.2-.1-1.9,1.3-9.6-3-8.3-3.2.9-2.4,7.7-2.7,10.1-1.2,8.9-14.2,8.5-21,9.3-4.1.5-23.5,3.5-19.2-5,1.8-3.6,6.3-6.6,9.3-9.1a70.107,70.107,0,0,1,17.2-10.3c11.5-4.9,24.4-7.5,36.8-5.8,14,1.9,25.5,8.8,34.9,19.2,1.9,2.2,7.4,7.1,5.3,10.2-1.2,1.7-5.2,2.1-7,2.8a32.816,32.816,0,0,0-9.1,4.7m20.6,4.3c4.8-1.8,5.8,4.1,7.7,7.3,1.6,2.7,5,6.9,3.2,10.1-1.7,2.9-6.7,4.7-9.6,5.9-3.7,1.6-7.6,2.8-11.4,4.5-2-4.7-3.6-9.4-5.7-14-1.2-2.6-3.5-6.2-1.5-8.8,3.4-4.2,12.6-3.2,17.3-5m131.9-175.5c.4-5.3,3.9-3.6,5.2.1,1.5,4,1.6,8.7,1.7,12.9.1,3.2-.6,8.2-3.6,3.5-2.9-4.5-3.7-11.3-3.3-16.5m18.8,21.5c-.5,6.5-4.2,2-5.6-1.5-2-5-3.5-11.5-2.7-16.9.8-6.2,3.9-2.3,5.2,1.5,1.9,5.4,2,11.3,3.1,16.9m7.9-5.3c-4.1,1.1-10.6-23.3-5-24.2,4.7-.7,9.1,23.1,5,24.2m16.6,2.5c0,5.4-4.5,1.1-6.1-1a29.831,29.831,0,0,1-5.3-14.9c-.2-4.6,1.9-8.4,5.1-3.4,3.7,5.5,5.2,13,6.3,19.3m-36.2-62.6a140.122,140.122,0,0,1,15.8-31.7,25.954,25.954,0,0,1,4.1-5.3c1.3-1.2,3.2-1.4,4.5-2.6,2.5-2.3.6-4.5-1.9-5.7-4.1-2-11.5-1.7-8.6-8.3,4-9.1,14.3-4,18.3,2.2,1.6-3.9,4.5-2.9,8-3.2,5.3-.4,10.2-2.9,15.5-2.8,4.9.1,9.5,2.5,14.4,2.6,5.5.1,10.1.3,15.4,1.9-2.8,5.6-6.2,11.2-11.5,14.8,1-1.8,4.3-6.5,1.3-7.8-2-.9-6.3,2.8-8,3.7a9.06,9.06,0,0,0-1.6-4.5c-5.2,3.6-3.5,9.9,1,13.3a41.319,41.319,0,0,1-12.3,4.5c-4.3.7-8.6-.4-12.9.4-7.5,1.3-13.1,8-14.3,15.4-.6,4,1.5,14.1,4.8,6.3.7-1.6,1-3.4,2-4.8,1.7-2.3,3-1.5,5.5-.9,2.1.5,5.7.9,6.5,3.2.7,2.1-1.1,4.8-2.2,6.4-3.6,5.4-8.9,10-15.3,11.2-3.6.5-31.3-.2-28.5-8.3m8.7-73.5c-2.3-1.6-.6-5.6-.3-7.7.4.8.8,1.5,1.2,2.3-.3-4.9.4-8.8,1.4-13.6a21.862,21.862,0,0,0,.3-5.1,4.4,4.4,0,0,1,.3-2.4c.5-.8,1.2,1.5,1.2,1.3,2.5-3,.5-3.6,1.2-6.7,0,0,2.3-2.5,2.5-2.9,1.2-2.2,1.4-3,3.5-4.3s1.4,0,2.5-2.8c1.1-2.7,1-4.5,1.7-7.3a2.555,2.555,0,0,0,3,.1,2.019,2.019,0,0,1-1.5-1.8c2.6-.3,4.8-2.8,7.2-1.9-.6-1-1-6.8.9-6.8a12.187,12.187,0,0,1,0,2.7,49.179,49.179,0,0,1,6.2-7.9c1.5-1.4,1.1-1,2.9-1.2,1.6-.2,1.6.4,3-1-.5-1.5-.1-2.4,1.2-2.8a6.117,6.117,0,0,1,1.2-.5c1.9-1.2,2.6-2.5,4.1-4,1.2-1.2,3.6-1.7,4.5-2.9.9-1.3.2-4.1,1.5-5.1,1.4-1.1,1.5.3,2.8.2.2,0,2.1-1.1,2.5-1.2,2.9-1,5.5-1.4,7.9-3.6.8-.7,1.4-2.2,2.2-2.7,1.3-.9,2.8-.8,4.2-1.6.4-.3,1.1-1.4,1.6-1.9a15.182,15.182,0,0,1,5.3-2.5,108.954,108.954,0,0,0,10.9-3.9,154.353,154.353,0,0,1,24.6-8.2c1-.2,3.4-.1,4.1-.6.5-.3,1-1.5,1.1-1.6a27.588,27.588,0,0,1,6.2-2.5c6.2-1.8,6.4,1.6,2.5,5.2-3.5,3.2-7.8,5.4-11.4,8.5-5.9,5-9.7,12.3-13.6,18.8,5.2,2.5,12.7,0,18-1.1a38.216,38.216,0,0,1,8.2-.6l.9-.5c.7-.5,1.1-.3,1.3.6.1,1.1.6,1.2,1.6.5a8.272,8.272,0,0,1,1.6-.9c1-.6,2.5-2.3,3.7-2.1,1.8.3.7,1.2,1.9,1.7,2.7,1,4.1-1.4,6.6-1.8.9-.1,2.1.5,3.1.4a9.409,9.409,0,0,0,2.2-1.2,1.308,1.308,0,0,1,1.4,1c2.1,0,5.9-.5,6.1-3.1,1.5,2.8,2.3,1.8,4.6.5,0,3.3,7.1.5,9.1.5,5,0,9.4-2,14.2.6-8.5,3.8-18,5.5-26.2,9.8-3.7,1.9-8.5,7.4-5.7,11.9,1.6,2.6,4.7,2.5,7.3,2.2,3.4-.4,6.2.9,9.7.7,7.1-.3,15.7,5.1,21.8-.7,2.7,3.6,5.8,3.6,9.8,3.8,1.9.1,13.4,2.1,12.9,4.4-.3,1.3-5.8,3.2-6.6,3.6a55.449,55.449,0,0,1-9.7,3.3c-6,1.5-11.9,1.4-17.9,2.4-4.4.7-9.8,3.2-8.6,8.8,1.1,4.9,6.9,3.8,10.6,3.5a99.81,99.81,0,0,1,12.2-.7c3.3.1,10.2-.1,12.3,3.2-9.2,6.7-20.8,8.4-31.8,9.8a321.5,321.5,0,0,0-37.8,6.7c.9-1.9,5.1-8.7,3.4-10.8-2-2.5-8,7.6-9.5,9-13.1,11.6-31.1,19.4-47.1,25.8,5.3-6.5,13.3-11,19.7-16.3,4.4-3.7,12.5-9.6,9.6-16.4-16.5,10.3-30.4,28.9-51.3,30.1,7.5-5.4,16-9.6,22.2-16.7,1.4-1.7,6.2-8,3.2-10.3-2.3-1.8-6.4,4.5-8,5.9-11.3,9.6-26.9,17.7-41,22.3-5.1,1.6-12,4.4-16.7.8-6.2-4.7-11.1-4.9-18.1-1.1-.8-3.2-.9-7.6-3.8-9.6m149,218.2v3.9c-2.1-.2-1.2-2.4-2.4-3.5.7-.1,1.6-.3,2.4-.4m-2.7-4.6c.6,2.3.6,2.3-2.1,2,1-.9,1.5-1.4,2.1-2m10.2,3.2c1.5-.8.2,4.2-2.2,1.6.7-.5,1.5-1,2.2-1.6m5.5-7.3c-.3,1.7-.6,3.4-.9,5-.9-.7-1.8-1.5-2.7-2.2,1.2-1,2.4-1.9,3.6-2.8m117.3,156.1c1.9-1.2,2.3,3.3,2.5,4.2-1.2-.8-5.5-2.4-2.5-4.2m-384.4-340.8a136.379,136.379,0,0,0-9.5,14.3c-1.5,2.8-2.7,6.9-5.4,8.7-2.5,1.7-6.6,1.9-9.4,2.6-5.6,1.4-11.1,3-16.6,4.9-18.6,6.5-36.2,17.6-49.2,32.5a71.668,71.668,0,0,0-14.5,24.5c-3.4,10.4-2.2,21.4-3.5,32.1-.3,2.6-.8,11.8-3.9,12.9-3.7,1.4-4.8-7.6-5.3-10-.6-3-2.1-23.4-8-21.5-3.6,1.1-3.6,13-3.8,15.9a157.669,157.669,0,0,1-2.5,19.2c-1,4.9-2.2,9.9-3.4,14.8-1,4.3-2.2,9.5-5.4,12.7-2.4-13.1-2.8-27.8,1.7-40.6,1.2-3.5,8.9-21.3,2.1-23-4.1-1-7.3,8.7-8.4,11.3-3.7,8.6-6.6,17.5-9.8,26.3-2.1,5.8-4.2,16.2-9.3,20.2-1.9-14.5,2.1-28.9,6.9-42.5.9-2.4,11.5-26.5,2.3-23.9-5,1.4-8.6,12.2-10.7,16.4-5.1,10.2-11.3,20.8-19.8,28.5-.4-8.1,4.8-16.6,6.7-24.4a90.391,90.391,0,0,1,9.8-25.1c8.7-14.7,20.1-28.5,31.4-41.3a217.915,217.915,0,0,1,39.3-35,130.205,130.205,0,0,1,46.9-20.4c19.2-4.4,40.1-7,59.3-1.3-2.7,3.7-5.3,7.4-8,11.2m317.7,19.1c-.3.1-.6.1-.9.2-.3-1.5-.5-3-.8-4.5,1.9,1.1.3,3.1,1.7,4.3m-80.4-13a375.374,375.374,0,0,1,70.9-22.7c16.5-3.6,35.1-5.4,51.2.9,18.5,7.3,26.2,27,27,45.7.9,21.9-6.5,42.6-17.2,61.4-2.6,4.5-16.3,31.7-22.1,28.7,2-5.3,15.6-35.4,6.6-38.1-5.2-1.5-9.2,13.3-11,16.6-1.2,2.3-9.5,18.1-12.3,16.7,2.6-8.4,5.8-17.1,5.6-26.1-.2-6.8-3.7-10-7.5-2.9-8.1,15.3-16.7,31-28.6,43.8-1.1-9.5,4-20,7-28.7,2.4-6.9,5.7-13.7,6.4-21.1.4-4,.3-11.8-5.6-10.4-5.2,1.2-9.3,7.1-13.4,10.2,3.1-5.8,6.1-11.7,9.6-17.3,3-4.8,6.7-9.1,9.7-13.9a33.22,33.22,0,0,0,2.9-6.4c.8-2.2,2.1-3.5,3.5-5.5a11.591,11.591,0,0,0,2-4.4c.1-.6-.3-1.5-.2-2.2.1-1.2,1.4-1.6,1-3,2.3,3.1,1.6-3,1.6-4.2-.1-4,1.5-8.4-.5-12.1-4.2-7.9-16.6-6.3-23.9-5.8-10.5.8-23.6,3.2-32.6,8.9-2.3,1.5-3.7.6-6.2,1.7-2.3,1-4.6,2.1-6.9,3.1-6.1,2.6-11.9,5.8-17.9,8.5.3-4.5,1.3-8.9.6-13.4-.4-1.8-2.3-6.8.3-8m159.7,348.4c-2-13.3-4.2-26.5-7.8-39.4-1.7-6.2-3-12.5-4.8-18.7-1.4-4.9-5.7-7.4-7.9-12-5-10.7-9.6-21.4-15.7-31.7a138.323,138.323,0,0,0-22.8-28.9c-18.2-17.5-39.2-30.9-59.5-45.7a203.154,203.154,0,0,0-32.9-19.7,101.7,101.7,0,0,0-14.2-5.5c-5.1-1.5-7.7-3.3-9.6-8.4-3.9-10.6-11.3-14.1-21.3-18.1-4.5-1.8-8.7-4.4-13.1-6.3-4.6-2-9.6-3.6-13.9-6.3-19.7-12.3,6.6-37.8,17-47,4.1-3.6,8.7-7.3,13.9-9a87.81,87.81,0,0,1,18.4-3.4c3.9-.3,9.3,1.5,12.5-1.6,2.6-2.5,1.6-6.4,1.3-9.6-.9-8.8,6.3-9.5,13.6-11,11.3-2.4,21.9-7.5,33.2-10.1,7.2-1.6,27.3-6.5,27.4,5.7.1,9.3-6.8,18.6-11.2,26.1-3.4,5.9-7,11.6-10.6,17.4-2.7,4.3-5.1,9.1-5.1,14.3,0,4.1,1.7,8.2,6.5,7.6,5.5-.7,9.5-6.1,14.1-8.7.2,5.7-4.1,12-5.7,17.3a159.657,159.657,0,0,0-4.7,19.3c-.7,4.1-2.6,20.1,5.8,18,5.6-1.4,10.5-8.7,13.8-13,3.5-4.5,6.6-9.3,9.7-14,2,5.8-10.2,17.1-4,22.3,6.6,5.6,18-14.2,21.2-17.9.6,4.4-5.7,14.3,1.4,16.3,5,1.4,11.9-5.4,15-8.6,5.8-5.9,6.5-14.2,10.1-21.3,4.1-8.2,9.4-15.6,13.2-23.9,12.1-26.3,18.2-65.3-.8-90.1-12.8-16.8-35.1-19.7-54.8-18.1-22.4,1.8-44.3,8.6-65.3,16.4-14.1,5.2-27.9,11.1-41.7,17.1-10.2,4.4-20.3,9-30.3,13.6-4.9,2.2-9.6,4.6-14.4,7.1-3.9,2.1-8.6,4.5-13.1,3.3,3.3-5,9.8-6.6,14.5-9.8,5.6-3.8,8.7-10.2,10.7-16.5,2.2-6.7,4.1-8.3,10.9-10.1a78.388,78.388,0,0,0,19.1-8.1c14.1-8.2,29.8-12.9,45.8-15.4,14.2-2.3,29.3-3.3,42.5-9.3,9.9-4.5,22.3-14.4,10.3-24.4,8.5-6.2,23.6-16.5,10.4-26.7-10.3-7.9-25.7-7.2-38-7.2,1.8-3.6,7.4-4.8,10.6-6.7,3.9-2.4,8.7-5,10.1-9.7,2.2-7.7-6.2-9.9-12-10.7-22.2-2.9-47.2-.7-68.2,7,1.1-3.9,6.6-6.7,9.6-8.8,4.1-2.8,8.1-5.8,11.1-9.8a15.275,15.275,0,0,0,3.1-7c.3-2.8,0-1.6-.8-2.4a19.863,19.863,0,0,0-11.9-4.7c-12.3-.5-23.3,5.3-35,8.1-5.2,1.3-10,1.8-15,4-6,2.7-12.1,5.1-18.1,7.9-2.7,1.3-5.3,2.9-8.1,4.1-2.5,1.1-3.1,2.5-5.1,4.3-1.9,1.6-3.9.8-6,2-2.9,1.6-5.7,4.5-8.4,6.5a161.912,161.912,0,0,0-28.9,27.2c-14.5,17.6-28.8,44.9-19,68.1,2.3,5.4,7.7,7.1,9.1,13,1.2,5.2,1.4,10.3,2.9,15.4,1.5,5.2-4.6,10-7.3,14.2-4.1,6.6-5.9,14-8.2,21.3-.7-2-1-5.3-3-6.4-2.5-1.4-2.5,1.5-4.3.2-2.1-1.6-3.8-7.6-5-10-1.6-3.2-3.3-6.4-5.1-9.5-7.6-12.6-19.2-22.3-31.8-29.6-25.8-14.8-56.9-16.4-85.6-11-28.9,5.4-54,19.8-76.3,38.5a217.337,217.337,0,0,0-33.1,34.7c-9.6,12.6-19.6,24.9-26.7,39.2a124.809,124.809,0,0,0-9.8,25c-1.7,6.8-3.4,14.9-1.2,21.8,1.9,5.9,7.3,9,12.8,5.2,4.8-3.3,7-9.4,10.3-14,.7,7.7-8.7,35.9,4.9,37.2,10,1,13.7-22.1,15.8-28.8,1.4,9-1.3,18.7,2.1,27.4,1.6,4.2,6.8,11.9,11.1,5.8,1.9-2.7,2.1-6.6,2.8-9.7.9-4,2-7.9,2.8-11.9,2.2-10,3.4-20.2,5.1-30.3,2.8,6.6,2.3,18.5,9.3,22.6,7.1,4.1,10.3-7.7,11.1-12.5,1.4-8,.7-16.3,1.9-24.3a57.065,57.065,0,0,1,8.5-22.5c15.7-24.8,45-43.5,74.6-44.8-1.6,6.1-10.7,21.9,1.2,22.2,2.7.1,5.1-.4,7.8-.1,3.3.4,7.3,2.1,10.6,1.8,2-.1,1.9-1,4,.2,2.2,1.3,2.5,3.1,4.8.2,1.8,3.3,6,4.2,9.1,5.7,0-.9.1-1.7.1-2.6,2,2.8,4.1,3.3,7.1,4.7,1.9.9,3.3.6,5,1.1,2.1.5,3.1,1.7,5,2.8,2,1.2,5.6,1,7.2,2.8,2.8,3.2-1.5,8.7-3.1,11.4-4.4,7.8-7.2,16.7-9.1,25.4a15.393,15.393,0,0,0-.6,6c.3,1.9.9.5.5,2.4-.1.7-1.4,2.1-1.6,2.5-1.9,4.1-1.6,9.4-1.7,13.8a104.028,104.028,0,0,0,3.9,30.4c1.2,4.4,2.3,9,3.9,13.3,1.5,4,3.7,6.4,2.9,10.8-1.7,9.3,8,11.8,13.3,17.6,2.4,2.6,2.8,6,3.4,9.4a56.261,56.261,0,0,0,4.4,13.9c3.5,7.9,8.2,18.3,14.8,24.1,2.9,2.6,5.6,5.5,9,7.5,1.6.9,3.5,3.2,5.3,3.6,1.6.4,1.1-1.3,2.9.1,1.4,1.1,1.3,2.8,3.2,4,1.8,1.2,3.8,2.2,5.7,3.3,3.9,2.1,8.1,4.1,11.7,6.8,3.4,2.6,6.9,5.3,10.3,8a17.113,17.113,0,0,1,6.5,9.3c4.5,17.2-11.3,31.7-24.9,38.9-17.5,9.3-37.4,7.3-55.4.6-18.7-7-37.1-19.9-48.2-36.7a96.7,96.7,0,0,1-7.7-13.2c-1.4-3-1.8-6.7-3.6-9.4-4.2-6.2-13.1,2.7-17.4,5-6.4-26.9-18.6-57.3-47-67-27-9.1-60.7,1.7-78.2,24-4.1,5.2-10,13.7-7.3,20.7,2.4,6.1,10.4,7.5,16.1,8.1a66.5,66.5,0,0,0,24.7-2.4c2-.6,5.5-2.2,7.7-1.6,3.3,1,3.2,5.8,4.9,8.4s4.2,2.3,4.8-1c.6-3.1-2.3-6.1.1-8.9,1.4-1.6,6-2.8,7.9-1.6,1.6,1,1.7,4.2,3,5.7,3.5,4,3.9-2.5,4.6-5.3,1.1-4.1,5.8-7.4,10.4-5.5,2.9,1.2,3.6,5.6,4.3,8.2,1.5,5.4,2.6,10.7,4.6,16,1.6,4,8.2,15.3,5,19.2-2,2.4-6.9,3.8-9.8,4.7-4,1.3-8.7,2.1-12.4,4.1-1.7,1-5.5,3.6-6,5.6-.9,3.4,3.2,3.5,5.1,1.8,6,17.8,13.1,35.3,24.1,50.7s25.4,28.2,40.5,39.4c29.6,22,64.4,36.7,101.2,40.2,18.8,1.8,38.3.2,56.2-6.3a34.119,34.119,0,0,1,6.2-1.9c1.9-.3,3.9.4,5.8,0,2.4-.4,1.8-1.3,3.3-2.6,1.4-1.2,3.6-1.6,5.2-2.6,7.8-5.1,14.9-12.4,21.1-19.4,11.5-13.2,22.9-29.7,28.3-46.5,5.4-16.9,5.7-34.8,7.3-52.3,1-10.8-2.2-20.9-4-31.5-1.8-10.8-3.9-21.5-6.5-32.2-1-4.2-1-7.3,2.3-10.4,2.6-2.4,5.8-4.3,9.2-2.6,3.6,1.7,6.8,5.4,10.1,7.8,3.4,2.4,5,5.6,8.3,1.6,0,3.5,1.7,4.5,4.6,5.6a60.336,60.336,0,0,1,11.1,5.5c7.6,5,13.4,12.6,17.7,20.6,4.6,8.5,9.9,17.2,13.1,26.3,3.5,10,3.9,21.2,4.3,31.6.4,10.9.5,21.9-.1,32.9-.6,10.3-1.2,21.9-4.2,31.9-3.4,10.9-14.2,23.4.5,30.7,10.3,5.1,22.8,3.9,33,9.2-1.3,2.1-2.2,4.5-3.6,6.5-1.8,2.6-3.4,2.5-6.2,3.6-5.1,1.9-2.6,4.9-3.1,9-.5,3.6-5.2,7.6-7.5,10.3-3.4,3.9-7,7.9-9.7,12.3-6,9.7-6,20.2-.5,30.1,4.8,8.7,11.7,18.6,20.2,24a194.505,194.505,0,0,0,30.3,15.1,112.2,112.2,0,0,0,28.6,7.2c7.3.9,17.4,1.7,23.3-3.8,5.4-5.1,6.6-13.1,4.1-19.8-5.9-15.8-23.9-25.2-37.1-34.2,4.2-1.5,9.6-1.9,12.9-5.3,4-4.1.3-7.7-4.3-7.6-4,0-8.1,1.4-11.9,2.5-3.4,1-9.6,3.9-13.1,1.8-4.6-2.8.4-5.5,2.9-6.8,4.6-2.3,4.4-5.3-.1-7.7-7.2-3.9,3.1-4.1,4.2-7.6,1.4-4.5-4.3-8.8-3.9-13.7.4-4.7,1.8-12.8,5.5-16.2,2.5-2.3,6.8-2.1,10-2.6a97.258,97.258,0,0,0,15-3.9c1.5,8.8,8.5.9,11.2-2.6,5.2-6.6,7.3-14.6,10.1-22.4a163.664,163.664,0,0,0,7.3-26.6c1.6-10.4.7-20-.8-30" fill-rule="evenodd"/><path id="ink-shape-2" data-name="ink-shape" d="M244.745,617.776c-1.4,1.6-8.3-.6-10.1-.9-5.6-.7-10.8-.5-16.3-1.9-4.2-1.1-10.4-3.4-14.5-2.8-.3.1.1,1.2-.5,1.2-.8,0-1.2-.6-1.9-.9-1.8-.7-3.2-2.3-5.1-.9-.9-4.3-2.5-.5-4.6-.6-2.3,0-1.4-2.7-3.8-3.1-1.9-.3-2.7.9-4.7.1-2.9-1.1-4.9-2.7-8.1-3.5a48.822,48.822,0,0,1-9.2-3.6c-2.9-1.3-6.1-1.7-9-2.9a237.3,237.3,0,0,1-22.1-10.8c-13.6-7.4-27.1-14.3-39.3-24-4.5-3.5-7.6-7.4-11.2-11.8-2.4-3-6.6-8.7-11.1-7.8,1.1-2.9-1.8-5.5-3.6-7.3a66.465,66.465,0,0,1-7.7-9,42.375,42.375,0,0,1-5.2-9.6c-1-2.6-1.7-5.3-4.6-2.6-5.7,5.3,1.6,15.6,4.8,20.2,5.2,7.6,10.5,15.4,16.7,22.3,11.6,12.8,24.9,24.4,39.9,33.2a163.551,163.551,0,0,0,24.2,11.7c7.5,2.8,14.9,4.3,22.5,6.3,4.6,1.2,8.9,2.8,13.6,3.6a50.675,50.675,0,0,0,5.4.9c.5,0,1.3-.6,1.6-.6.7.1,1.3.7,2.4,1a28.093,28.093,0,0,1,3.5.6,12.515,12.515,0,0,0,2.5,1.8,7.259,7.259,0,0,0,4.8.4c1.5-.5,2.7-2,4.4-1.9-.2,1-.5,2-.7,3,1.7-.7,2.5-.1,4.1-.4-.3.1,3.3-.8,2.9-.9.2.1,1.2,1.8,2.1,2.2,3.7,1.7,8.2.4,12.1.7,4,.3,7.9.9,11.9,1.2,3,.2,16.9,2,17.2-3.1a28.814,28.814,0,0,0-3.3.5" fill-rule="evenodd"/><path id="ink-shape-3" data-name="ink-shape" d="M619.645,151.676c1.1-9.8-2.1-18-4.7-27.3-2.1-7.6-4.7-15.1-10-21.2-4.8-5.5-12.1-12.6-19.8-12.9-6-.3-10.2,4.4-4.9,8.8s10,7.2,14.2,12.9a85,85,0,0,1,11.1,21.6c4.9,13.9,7.7,30.4,3,44.7-.5,1.4-2.3,5.5-.5,6.6,2.1,1.3,3.7-1.8,4.2-3.2.5-1.2,2.9-13,5-11.5-.1-1.6-.8-2.4-.7-4,.1-.9.9-2.2.9-3.4.5-3.9,1.8-7.3,2.2-11.1" fill-rule="evenodd"/><path id="ink-shape-4" data-name="ink-shape" d="M256.145,100.176c6.3.1,6.6-14.1,8.5-18,.9-1.8,1.9-4,2.9-5.7.8-1.3,1.8-1.5,2.4-2.6,1.9-3.5.6-6.2-.3-9.6,2.3-.4,3.1-.4,3.9-2.7.2-.7-.3-1.9.1-2.4.7-.7,1.8-.3,2.5-.9.2-.2.1-1.6.3-2.2a7.124,7.124,0,0,1,1.8-2.7c1.3-1.3,4.7-2,3.5-4.3a5.025,5.025,0,0,0,2.4-.6c.2-1.1-2.1-.7-1.9-1.4a6.713,6.713,0,0,1,3.9-3.5c-1.2-.6-2.3-1.2-3.5-1.8,2.9-.6,2.9-2.4,5.8-.4-.3-2.8,3.4-5.3,5.1-7.1,3.1-3.3,6.5-6.2,9.9-9.2,3-2.6,5.7-5.4,8.4-8.2a35.3,35.3,0,0,1,4.5-4.1c1.7-1.2,2.9-1,4.5-1.8,2.4-1.3,3.9-4.1,6.3-5.4,1.1-.6,1.6.1,2.4-.7.7-.7,1.4-3.1,1-4-1.8-3.9-15.1,6.4-17.2,7.8-25.3,16.3-45.6,38.7-56.7,66.8-1.2,4-9.7,24.5-.5,24.7" fill-rule="evenodd"/><path id="ink-shape-5" data-name="ink-shape" d="M248.945,620.176c1.7-.4,3.5-.8,6-1.3-4.6-2.5-4.9-2.3-6,1.3" fill-rule="evenodd"/><path id="ink-shape-6" data-name="ink-shape" d="M338.145,170.176c3.4-.3,10.8-3.8,9.7-8.6-1-4.4-5,.3-7.8-.2-2.9-.5-4.3-6.8-6.7-.4-1.3,3.5.6,9.6,4.8,9.2" fill-rule="evenodd"/></g></g></svg>